<svg xmlns="http://www.w3.org/2000/svg" viewBox="0 0 136.05 55.82"><defs><style>.fad08cb7-30f9-495c-93f0-731c07494c27{fill:#231f20;}.b990d9ab-b167-440c-a66f-913db1aa9ff4{fill:#f03c46;}.bccd5763-e929-4fa5-93af-86d7e4dce92d{fill:#fff;}</style></defs><g id="eb4f2b96-64a0-4424-bdf0-49f905bec60a" data-name="Capa 2"><g id="f5b0e87c-963e-46bd-8c77-902dc4730a4a" data-name="Layer 1"><path class="fad08cb7-30f9-495c-93f0-731c07494c27" d="M1,9V0H7.52V1.06H2.19V3.83h5V4.89h-5V8H7.73V9Z"/><path class="fad08cb7-30f9-495c-93f0-731c07494c27" d="M11.05,9,8.57,2.49H9.74l1.4,3.91q.22.63.42,1.32c.1-.35.24-.76.41-1.24l1.45-4h1.14L12.09,9Z"/><path class="fad08cb7-30f9-495c-93f0-731c07494c27" d="M20,6.92l1.14.14a2.78,2.78,0,0,1-1,1.56,3,3,0,0,1-1.87.55A3,3,0,0,1,16,8.29a3.46,3.46,0,0,1-.84-2.48A3.64,3.64,0,0,1,16,3.25a2.87,2.87,0,0,1,2.2-.91,2.83,2.83,0,0,1,2.15.89,3.57,3.57,0,0,1,.83,2.51c0,.07,0,.17,0,.3H16.32a2.48,2.48,0,0,0,.61,1.65,1.8,1.8,0,0,0,1.36.57,1.69,1.69,0,0,0,1-.32A2.09,2.09,0,0,0,20,6.92ZM16.38,5.13H20a2.24,2.24,0,0,0-.42-1.24,1.68,1.68,0,0,0-1.37-.64A1.78,1.78,0,0,0,17,3.76,2.07,2.07,0,0,0,16.38,5.13Z"/><path class="fad08cb7-30f9-495c-93f0-731c07494c27" d="M22.55,9V2.49h1v.93a2.34,2.34,0,0,1,2.08-1.08,2.79,2.79,0,0,1,1.09.21,1.73,1.73,0,0,1,.74.56,2.09,2.09,0,0,1,.34.82A6.38,6.38,0,0,1,27.86,5V9h-1.1v-4a3.23,3.23,0,0,0-.13-1,1.07,1.07,0,0,0-.46-.53,1.5,1.5,0,0,0-.77-.2,1.81,1.81,0,0,0-1.23.45,2.23,2.23,0,0,0-.51,1.7V9Z"/><path class="fad08cb7-30f9-495c-93f0-731c07494c27" d="M32,8l.16,1a3.82,3.82,0,0,1-.84.1,1.84,1.84,0,0,1-.93-.19,1.13,1.13,0,0,1-.47-.5,4.07,4.07,0,0,1-.13-1.31V3.35H29V2.49h.82V.87L30.87.2V2.49H32v.86H30.87V7.17a1.87,1.87,0,0,0,.06.61.44.44,0,0,0,.19.22.77.77,0,0,0,.38.08A3.55,3.55,0,0,0,32,8Z"/><path class="fad08cb7-30f9-495c-93f0-731c07494c27" d="M32.65,5.75a3.35,3.35,0,0,1,1-2.68,3,3,0,0,1,2.06-.73,2.92,2.92,0,0,1,2.2.88,3.36,3.36,0,0,1,.86,2.44,4.37,4.37,0,0,1-.38,2,2.7,2.7,0,0,1-1.1,1.12,3.2,3.2,0,0,1-1.58.4,2.92,2.92,0,0,1-2.22-.88A3.5,3.5,0,0,1,32.65,5.75Zm1.14,0a2.79,2.79,0,0,0,.55,1.89,1.82,1.82,0,0,0,2.75,0,2.81,2.81,0,0,0,.55-1.91,2.75,2.75,0,0,0-.55-1.84,1.75,1.75,0,0,0-1.37-.62,1.73,1.73,0,0,0-1.38.62A2.73,2.73,0,0,0,33.79,5.75Z"/><path class="fad08cb7-30f9-495c-93f0-731c07494c27" d="M43.17,5.75a3.35,3.35,0,0,1,1-2.68,3,3,0,0,1,2.06-.73,2.92,2.92,0,0,1,2.2.88,3.36,3.36,0,0,1,.86,2.44,4.37,4.37,0,0,1-.38,2,2.7,2.7,0,0,1-1.1,1.12,3.17,3.17,0,0,1-1.58.4A3,3,0,0,1,44,8.29,3.54,3.54,0,0,1,43.17,5.75Zm1.13,0a2.84,2.84,0,0,0,.55,1.89,1.79,1.79,0,0,0,1.38.62,1.73,1.73,0,0,0,1.37-.63,2.81,2.81,0,0,0,.55-1.91,2.7,2.7,0,0,0-.55-1.84,1.74,1.74,0,0,0-1.37-.62,1.76,1.76,0,0,0-1.38.62A2.78,2.78,0,0,0,44.3,5.75Z"/><path class="fad08cb7-30f9-495c-93f0-731c07494c27" d="M50.58,9V2.49h1v1a2.69,2.69,0,0,1,.71-.92A1.19,1.19,0,0,1,53,2.34a2.17,2.17,0,0,1,1.14.36l-.38,1a1.58,1.58,0,0,0-.82-.24,1.08,1.08,0,0,0-.65.22,1.21,1.21,0,0,0-.41.61,4.37,4.37,0,0,0-.19,1.29V9Z"/><path class="fad08cb7-30f9-495c-93f0-731c07494c27" d="M54.58,9.57l1.08.16a1,1,0,0,0,.38.72,1.8,1.8,0,0,0,1.12.31,2,2,0,0,0,1.19-.31,1.5,1.5,0,0,0,.57-.86A8.15,8.15,0,0,0,59,8.17,2.29,2.29,0,0,1,57.19,9a2.46,2.46,0,0,1-2.09-1,3.77,3.77,0,0,1-.74-2.33A4.27,4.27,0,0,1,54.7,4a2.72,2.72,0,0,1,1-1.22,2.63,2.63,0,0,1,1.51-.43,2.35,2.35,0,0,1,1.91.93V2.49h1V8.14a5.3,5.3,0,0,1-.31,2.16,2.27,2.27,0,0,1-1,1,3.51,3.51,0,0,1-1.66.37,3.13,3.13,0,0,1-1.89-.53A1.79,1.79,0,0,1,54.58,9.57Zm.92-3.93A2.85,2.85,0,0,0,56,7.52a1.68,1.68,0,0,0,2.56,0,2.73,2.73,0,0,0,.52-1.85,2.69,2.69,0,0,0-.53-1.8,1.66,1.66,0,0,0-1.29-.61,1.59,1.59,0,0,0-1.25.6A2.63,2.63,0,0,0,55.5,5.64Z"/><path class="fad08cb7-30f9-495c-93f0-731c07494c27" d="M66.06,8.22A4.22,4.22,0,0,1,64.88,9a3.51,3.51,0,0,1-1.22.21A2.35,2.35,0,0,1,62,8.64a1.71,1.71,0,0,1-.58-1.34,1.77,1.77,0,0,1,.22-.88,1.93,1.93,0,0,1,.57-.63,2.67,2.67,0,0,1,.8-.37,9,9,0,0,1,1-.16,11,11,0,0,0,2-.38c0-.16,0-.25,0-.29a1.23,1.23,0,0,0-.32-1,1.84,1.84,0,0,0-1.26-.37,2,2,0,0,0-1.15.27,1.62,1.62,0,0,0-.55,1l-1.09-.15a2.63,2.63,0,0,1,.49-1.12,2,2,0,0,1,1-.66,4.42,4.42,0,0,1,1.48-.23,3.72,3.72,0,0,1,1.36.2,1.74,1.74,0,0,1,.77.49,1.85,1.85,0,0,1,.35.76,7.21,7.21,0,0,1,0,1V6.28a15.25,15.25,0,0,0,.07,2,2.52,2.52,0,0,0,.28.78H66.28A2.41,2.41,0,0,1,66.06,8.22ZM66,5.74a7.58,7.58,0,0,1-1.81.42,4.74,4.74,0,0,0-1,.22.9.9,0,0,0-.43.36.92.92,0,0,0-.16.53.94.94,0,0,0,.34.74,1.42,1.42,0,0,0,1,.29A2.24,2.24,0,0,0,65.06,8a1.67,1.67,0,0,0,.73-.76A2.66,2.66,0,0,0,66,6.15Z"/><path class="fad08cb7-30f9-495c-93f0-731c07494c27" d="M68.81,9V2.49h1v.93a2.37,2.37,0,0,1,2.08-1.08A2.75,2.75,0,0,1,73,2.55a1.67,1.67,0,0,1,.74.56,2.1,2.1,0,0,1,.35.82A6.38,6.38,0,0,1,74.12,5V9H73v-4a3,3,0,0,0-.13-1,1,1,0,0,0-.46-.53,1.47,1.47,0,0,0-.77-.2,1.79,1.79,0,0,0-1.22.45,2.23,2.23,0,0,0-.51,1.7V9Z"/><path class="fad08cb7-30f9-495c-93f0-731c07494c27" d="M75.82,1.27V0h1.11V1.27Zm0,7.75V2.49h1.11V9Z"/><path class="fad08cb7-30f9-495c-93f0-731c07494c27" d="M78,9v-.9L82.2,3.35c-.48,0-.89,0-1.25,0H78.28v-.9h5.34v.73L80.08,7.37l-.68.75c.5,0,1,0,1.4,0h3V9Z"/><path class="fad08cb7-30f9-495c-93f0-731c07494c27" d="M89.19,8.22A4.26,4.26,0,0,1,88,9a3.47,3.47,0,0,1-1.22.21,2.31,2.31,0,0,1-1.65-.53,1.71,1.71,0,0,1-.58-1.34,1.87,1.87,0,0,1,.21-.88,1.85,1.85,0,0,1,.58-.63,2.61,2.61,0,0,1,.79-.37,9.31,9.31,0,0,1,1-.16,11,11,0,0,0,2-.38c0-.16,0-.25,0-.29a1.23,1.23,0,0,0-.31-1,1.88,1.88,0,0,0-1.26-.37,2,2,0,0,0-1.16.27,1.67,1.67,0,0,0-.55,1l-1.08-.15a2.75,2.75,0,0,1,.48-1.12,2.13,2.13,0,0,1,1-.66,4.48,4.48,0,0,1,1.49-.23,3.75,3.75,0,0,1,1.36.2,1.86,1.86,0,0,1,.77.49,1.84,1.84,0,0,1,.34.76,5.92,5.92,0,0,1,0,1V6.28a14.53,14.53,0,0,0,.08,2,2.29,2.29,0,0,0,.28.78H89.41A2.19,2.19,0,0,1,89.19,8.22Zm-.1-2.48a7.48,7.48,0,0,1-1.8.42,4.58,4.58,0,0,0-1,.22.93.93,0,0,0-.44.36,1,1,0,0,0-.15.53,1,1,0,0,0,.33.74,1.45,1.45,0,0,0,1,.29A2.23,2.23,0,0,0,88.18,8a1.7,1.7,0,0,0,.74-.76,2.68,2.68,0,0,0,.17-1.11Z"/><path class="fad08cb7-30f9-495c-93f0-731c07494c27" d="M96.17,9V8.2a2,2,0,0,1-1.82,1,2.51,2.51,0,0,1-1.44-.43,2.86,2.86,0,0,1-1-1.2,4.19,4.19,0,0,1-.36-1.78A4.58,4.58,0,0,1,91.86,4a2.57,2.57,0,0,1,1-1.23,2.62,2.62,0,0,1,1.46-.42,2.14,2.14,0,0,1,1,.25,2.06,2.06,0,0,1,.75.65V0h1.1V9Zm-3.5-3.26a2.87,2.87,0,0,0,.53,1.88,1.6,1.6,0,0,0,1.25.62,1.57,1.57,0,0,0,1.23-.59,2.75,2.75,0,0,0,.51-1.82,3.05,3.05,0,0,0-.52-2,1.56,1.56,0,0,0-1.27-.62,1.53,1.53,0,0,0-1.23.6A3,3,0,0,0,92.67,5.76Z"/><path class="fad08cb7-30f9-495c-93f0-731c07494c27" d="M98.53,5.75a3.35,3.35,0,0,1,1-2.68,3,3,0,0,1,2.06-.73,2.92,2.92,0,0,1,2.2.88,3.36,3.36,0,0,1,.86,2.44,4.37,4.37,0,0,1-.38,2,2.72,2.72,0,0,1-1.11,1.12,3.14,3.14,0,0,1-1.57.4,2.92,2.92,0,0,1-2.22-.88A3.5,3.5,0,0,1,98.53,5.75Zm1.14,0a2.79,2.79,0,0,0,.55,1.89,1.82,1.82,0,0,0,2.75,0,2.86,2.86,0,0,0,.55-1.91A2.75,2.75,0,0,0,103,3.88a1.75,1.75,0,0,0-1.37-.62,1.73,1.73,0,0,0-1.38.62A2.73,2.73,0,0,0,99.67,5.75Z"/><path class="fad08cb7-30f9-495c-93f0-731c07494c27" d="M109.46,11.53v-9h1v.85a2.27,2.27,0,0,1,.8-.75,2.2,2.2,0,0,1,1.09-.25,2.57,2.57,0,0,1,1.48.43,2.64,2.64,0,0,1,1,1.22,4.54,4.54,0,0,1,.32,1.72,4.32,4.32,0,0,1-.36,1.8,2.69,2.69,0,0,1-1,1.23,2.66,2.66,0,0,1-1.45.43,2.13,2.13,0,0,1-1-.23,2.52,2.52,0,0,1-.73-.59v3.18Zm1-5.74A2.88,2.88,0,0,0,111,7.66a1.57,1.57,0,0,0,1.24.6,1.61,1.61,0,0,0,1.26-.62A3,3,0,0,0,114,5.7a2.9,2.9,0,0,0-.51-1.87,1.55,1.55,0,0,0-1.23-.62,1.62,1.62,0,0,0-1.26.66A3,3,0,0,0,110.46,5.79Z"/><path class="fad08cb7-30f9-495c-93f0-731c07494c27" d="M116.06,5.75a3.35,3.35,0,0,1,1-2.68,3,3,0,0,1,2.06-.73,2.92,2.92,0,0,1,2.2.88,3.36,3.36,0,0,1,.86,2.44,4.37,4.37,0,0,1-.38,2,2.7,2.7,0,0,1-1.1,1.12,3.17,3.17,0,0,1-1.58.4,3,3,0,0,1-2.22-.88A3.54,3.54,0,0,1,116.06,5.75Zm1.13,0a2.84,2.84,0,0,0,.55,1.89,1.79,1.79,0,0,0,1.38.62,1.73,1.73,0,0,0,1.37-.63A2.81,2.81,0,0,0,121,5.72a2.7,2.7,0,0,0-.55-1.84,1.74,1.74,0,0,0-1.37-.62,1.76,1.76,0,0,0-1.38.62A2.78,2.78,0,0,0,117.19,5.75Z"/><path class="fad08cb7-30f9-495c-93f0-731c07494c27" d="M123.47,9V2.49h1v1a2.69,2.69,0,0,1,.71-.92,1.19,1.19,0,0,1,.71-.22A2.17,2.17,0,0,1,127,2.7l-.38,1a1.61,1.61,0,0,0-.82-.24,1.08,1.08,0,0,0-.65.22,1.21,1.21,0,0,0-.41.61,4.37,4.37,0,0,0-.19,1.29V9Z"/><path class="fad08cb7-30f9-495c-93f0-731c07494c27" d="M128,3.75V2.49h1.27V3.75ZM128,9V7.76h1.27V9Z"/><rect class="b990d9ab-b167-440c-a66f-913db1aa9ff4" y="19.96" width="136.05" height="23.76"/><rect class="bccd5763-e929-4fa5-93af-86d7e4dce92d" x="70.15" y="22.08" width="6.04" height="19.51"/><path class="bccd5763-e929-4fa5-93af-86d7e4dce92d" d="M107.17,34.15l-2.15-7-2.13,7Zm1.25,4.22h-6.84l-1,3.22H94.48l7.33-19.51h6.57l7.33,19.51H109.4Z"/><path class="bccd5763-e929-4fa5-93af-86d7e4dce92d" d="M85.64,30.4h1.48a3.77,3.77,0,0,0,2.45-.61,1.94,1.94,0,0,0,.7-1.55,2.13,2.13,0,0,0-.61-1.55,3.16,3.16,0,0,0-2.3-.64H85.64Zm-6-8.32h10a6.85,6.85,0,0,1,4.9,1.56,5.84,5.84,0,0,1,1.63,4.43,6,6,0,0,1-1.78,4.62q-1.77,1.66-5.42,1.66h-3.3v7.24h-6Z"/><polygon class="bccd5763-e929-4fa5-93af-86d7e4dce92d" points="117.48 22.08 133.92 22.08 133.92 26.25 123.52 26.25 123.52 29.35 132.9 29.35 132.9 33.33 123.52 33.33 123.52 37.17 133.92 37.17 133.92 41.59 117.48 41.59 117.48 22.08"/><path class="b990d9ab-b167-440c-a66f-913db1aa9ff4" d="M.4,55.73,2.6,50h.82l2.35,5.75H4.91L4.24,54H1.84L1.2,55.73Zm1.65-2.36H4l-.6-1.59c-.18-.49-.32-.88-.41-1.2a7.17,7.17,0,0,1-.3,1.1Z"/><path class="b990d9ab-b167-440c-a66f-913db1aa9ff4" d="M10.48,53.71l.76.19a2.58,2.58,0,0,1-.86,1.43,2.37,2.37,0,0,1-1.52.49,2.75,2.75,0,0,1-1.51-.37,2.45,2.45,0,0,1-.89-1.1,4,4,0,0,1-.3-1.54,3.52,3.52,0,0,1,.34-1.57,2.39,2.39,0,0,1,1-1,2.87,2.87,0,0,1,1.39-.35,2.36,2.36,0,0,1,1.45.44,2.27,2.27,0,0,1,.82,1.24l-.75.17a1.7,1.7,0,0,0-.58-.91,1.53,1.53,0,0,0-1-.29,1.89,1.89,0,0,0-1.11.32,1.68,1.68,0,0,0-.63.85,3.49,3.49,0,0,0-.18,1.11,3.61,3.61,0,0,0,.22,1.28,1.57,1.57,0,0,0,.66.81,1.88,1.88,0,0,0,1,.27,1.63,1.63,0,0,0,1.08-.37A1.93,1.93,0,0,0,10.48,53.71Z"/><path class="b990d9ab-b167-440c-a66f-913db1aa9ff4" d="M16.27,53.71l.76.19a2.52,2.52,0,0,1-.86,1.43,2.34,2.34,0,0,1-1.51.49,2.72,2.72,0,0,1-1.51-.37,2.38,2.38,0,0,1-.89-1.1,4,4,0,0,1-.3-1.54,3.39,3.39,0,0,1,.34-1.57,2.37,2.37,0,0,1,1-1,2.91,2.91,0,0,1,1.4-.35,2.38,2.38,0,0,1,1.45.44,2.33,2.33,0,0,1,.82,1.24l-.75.17a1.82,1.82,0,0,0-.58-.91,1.56,1.56,0,0,0-1-.29,1.89,1.89,0,0,0-1.11.32,1.72,1.72,0,0,0-.62.85,3.49,3.49,0,0,0-.18,1.11A3.62,3.62,0,0,0,13,54.09a1.64,1.64,0,0,0,.67.81,1.84,1.84,0,0,0,1,.27,1.59,1.59,0,0,0,1.08-.37A1.82,1.82,0,0,0,16.27,53.71Z"/><path class="b990d9ab-b167-440c-a66f-913db1aa9ff4" d="M18.1,55.73V50h.76v5.75Z"/><path class="b990d9ab-b167-440c-a66f-913db1aa9ff4" d="M20,52.93a3.08,3.08,0,0,1,.77-2.24,2.6,2.6,0,0,1,2-.81,2.75,2.75,0,0,1,1.43.38,2.51,2.51,0,0,1,1,1.06,3.48,3.48,0,0,1,.33,1.54,3.44,3.44,0,0,1-.35,1.56,2.48,2.48,0,0,1-1,1,2.93,2.93,0,0,1-1.39.35,2.69,2.69,0,0,1-1.45-.39,2.51,2.51,0,0,1-1-1.07A3.22,3.22,0,0,1,20,52.93Zm.78,0a2.29,2.29,0,0,0,.56,1.63,1.95,1.95,0,0,0,2.81,0,2.43,2.43,0,0,0,.56-1.71,2.93,2.93,0,0,0-.24-1.23,1.83,1.83,0,0,0-.69-.81,1.93,1.93,0,0,0-1-.29,2,2,0,0,0-1.39.56A2.5,2.5,0,0,0,20.75,52.94Zm1.48-3.31.52-1.1h.93l-.86,1.1Z"/><path class="b990d9ab-b167-440c-a66f-913db1aa9ff4" d="M26.43,55.73V50h.78l3,4.51V50H31v5.75h-.78l-3-4.52v4.52Z"/><path class="b990d9ab-b167-440c-a66f-913db1aa9ff4" d="M34.48,55.73V50h4.15v.68H35.24v1.76h3.18v.67H35.24v2h3.53v.68Z"/><path class="b990d9ab-b167-440c-a66f-913db1aa9ff4" d="M39.79,55.73V50h1.15l1.36,4.07.27.85c.07-.21.17-.52.31-.92l1.37-4h1v5.75h-.74V50.92l-1.67,4.81h-.68l-1.66-4.89v4.89Z"/><path class="b990d9ab-b167-440c-a66f-913db1aa9ff4" d="M46.5,55.73V50h2.17a4.75,4.75,0,0,1,.87.06,1.62,1.62,0,0,1,.71.26,1.42,1.42,0,0,1,.46.56,1.72,1.72,0,0,1,.18.78,1.77,1.77,0,0,1-.47,1.24,2.22,2.22,0,0,1-1.68.51H47.26v2.34Zm.76-3h1.49a1.56,1.56,0,0,0,1-.27,1,1,0,0,0,.31-.77,1.05,1.05,0,0,0-.18-.62.83.83,0,0,0-.48-.34,3.54,3.54,0,0,0-.71-.05H47.26Z"/><path class="b990d9ab-b167-440c-a66f-913db1aa9ff4" d="M51.87,55.73V50h2.54a3.21,3.21,0,0,1,1.17.16,1.25,1.25,0,0,1,.64.54,1.63,1.63,0,0,1,.24.87,1.42,1.42,0,0,1-.4,1,2,2,0,0,1-1.22.53,2,2,0,0,1,.46.29,4.11,4.11,0,0,1,.63.76l1,1.57H56l-.76-1.2a8.94,8.94,0,0,0-.55-.79,2,2,0,0,0-.38-.39,1.32,1.32,0,0,0-.35-.15,2.12,2.12,0,0,0-.42,0h-.88v2.56Zm.76-3.21h1.63a2.53,2.53,0,0,0,.82-.11.86.86,0,0,0,.44-.35.92.92,0,0,0,.15-.51.84.84,0,0,0-.29-.67,1.37,1.37,0,0,0-.94-.26H52.63Z"/><path class="b990d9ab-b167-440c-a66f-913db1aa9ff4" d="M57.67,55.73V50h4.15v.68H58.43v1.76H61.6v.67H58.43v2H62v.68Z"/><path class="b990d9ab-b167-440c-a66f-913db1aa9ff4" d="M62.74,53.88l.72-.06a1.46,1.46,0,0,0,.24.7,1.18,1.18,0,0,0,.58.45,2.23,2.23,0,0,0,.88.17,2,2,0,0,0,.76-.13,1,1,0,0,0,.5-.35.82.82,0,0,0,.16-.49.81.81,0,0,0-.15-.48,1.34,1.34,0,0,0-.52-.34c-.16-.06-.5-.15-1-.28a5,5,0,0,1-1.11-.35,1.66,1.66,0,0,1-.62-.54,1.33,1.33,0,0,1-.2-.71,1.54,1.54,0,0,1,.25-.82,1.49,1.49,0,0,1,.72-.57,2.77,2.77,0,0,1,1.05-.2,2.81,2.81,0,0,1,1.13.21,1.62,1.62,0,0,1,.75.6,1.68,1.68,0,0,1,.28.91l-.73,0a1.17,1.17,0,0,0-.39-.82,1.59,1.59,0,0,0-1-.28,1.61,1.61,0,0,0-1,.26.74.74,0,0,0-.31.61.63.63,0,0,0,.22.5,2.88,2.88,0,0,0,1.14.41,8.08,8.08,0,0,1,1.28.37,1.72,1.72,0,0,1,.74.59,1.38,1.38,0,0,1,.24.81,1.54,1.54,0,0,1-.27.87,1.68,1.68,0,0,1-.75.63,2.65,2.65,0,0,1-1.11.22,3.3,3.3,0,0,1-1.3-.22,1.82,1.82,0,0,1-.83-.69A1.93,1.93,0,0,1,62.74,53.88Z"/><path class="b990d9ab-b167-440c-a66f-913db1aa9ff4" d="M67.72,55.73,69.93,50h.82l2.35,5.75h-.87L71.56,54h-2.4l-.63,1.74Zm1.66-2.36h2l-.6-1.59c-.18-.49-.32-.88-.41-1.2a7.21,7.21,0,0,1-.31,1.1Z"/><path class="b990d9ab-b167-440c-a66f-913db1aa9ff4" d="M73.72,55.73V50h2.54a3.17,3.17,0,0,1,1.17.16,1.25,1.25,0,0,1,.64.54,1.63,1.63,0,0,1,.24.87,1.42,1.42,0,0,1-.4,1,2,2,0,0,1-1.22.53,1.83,1.83,0,0,1,.46.29,4.11,4.11,0,0,1,.63.76l1,1.57h-1l-.76-1.2c-.22-.34-.4-.61-.54-.79a2.35,2.35,0,0,0-.39-.39,1.19,1.19,0,0,0-.35-.15,2,2,0,0,0-.42,0h-.88v2.56Zm.76-3.21h1.63a2.53,2.53,0,0,0,.82-.11.94.94,0,0,0,.6-.86.85.85,0,0,0-.3-.67,1.36,1.36,0,0,0-.93-.26H74.48Z"/><path class="b990d9ab-b167-440c-a66f-913db1aa9ff4" d="M79.63,55.73V50h.76v5.75Z"/><path class="b990d9ab-b167-440c-a66f-913db1aa9ff4" d="M81.1,55.73,83.31,50h.81l2.36,5.75h-.87L84.94,54h-2.4l-.63,1.74Zm1.66-2.36H84.7l-.59-1.59c-.19-.49-.32-.88-.41-1.2a8.57,8.57,0,0,1-.31,1.1Z"/><path class="b990d9ab-b167-440c-a66f-913db1aa9ff4" d="M87.05,55.73V50h.76v5.07h2.83v.68Z"/></g></g></svg>