<svg xmlns="http://www.w3.org/2000/svg" viewBox="0 0 108.29 30.16"><defs><style>.a5a415bd-68c2-4633-b03e-5a24ee637005{fill:#2d3c96;}.a0b32f1f-729f-4655-9833-2df60fc381fb{fill:#fff;}</style></defs><g id="aaab5eae-cee8-4425-bb57-d732767da403" data-name="Capa 2"><g id="a4905fc4-a88d-401d-a8e7-ec0b1238f082" data-name="Layer 1"><rect class="a5a415bd-68c2-4633-b03e-5a24ee637005" width="108.29" height="19.16"/><path class="a0b32f1f-729f-4655-9833-2df60fc381fb" d="M53.58,11l4.28,1.29a8,8,0,0,1-1.36,3,5.92,5.92,0,0,1-2.3,1.82,8.6,8.6,0,0,1-3.49.61A10.14,10.14,0,0,1,46.5,17a6.58,6.58,0,0,1-2.82-2.63A8.9,8.9,0,0,1,42.5,9.54a8.18,8.18,0,0,1,2.08-6,8,8,0,0,1,5.9-2.1,8,8,0,0,1,4.69,1.2,7.14,7.14,0,0,1,2.54,3.71l-4.31,1a3.47,3.47,0,0,0-.48-1,2.75,2.75,0,0,0-1-.86,3.08,3.08,0,0,0-3.86,1,5.63,5.63,0,0,0-.67,3.11,5.85,5.85,0,0,0,.8,3.6,3.14,3.14,0,0,0,4.35.18,4.75,4.75,0,0,0,1-2.28"/><path class="a0b32f1f-729f-4655-9833-2df60fc381fb" d="M69.45,14.87H63.91l-.77,2.6h-5L64.09,1.68h5.32l5.94,15.79H70.24Zm-1-3.42L66.69,5.78,65,11.45Z"/><path class="a0b32f1f-729f-4655-9833-2df60fc381fb" d="M76.76,1.69H84a8.63,8.63,0,0,1,3.46.58,5.48,5.48,0,0,1,2.18,1.67A6.75,6.75,0,0,1,90.9,6.47a11.64,11.64,0,0,1,.39,3.05,10.5,10.5,0,0,1-.58,3.93,6.38,6.38,0,0,1-1.6,2.34A5.19,5.19,0,0,1,86.92,17a11.2,11.2,0,0,1-2.91.43H76.76Zm4.88,3.57v8.63h1.2A5.09,5.09,0,0,0,85,13.55a2.29,2.29,0,0,0,1-1.19,7.26,7.26,0,0,0,.37-2.74,5.27,5.27,0,0,0-.82-3.43,3.44,3.44,0,0,0-2.71-.93Z"/><polygon class="a0b32f1f-729f-4655-9833-2df60fc381fb" points="93.29 1.69 106.6 1.69 106.6 5.05 98.18 5.05 98.18 7.57 105.77 7.57 105.77 10.79 98.18 10.79 98.18 13.9 106.6 13.9 106.6 17.47 93.29 17.47 93.29 1.69"/><polygon class="a5a415bd-68c2-4633-b03e-5a24ee637005" points="32.41 22.53 38.62 22.53 38.62 24.13 34.73 24.13 34.73 25.32 38.34 25.32 38.34 26.85 34.73 26.85 34.73 28.33 38.73 28.33 38.73 30.03 32.41 30.03 32.41 22.53"/><path class="a5a415bd-68c2-4633-b03e-5a24ee637005" d="M43.21,22.53h2.33v4.08a6.46,6.46,0,0,1-.23,1.95,2.23,2.23,0,0,1-.92,1.14,3.07,3.07,0,0,1-1.76.46,4,4,0,0,1-1.76-.31,2.2,2.2,0,0,1-1-.89,3.53,3.53,0,0,1-.4-1.47l2.22-.3a2.66,2.66,0,0,0,.08.74.85.85,0,0,0,.28.39.69.69,0,0,0,.38.1.63.63,0,0,0,.57-.29,2,2,0,0,0,.18-1Z"/><polygon class="a5a415bd-68c2-4633-b03e-5a24ee637005" points="47.08 22.53 53.3 22.53 53.3 24.13 49.4 24.13 49.4 25.32 53.01 25.32 53.01 26.85 49.4 26.85 49.4 28.33 53.41 28.33 53.41 30.03 47.08 30.03 47.08 22.53"/><path class="a5a415bd-68c2-4633-b03e-5a24ee637005" d="M59.75,27l2,.62A3.76,3.76,0,0,1,61.14,29a2.8,2.8,0,0,1-1.1.86,4.12,4.12,0,0,1-1.66.29,5,5,0,0,1-2-.35A3.3,3.3,0,0,1,55,28.56a4.33,4.33,0,0,1-.56-2.3,3.9,3.9,0,0,1,1-2.86,3.77,3.77,0,0,1,2.81-1,3.86,3.86,0,0,1,2.23.57,3.35,3.35,0,0,1,1.2,1.76l-2.05.46a1.59,1.59,0,0,0-.22-.5,1.26,1.26,0,0,0-.48-.41,1.33,1.33,0,0,0-.63-.15,1.38,1.38,0,0,0-1.21.64,2.72,2.72,0,0,0-.31,1.48A2.84,2.84,0,0,0,57.18,28a1.52,1.52,0,0,0,2.08.09A2.35,2.35,0,0,0,59.75,27"/><path class="a5a415bd-68c2-4633-b03e-5a24ee637005" d="M67.79,22.53h2.32V27a3.79,3.79,0,0,1-.21,1.26,2.73,2.73,0,0,1-.65,1,2.57,2.57,0,0,1-.93.62,4.6,4.6,0,0,1-1.62.25,10.49,10.49,0,0,1-1.2-.07,3.37,3.37,0,0,1-1.08-.31,2.7,2.7,0,0,1-.8-.65,2.35,2.35,0,0,1-.49-.86A4.64,4.64,0,0,1,62.91,27V22.53h2.32v4.58a1.3,1.3,0,0,0,.34,1,1.26,1.26,0,0,0,.94.34,1.25,1.25,0,0,0,.94-.34,1.3,1.3,0,0,0,.34-1Z"/><polygon class="a5a415bd-68c2-4633-b03e-5a24ee637005" points="71.32 22.53 78.37 22.53 78.37 24.38 76 24.38 76 30.03 73.68 30.03 73.68 24.38 71.32 24.38 71.32 22.53"/><rect class="a5a415bd-68c2-4633-b03e-5a24ee637005" x="79.61" y="22.53" width="2.32" height="7.51"/><polygon class="a5a415bd-68c2-4633-b03e-5a24ee637005" points="82.71 22.53 85.14 22.53 86.83 27.93 88.49 22.53 90.85 22.53 88.06 30.03 85.55 30.03 82.71 22.53"/><path class="a5a415bd-68c2-4633-b03e-5a24ee637005" d="M93.49,26.3a2.53,2.53,0,0,0,.42,1.63,1.43,1.43,0,0,0,1.15.5,1.46,1.46,0,0,0,1.16-.49,2.8,2.8,0,0,0,.41-1.75,2.37,2.37,0,0,0-.43-1.55A1.48,1.48,0,0,0,95,24.16a1.42,1.42,0,0,0-1.13.49,2.56,2.56,0,0,0-.42,1.65m-2.32,0a3.9,3.9,0,0,1,1-2.87,4.56,4.56,0,0,1,5.74,0,3.77,3.77,0,0,1,1,2.81,4.56,4.56,0,0,1-.45,2.16,3.11,3.11,0,0,1-1.28,1.31,4.13,4.13,0,0,1-2.08.47,4.84,4.84,0,0,1-2.11-.4,3.25,3.25,0,0,1-1.35-1.28,4.33,4.33,0,0,1-.51-2.19"/><path class="a5a415bd-68c2-4633-b03e-5a24ee637005" d="M99.79,27.55l2.21-.14a1.68,1.68,0,0,0,.29.82,1.21,1.21,0,0,0,1,.46,1.13,1.13,0,0,0,.77-.24.68.68,0,0,0,.27-.54.71.71,0,0,0-.26-.52A3,3,0,0,0,102.9,27a5,5,0,0,1-2.17-.92,1.81,1.81,0,0,1-.66-1.44,2,2,0,0,1,.34-1.1,2.25,2.25,0,0,1,1-.81,4.78,4.78,0,0,1,1.84-.29,3.86,3.86,0,0,1,2.2.53,2.36,2.36,0,0,1,.9,1.71l-2.19.12a1.16,1.16,0,0,0-.37-.73,1.13,1.13,0,0,0-.77-.23.91.91,0,0,0-.61.17.53.53,0,0,0-.2.42.4.4,0,0,0,.17.32,1.89,1.89,0,0,0,.77.28,9,9,0,0,1,2.18.66,2.27,2.27,0,0,1,1,.83,2.1,2.1,0,0,1,.3,1.11,2.34,2.34,0,0,1-.4,1.33,2.48,2.48,0,0,1-1.11.93,4.56,4.56,0,0,1-1.81.31,3.71,3.71,0,0,1-2.66-.74,2.92,2.92,0,0,1-.83-1.87"/></g></g></svg>