<svg xmlns="http://www.w3.org/2000/svg" viewBox="0 0 65.29 17.74"><defs><style>.ff0e1933-6a30-40d5-9164-3f5d767c7ead{fill:#fff;}</style></defs><g id="fc462f40-b2cf-4f65-bfb4-e2ecb6d79ca6" data-name="Capa 2"><g id="f2472ad0-fd09-41f2-a62e-a97d4607f2e4" data-name="Layer 1"><path class="ff0e1933-6a30-40d5-9164-3f5d767c7ead" d="M0,17.58V.16H7V3.55H3.51V6.33H6.79V9.67H3.51v7.91Z"/><path class="ff0e1933-6a30-40d5-9164-3f5d767c7ead" d="M11.32,16.53a5.4,5.4,0,0,1-1.05-3.61V.16h3.39V12.78a4,4,0,0,0,.16,1.29.67.67,0,0,0,.69.47.66.66,0,0,0,.69-.46,4,4,0,0,0,.16-1.3V.16h3.39V12.92a5.45,5.45,0,0,1-1,3.61,4,4,0,0,1-3.2,1.21A4,4,0,0,1,11.32,16.53Z"/><path class="ff0e1933-6a30-40d5-9164-3f5d767c7ead" d="M24,17.58V3.51H22V.16h7.62V3.51H27.53V17.58Z"/><path class="ff0e1933-6a30-40d5-9164-3f5d767c7ead" d="M33.86,16.53a5.4,5.4,0,0,1-1-3.61V.16H36.2V12.78a4,4,0,0,0,.16,1.29.67.67,0,0,0,.69.47.66.66,0,0,0,.69-.46,4,4,0,0,0,.16-1.3V.16h3.39V12.92a5.45,5.45,0,0,1-1,3.61,4,4,0,0,1-3.2,1.21A4,4,0,0,1,33.86,16.53Z"/><path class="ff0e1933-6a30-40d5-9164-3f5d767c7ead" d="M44.82.16h5.36a3,3,0,0,1,2,.58,2.9,2.9,0,0,1,1,1.62A12.3,12.3,0,0,1,53.34,5,5.53,5.53,0,0,1,53,7.34,2.17,2.17,0,0,1,51.62,8.5a1.6,1.6,0,0,1,1.14.79,3.41,3.41,0,0,1,.36,1.7l0,6.59H49.67V10.77c0-.49-.1-.8-.29-.94a1.9,1.9,0,0,0-1-.2v7.95H44.82ZM49.2,6.61c.49,0,.73-.53.73-1.58a6.63,6.63,0,0,0-.06-1,.74.74,0,0,0-.22-.47.73.73,0,0,0-.47-.13h-.81V6.61Z"/><path class="ff0e1933-6a30-40d5-9164-3f5d767c7ead" d="M57.78,16.46a5.43,5.43,0,0,1-1.09-3.62V4.54a4.72,4.72,0,0,1,1.09-3.39,5,5,0,0,1,6.41,0,4.72,4.72,0,0,1,1.1,3.39v8.3a5.45,5.45,0,0,1-1.1,3.63,4.67,4.67,0,0,1-6.41,0Zm3.84-2.33A3.35,3.35,0,0,0,61.78,13V4.48a2.17,2.17,0,0,0-.16-.92A.59.59,0,0,0,61,3.2c-.59,0-.88.44-.88,1.32V13a2.71,2.71,0,0,0,.19,1.13.67.67,0,0,0,.67.39A.62.62,0,0,0,61.62,14.13Z"/></g></g></svg>