<svg xmlns="http://www.w3.org/2000/svg" viewBox="0 0 156.26 22.49"><defs><style>.aead5c7a-6f7e-4367-b9d8-ad3fbb508649{fill:#f03c46;}.b7d3dfb5-e7dc-45ba-bd7c-ba98de748d91{fill:#fff;}</style></defs><g id="ecea1f7e-9e5f-4379-a362-7f8480c36d92" data-name="Capa 2"><g id="bc40b66b-2706-4ceb-8fe1-b93172ef284e" data-name="Layer 1"><path class="aead5c7a-6f7e-4367-b9d8-ad3fbb508649" d="M0,4.91H5.35a3,3,0,0,1,2,.58,2.8,2.8,0,0,1,.94,1.62,11.48,11.48,0,0,1,.25,2.66,5.61,5.61,0,0,1-.39,2.32,2.12,2.12,0,0,1-1.34,1.15A1.62,1.62,0,0,1,7.94,14a3.46,3.46,0,0,1,.35,1.71l0,6.59H4.85V15.51c0-.48-.1-.8-.29-.93a1.92,1.92,0,0,0-1-.2v7.95H0Zm4.38,6.45c.49,0,.73-.53.73-1.59a6.49,6.49,0,0,0-.06-1,.83.83,0,0,0-.22-.48.8.8,0,0,0-.47-.13H3.55v3.23Z"/><path class="aead5c7a-6f7e-4367-b9d8-ad3fbb508649" d="M11.94,22.33V4.91h7V8.27H15.48v3.39h3.29v3.28H15.48v4h3.65v3.39Z"/><path class="b7d3dfb5-e7dc-45ba-bd7c-ba98de748d91" d="M23.61,21.29A4.52,4.52,0,0,1,22.46,18V10a6.28,6.28,0,0,1,1-3.92,3.86,3.86,0,0,1,3.24-1.31,4.46,4.46,0,0,1,3.1,1,3.85,3.85,0,0,1,1.18,3v3H27.55V9.27a2.12,2.12,0,0,0-.18-1A.68.68,0,0,0,26.74,8a.67.67,0,0,0-.64.32,2.2,2.2,0,0,0-.17,1V18a2,2,0,0,0,.2,1,.68.68,0,0,0,.61.31c.54,0,.81-.43.81-1.31V14.82h3.51v3.29q0,4.38-4.4,4.38A4,4,0,0,1,23.61,21.29Z"/><path class="b7d3dfb5-e7dc-45ba-bd7c-ba98de748d91" d="M35.49,21.2a5.42,5.42,0,0,1-1.09-3.62V9.29a4.74,4.74,0,0,1,1.09-3.4A4.25,4.25,0,0,1,38.7,4.75a4.24,4.24,0,0,1,3.2,1.14A4.74,4.74,0,0,1,43,9.29v8.29a5.41,5.41,0,0,1-1.1,3.63,4,4,0,0,1-3.2,1.28A4,4,0,0,1,35.49,21.2Zm3.84-2.32a3.37,3.37,0,0,0,.16-1.14V9.23a2.44,2.44,0,0,0-.15-.93A.62.62,0,0,0,38.72,8q-.87,0-.87,1.32v8.49A2.82,2.82,0,0,0,38,18.9a.66.66,0,0,0,.67.38A.62.62,0,0,0,39.33,18.88Z"/><path class="b7d3dfb5-e7dc-45ba-bd7c-ba98de748d91" d="M46.55,22.33V4.91h3.59l1.6,8.33V4.91h3.37V22.33H51.7L50,13.61v8.72Z"/><path class="b7d3dfb5-e7dc-45ba-bd7c-ba98de748d91" d="M59.59,21.31a5.61,5.61,0,0,1-1.05-3.79v-1.7H62V18c0,.86.28,1.29.83,1.29a.72.72,0,0,0,.65-.27,1.64,1.64,0,0,0,.19-.92,4,4,0,0,0-.21-1.41,3,3,0,0,0-.51-.93c-.21-.25-.59-.64-1.13-1.17l-1.5-1.5a5.19,5.19,0,0,1-1.74-3.77,5,5,0,0,1,1-3.4,3.75,3.75,0,0,1,3-1.16A4.17,4.17,0,0,1,65.94,6,6.06,6.06,0,0,1,67,9.9H63.42l0-1.2a.77.77,0,0,0-.19-.55.73.73,0,0,0-.54-.2.79.79,0,0,0-.61.22.9.9,0,0,0-.2.61,2.53,2.53,0,0,0,1,1.76l2,2A11.13,11.13,0,0,1,66,13.8a5.15,5.15,0,0,1,.75,1.46,6.27,6.27,0,0,1,.28,2,6.72,6.72,0,0,1-.94,3.9A3.55,3.55,0,0,1,63,22.49,4.38,4.38,0,0,1,59.59,21.31Z"/><path class="b7d3dfb5-e7dc-45ba-bd7c-ba98de748d91" d="M72.19,22.33V8.25H70.12V4.91h7.62V8.25H75.68V22.33Z"/><path class="b7d3dfb5-e7dc-45ba-bd7c-ba98de748d91" d="M81.06,4.91h5.36a3,3,0,0,1,2,.58,2.8,2.8,0,0,1,.94,1.62,11.48,11.48,0,0,1,.25,2.66,5.61,5.61,0,0,1-.39,2.32,2.12,2.12,0,0,1-1.34,1.15A1.62,1.62,0,0,1,89,14a3.45,3.45,0,0,1,.36,1.71l0,6.59h-3.4V15.51c0-.48-.1-.8-.29-.93a1.92,1.92,0,0,0-1-.2v7.95H81.06Zm4.38,6.45c.49,0,.73-.53.73-1.59a6.49,6.49,0,0,0-.06-1,.77.77,0,0,0-.22-.48.8.8,0,0,0-.47-.13h-.81v3.23Z"/><path class="b7d3dfb5-e7dc-45ba-bd7c-ba98de748d91" d="M93.94,21.27a5.38,5.38,0,0,1-1-3.61V4.91h3.38V17.52a4.4,4.4,0,0,0,.16,1.3.75.75,0,0,0,1.38,0A4,4,0,0,0,98,17.52V4.91h3.38V17.66a5.44,5.44,0,0,1-1,3.61,4.79,4.79,0,0,1-6.39,0Z"/><path class="b7d3dfb5-e7dc-45ba-bd7c-ba98de748d91" d="M106,21.29A4.52,4.52,0,0,1,104.82,18V10a6.35,6.35,0,0,1,1-3.92,3.87,3.87,0,0,1,3.25-1.31,4.48,4.48,0,0,1,3.1,1,3.85,3.85,0,0,1,1.18,3v3h-3.47V9.27a2.12,2.12,0,0,0-.18-1A.68.68,0,0,0,109.1,8a.67.67,0,0,0-.64.32,2.06,2.06,0,0,0-.17,1V18a2,2,0,0,0,.2,1,.67.67,0,0,0,.61.31c.54,0,.81-.43.81-1.31V14.82h3.51v3.29q0,4.38-4.4,4.38A4,4,0,0,1,106,21.29Z"/><path class="b7d3dfb5-e7dc-45ba-bd7c-ba98de748d91" d="M117.9,21.29A4.56,4.56,0,0,1,116.76,18V10a6.28,6.28,0,0,1,1-3.92A3.87,3.87,0,0,1,121,4.75a4.5,4.5,0,0,1,3.1,1,3.88,3.88,0,0,1,1.17,3v3h-3.46V9.27a2,2,0,0,0-.19-1A.68.68,0,0,0,121,8a.65.65,0,0,0-.64.32,2,2,0,0,0-.18,1V18a1.84,1.84,0,0,0,.21,1,.66.66,0,0,0,.61.31c.54,0,.81-.43.81-1.31V14.82h3.5v3.29c0,2.92-1.46,4.38-4.4,4.38A4,4,0,0,1,117.9,21.29Z"/><path class="b7d3dfb5-e7dc-45ba-bd7c-ba98de748d91" d="M128.68,22.33V4.91h3.37V22.33Z"/><path class="b7d3dfb5-e7dc-45ba-bd7c-ba98de748d91" d="M136.65,21.2a5.42,5.42,0,0,1-1.09-3.62V9.29a4.74,4.74,0,0,1,1.09-3.4,5.08,5.08,0,0,1,6.41,0,4.74,4.74,0,0,1,1.09,3.4v8.29a5.41,5.41,0,0,1-1.09,3.63,4.64,4.64,0,0,1-6.41,0Zm.85-16.82V2.17L142.21,0V3.45Zm3,14.5a3.11,3.11,0,0,0,.17-1.14V9.23a2.25,2.25,0,0,0-.16-.93.6.6,0,0,0-.61-.35c-.59,0-.88.44-.88,1.32v8.49a2.64,2.64,0,0,0,.19,1.14.66.66,0,0,0,.67.38A.6.6,0,0,0,140.48,18.88Z"/><path class="b7d3dfb5-e7dc-45ba-bd7c-ba98de748d91" d="M147.71,22.33V4.91h3.59l1.6,8.33V4.91h3.36V22.33h-3.4l-1.75-8.72v8.72Z"/></g></g></svg>