<svg xmlns="http://www.w3.org/2000/svg" viewBox="0 0 111.68 65.74"><defs><style>.f4a51784-04a7-400f-b266-eced7b3310b0{fill:#fff;}</style></defs><g id="a94f3877-0e97-407e-acb1-c4300fddb9a3" data-name="Capa 2"><g id="ab9d7713-5af6-4f05-abe6-413d780287d8" data-name="Layer 1"><path class="f4a51784-04a7-400f-b266-eced7b3310b0" d="M.47,0h4.8a3.57,3.57,0,0,1,2.8,1A4.51,4.51,0,0,1,9,4.1l0,8.15a6.58,6.58,0,0,1-.89,3.87,3.42,3.42,0,0,1-3,1.3H.47ZM4.58,14.34a.84.84,0,0,0,1-.94v-9a3.19,3.19,0,0,0-.09-.88.63.63,0,0,0-.34-.4A2.24,2.24,0,0,0,4.36,3H4v11.3Z"/><path class="f4a51784-04a7-400f-b266-eced7b3310b0" d="M11.47,17.42V0h7V3.37H15V6.75H18.3V10H15v4h3.65v3.39Z"/><path class="f4a51784-04a7-400f-b266-eced7b3310b0" d="M26.8,17.42V0h3.49V14.46h3.59v3Z"/><path class="f4a51784-04a7-400f-b266-eced7b3310b0" d="M35.84,17.42,37.52,0h5.9l1.66,17.42h-3.3l-.24-2.82H39.43l-.21,2.82Zm3.85-5.6h1.58L40.5,3h-.16Z"/><path class="f4a51784-04a7-400f-b266-eced7b3310b0" d="M.47,22.56h4.8a3.57,3.57,0,0,1,2.8,1A4.5,4.5,0,0,1,9,26.65l0,8.16a6.6,6.6,0,0,1-.89,3.87,3.44,3.44,0,0,1-3,1.3H.47ZM4.58,36.89a.84.84,0,0,0,1-.93V27a3.19,3.19,0,0,0-.09-.88.63.63,0,0,0-.34-.4,2,2,0,0,0-.75-.1H4V36.89Z"/><path class="f4a51784-04a7-400f-b266-eced7b3310b0" d="M11.47,40V22.56h7v3.36H15v3.39H18.3v3.28H15v4h3.65V40Z"/><path class="f4a51784-04a7-400f-b266-eced7b3310b0" d="M21.75,38.81a7.07,7.07,0,0,1-.92-4V27.28a5.46,5.46,0,0,1,1.07-3.65,4,4,0,0,1,3.21-1.23,4.47,4.47,0,0,1,2.67.68,3.51,3.51,0,0,1,1.32,2,13.15,13.15,0,0,1,.37,3.39H26.06V26.92a2.33,2.33,0,0,0-.17-1,.63.63,0,0,0-.62-.34c-.66,0-1,.43-1,1.3v8.43a2.71,2.71,0,0,0,.2,1.2.72.72,0,0,0,.71.4.73.73,0,0,0,.71-.4,2.86,2.86,0,0,0,.2-1.2V32.84h-.93v-3h4.26V40H28l-.59-1.46a3.09,3.09,0,0,1-2.88,1.62A3.18,3.18,0,0,1,21.75,38.81Z"/><path class="f4a51784-04a7-400f-b266-eced7b3310b0" d="M31.85,22.56h5.36a3,3,0,0,1,2,.58,2.87,2.87,0,0,1,1,1.62,12.13,12.13,0,0,1,.24,2.66A5.8,5.8,0,0,1,40,29.74a2.18,2.18,0,0,1-1.34,1.15,1.6,1.6,0,0,1,1.14.79,3.45,3.45,0,0,1,.36,1.71l0,6.59H36.7V33.16c0-.48-.09-.79-.28-.93a2,2,0,0,0-1-.2V40H31.85ZM36.23,29c.49,0,.73-.53.73-1.59a6.49,6.49,0,0,0-.06-1,.6.6,0,0,0-.69-.61H35.4V29Z"/><path class="f4a51784-04a7-400f-b266-eced7b3310b0" d="M42.29,40,44,22.56h5.9L51.54,40H48.23L48,37.16H45.88L45.67,40Zm3.85-5.6h1.58L47,25.52h-.16Z"/><path class="f4a51784-04a7-400f-b266-eced7b3310b0" d="M53.77,22.56h4.8a3.57,3.57,0,0,1,2.8,1,4.5,4.5,0,0,1,1,3.06l0,8.16a6.67,6.67,0,0,1-.9,3.87,3.43,3.43,0,0,1-3,1.3H53.77Zm4.11,14.33a.84.84,0,0,0,1-.93V27a3.19,3.19,0,0,0-.09-.88.6.6,0,0,0-.34-.4,2,2,0,0,0-.75-.1h-.38V36.89Z"/><path class="f4a51784-04a7-400f-b266-eced7b3310b0" d="M64.34,40,66,22.56h5.9L73.59,40h-3.3L70,37.16H67.93L67.73,40Zm3.86-5.6h1.58L69,25.52h-.17Z"/><path class="f4a51784-04a7-400f-b266-eced7b3310b0" d="M76.73,38.94a4.52,4.52,0,0,1-1.15-3.28v-8a6.28,6.28,0,0,1,1-3.92,3.87,3.87,0,0,1,3.25-1.31A4.48,4.48,0,0,1,83,23.45a3.85,3.85,0,0,1,1.18,3v3H80.67V26.92a2.12,2.12,0,0,0-.18-1,.68.68,0,0,0-.63-.28.66.66,0,0,0-.64.32,2.06,2.06,0,0,0-.17,1v8.74a2,2,0,0,0,.2,1,.67.67,0,0,0,.61.31c.54,0,.81-.43.81-1.31V32.47h3.51v3.29q0,4.38-4.4,4.38A4,4,0,0,1,76.73,38.94Z"/><path class="f4a51784-04a7-400f-b266-eced7b3310b0" d="M86.37,40V22.56h3.37V40Z"/><path class="f4a51784-04a7-400f-b266-eced7b3310b0" d="M93.2,38.85a5.42,5.42,0,0,1-1.09-3.62V26.94a4.74,4.74,0,0,1,1.09-3.4,5.08,5.08,0,0,1,6.41,0,4.74,4.74,0,0,1,1.1,3.4v8.29a5.41,5.41,0,0,1-1.1,3.63,4.64,4.64,0,0,1-6.41,0ZM94.05,22V19.82l4.71-2.17V21.1Zm3,14.5a3.37,3.37,0,0,0,.16-1.14V26.88a2.44,2.44,0,0,0-.15-.93.62.62,0,0,0-.62-.35q-.87,0-.87,1.32v8.49a2.82,2.82,0,0,0,.18,1.14.66.66,0,0,0,.67.38A.62.62,0,0,0,97,36.53Z"/><path class="f4a51784-04a7-400f-b266-eced7b3310b0" d="M103.12,40V22.56h3.59l1.6,8.33V22.56h3.37V40h-3.41l-1.74-8.72V40Z"/><path class="f4a51784-04a7-400f-b266-eced7b3310b0" d="M0,65.74,1.68,48.32h5.9L9.25,65.74H5.94L5.7,62.92H3.59l-.2,2.82Zm3.85-5.6H5.44l-.78-8.86H4.5Z"/><path class="f4a51784-04a7-400f-b266-eced7b3310b0" d="M19.55,65.74V48.32H23V62.77h3.59v3Z"/><path class="f4a51784-04a7-400f-b266-eced7b3310b0" d="M29.72,65.74l1.69-17.42h5.9L39,65.74h-3.3l-.25-2.82H33.31l-.2,2.82Zm3.86-5.6h1.58l-.77-8.86h-.16Z"/></g></g></svg>