<svg xmlns="http://www.w3.org/2000/svg" viewBox="0 0 107.24 17.74"><defs><style>.b863014a-ff67-41f3-ada6-37526443e183{fill:#fff;}</style></defs><g id="b3ad6206-0025-4c98-9409-fae8d33e78ae" data-name="Capa 2"><g id="b6bd1d13-9d04-490b-b01a-6dffce9cb7c7" data-name="Layer 1"><path class="b863014a-ff67-41f3-ada6-37526443e183" d="M0,.16H4.81a3.56,3.56,0,0,1,2.79,1,4.5,4.5,0,0,1,1,3.06l0,8.15a6.71,6.71,0,0,1-.89,3.87,3.44,3.44,0,0,1-3,1.3H0ZM4.12,14.5a.83.83,0,0,0,1-.93v-9A3.24,3.24,0,0,0,5,3.7a.58.58,0,0,0-.34-.4,2.24,2.24,0,0,0-.75-.1H3.51V14.5Z"/><path class="b863014a-ff67-41f3-ada6-37526443e183" d="M12.14,17.58V.16h7V3.53H15.69V6.92H19V10.2H15.69v4h3.65v3.39Z"/><path class="b863014a-ff67-41f3-ada6-37526443e183" d="M29.74,17.58V.16h3.59l1.6,8.34V.16H38.3V17.58H34.89L33.15,8.86v8.72Z"/><path class="b863014a-ff67-41f3-ada6-37526443e183" d="M42.87,16.53a5.45,5.45,0,0,1-1-3.61V.16h3.38V12.78a4,4,0,0,0,.17,1.29.65.65,0,0,0,.69.47.64.64,0,0,0,.68-.46,4,4,0,0,0,.17-1.3V.16H50.3V12.92a5.4,5.4,0,0,1-1,3.61,4,4,0,0,1-3.19,1.21A4,4,0,0,1,42.87,16.53Z"/><path class="b863014a-ff67-41f3-ada6-37526443e183" d="M53.84,17.58V.16h7V3.53H57.39V6.92h3.28V10.2H57.39v4H61v3.39Z"/><path class="b863014a-ff67-41f3-ada6-37526443e183" d="M65.31,16.57a5.63,5.63,0,0,1-1.06-3.79V11.07h3.43v2.17c0,.87.28,1.3.83,1.3a.73.73,0,0,0,.65-.27,1.79,1.79,0,0,0,.18-.93,4.13,4.13,0,0,0-.2-1.41,3,3,0,0,0-.52-.93c-.21-.25-.58-.64-1.12-1.17L66,8.33a5.14,5.14,0,0,1-1.75-3.77,5,5,0,0,1,1-3.39,3.76,3.76,0,0,1,3-1.17,4.18,4.18,0,0,1,3.39,1.25,6.1,6.1,0,0,1,1,3.9H69.14l0-1.2a.73.73,0,0,0-.19-.54.7.7,0,0,0-.54-.21.79.79,0,0,0-.61.23.9.9,0,0,0-.2.61,2.53,2.53,0,0,0,1,1.76l2,2a12.08,12.08,0,0,1,1.18,1.3,5.29,5.29,0,0,1,.75,1.46,6.31,6.31,0,0,1,.28,2,6.74,6.74,0,0,1-.94,3.91,3.57,3.57,0,0,1-3.11,1.32A4.4,4.4,0,0,1,65.31,16.57Z"/><path class="b863014a-ff67-41f3-ada6-37526443e183" d="M77.91,17.58V3.51H75.84V.16h7.62V3.51H81.39V17.58Z"/><path class="b863014a-ff67-41f3-ada6-37526443e183" d="M86.78.16h5.35a3,3,0,0,1,2,.58,2.83,2.83,0,0,1,.94,1.62A12.22,12.22,0,0,1,95.3,5a5.53,5.53,0,0,1-.39,2.31A2.19,2.19,0,0,1,93.57,8.5a1.6,1.6,0,0,1,1.15.79,3.42,3.42,0,0,1,.35,1.7l0,6.59h-3.4V10.77c0-.49-.1-.8-.29-.94a1.92,1.92,0,0,0-1-.2v7.95H86.78Zm4.38,6.45c.49,0,.73-.53.73-1.58a6.63,6.63,0,0,0-.06-1,.79.79,0,0,0-.22-.47.73.73,0,0,0-.47-.13h-.81V6.61Z"/><path class="b863014a-ff67-41f3-ada6-37526443e183" d="M99.74,16.46a5.44,5.44,0,0,1-1.1-3.62V4.54a4.72,4.72,0,0,1,1.1-3.39,5,5,0,0,1,6.41,0,4.72,4.72,0,0,1,1.09,3.39v8.3a5.44,5.44,0,0,1-1.09,3.63,4.67,4.67,0,0,1-6.41,0Zm3.83-2.33a3.11,3.11,0,0,0,.16-1.13V4.48a2.35,2.35,0,0,0-.15-.92A.6.6,0,0,0,103,3.2q-.87,0-.87,1.32V13a2.73,2.73,0,0,0,.18,1.13.68.68,0,0,0,.67.39A.62.62,0,0,0,103.57,14.13Z"/></g></g></svg>