<svg xmlns="http://www.w3.org/2000/svg" viewBox="0 0 313.72 24.63"><defs><style>.ed12d7b8-a5f9-46c9-a2d3-72f573746fb5{fill:#fff;}</style></defs><g id="bf5dc664-7f42-4d8b-872a-f9dfb0857db9" data-name="Capa 2"><g id="e3e2d447-8d18-4ab1-9762-3df1329ded5e" data-name="Capa 1"><path class="ed12d7b8-a5f9-46c9-a2d3-72f573746fb5" d="M4.22,19,0,5.25H2.42l2.19,8,.82,3c0-.15.27-1.1.71-2.85l2.2-8.07h2.4l2.06,8,.69,2.63.79-2.66,2.37-8h2.27L14.61,19H12.18L10,10.78,9.45,8.43,6.66,19Z"/><path class="ed12d7b8-a5f9-46c9-a2d3-72f573746fb5" d="M24.3,19,20.08,5.25H22.5l2.19,8,.82,3c0-.15.27-1.1.71-2.85l2.2-8.07h2.4l2.07,8,.68,2.63.8-2.66,2.36-8H39L34.69,19H32.26l-2.19-8.26-.53-2.35L26.74,19Z"/><path class="ed12d7b8-a5f9-46c9-a2d3-72f573746fb5" d="M44.39,19,40.17,5.25h2.41l2.19,8,.82,3,.72-2.85L48.5,5.25h2.4l2.07,8,.69,2.63.79-2.66,2.36-8h2.27L54.77,19H52.35l-2.2-8.26-.53-2.35L46.83,19Z"/><path class="ed12d7b8-a5f9-46c9-a2d3-72f573746fb5" d="M61.12,19V16.37h2.66V19Z"/><path class="ed12d7b8-a5f9-46c9-a2d3-72f573746fb5" d="M77.72,14l2.3.29A6,6,0,0,1,78.09,18a5.58,5.58,0,0,1-3.81,1.35,5.92,5.92,0,0,1-4.55-1.85A7.51,7.51,0,0,1,68,12.19a9.51,9.51,0,0,1,.74-3.91A5.16,5.16,0,0,1,71,5.77a6.68,6.68,0,0,1,3.29-.84A5.73,5.73,0,0,1,78,6.07,5.22,5.22,0,0,1,79.8,9.3l-2.27.35a3.75,3.75,0,0,0-1.15-2.09,3,3,0,0,0-2-.7,3.65,3.65,0,0,0-2.87,1.26,6.06,6.06,0,0,0-1.1,4,6.22,6.22,0,0,0,1.06,4,3.47,3.47,0,0,0,2.78,1.26,3.28,3.28,0,0,0,2.3-.85A4.13,4.13,0,0,0,77.72,14Z"/><path class="ed12d7b8-a5f9-46c9-a2d3-72f573746fb5" d="M91.89,17.33a8.5,8.5,0,0,1-2.5,1.56,7.06,7.06,0,0,1-2.57.46,5,5,0,0,1-3.5-1.11A3.68,3.68,0,0,1,82.1,15.4a3.87,3.87,0,0,1,.46-1.85,3.74,3.74,0,0,1,1.21-1.34,5.6,5.6,0,0,1,1.68-.77,16.44,16.44,0,0,1,2.08-.35,21,21,0,0,0,4.17-.81c0-.32,0-.52,0-.61a2.58,2.58,0,0,0-.66-2,3.9,3.9,0,0,0-2.66-.79A4.12,4.12,0,0,0,86,7.45a3.5,3.5,0,0,0-1.16,2l-2.28-.31a5.62,5.62,0,0,1,1-2.37A4.59,4.59,0,0,1,85.6,5.42a9.31,9.31,0,0,1,3.13-.49,8.25,8.25,0,0,1,2.87.42,4,4,0,0,1,1.62,1A3.81,3.81,0,0,1,94,8a14.24,14.24,0,0,1,.11,2.15v3.12a32.84,32.84,0,0,0,.15,4.12A5.32,5.32,0,0,0,94.8,19H92.36A5.11,5.11,0,0,1,91.89,17.33Zm-.19-5.21a17.4,17.4,0,0,1-3.82.88,8.57,8.57,0,0,0-2,.47,2,2,0,0,0-1.24,1.87,2,2,0,0,0,.7,1.55,3,3,0,0,0,2.07.63,4.86,4.86,0,0,0,2.41-.59,3.7,3.7,0,0,0,1.54-1.62A5.68,5.68,0,0,0,91.7,13Z"/><path class="ed12d7b8-a5f9-46c9-a2d3-72f573746fb5" d="M107.51,19V17.3a4.3,4.3,0,0,1-3.86,2.05,5.44,5.44,0,0,1-3-.91,6,6,0,0,1-2.14-2.54,8.72,8.72,0,0,1-.76-3.75,9.77,9.77,0,0,1,.69-3.74,5.44,5.44,0,0,1,2.06-2.58,5.5,5.5,0,0,1,3.08-.9,4.6,4.6,0,0,1,3.8,1.9V0h2.33V19Zm-7.39-6.89a5.94,5.94,0,0,0,1.12,4,3.31,3.31,0,0,0,5.24.06,5.79,5.79,0,0,0,1.07-3.82,6.55,6.55,0,0,0-1.09-4.16,3.37,3.37,0,0,0-2.69-1.32,3.21,3.21,0,0,0-2.6,1.27A6.27,6.27,0,0,0,100.12,12.15Z"/><path class="ed12d7b8-a5f9-46c9-a2d3-72f573746fb5" d="M123.67,14.6l2.42.29A5.93,5.93,0,0,1,124,18.18a6.37,6.37,0,0,1-4,1.17,6.3,6.3,0,0,1-4.8-1.87,7.27,7.27,0,0,1-1.77-5.22,7.63,7.63,0,0,1,1.79-5.4,6.09,6.09,0,0,1,4.65-1.93,5.88,5.88,0,0,1,4.52,1.89,7.47,7.47,0,0,1,1.75,5.3c0,.13,0,.34,0,.62H115.87a5.29,5.29,0,0,0,1.28,3.48A3.84,3.84,0,0,0,120,17.43a3.6,3.6,0,0,0,2.2-.68A4.57,4.57,0,0,0,123.67,14.6ZM116,10.82h7.7a4.68,4.68,0,0,0-.89-2.61,3.57,3.57,0,0,0-2.89-1.35,3.73,3.73,0,0,0-2.71,1.07A4.24,4.24,0,0,0,116,10.82Z"/><path class="ed12d7b8-a5f9-46c9-a2d3-72f573746fb5" d="M139.34,14.6l2.41.29a5.86,5.86,0,0,1-2.11,3.29,6.37,6.37,0,0,1-3.95,1.17,6.28,6.28,0,0,1-4.8-1.87,7.27,7.27,0,0,1-1.77-5.22,7.63,7.63,0,0,1,1.79-5.4,6.08,6.08,0,0,1,4.65-1.93,5.9,5.9,0,0,1,4.52,1.89,7.47,7.47,0,0,1,1.75,5.3c0,.13,0,.34,0,.62H131.53a5.34,5.34,0,0,0,1.29,3.48,3.84,3.84,0,0,0,2.88,1.21,3.6,3.6,0,0,0,2.2-.68A4.57,4.57,0,0,0,139.34,14.6Zm-7.68-3.78h7.7a4.6,4.6,0,0,0-.88-2.61,3.57,3.57,0,0,0-2.89-1.35,3.73,3.73,0,0,0-2.71,1.07A4.29,4.29,0,0,0,131.66,10.82Z"/><path class="ed12d7b8-a5f9-46c9-a2d3-72f573746fb5" d="M142.59,24.39l.44-2a4.79,4.79,0,0,0,1.11.18,1.24,1.24,0,0,0,1.06-.47,4.79,4.79,0,0,0,.35-2.37V5.25h2.34V19.79a6.8,6.8,0,0,1-.66,3.54,3.1,3.1,0,0,1-2.81,1.3A7,7,0,0,1,142.59,24.39Zm3-21.68V0h2.34V2.71Z"/><path class="ed12d7b8-a5f9-46c9-a2d3-72f573746fb5" d="M161.79,14.6l2.42.29a5.88,5.88,0,0,1-2.12,3.29,7.16,7.16,0,0,1-8.75-.7,7.27,7.27,0,0,1-1.77-5.22,7.63,7.63,0,0,1,1.79-5.4A6.09,6.09,0,0,1,158,4.93a5.88,5.88,0,0,1,4.52,1.89,7.47,7.47,0,0,1,1.75,5.3c0,.13,0,.34,0,.62H154a5.29,5.29,0,0,0,1.28,3.48,3.85,3.85,0,0,0,2.89,1.21,3.59,3.59,0,0,0,2.19-.68A4.43,4.43,0,0,0,161.79,14.6Zm-7.67-3.78h7.7a4.68,4.68,0,0,0-.89-2.61A3.57,3.57,0,0,0,158,6.86a3.73,3.73,0,0,0-2.71,1.07A4.24,4.24,0,0,0,154.12,10.82Z"/><path class="ed12d7b8-a5f9-46c9-a2d3-72f573746fb5" d="M177,14l2.3.29A6,6,0,0,1,177.39,18a5.62,5.62,0,0,1-3.81,1.35A6,6,0,0,1,169,17.5a7.55,7.55,0,0,1-1.72-5.31A9.67,9.67,0,0,1,168,8.28a5.23,5.23,0,0,1,2.26-2.51,6.66,6.66,0,0,1,3.29-.84,5.69,5.69,0,0,1,3.67,1.14,5.13,5.13,0,0,1,1.83,3.23l-2.27.35a3.69,3.69,0,0,0-1.15-2.09,3,3,0,0,0-2-.7,3.64,3.64,0,0,0-2.87,1.26,6,6,0,0,0-1.1,4,6.22,6.22,0,0,0,1.06,4,3.47,3.47,0,0,0,2.78,1.26,3.3,3.3,0,0,0,2.3-.85A4.24,4.24,0,0,0,177,14Z"/><path class="ed12d7b8-a5f9-46c9-a2d3-72f573746fb5" d="M191.23,19V17a5,5,0,0,1-4.38,2.34,5.56,5.56,0,0,1-2.27-.47A3.8,3.8,0,0,1,183,17.71a4.5,4.5,0,0,1-.72-1.74,12.38,12.38,0,0,1-.14-2.18V5.25h2.34v7.64a14.17,14.17,0,0,0,.14,2.47,2.43,2.43,0,0,0,.94,1.45,2.87,2.87,0,0,0,1.76.52,3.87,3.87,0,0,0,2-.53,3,3,0,0,0,1.3-1.47,7.3,7.3,0,0,0,.38-2.7V5.25h2.34V19Z"/><path class="ed12d7b8-a5f9-46c9-a2d3-72f573746fb5" d="M203,17,203.3,19a8.63,8.63,0,0,1-1.77.21,4.11,4.11,0,0,1-2-.4,2.29,2.29,0,0,1-1-1.06,8.46,8.46,0,0,1-.28-2.76V7.06h-1.72V5.25h1.72V1.83l2.32-1.4V5.25H203V7.06h-2.35v8.07a3.77,3.77,0,0,0,.13,1.28.94.94,0,0,0,.4.46,1.59,1.59,0,0,0,.8.17A7.54,7.54,0,0,0,203,17Z"/><path class="ed12d7b8-a5f9-46c9-a2d3-72f573746fb5" d="M206.14,2.69V0h2.34V2.69Zm0,16.35V5.25h2.34V19Z"/><path class="ed12d7b8-a5f9-46c9-a2d3-72f573746fb5" d="M216.74,19,211.5,5.25H214l3,8.26c.32.89.62,1.81.89,2.77.2-.72.49-1.6.87-2.62l3.06-8.41h2.4L218.92,19Z"/><path class="ed12d7b8-a5f9-46c9-a2d3-72f573746fb5" d="M226.22,12.14q0-3.83,2.13-5.67a6.41,6.41,0,0,1,4.33-1.54,6.19,6.19,0,0,1,4.65,1.87A7.11,7.11,0,0,1,239.14,12a9.11,9.11,0,0,1-.8,4.18A5.61,5.61,0,0,1,236,18.5a6.65,6.65,0,0,1-3.33.85A6.19,6.19,0,0,1,228,17.49,7.42,7.42,0,0,1,226.22,12.14Zm2.4,0a5.88,5.88,0,0,0,1.15,4,3.85,3.85,0,0,0,5.81,0,6,6,0,0,0,1.15-4,5.67,5.67,0,0,0-1.16-3.87,3.86,3.86,0,0,0-5.8,0A5.85,5.85,0,0,0,228.62,12.14Z"/><path class="ed12d7b8-a5f9-46c9-a2d3-72f573746fb5" d="M241.82,14.92l2.31-.36a3.27,3.27,0,0,0,1.08,2.13,3.83,3.83,0,0,0,2.49.74,3.65,3.65,0,0,0,2.39-.66,2,2,0,0,0,.78-1.54,1.4,1.4,0,0,0-.69-1.24,10,10,0,0,0-2.39-.8,21.18,21.18,0,0,1-3.56-1.12,3.38,3.38,0,0,1-2-3.16,3.55,3.55,0,0,1,.42-1.71,3.68,3.68,0,0,1,1.15-1.3,4.82,4.82,0,0,1,1.49-.69,7.25,7.25,0,0,1,2-.28,8,8,0,0,1,2.85.47A3.93,3.93,0,0,1,252,6.67a5,5,0,0,1,.8,2.13l-2.28.32a2.55,2.55,0,0,0-.91-1.67,3.33,3.33,0,0,0-2.11-.59,3.75,3.75,0,0,0-2.29.53,1.54,1.54,0,0,0-.69,1.25,1.27,1.27,0,0,0,.28.81,2.12,2.12,0,0,0,.9.63c.23.08.92.28,2.06.59a27.83,27.83,0,0,1,3.46,1.09,3.3,3.3,0,0,1,2.1,3.23,4,4,0,0,1-.68,2.2,4.37,4.37,0,0,1-2,1.59,7.06,7.06,0,0,1-2.91.57,6.43,6.43,0,0,1-4.09-1.12A5.19,5.19,0,0,1,241.82,14.92Z"/><path class="ed12d7b8-a5f9-46c9-a2d3-72f573746fb5" d="M257.59,19V16.37h2.66V19Z"/><path class="ed12d7b8-a5f9-46c9-a2d3-72f573746fb5" d="M274.19,14l2.3.29A5.9,5.9,0,0,1,274.56,18a5.58,5.58,0,0,1-3.81,1.35,5.93,5.93,0,0,1-4.55-1.85,7.51,7.51,0,0,1-1.72-5.31,9.67,9.67,0,0,1,.74-3.91,5.16,5.16,0,0,1,2.25-2.51,6.68,6.68,0,0,1,3.29-.84,5.72,5.72,0,0,1,3.68,1.14,5.22,5.22,0,0,1,1.83,3.23L274,9.65a3.75,3.75,0,0,0-1.15-2.09,3,3,0,0,0-2-.7A3.62,3.62,0,0,0,268,8.12a6,6,0,0,0-1.11,4,6.22,6.22,0,0,0,1.07,4,3.46,3.46,0,0,0,2.78,1.26,3.28,3.28,0,0,0,2.29-.85A4.13,4.13,0,0,0,274.19,14Z"/><path class="ed12d7b8-a5f9-46c9-a2d3-72f573746fb5" d="M278.5,12.14q0-3.83,2.13-5.67A6.41,6.41,0,0,1,285,4.93a6.19,6.19,0,0,1,4.65,1.87A7.06,7.06,0,0,1,291.42,12a9.11,9.11,0,0,1-.8,4.18,5.64,5.64,0,0,1-2.32,2.37,6.72,6.72,0,0,1-3.34.85,6.19,6.19,0,0,1-4.68-1.86A7.42,7.42,0,0,1,278.5,12.14Zm2.4,0a5.88,5.88,0,0,0,1.16,4,3.84,3.84,0,0,0,5.8,0,6,6,0,0,0,1.16-4,5.67,5.67,0,0,0-1.17-3.87A3.68,3.68,0,0,0,285,6.87a3.72,3.72,0,0,0-2.9,1.31A5.85,5.85,0,0,0,280.9,12.14Z"/><path class="ed12d7b8-a5f9-46c9-a2d3-72f573746fb5" d="M295,19V5.25h2.09V7.18a4.85,4.85,0,0,1,4.18-2.25,4.56,4.56,0,0,1,2.51.64,3.46,3.46,0,0,1,1.38,1.78,5,5,0,0,1,4.26-2.42,4.2,4.2,0,0,1,3.16,1.14,4.88,4.88,0,0,1,1.1,3.5V19H311.4V10.35a6.4,6.4,0,0,0-.23-2,2,2,0,0,0-.82-1A2.61,2.61,0,0,0,308.94,7a3.23,3.23,0,0,0-2.41,1,4.24,4.24,0,0,0-1,3.09v8h-2.34v-9a4,4,0,0,0-.57-2.34A2.17,2.17,0,0,0,300.79,7a3.38,3.38,0,0,0-1.83.52A2.93,2.93,0,0,0,297.75,9a8.58,8.58,0,0,0-.38,2.88V19Z"/></g></g></svg>