<svg xmlns="http://www.w3.org/2000/svg" viewBox="0 0 285.2 22.39"><defs><style>.b417aa67-3c4f-4ec4-b52a-79acfdd84ce6{fill:#fff;}</style></defs><g id="b188254e-47b6-4d19-9ef1-8d9b8551fa98" data-name="Capa 2"><g id="b3cb76b0-b06c-41be-8c33-3a448930347c" data-name="Capa 1"><path class="b417aa67-3c4f-4ec4-b52a-79acfdd84ce6" d="M3.84,17.31,0,4.77H2.2l2,7.24.74,2.69c0-.14.25-1,.65-2.59l2-7.34H9.76L11.64,12l.63,2.4L13,12l2.15-7.25H17.2L13.28,17.31H11.07l-2-7.51L8.59,7.66,6.06,17.31Z"/><path class="b417aa67-3c4f-4ec4-b52a-79acfdd84ce6" d="M22.09,17.31,18.26,4.77h2.19l2,7.24.74,2.69c0-.14.25-1,.65-2.59l2-7.34H28L29.9,12l.62,2.4L31.24,12l2.15-7.25h2.07L31.54,17.31H29.33l-2-7.51-.48-2.14-2.54,9.65Z"/><path class="b417aa67-3c4f-4ec4-b52a-79acfdd84ce6" d="M40.35,17.31,36.51,4.77h2.2l2,7.24.75,2.69c0-.14.25-1,.65-2.59l2-7.34h2.19L48.15,12l.63,2.4L49.5,12l2.15-7.25h2.06L49.79,17.31h-2.2l-2-7.51-.48-2.14-2.54,9.65Z"/><path class="b417aa67-3c4f-4ec4-b52a-79acfdd84ce6" d="M55.56,17.31V14.89H58v2.42Z"/><path class="b417aa67-3c4f-4ec4-b52a-79acfdd84ce6" d="M70.65,12.71l2.09.28A5.39,5.39,0,0,1,71,16.37a5.11,5.11,0,0,1-3.46,1.22,5.38,5.38,0,0,1-4.14-1.68,6.85,6.85,0,0,1-1.57-4.83,8.71,8.71,0,0,1,.68-3.55,4.67,4.67,0,0,1,2-2.28,6,6,0,0,1,3-.76,5.2,5.2,0,0,1,3.34,1,4.75,4.75,0,0,1,1.66,2.93l-2.06.32a3.44,3.44,0,0,0-1-1.9,2.72,2.72,0,0,0-1.81-.64A3.32,3.32,0,0,0,65,7.38,5.49,5.49,0,0,0,64,11a5.64,5.64,0,0,0,1,3.67,3.13,3.13,0,0,0,2.52,1.14,2.94,2.94,0,0,0,2.09-.77A3.78,3.78,0,0,0,70.65,12.71Z"/><path class="b417aa67-3c4f-4ec4-b52a-79acfdd84ce6" d="M83.54,15.76a8,8,0,0,1-2.27,1.42,6.71,6.71,0,0,1-2.35.41,4.57,4.57,0,0,1-3.17-1A3.32,3.32,0,0,1,74.64,14a3.43,3.43,0,0,1,.42-1.68,3.33,3.33,0,0,1,1.1-1.22,5.15,5.15,0,0,1,1.52-.7,14.93,14.93,0,0,1,1.89-.32,19.28,19.28,0,0,0,3.79-.73c0-.29,0-.48,0-.56A2.37,2.37,0,0,0,82.77,7a3.6,3.6,0,0,0-2.42-.71,3.75,3.75,0,0,0-2.21.52,3.2,3.2,0,0,0-1.06,1.86L75,8.35a5.12,5.12,0,0,1,.94-2.16,4,4,0,0,1,1.87-1.26,8.28,8.28,0,0,1,2.85-.44,7.61,7.61,0,0,1,2.61.37,3.47,3.47,0,0,1,1.47.95,3.29,3.29,0,0,1,.66,1.45,10.9,10.9,0,0,1,.11,2v2.83a29.79,29.79,0,0,0,.14,3.75,5,5,0,0,0,.53,1.51H84A4.47,4.47,0,0,1,83.54,15.76ZM83.36,11a15.23,15.23,0,0,1-3.47.81,7.63,7.63,0,0,0-1.85.42,1.92,1.92,0,0,0-.84.69,1.9,1.9,0,0,0,.35,2.43,2.76,2.76,0,0,0,1.88.56,4.38,4.38,0,0,0,2.19-.53A3.36,3.36,0,0,0,83,13.92a5.13,5.13,0,0,0,.34-2.13Z"/><path class="b417aa67-3c4f-4ec4-b52a-79acfdd84ce6" d="M97.74,17.31V15.72a3.9,3.9,0,0,1-3.51,1.87,4.94,4.94,0,0,1-2.76-.83,5.49,5.49,0,0,1-1.94-2.3,8,8,0,0,1-.7-3.41,8.89,8.89,0,0,1,.63-3.41A4.9,4.9,0,0,1,91.34,5.3a5,5,0,0,1,2.8-.81,4.13,4.13,0,0,1,3.45,1.72V0h2.12V17.31ZM91,11.05a5.5,5.5,0,0,0,1,3.6,3.09,3.09,0,0,0,2.4,1.19A3,3,0,0,0,96.8,14.7a5.24,5.24,0,0,0,1-3.47,5.9,5.9,0,0,0-1-3.78,3.06,3.06,0,0,0-2.44-1.2A2.93,2.93,0,0,0,92,7.4,5.74,5.74,0,0,0,91,11.05Z"/><path class="b417aa67-3c4f-4ec4-b52a-79acfdd84ce6" d="M112.43,13.27l2.19.27a5.32,5.32,0,0,1-1.92,3,5.84,5.84,0,0,1-3.59,1.06,5.73,5.73,0,0,1-4.36-1.7,6.57,6.57,0,0,1-1.61-4.75,6.93,6.93,0,0,1,1.63-4.91A5.51,5.51,0,0,1,109,4.49,5.36,5.36,0,0,1,113.1,6.2,6.79,6.79,0,0,1,114.69,11c0,.13,0,.32,0,.57h-9.35a4.81,4.81,0,0,0,1.17,3.16,3.46,3.46,0,0,0,2.62,1.1,3.26,3.26,0,0,0,2-.61A4.12,4.12,0,0,0,112.43,13.27Zm-7-3.44h7a4.23,4.23,0,0,0-.8-2.37A3.26,3.26,0,0,0,109,6.23a3.41,3.41,0,0,0-2.47,1A3.91,3.91,0,0,0,105.45,9.83Z"/><path class="b417aa67-3c4f-4ec4-b52a-79acfdd84ce6" d="M126.67,13.27l2.2.27a5.39,5.39,0,0,1-1.93,3,5.82,5.82,0,0,1-3.59,1.06,5.75,5.75,0,0,1-4.36-1.7,6.62,6.62,0,0,1-1.61-4.75A6.93,6.93,0,0,1,119,6.23a5.53,5.53,0,0,1,4.23-1.74,5.35,5.35,0,0,1,4.1,1.71,6.75,6.75,0,0,1,1.6,4.81c0,.13,0,.32,0,.57h-9.35a4.75,4.75,0,0,0,1.16,3.16,3.48,3.48,0,0,0,2.63,1.1,3.25,3.25,0,0,0,2-.61A4.05,4.05,0,0,0,126.67,13.27Zm-7-3.44h7a4.23,4.23,0,0,0-.8-2.37,3.25,3.25,0,0,0-2.63-1.23,3.37,3.37,0,0,0-2.46,1A3.92,3.92,0,0,0,119.69,9.83Z"/><path class="b417aa67-3c4f-4ec4-b52a-79acfdd84ce6" d="M129.63,22.17l.4-1.81a4.39,4.39,0,0,0,1,.17,1.14,1.14,0,0,0,1-.43,4.46,4.46,0,0,0,.32-2.16V4.77h2.12V18a6.2,6.2,0,0,1-.6,3.22,2.8,2.8,0,0,1-2.55,1.18A6.1,6.1,0,0,1,129.63,22.17Zm2.69-19.7V0h2.12V2.47Z"/><path class="b417aa67-3c4f-4ec4-b52a-79acfdd84ce6" d="M147.08,13.27l2.2.27a5.39,5.39,0,0,1-1.93,3,6.51,6.51,0,0,1-7.95-.64,6.62,6.62,0,0,1-1.61-4.75,7,7,0,0,1,1.63-4.91,5.54,5.54,0,0,1,4.23-1.74,5.39,5.39,0,0,1,4.11,1.71A6.79,6.79,0,0,1,149.35,11c0,.13,0,.32,0,.57H140a4.81,4.81,0,0,0,1.17,3.16,3.44,3.44,0,0,0,2.62,1.1,3.23,3.23,0,0,0,2-.61A4.05,4.05,0,0,0,147.08,13.27Zm-7-3.44h7a4.31,4.31,0,0,0-.81-2.37,3.24,3.24,0,0,0-2.63-1.23,3.4,3.4,0,0,0-2.46,1A3.87,3.87,0,0,0,140.11,9.83Z"/><path class="b417aa67-3c4f-4ec4-b52a-79acfdd84ce6" d="M160.92,12.71,163,13a5.39,5.39,0,0,1-1.75,3.38,5.11,5.11,0,0,1-3.46,1.22,5.38,5.38,0,0,1-4.14-1.68,6.85,6.85,0,0,1-1.57-4.83,8.71,8.71,0,0,1,.68-3.55,4.67,4.67,0,0,1,2-2.28,6,6,0,0,1,3-.76,5.2,5.2,0,0,1,3.34,1,4.75,4.75,0,0,1,1.66,2.93l-2.06.32a3.44,3.44,0,0,0-1.05-1.9,2.72,2.72,0,0,0-1.81-.64,3.32,3.32,0,0,0-2.61,1.15,5.49,5.49,0,0,0-1,3.65,5.64,5.64,0,0,0,1,3.67,3.13,3.13,0,0,0,2.52,1.14,2.94,2.94,0,0,0,2.09-.77A3.78,3.78,0,0,0,160.92,12.71Z"/><path class="b417aa67-3c4f-4ec4-b52a-79acfdd84ce6" d="M173.85,17.31V15.46a4.6,4.6,0,0,1-4,2.13,5,5,0,0,1-2.07-.43,3.39,3.39,0,0,1-1.43-1.06,4.12,4.12,0,0,1-.66-1.58,11.44,11.44,0,0,1-.13-2V4.77h2.13v7a12,12,0,0,0,.13,2.24,2.18,2.18,0,0,0,.85,1.32,2.62,2.62,0,0,0,1.6.48,3.48,3.48,0,0,0,1.8-.49,2.71,2.71,0,0,0,1.18-1.33,6.55,6.55,0,0,0,.35-2.45V4.77h2.13V17.31Z"/><path class="b417aa67-3c4f-4ec4-b52a-79acfdd84ce6" d="M184.51,15.41l.31,1.87a7.61,7.61,0,0,1-1.61.19,3.66,3.66,0,0,1-1.79-.36,2.1,2.1,0,0,1-.9-1,7.65,7.65,0,0,1-.26-2.51V6.42H178.7V4.77h1.56V1.67L182.38.39V4.77h2.13V6.42h-2.13v7.33a3.55,3.55,0,0,0,.11,1.17.84.84,0,0,0,.36.41,1.34,1.34,0,0,0,.73.16A7.58,7.58,0,0,0,184.51,15.41Z"/><path class="b417aa67-3c4f-4ec4-b52a-79acfdd84ce6" d="M187.4,2.44V0h2.12V2.44Zm0,14.87V4.77h2.12V17.31Z"/><path class="b417aa67-3c4f-4ec4-b52a-79acfdd84ce6" d="M197,17.31,192.27,4.77h2.24l2.69,7.51q.44,1.22.81,2.52c.19-.66.45-1.45.79-2.38l2.78-7.65h2.19L199,17.31Z"/><path class="b417aa67-3c4f-4ec4-b52a-79acfdd84ce6" d="M205.65,11a6.47,6.47,0,0,1,1.94-5.16,5.82,5.82,0,0,1,3.94-1.39,5.64,5.64,0,0,1,4.23,1.69,6.46,6.46,0,0,1,1.64,4.68,8.38,8.38,0,0,1-.73,3.81,5.14,5.14,0,0,1-2.11,2.15,6.2,6.2,0,0,1-3,.77,5.63,5.63,0,0,1-4.26-1.69A6.74,6.74,0,0,1,205.65,11Zm2.18,0a5.28,5.28,0,0,0,1.06,3.6,3.49,3.49,0,0,0,5.27,0A5.49,5.49,0,0,0,215.21,11a5.22,5.22,0,0,0-1.05-3.53,3.51,3.51,0,0,0-5.27,0A5.25,5.25,0,0,0,207.83,11Z"/><path class="b417aa67-3c4f-4ec4-b52a-79acfdd84ce6" d="M219.83,13.56l2.11-.33a2.89,2.89,0,0,0,1,1.94,3.42,3.42,0,0,0,2.26.67,3.35,3.35,0,0,0,2.17-.59,1.77,1.77,0,0,0,.71-1.4,1.32,1.32,0,0,0-.62-1.14,9.69,9.69,0,0,0-2.17-.72A19.63,19.63,0,0,1,222,11a3.06,3.06,0,0,1-1.36-1.19,3.09,3.09,0,0,1-.47-1.68,3.26,3.26,0,0,1,.38-1.55,3.44,3.44,0,0,1,1.05-1.19A4.48,4.48,0,0,1,223,4.74a6.37,6.37,0,0,1,1.83-.25,7.38,7.38,0,0,1,2.6.42A3.5,3.5,0,0,1,229,6.06,4.4,4.4,0,0,1,229.77,8l-2.07.29a2.29,2.29,0,0,0-.82-1.51A3,3,0,0,0,225,6.23a3.42,3.42,0,0,0-2.09.49,1.4,1.4,0,0,0-.63,1.13,1.17,1.17,0,0,0,.26.74,1.93,1.93,0,0,0,.82.57c.21.08.84.26,1.87.54a24.46,24.46,0,0,1,3.15,1,3.31,3.31,0,0,1,1.4,1.11,3.12,3.12,0,0,1,.51,1.82,3.57,3.57,0,0,1-.62,2,4.08,4.08,0,0,1-1.79,1.46,6.56,6.56,0,0,1-2.65.51,5.87,5.87,0,0,1-3.72-1A4.74,4.74,0,0,1,219.83,13.56Z"/><path class="b417aa67-3c4f-4ec4-b52a-79acfdd84ce6" d="M234.17,17.31V14.89h2.42v2.42Z"/><path class="b417aa67-3c4f-4ec4-b52a-79acfdd84ce6" d="M249.27,12.71l2.09.28a5.45,5.45,0,0,1-1.76,3.38,5.11,5.11,0,0,1-3.46,1.22A5.38,5.38,0,0,1,242,15.91a6.84,6.84,0,0,1-1.56-4.83,8.72,8.72,0,0,1,.67-3.55,4.67,4.67,0,0,1,2-2.28,6,6,0,0,1,3-.76,5.2,5.2,0,0,1,3.34,1,4.71,4.71,0,0,1,1.66,2.93l-2.06.32A3.44,3.44,0,0,0,248,6.87a2.72,2.72,0,0,0-1.81-.64,3.32,3.32,0,0,0-2.61,1.15,5.49,5.49,0,0,0-1,3.65,5.64,5.64,0,0,0,1,3.67,3.15,3.15,0,0,0,2.52,1.14,2.94,2.94,0,0,0,2.09-.77A3.78,3.78,0,0,0,249.27,12.71Z"/><path class="b417aa67-3c4f-4ec4-b52a-79acfdd84ce6" d="M253.18,11a6.47,6.47,0,0,1,1.94-5.16,5.8,5.8,0,0,1,3.94-1.39,5.6,5.6,0,0,1,4.22,1.69,6.42,6.42,0,0,1,1.65,4.68,8.38,8.38,0,0,1-.73,3.81,5.14,5.14,0,0,1-2.11,2.15,6.2,6.2,0,0,1-3,.77,5.63,5.63,0,0,1-4.26-1.69A6.74,6.74,0,0,1,253.18,11Zm2.18,0a5.34,5.34,0,0,0,1.05,3.6,3.5,3.5,0,0,0,5.28,0A5.49,5.49,0,0,0,262.74,11a5.22,5.22,0,0,0-1.05-3.53,3.52,3.52,0,0,0-5.28,0A5.3,5.3,0,0,0,255.36,11Z"/><path class="b417aa67-3c4f-4ec4-b52a-79acfdd84ce6" d="M268.21,17.31V4.77h1.9V6.53a4.4,4.4,0,0,1,1.58-1.48,4.32,4.32,0,0,1,2.23-.56,4.17,4.17,0,0,1,2.28.57,3.19,3.19,0,0,1,1.26,1.62,4.5,4.5,0,0,1,3.87-2.19,3.82,3.82,0,0,1,2.87,1,4.41,4.41,0,0,1,1,3.18v8.61h-2.11V9.41a5.78,5.78,0,0,0-.21-1.84,1.82,1.82,0,0,0-.75-.9,2.3,2.3,0,0,0-1.27-.34,3,3,0,0,0-2.2.88,3.86,3.86,0,0,0-.87,2.81v7.29h-2.13V9.16A3.54,3.54,0,0,0,275.14,7a1.94,1.94,0,0,0-1.7-.71,3.16,3.16,0,0,0-1.66.47,2.72,2.72,0,0,0-1.1,1.38,7.75,7.75,0,0,0-.34,2.62v6.51Z"/></g></g></svg>