<svg xmlns="http://www.w3.org/2000/svg" viewBox="0 0 21.73 19.36"><defs><style>.b3936521-8df3-4351-a6f2-1785c0978078{fill:#fff;}</style></defs><g id="a6c90d03-d698-4e4b-9201-5f269a3d19c5" data-name="Capa 2"><g id="a4ee2263-870b-4ee2-a155-819bc06af3bf" data-name="Capa 1"><path class="b3936521-8df3-4351-a6f2-1785c0978078" d="M0,0H5.34A4,4,0,0,1,8.45,1.15a5,5,0,0,1,1.06,3.4l.05,9.06a7.4,7.4,0,0,1-1,4.31,3.8,3.8,0,0,1-3.35,1.44H0ZM4.58,15.94a.93.93,0,0,0,1-1v-10a3.49,3.49,0,0,0-.1-1,.66.66,0,0,0-.37-.44,2.43,2.43,0,0,0-.83-.11H3.9V15.94Z"/><path class="b3936521-8df3-4351-a6f2-1785c0978078" d="M13.73,19.36V0h7.75V3.74H17.67V7.51h3.65v3.65H17.67V15.6h4.06v3.76Z"/></g></g></svg>