<svg xmlns="http://www.w3.org/2000/svg" viewBox="0 0 48.56 19.72"><defs><style>.e3c3cb77-cad7-41ef-8d2f-1d9a8e3f1b6d{fill:#fff;}</style></defs><g id="bddeb0de-a202-4ca1-8407-5f3a3ccd6797" data-name="Capa 2"><g id="a8ff6315-fa2f-4545-bf8a-d5dcec530e27" data-name="Capa 1"><path class="e3c3cb77-cad7-41ef-8d2f-1d9a8e3f1b6d" d="M0,19.54V.18H4L5.77,9.44V.18H9.51V19.54H5.73L3.79,9.85v9.69Z"/><path class="e3c3cb77-cad7-41ef-8d2f-1d9a8e3f1b6d" d="M14.84,18.37a6,6,0,0,1-1.17-4V.18h3.77v14a4.51,4.51,0,0,0,.18,1.44.83.83,0,0,0,1.53,0,4.49,4.49,0,0,0,.18-1.45V.18H23.1V14.36a6,6,0,0,1-1.16,4,4.44,4.44,0,0,1-3.55,1.35A4.41,4.41,0,0,1,14.84,18.37Z"/><path class="e3c3cb77-cad7-41ef-8d2f-1d9a8e3f1b6d" d="M27.26,19.54V.18H35V3.92H31.2V7.69h3.66v3.65H31.2v4.44h4.06v3.76Z"/><path class="e3c3cb77-cad7-41ef-8d2f-1d9a8e3f1b6d" d="M40.25,18.42a6.2,6.2,0,0,1-1.18-4.22V12.31h3.81v2.41q0,1.44.93,1.44a.82.82,0,0,0,.72-.3,2,2,0,0,0,.2-1,4.71,4.71,0,0,0-.22-1.57,3.51,3.51,0,0,0-.58-1c-.23-.28-.65-.71-1.25-1.3L41,9.26a5.76,5.76,0,0,1-1.94-4.19A5.53,5.53,0,0,1,40.21,1.3,4.18,4.18,0,0,1,43.54,0,4.6,4.6,0,0,1,47.3,1.39a6.7,6.7,0,0,1,1.15,4.34H44.51l0-1.33a.85.85,0,0,0-.21-.61.78.78,0,0,0-.6-.23.84.84,0,0,0-.67.25,1,1,0,0,0-.23.68,2.82,2.82,0,0,0,1.08,2l2.26,2.16a13.42,13.42,0,0,1,1.3,1.45,5.57,5.57,0,0,1,.84,1.63,7,7,0,0,1,.31,2.22,7.56,7.56,0,0,1-1,4.34,4,4,0,0,1-3.46,1.47A4.89,4.89,0,0,1,40.25,18.42Z"/></g></g></svg>