<svg xmlns="http://www.w3.org/2000/svg" viewBox="0 0 33.37 19.54"><defs><style>.b10503aa-f995-4547-97c9-6d8db48989aa{fill:#fff;}</style></defs><g id="e5cbb5b1-13ee-4b17-9a7f-404fadaabd76" data-name="Capa 2"><g id="ab19e2f4-9d24-45b3-8410-e3f6ce4cc80a" data-name="Capa 1"><path class="b10503aa-f995-4547-97c9-6d8db48989aa" d="M0,19.36V0H7.75V3.76H3.9V6.85H7.55v3.72H3.9v8.79Z"/><path class="b10503aa-f995-4547-97c9-6d8db48989aa" d="M12.82,18.19a6,6,0,0,1-1.16-4V0h3.76V14a4.51,4.51,0,0,0,.18,1.44.73.73,0,0,0,.77.52.73.73,0,0,0,.76-.51A4.49,4.49,0,0,0,17.31,14V0h3.77V14.18a6,6,0,0,1-1.16,4,4.44,4.44,0,0,1-3.55,1.35A4.41,4.41,0,0,1,12.82,18.19Z"/><path class="b10503aa-f995-4547-97c9-6d8db48989aa" d="M27.19,19.36V3.72h-2.3V0h8.48V3.72h-2.3V19.36Z"/></g></g></svg>