<svg xmlns="http://www.w3.org/2000/svg" viewBox="0 0 35.38 19.72"><defs><style>.e56cdf45-2dbf-46ea-9bc2-77bbfee26536{fill:#fff;}</style></defs><g id="b5fe4684-4897-4b93-8dcc-4da16c7b95aa" data-name="Capa 2"><g id="f3e8065a-6e13-4eb2-b5e3-fe927e451ac5" data-name="Capa 1"><path class="e56cdf45-2dbf-46ea-9bc2-77bbfee26536" d="M2.3,19.54V3.9H0V.18H8.47V3.9H6.18V19.54Z"/><path class="e56cdf45-2dbf-46ea-9bc2-77bbfee26536" d="M12.4.18h6a3.35,3.35,0,0,1,2.2.64A3.19,3.19,0,0,1,21.6,2.63a13.38,13.38,0,0,1,.27,3,6.34,6.34,0,0,1-.43,2.57A2.39,2.39,0,0,1,20,9.44a1.79,1.79,0,0,1,1.27.88,3.81,3.81,0,0,1,.4,1.9l-.05,7.32H17.79V12c0-.54-.11-.89-.32-1a2.1,2.1,0,0,0-1.15-.22v8.83H12.4Zm4.87,7.17c.54,0,.81-.59.81-1.76A6.63,6.63,0,0,0,18,4.44a.85.85,0,0,0-.25-.53.78.78,0,0,0-.51-.15h-.91V7.35Z"/><path class="e56cdf45-2dbf-46ea-9bc2-77bbfee26536" d="M27,18.29a6,6,0,0,1-1.22-4V5.05A5.29,5.29,0,0,1,27,1.27,4.69,4.69,0,0,1,30.6,0a4.68,4.68,0,0,1,3.56,1.27,5.24,5.24,0,0,1,1.22,3.78v9.22a6,6,0,0,1-1.22,4,4.41,4.41,0,0,1-3.56,1.42A4.39,4.39,0,0,1,27,18.29Zm4.26-2.58a3.51,3.51,0,0,0,.18-1.26V5a2.64,2.64,0,0,0-.17-1,.66.66,0,0,0-.69-.4q-1,0-1,1.47v9.44a3,3,0,0,0,.2,1.26.73.73,0,0,0,.74.43A.68.68,0,0,0,31.3,15.71Z"/></g></g></svg>