<svg xmlns="http://www.w3.org/2000/svg" viewBox="0 0 36.57 19.72"><defs><style>.b46a0bcf-75dc-4766-b764-4217141975bb{fill:#fff;}</style></defs><g id="abe88494-1d62-49e9-bc73-10252d02bf9a" data-name="Capa 2"><g id="a7cade98-db5f-4699-ae76-ae85af22214e" data-name="Capa 1"><path class="b46a0bcf-75dc-4766-b764-4217141975bb" d="M1.16,18.37a6,6,0,0,1-1.16-4V.18H3.76v14a4.51,4.51,0,0,0,.18,1.44.73.73,0,0,0,.77.52.74.74,0,0,0,.77-.51,4.49,4.49,0,0,0,.18-1.45V.18H9.42V14.36a6,6,0,0,1-1.16,4,4.43,4.43,0,0,1-3.55,1.35A4.43,4.43,0,0,1,1.16,18.37Z"/><path class="b46a0bcf-75dc-4766-b764-4217141975bb" d="M13.58.18h6a3.34,3.34,0,0,1,2.19.64,3.19,3.19,0,0,1,1.05,1.81,13.38,13.38,0,0,1,.27,3,6.17,6.17,0,0,1-.43,2.57,2.37,2.37,0,0,1-1.48,1.28,1.81,1.81,0,0,1,1.27.88,3.92,3.92,0,0,1,.39,1.9l0,7.32H19V12c0-.54-.1-.89-.31-1a2.12,2.12,0,0,0-1.15-.22v8.83H13.58Zm4.87,7.17c.54,0,.81-.59.81-1.76a8.14,8.14,0,0,0-.06-1.15A.91.91,0,0,0,19,3.91a.79.79,0,0,0-.52-.15h-.9V7.35Z"/><path class="b46a0bcf-75dc-4766-b764-4217141975bb" d="M28.23,18.29a6,6,0,0,1-1.22-4V5.05a5.24,5.24,0,0,1,1.22-3.78A4.68,4.68,0,0,1,31.79,0a4.69,4.69,0,0,1,3.56,1.27,5.29,5.29,0,0,1,1.22,3.78v9.22a6,6,0,0,1-1.22,4,4.42,4.42,0,0,1-3.56,1.42A4.38,4.38,0,0,1,28.23,18.29Zm4.26-2.58a3.51,3.51,0,0,0,.18-1.26V5a2.64,2.64,0,0,0-.17-1,.67.67,0,0,0-.69-.4c-.65,0-1,.49-1,1.47v9.44a3.11,3.11,0,0,0,.2,1.26.76.76,0,0,0,.75.43A.69.69,0,0,0,32.49,15.71Z"/></g></g></svg>