<svg xmlns="http://www.w3.org/2000/svg" viewBox="0 0 242.23 26.51"><defs><style>.f4c89e22-b2a8-445d-97de-f91739e402b7{fill:#f03c46;}.b5882db7-35ad-4792-841f-1111ed1fad88{fill:#fff;}.bd299398-56db-4e53-bb70-393296cf287c{fill:#e51b45;}.a23262cb-ca6c-48ea-bab9-78aafa5429d9{fill:#a21e58;}</style></defs><g id="e42ff7d0-d610-4642-87af-a92b3c8cc13d" data-name="Capa 2"><g id="bc9024e8-3d29-439f-9cb4-349b4d95d11b" data-name="Capa 1"><path d="M155.27,10.38h-2l-4-6.48v6.48h-2V.53h2l4,6.49V.53h2Z"/><path d="M167.42,5.68a6,6,0,0,1-.51,2.55,3.86,3.86,0,0,1-1.47,1.69,4,4,0,0,1-2.2.59,4.11,4.11,0,0,1-2.18-.58,4,4,0,0,1-1.49-1.69A5.83,5.83,0,0,1,159,5.73V5.24a5.91,5.91,0,0,1,.53-2.56A3.89,3.89,0,0,1,161,1a4.3,4.3,0,0,1,4.38,0,3.89,3.89,0,0,1,1.48,1.69,5.91,5.91,0,0,1,.52,2.56Zm-2-.45a4.12,4.12,0,0,0-.56-2.35,2,2,0,0,0-3.16,0,4,4,0,0,0-.56,2.33v.48A4.22,4.22,0,0,0,161.65,8a1.94,1.94,0,0,0,3.16,0,4.21,4.21,0,0,0,.56-2.34Z"/><path d="M174.44,7.94,176.67.53h2.26l-3.43,9.85h-2.12L170,.53h2.25Z"/><path d="M184.28,10.38h-2V.53h2Z"/><path d="M194.36,6.11h-3.89V8.75H195v1.63h-6.6V.53H195V2.17h-4.56V4.52h3.89Z"/><path d="M201.31.53l2.53,7.14L206.36.53H209v9.85h-2V7.69l.2-4.65-2.66,7.34h-1.39L200.49,3l.2,4.65v2.69h-2V.53Z"/><path d="M213.14,10.38V.53h3.45a4.61,4.61,0,0,1,2.72.68,2.37,2.37,0,0,1,.92,2,2.18,2.18,0,0,1-.37,1.27,2.13,2.13,0,0,1-1,.81,2.08,2.08,0,0,1,1.19.77,2.25,2.25,0,0,1,.44,1.4,2.6,2.6,0,0,1-.91,2.15,4.06,4.06,0,0,1-2.58.75Zm2-5.72h1.5q1.53,0,1.53-1.23a1.11,1.11,0,0,0-.39-1,2,2,0,0,0-1.22-.3h-1.42Zm0,1.43V8.75h1.73A1.7,1.7,0,0,0,218,8.41a1.19,1.19,0,0,0,.41-1A1.24,1.24,0,0,0,217,6.09Z"/><path d="M227.89,6.77h-1.62v3.61h-2V.53h3.66a4.13,4.13,0,0,1,2.69.78,2.68,2.68,0,0,1,.95,2.19,3.05,3.05,0,0,1-.44,1.69,3,3,0,0,1-1.32,1.07l2.13,4v.1h-2.18Zm-1.62-1.64h1.64a1.66,1.66,0,0,0,1.18-.39,1.39,1.39,0,0,0,.42-1.07,1.47,1.47,0,0,0-.4-1.1,1.66,1.66,0,0,0-1.21-.4h-1.63Z"/><path d="M241.28,6.11h-3.9V8.75H242v1.63h-6.61V.53h6.59V2.17h-4.56V4.52h3.9Z"/><path class="f4c89e22-b2a8-445d-97de-f91739e402b7" d="M152.82,22.72h-3.56l-.67,2h-2.16l3.67-9.85H152l3.68,9.85h-2.15Zm-3-1.65h2.46L151,17.39Z"/><path class="f4c89e22-b2a8-445d-97de-f91739e402b7" d="M164.53,21.14h-1.62v3.61h-2V14.9h3.66a4.11,4.11,0,0,1,2.69.78,2.64,2.64,0,0,1,1,2.19,3.05,3.05,0,0,1-.43,1.69,3.14,3.14,0,0,1-1.33,1.07l2.13,4v.1h-2.17Zm-1.62-1.64h1.64a1.66,1.66,0,0,0,1.18-.39,1.39,1.39,0,0,0,.42-1.07,1.51,1.51,0,0,0-.39-1.1,1.69,1.69,0,0,0-1.22-.4h-1.63Z"/><path class="f4c89e22-b2a8-445d-97de-f91739e402b7" d="M179.89,20.48H176v2.64h4.57v1.63H174V14.9h6.59v1.64H176v2.35h3.89Z"/><path class="f4c89e22-b2a8-445d-97de-f91739e402b7" d="M194,20.05a5.82,5.82,0,0,1-.45,2.39,4.11,4.11,0,0,1-1.23,1.64L194,25.36l-1.29,1.15-2.1-1.69a4.35,4.35,0,0,1-.74.06,4.12,4.12,0,0,1-2.19-.58,3.94,3.94,0,0,1-1.48-1.69,5.69,5.69,0,0,1-.54-2.51v-.49a5.91,5.91,0,0,1,.53-2.56,3.89,3.89,0,0,1,1.48-1.69,4.3,4.3,0,0,1,4.38,0,4,4,0,0,1,1.48,1.69,5.91,5.91,0,0,1,.52,2.56ZM192,19.6a4.12,4.12,0,0,0-.55-2.35,1.81,1.81,0,0,0-1.58-.81,1.84,1.84,0,0,0-1.58.79,4.1,4.1,0,0,0-.56,2.34v.48a4.22,4.22,0,0,0,.55,2.34,1.82,1.82,0,0,0,1.6.83,1.8,1.8,0,0,0,1.57-.8,4.21,4.21,0,0,0,.55-2.34Z"/><path class="f4c89e22-b2a8-445d-97de-f91739e402b7" d="M207.23,14.9v6.49a3.32,3.32,0,0,1-1,2.55,4.57,4.57,0,0,1-5.51,0,3.28,3.28,0,0,1-1-2.51V14.9h2v6.5a1.87,1.87,0,0,0,.46,1.41,1.76,1.76,0,0,0,1.28.44q1.71,0,1.74-1.8V14.9Z"/><path class="f4c89e22-b2a8-445d-97de-f91739e402b7" d="M215.34,24.75h-2V14.9h2Z"/><path class="f4c89e22-b2a8-445d-97de-f91739e402b7" d="M223.5,21.28v3.47h-2V14.9h3.84a4.44,4.44,0,0,1,1.95.4,3.06,3.06,0,0,1,1.3,1.16,3.22,3.22,0,0,1,.45,1.7,2.82,2.82,0,0,1-1,2.28,4.12,4.12,0,0,1-2.74.84Zm0-1.65h1.81a1.74,1.74,0,0,0,1.23-.38,1.37,1.37,0,0,0,.42-1.08,1.61,1.61,0,0,0-.43-1.17,1.56,1.56,0,0,0-1.17-.46H223.5Z"/><path class="f4c89e22-b2a8-445d-97de-f91739e402b7" d="M239.39,22.72h-3.56l-.68,2H233l3.67-9.85h1.88l3.69,9.85h-2.16Zm-3-1.65h2.46l-1.24-3.68Z"/><rect width="43.27" height="25.88"/><path class="b5882db7-35ad-4792-841f-1111ed1fad88" d="M20.62,17.81v2.73H10.28a7.12,7.12,0,0,1,1-2.94,19.39,19.39,0,0,1,3.31-3.69,20.32,20.32,0,0,0,2.45-2.52,3.19,3.19,0,0,0,.61-1.8,2.08,2.08,0,0,0-.53-1.52,2,2,0,0,0-1.46-.53,2,2,0,0,0-1.47.56A2.8,2.8,0,0,0,13.57,10l-2.94-.3a4.78,4.78,0,0,1,1.65-3.49A5.49,5.49,0,0,1,15.74,5.1a5,5,0,0,1,3.58,1.23,4,4,0,0,1,1.3,3.05,5.52,5.52,0,0,1-.37,2,8.33,8.33,0,0,1-1.19,2,19.38,19.38,0,0,1-1.93,2c-.93.85-1.52,1.42-1.76,1.7a5.26,5.26,0,0,0-.61.82Z"/><path class="b5882db7-35ad-4792-841f-1111ed1fad88" d="M32.47,8.93l-2.86.31a2.11,2.11,0,0,0-.54-1.3,1.61,1.61,0,0,0-1.15-.42,1.94,1.94,0,0,0-1.58.84,7.09,7.09,0,0,0-.81,3.5,3.45,3.45,0,0,1,2.74-1.31A4.17,4.17,0,0,1,31.43,12a5.1,5.1,0,0,1,1.32,3.63,5.18,5.18,0,0,1-1.39,3.79A5,5,0,0,1,24,19q-1.5-1.82-1.5-5.94T24,7A5,5,0,0,1,28.1,5.1a4.31,4.31,0,0,1,2.9,1A4.56,4.56,0,0,1,32.47,8.93Zm-6.69,6.43a3.34,3.34,0,0,0,.66,2.22,2,2,0,0,0,1.51.78,1.72,1.72,0,0,0,1.37-.64,3.23,3.23,0,0,0,.54-2.1,3.34,3.34,0,0,0-.59-2.2,1.9,1.9,0,0,0-2.9,0A2.92,2.92,0,0,0,25.78,15.36Z"/><rect class="bd299398-56db-4e53-bb70-393296cf287c" x="43.58" width="43.27" height="25.88"/><path class="b5882db7-35ad-4792-841f-1111ed1fad88" d="M64.24,17.81v2.73H53.91a7.1,7.1,0,0,1,1-2.94,19.53,19.53,0,0,1,3.32-3.69,20,20,0,0,0,2.44-2.52,3.19,3.19,0,0,0,.61-1.8,2,2,0,0,0-.53-1.52,2,2,0,0,0-1.46-.53,2,2,0,0,0-1.47.56A2.91,2.91,0,0,0,57.19,10l-2.94-.3A4.85,4.85,0,0,1,55.9,6.16,5.51,5.51,0,0,1,59.36,5.1a5,5,0,0,1,3.58,1.23,4,4,0,0,1,1.3,3.05,5.32,5.32,0,0,1-.37,2,8.26,8.26,0,0,1-1.18,2,20.55,20.55,0,0,1-1.93,2c-.93.85-1.52,1.42-1.77,1.7a4.6,4.6,0,0,0-.6.82Z"/><path class="b5882db7-35ad-4792-841f-1111ed1fad88" d="M66,8.11V5.37H76.1V7.51A15.74,15.74,0,0,0,73.56,11a20.54,20.54,0,0,0-2,4.88,18.57,18.57,0,0,0-.67,4.62H68.08A19.77,19.77,0,0,1,69.4,14a21.31,21.31,0,0,1,3.32-5.93Z"/><rect class="a23262cb-ca6c-48ea-bab9-78aafa5429d9" x="87.16" width="43.27" height="25.88"/><path class="b5882db7-35ad-4792-841f-1111ed1fad88" d="M107.77,17.81v2.73H97.43a7.26,7.26,0,0,1,1-2.94,19.18,19.18,0,0,1,3.32-3.69,20,20,0,0,0,2.44-2.52,3.19,3.19,0,0,0,.61-1.8,2.08,2.08,0,0,0-.53-1.52,2,2,0,0,0-1.46-.53,2,2,0,0,0-1.47.56,2.8,2.8,0,0,0-.63,1.85l-2.94-.3a4.78,4.78,0,0,1,1.65-3.49,5.49,5.49,0,0,1,3.46-1.06,5,5,0,0,1,3.58,1.23,4,4,0,0,1,1.3,3.05,5.52,5.52,0,0,1-.37,2,8.61,8.61,0,0,1-1.18,2,19.76,19.76,0,0,1-1.94,2c-.93.85-1.52,1.42-1.76,1.7a5.26,5.26,0,0,0-.61.82Z"/><path class="b5882db7-35ad-4792-841f-1111ed1fad88" d="M112.18,12.24a3.44,3.44,0,0,1-1.67-1.32A3.55,3.55,0,0,1,110,9.06a3.71,3.71,0,0,1,1.21-2.84,5.75,5.75,0,0,1,6.82,0,3.74,3.74,0,0,1,1.21,2.84,3.37,3.37,0,0,1-.56,1.91,3.46,3.46,0,0,1-1.56,1.27,4.14,4.14,0,0,1,1.94,1.51,3.89,3.89,0,0,1,.67,2.27,4.6,4.6,0,0,1-1.36,3.46,4.92,4.92,0,0,1-3.61,1.34,5.5,5.5,0,0,1-3.5-1.1,4.32,4.32,0,0,1-1.64-3.57,4.47,4.47,0,0,1,.61-2.3A4.08,4.08,0,0,1,112.18,12.24Zm.33,3.62a2.67,2.67,0,0,0,.63,1.9,2,2,0,0,0,1.56.69,2,2,0,0,0,1.51-.66,2.76,2.76,0,0,0,.59-1.89,2.49,2.49,0,0,0-.6-1.74,2,2,0,0,0-1.55-.66,1.85,1.85,0,0,0-1.61.75A2.75,2.75,0,0,0,112.51,15.86Zm.28-6.59a1.86,1.86,0,0,0,.49,1.38,1.82,1.82,0,0,0,1.33.49,1.78,1.78,0,0,0,1.34-.5,1.83,1.83,0,0,0,.51-1.38,1.79,1.79,0,0,0-.5-1.32,1.75,1.75,0,0,0-1.32-.5,1.86,1.86,0,0,0-1.35.5A1.79,1.79,0,0,0,112.79,9.27Z"/></g></g></svg>