<svg xmlns="http://www.w3.org/2000/svg" viewBox="0 0 126.4 47.5"><defs><style>.b2b766fe-e716-4b24-8dad-ff2874b170e5{fill:#f03c46;}.bbc974a7-a43b-4bbc-983a-6fdb23a13b1a{fill:#fff;}</style></defs><g id="bc10a6ad-ac02-423e-8894-4756584080ab" data-name="Capa 2"><g id="e457724e-b626-437d-989b-731f9eae892d" data-name="Capa 1"><rect class="b2b766fe-e716-4b24-8dad-ff2874b170e5" y="14.18" width="126.4" height="22.07"/><rect class="bbc974a7-a43b-4bbc-983a-6fdb23a13b1a" x="65.17" y="16.16" width="5.61" height="18.12"/><path class="bbc974a7-a43b-4bbc-983a-6fdb23a13b1a" d="M99.57,27.37l-2-6.51-2,6.51Zm1.16,3.92H94.38l-.89,3H87.77l6.82-18.12h6.1l6.81,18.12h-5.86Z"/><path class="bbc974a7-a43b-4bbc-983a-6fdb23a13b1a" d="M79.57,23.88h1.37a3.47,3.47,0,0,0,2.27-.56,1.79,1.79,0,0,0,.66-1.44,2,2,0,0,0-.57-1.44,2.93,2.93,0,0,0-2.14-.6H79.57Zm-5.63-7.72h9.31a6.35,6.35,0,0,1,4.56,1.45,5.4,5.4,0,0,1,1.51,4.11A5.59,5.59,0,0,1,87.67,26a7.16,7.16,0,0,1-5,1.55H79.57v6.72H73.94Z"/><polygon class="bbc974a7-a43b-4bbc-983a-6fdb23a13b1a" points="109.14 16.16 124.42 16.16 124.42 20.03 114.76 20.03 114.76 22.91 123.47 22.91 123.47 26.6 114.76 26.6 114.76 30.18 124.42 30.18 124.42 34.28 109.14 34.28 109.14 16.16"/><path class="b2b766fe-e716-4b24-8dad-ff2874b170e5" d="M.37,47.41l2.05-5.33h.76l2.18,5.33h-.8L3.94,45.8H1.7l-.58,1.61Zm1.54-2.19H3.72l-.56-1.48c-.17-.44-.29-.81-.38-1.1a7.74,7.74,0,0,1-.28,1Z"/><path class="b2b766fe-e716-4b24-8dad-ff2874b170e5" d="M9.74,45.54l.7.18a2.39,2.39,0,0,1-.8,1.33,2.2,2.2,0,0,1-1.41.45,2.49,2.49,0,0,1-1.4-.35,2.12,2.12,0,0,1-.82-1,3.62,3.62,0,0,1-.29-1.43A3.18,3.18,0,0,1,6,43.25,2.18,2.18,0,0,1,7,42.31,2.57,2.57,0,0,1,8.24,42a2,2,0,0,1,2.11,1.55l-.69.16a1.7,1.7,0,0,0-.54-.84,1.43,1.43,0,0,0-.89-.27,1.72,1.72,0,0,0-1,.3,1.5,1.5,0,0,0-.58.79,3.21,3.21,0,0,0-.17,1,3.29,3.29,0,0,0,.2,1.19,1.47,1.47,0,0,0,.62.76,1.7,1.7,0,0,0,.9.25,1.52,1.52,0,0,0,1-.34A1.81,1.81,0,0,0,9.74,45.54Z"/><path class="b2b766fe-e716-4b24-8dad-ff2874b170e5" d="M15.12,45.54l.71.18a2.44,2.44,0,0,1-.8,1.33,2.24,2.24,0,0,1-1.41.45,2.5,2.5,0,0,1-1.41-.35,2.18,2.18,0,0,1-.82-1,3.61,3.61,0,0,1-.28-1.43,3.05,3.05,0,0,1,.32-1.46,2.15,2.15,0,0,1,.9-.94,2.61,2.61,0,0,1,1.3-.32,2.17,2.17,0,0,1,1.34.4,2.11,2.11,0,0,1,.76,1.15L15,43.7a1.58,1.58,0,0,0-.54-.84,1.41,1.41,0,0,0-.89-.27,1.72,1.72,0,0,0-1,.3,1.55,1.55,0,0,0-.58.79,3.2,3.2,0,0,0-.16,1A3.3,3.3,0,0,0,12,45.89a1.52,1.52,0,0,0,.62.76,1.71,1.71,0,0,0,.91.25,1.5,1.5,0,0,0,1-.34A1.75,1.75,0,0,0,15.12,45.54Z"/><path class="b2b766fe-e716-4b24-8dad-ff2874b170e5" d="M16.82,47.41V42.08h.7v5.33Z"/><path class="b2b766fe-e716-4b24-8dad-ff2874b170e5" d="M18.55,44.81a2.91,2.91,0,0,1,.72-2.08A2.42,2.42,0,0,1,21.11,42a2.53,2.53,0,0,1,1.33.36,2.19,2.19,0,0,1,.9,1,3.38,3.38,0,0,1,0,2.89,2.29,2.29,0,0,1-.93,1,2.75,2.75,0,0,1-1.3.32,2.51,2.51,0,0,1-1.34-.36,2.27,2.27,0,0,1-.9-1A3,3,0,0,1,18.55,44.81Zm.73,0a2.13,2.13,0,0,0,.52,1.52,1.81,1.81,0,0,0,2.61,0,2.22,2.22,0,0,0,.52-1.59,2.86,2.86,0,0,0-.22-1.14,1.7,1.7,0,0,0-.65-.75,1.73,1.73,0,0,0-.95-.27,1.78,1.78,0,0,0-1.29.52A2.29,2.29,0,0,0,19.28,44.83Zm1.38-3.08.48-1H22l-.8,1Z"/><path class="b2b766fe-e716-4b24-8dad-ff2874b170e5" d="M24.56,47.41V42.08h.72l2.81,4.19V42.08h.67v5.33H28l-2.8-4.19v4.19Z"/><path class="b2b766fe-e716-4b24-8dad-ff2874b170e5" d="M32,47.41V42.08h3.85v.63H32.74v1.63h2.95V45H32.74v1.81H36v.63Z"/><path class="b2b766fe-e716-4b24-8dad-ff2874b170e5" d="M37,47.41V42.08H38l1.26,3.78c.11.35.2.61.25.79.06-.2.16-.48.29-.86l1.27-3.71h1v5.33h-.68V43l-1.55,4.46H39.2l-1.55-4.54v4.54Z"/><path class="b2b766fe-e716-4b24-8dad-ff2874b170e5" d="M43.2,47.41V42.08h2a4.33,4.33,0,0,1,.81.05,1.49,1.49,0,0,1,.66.25,1.36,1.36,0,0,1,.43.51,1.77,1.77,0,0,1,.16.73,1.63,1.63,0,0,1-.44,1.15,2,2,0,0,1-1.56.47H43.91v2.17Zm.71-2.8h1.38a1.45,1.45,0,0,0,1-.25.92.92,0,0,0,.29-.72,1,1,0,0,0-.17-.57.82.82,0,0,0-.45-.32,3.12,3.12,0,0,0-.65,0H43.91Z"/><path class="b2b766fe-e716-4b24-8dad-ff2874b170e5" d="M48.19,47.41V42.08h2.36a3.34,3.34,0,0,1,1.09.14,1.22,1.22,0,0,1,.59.51,1.48,1.48,0,0,1,.22.8,1.36,1.36,0,0,1-.36,1A1.89,1.89,0,0,1,51,45a1.79,1.79,0,0,1,.43.26A3.87,3.87,0,0,1,52,46l.93,1.45H52l-.7-1.11c-.21-.32-.38-.56-.51-.73a2,2,0,0,0-.36-.36,1.12,1.12,0,0,0-.32-.14,1.9,1.9,0,0,0-.4,0h-.82v2.37Zm.7-3h1.52a2.22,2.22,0,0,0,.76-.1.74.74,0,0,0,.41-.32.83.83,0,0,0-.13-1.1,1.29,1.29,0,0,0-.87-.24H48.89Z"/><path class="b2b766fe-e716-4b24-8dad-ff2874b170e5" d="M53.58,47.41V42.08h3.85v.63H54.28v1.63h2.95V45H54.28v1.81h3.28v.63Z"/><path class="b2b766fe-e716-4b24-8dad-ff2874b170e5" d="M58.29,45.7l.67-.06a1.39,1.39,0,0,0,.22.66,1.11,1.11,0,0,0,.54.41,1.94,1.94,0,0,0,.82.16,2,2,0,0,0,.71-.12,1,1,0,0,0,.46-.33.77.77,0,0,0,.15-.46.66.66,0,0,0-.15-.43,1,1,0,0,0-.48-.32c-.14-.05-.46-.14-.95-.26a5.41,5.41,0,0,1-1-.33,1.56,1.56,0,0,1-.57-.5,1.26,1.26,0,0,1-.18-.66,1.33,1.33,0,0,1,.23-.76,1.39,1.39,0,0,1,.67-.53,2.55,2.55,0,0,1,1-.18,2.61,2.61,0,0,1,1,.19,1.45,1.45,0,0,1,.7.56,1.63,1.63,0,0,1,.26.84l-.68.05a1,1,0,0,0-.37-.76,1.39,1.39,0,0,0-.93-.26,1.55,1.55,0,0,0-.93.23.73.73,0,0,0-.29.57.59.59,0,0,0,.21.47,2.66,2.66,0,0,0,1.06.38,7.83,7.83,0,0,1,1.18.34,1.7,1.7,0,0,1,.69.55,1.31,1.31,0,0,1,.22.76,1.47,1.47,0,0,1-.24.8,1.69,1.69,0,0,1-.7.59,2.46,2.46,0,0,1-1,.2,3.14,3.14,0,0,1-1.22-.21,1.68,1.68,0,0,1-.76-.63A1.76,1.76,0,0,1,58.29,45.7Z"/><path class="b2b766fe-e716-4b24-8dad-ff2874b170e5" d="M62.92,47.41l2-5.33h.76l2.18,5.33h-.8l-.62-1.61H64.26l-.59,1.61Zm1.54-2.19h1.81l-.56-1.48c-.17-.44-.29-.81-.38-1.1a6.46,6.46,0,0,1-.28,1Z"/><path class="b2b766fe-e716-4b24-8dad-ff2874b170e5" d="M68.49,47.41V42.08h2.37a3.32,3.32,0,0,1,1.08.14,1.17,1.17,0,0,1,.59.51,1.49,1.49,0,0,1,.23.8,1.37,1.37,0,0,1-.37,1,1.89,1.89,0,0,1-1.14.5,1.79,1.79,0,0,1,.43.26,3.87,3.87,0,0,1,.58.71l.93,1.45H72.3l-.7-1.11c-.21-.32-.38-.56-.51-.73a1.72,1.72,0,0,0-.36-.36,1.12,1.12,0,0,0-.32-.14,1.83,1.83,0,0,0-.4,0H69.2v2.37Zm.71-3h1.51a2.18,2.18,0,0,0,.76-.1.8.8,0,0,0,.42-.32.87.87,0,0,0,.14-.48.77.77,0,0,0-.28-.62,1.29,1.29,0,0,0-.87-.24H69.2Z"/><path class="b2b766fe-e716-4b24-8dad-ff2874b170e5" d="M74,47.41V42.08h.71v5.33Z"/><path class="b2b766fe-e716-4b24-8dad-ff2874b170e5" d="M75.35,47.41l2.05-5.33h.76l2.18,5.33h-.8l-.62-1.61H76.68l-.58,1.61Zm1.54-2.19H78.7l-.56-1.48c-.17-.44-.3-.81-.38-1.1a6.5,6.5,0,0,1-.29,1Z"/><path class="b2b766fe-e716-4b24-8dad-ff2874b170e5" d="M80.88,47.41V42.08h.7v4.7h2.63v.63Z"/><path d="M1.09,6.58V0H5.85V.78H2v2H5.6v.77H2V5.8H6v.78Z"/><path d="M8.42,6.58,6.61,1.81h.85l1,2.86c.11.3.22.62.31,1q.11-.37.3-.9l1.06-2.91H11L9.17,6.58Z"/><path d="M15,5l.84.11a2.07,2.07,0,0,1-.73,1.13,2.21,2.21,0,0,1-1.37.4A2.15,2.15,0,0,1,12,6a2.51,2.51,0,0,1-.62-1.81A2.63,2.63,0,0,1,12,2.37a2.11,2.11,0,0,1,1.61-.67,2.07,2.07,0,0,1,1.56.65,2.63,2.63,0,0,1,.6,1.84V4.4H12.26a1.81,1.81,0,0,0,.44,1.2,1.33,1.33,0,0,0,1,.42,1.24,1.24,0,0,0,.75-.23A1.57,1.57,0,0,0,15,5ZM12.3,3.74H15a1.69,1.69,0,0,0-.3-.91,1.24,1.24,0,0,0-1-.46,1.28,1.28,0,0,0-.94.37A1.51,1.51,0,0,0,12.3,3.74Z"/><path d="M16.8,6.58V1.81h.73v.68A1.71,1.71,0,0,1,19,1.7a2.11,2.11,0,0,1,.8.16,1.21,1.21,0,0,1,.54.41,1.51,1.51,0,0,1,.25.59,4.79,4.79,0,0,1,0,.79V6.58h-.8V3.68a2.22,2.22,0,0,0-.1-.74.78.78,0,0,0-.33-.39,1.05,1.05,0,0,0-.57-.15,1.31,1.31,0,0,0-.89.33A1.61,1.61,0,0,0,17.61,4V6.58Z"/><path d="M23.67,5.85l.12.72a2.85,2.85,0,0,1-.61.07,1.41,1.41,0,0,1-.68-.14.72.72,0,0,1-.34-.37,2.72,2.72,0,0,1-.1-1V2.44h-.59V1.81h.59V.63l.8-.48V1.81h.81v.63h-.81V5.23a1.37,1.37,0,0,0,0,.44.36.36,0,0,0,.14.16.55.55,0,0,0,.28.06A1.7,1.7,0,0,0,23.67,5.85Z"/><path d="M24.16,4.19a2.47,2.47,0,0,1,.74-2,2.24,2.24,0,0,1,1.5-.53,2.12,2.12,0,0,1,1.6.65,2.43,2.43,0,0,1,.62,1.78,3.18,3.18,0,0,1-.27,1.44,1.92,1.92,0,0,1-.8.82,2.29,2.29,0,0,1-1.15.29A2.13,2.13,0,0,1,24.78,6,2.57,2.57,0,0,1,24.16,4.19Zm.83,0a2,2,0,0,0,.4,1.37,1.33,1.33,0,0,0,2,0,2.1,2.1,0,0,0,.39-1.39,2,2,0,0,0-.4-1.34,1.25,1.25,0,0,0-1-.46,1.27,1.27,0,0,0-1,.46A2,2,0,0,0,25,4.19Z"/><path d="M31.82,4.19a2.47,2.47,0,0,1,.74-2,2.24,2.24,0,0,1,1.5-.53,2.12,2.12,0,0,1,1.6.65,2.43,2.43,0,0,1,.63,1.78A3,3,0,0,1,36,5.57a1.92,1.92,0,0,1-.8.82,2.29,2.29,0,0,1-1.15.29A2.13,2.13,0,0,1,32.44,6,2.57,2.57,0,0,1,31.82,4.19Zm.83,0a2.05,2.05,0,0,0,.4,1.37,1.33,1.33,0,0,0,2,0,2.1,2.1,0,0,0,.4-1.39,2,2,0,0,0-.4-1.34,1.33,1.33,0,0,0-2,0A2,2,0,0,0,32.65,4.19Z"/><path d="M37.22,6.58V1.81H38v.72a2.08,2.08,0,0,1,.51-.66A.9.9,0,0,1,39,1.7a1.61,1.61,0,0,1,.83.26l-.27.75a1.24,1.24,0,0,0-.6-.17.74.74,0,0,0-.47.16.83.83,0,0,0-.3.44,3.14,3.14,0,0,0-.14.94v2.5Z"/><path d="M40.14,7l.79.12a.74.74,0,0,0,.27.53,1.35,1.35,0,0,0,.82.22,1.43,1.43,0,0,0,.87-.22A1.11,1.11,0,0,0,43.3,7a5.58,5.58,0,0,0,.06-1A1.65,1.65,0,0,1,42,6.58a1.81,1.81,0,0,1-1.52-.71A2.74,2.74,0,0,1,40,4.17a3.22,3.22,0,0,1,.25-1.26A1.88,1.88,0,0,1,41,2a1.9,1.9,0,0,1,1.1-.32,1.71,1.71,0,0,1,1.39.69V1.81h.74V5.93A4,4,0,0,1,44,7.51a1.69,1.69,0,0,1-.72.73A2.49,2.49,0,0,1,42,8.51a2.32,2.32,0,0,1-1.38-.38A1.31,1.31,0,0,1,40.14,7Zm.67-2.86a2.08,2.08,0,0,0,.38,1.37,1.19,1.19,0,0,0,.93.43,1.21,1.21,0,0,0,.93-.43,2,2,0,0,0,.38-1.34A1.93,1.93,0,0,0,43,2.82a1.19,1.19,0,0,0-.93-.45,1.18,1.18,0,0,0-.92.44A2,2,0,0,0,40.81,4.11Z"/><path d="M48.51,6a3.35,3.35,0,0,1-.86.54,2.64,2.64,0,0,1-.89.15,1.71,1.71,0,0,1-1.21-.38,1.27,1.27,0,0,1-.42-1,1.27,1.27,0,0,1,.16-.64,1.22,1.22,0,0,1,.41-.46A2,2,0,0,1,46.29,4,6.31,6.31,0,0,1,47,3.83a7.1,7.1,0,0,0,1.44-.28c0-.11,0-.18,0-.21a.88.88,0,0,0-.23-.69,1.32,1.32,0,0,0-.92-.28,1.44,1.44,0,0,0-.84.2,1.21,1.21,0,0,0-.4.71l-.79-.11a2,2,0,0,1,.35-.82,1.6,1.6,0,0,1,.72-.48,3.22,3.22,0,0,1,1.08-.17,2.79,2.79,0,0,1,1,.15,1.24,1.24,0,0,1,.56.36,1.27,1.27,0,0,1,.25.55,4.17,4.17,0,0,1,0,.74V4.58A12.38,12.38,0,0,0,49.31,6a1.84,1.84,0,0,0,.21.58h-.85A2,2,0,0,1,48.51,6Zm-.07-1.8a6.24,6.24,0,0,1-1.32.3,3.19,3.19,0,0,0-.7.16.75.75,0,0,0-.32.26A.77.77,0,0,0,46,5.3a.71.71,0,0,0,.24.54,1.1,1.1,0,0,0,.72.21,1.73,1.73,0,0,0,.83-.2,1.24,1.24,0,0,0,.53-.56,1.89,1.89,0,0,0,.13-.81Z"/><path d="M50.51,6.58V1.81h.73v.68a1.71,1.71,0,0,1,1.51-.79,2.08,2.08,0,0,1,.8.16,1.21,1.21,0,0,1,.54.41,1.51,1.51,0,0,1,.25.59,4.79,4.79,0,0,1,0,.79V6.58h-.8V3.68a2.22,2.22,0,0,0-.1-.74.78.78,0,0,0-.33-.39,1.05,1.05,0,0,0-.57-.15,1.31,1.31,0,0,0-.89.33A1.61,1.61,0,0,0,51.32,4V6.58Z"/><path d="M55.62.93V0h.81V.93Zm0,5.65V1.81h.81V6.58Z"/><path d="M57.24,6.58V5.92l3-3.48-.91,0H57.42V1.81h3.89v.54l-2.58,3-.5.55c.36,0,.7,0,1,0h2.2v.7Z"/><path d="M65.37,6a3.23,3.23,0,0,1-.87.54,2.6,2.6,0,0,1-.89.15A1.74,1.74,0,0,1,62.4,6.3a1.27,1.27,0,0,1-.42-1,1.38,1.38,0,0,1,.16-.64,1.33,1.33,0,0,1,.42-.46A1.82,1.82,0,0,1,63.14,4a6.58,6.58,0,0,1,.72-.12,7.41,7.41,0,0,0,1.44-.28V3.34a.85.85,0,0,0-.23-.69,1.3,1.3,0,0,0-.92-.28,1.44,1.44,0,0,0-.84.2,1.27,1.27,0,0,0-.4.71l-.79-.11a1.88,1.88,0,0,1,.36-.82,1.57,1.57,0,0,1,.71-.48,3.22,3.22,0,0,1,1.08-.17,2.71,2.71,0,0,1,1,.15,1.18,1.18,0,0,1,.56.36,1.17,1.17,0,0,1,.25.55,4.17,4.17,0,0,1,0,.74V4.58A9.68,9.68,0,0,0,66.17,6a1.82,1.82,0,0,0,.2.58h-.84A1.56,1.56,0,0,1,65.37,6Zm-.07-1.8a6.56,6.56,0,0,1-1.32.3,3.32,3.32,0,0,0-.71.16.82.82,0,0,0-.32.26.77.77,0,0,0-.11.39.72.72,0,0,0,.25.54,1.06,1.06,0,0,0,.71.21,1.7,1.7,0,0,0,.83-.2,1.27,1.27,0,0,0,.54-.56,2.06,2.06,0,0,0,.13-.81Z"/><path d="M70.46,6.58V6a1.48,1.48,0,0,1-1.34.71,1.82,1.82,0,0,1-1-.31,2,2,0,0,1-.74-.88,2.92,2.92,0,0,1-.27-1.29,3.38,3.38,0,0,1,.24-1.3,1.88,1.88,0,0,1,1.78-1.2,1.54,1.54,0,0,1,.77.19,1.64,1.64,0,0,1,.54.47V0h.8V6.58ZM67.9,4.2a2.07,2.07,0,0,0,.39,1.37A1.17,1.17,0,0,0,69.2,6a1.14,1.14,0,0,0,.9-.43,2,2,0,0,0,.37-1.32,2.26,2.26,0,0,0-.38-1.44,1.17,1.17,0,0,0-.93-.46,1.14,1.14,0,0,0-.9.44A2.2,2.2,0,0,0,67.9,4.2Z"/><path d="M72.17,4.19a2.47,2.47,0,0,1,.74-2,2.24,2.24,0,0,1,1.5-.53,2.12,2.12,0,0,1,1.6.65,2.43,2.43,0,0,1,.63,1.78,3,3,0,0,1-.28,1.44,1.92,1.92,0,0,1-.8.82,2.29,2.29,0,0,1-1.15.29A2.13,2.13,0,0,1,72.79,6,2.57,2.57,0,0,1,72.17,4.19Zm.83,0a2.05,2.05,0,0,0,.4,1.37,1.33,1.33,0,0,0,2,0,2.1,2.1,0,0,0,.4-1.39,2,2,0,0,0-.4-1.34,1.33,1.33,0,0,0-2,0A2,2,0,0,0,73,4.19Z"/><path d="M80.14,8.4V1.81h.73v.62a1.76,1.76,0,0,1,.59-.54,1.52,1.52,0,0,1,.79-.19A1.88,1.88,0,0,1,83.33,2,2,2,0,0,1,84,2.9a3.44,3.44,0,0,1,.23,1.26A3.07,3.07,0,0,1,84,5.47a2,2,0,0,1-.76.9,2,2,0,0,1-1,.31,1.46,1.46,0,0,1-.73-.17,1.6,1.6,0,0,1-.53-.43V8.4Zm.73-4.18a2.06,2.06,0,0,0,.37,1.36,1.16,1.16,0,0,0,.9.44,1.14,1.14,0,0,0,.92-.46,2.12,2.12,0,0,0,.39-1.41,2.1,2.1,0,0,0-.38-1.36,1.13,1.13,0,0,0-.89-.45,1.18,1.18,0,0,0-.92.48A2.18,2.18,0,0,0,80.87,4.22Z"/><path d="M85,4.19a2.46,2.46,0,0,1,.73-2,2.24,2.24,0,0,1,1.5-.53,2.16,2.16,0,0,1,1.61.65,2.47,2.47,0,0,1,.62,1.78,3,3,0,0,1-.28,1.44,1.92,1.92,0,0,1-.8.82,2.29,2.29,0,0,1-1.15.29A2.13,2.13,0,0,1,85.56,6,2.56,2.56,0,0,1,85,4.19Zm.83,0a2.05,2.05,0,0,0,.39,1.37,1.28,1.28,0,0,0,1,.46,1.27,1.27,0,0,0,1-.46,2,2,0,0,0,.4-1.39,2,2,0,0,0-.4-1.34,1.27,1.27,0,0,0-1-.46,1.28,1.28,0,0,0-1,.46A2,2,0,0,0,85.78,4.19Z"/><path d="M90.35,6.58V1.81h.72v.72a1.94,1.94,0,0,1,.52-.66.87.87,0,0,1,.51-.17,1.58,1.58,0,0,1,.83.26l-.27.75a1.24,1.24,0,0,0-.6-.17.74.74,0,0,0-.47.16.83.83,0,0,0-.3.44,3.14,3.14,0,0,0-.14.94v2.5Z"/></g></g></svg>