<svg xmlns="http://www.w3.org/2000/svg" viewBox="0 0 117.2 32.65"><defs><style>.b7b9caa3-9976-4726-8415-012a28bf57b9{fill:#2d3c96;}.e91925d9-1d12-46bb-9557-2677c36047f2{fill:#fff;}</style></defs><g id="a64520a9-5e87-4a19-8b61-b15bf9926adf" data-name="Capa 2"><g id="af815711-f506-40e2-8b31-862e59108f8c" data-name="Capa 1"><rect class="b7b9caa3-9976-4726-8415-012a28bf57b9" width="117.2" height="20.73"/><path class="e91925d9-1d12-46bb-9557-2677c36047f2" d="M58,11.92l4.63,1.4a8.54,8.54,0,0,1-1.47,3.25,6.46,6.46,0,0,1-2.49,2,9.35,9.35,0,0,1-3.78.66,10.94,10.94,0,0,1-4.55-.81,7.18,7.18,0,0,1-3-2.85A9.64,9.64,0,0,1,46,10.33a8.89,8.89,0,0,1,2.25-6.52,8.58,8.58,0,0,1,6.38-2.28,8.66,8.66,0,0,1,5.08,1.31,7.66,7.66,0,0,1,2.75,4l-4.67,1a3.86,3.86,0,0,0-.51-1.14A3.24,3.24,0,0,0,52,6.93a6.12,6.12,0,0,0-.72,3.36c0,1.9.29,3.19.86,3.9a3,3,0,0,0,2.43,1.05,2.94,2.94,0,0,0,2.29-.85A5.31,5.31,0,0,0,58,11.92"/><path class="e91925d9-1d12-46bb-9557-2677c36047f2" d="M75.16,16.09h-6l-.83,2.82h-5.4L69.37,1.82h5.76l6.42,17.09H76Zm-1.09-3.7L72.18,6.25l-1.86,6.14Z"/><path class="e91925d9-1d12-46bb-9557-2677c36047f2" d="M83.08,1.82h7.84a9.38,9.38,0,0,1,3.75.63A6.06,6.06,0,0,1,97,4.26,7.48,7.48,0,0,1,98.38,7a12.67,12.67,0,0,1,.42,3.31,11.46,11.46,0,0,1-.62,4.25,7.12,7.12,0,0,1-1.73,2.53,5.57,5.57,0,0,1-2.38,1.35,12.34,12.34,0,0,1-3.15.47H83.08Zm5.28,3.87V15h1.29A5.37,5.37,0,0,0,92,14.66a2.47,2.47,0,0,0,1.09-1.28,7.92,7.92,0,0,0,.4-3c0-1.81-.29-3-.89-3.71a3.74,3.74,0,0,0-2.93-1Z"/><polygon class="e91925d9-1d12-46bb-9557-2677c36047f2" points="100.97 1.82 115.38 1.82 115.38 5.47 106.26 5.47 106.26 8.19 114.48 8.19 114.48 11.67 106.26 11.67 106.26 15.04 115.38 15.04 115.38 18.91 100.97 18.91 100.97 1.82"/><polygon class="b7b9caa3-9976-4726-8415-012a28bf57b9" points="35.07 24.38 41.8 24.38 41.8 26.12 37.59 26.12 37.59 27.41 41.5 27.41 41.5 29.06 37.59 29.06 37.59 30.67 41.92 30.67 41.92 32.51 35.07 32.51 35.07 24.38"/><path class="b7b9caa3-9976-4726-8415-012a28bf57b9" d="M46.77,24.38h2.52V28.8A7,7,0,0,1,49,30.91a2.52,2.52,0,0,1-1,1.23,3.33,3.33,0,0,1-1.91.5,4.46,4.46,0,0,1-1.91-.33,2.33,2.33,0,0,1-1-1,3.67,3.67,0,0,1-.44-1.58l2.4-.33a3,3,0,0,0,.09.8.91.91,0,0,0,.3.42.71.71,0,0,0,.41.1.66.66,0,0,0,.62-.31,2.09,2.09,0,0,0,.2-1.05Z"/><polygon class="b7b9caa3-9976-4726-8415-012a28bf57b9" points="50.95 24.38 57.68 24.38 57.68 26.12 53.47 26.12 53.47 27.41 57.38 27.41 57.38 29.06 53.47 29.06 53.47 30.67 57.8 30.67 57.8 32.51 50.95 32.51 50.95 24.38"/><path class="b7b9caa3-9976-4726-8415-012a28bf57b9" d="M64.67,29.18l2.2.67a4.05,4.05,0,0,1-.7,1.54,3,3,0,0,1-1.18.94,4.44,4.44,0,0,1-1.8.31A5.21,5.21,0,0,1,61,32.26a3.5,3.5,0,0,1-1.45-1.35A4.68,4.68,0,0,1,59,28.42,4.18,4.18,0,0,1,60,25.33a4,4,0,0,1,3-1.09,4.17,4.17,0,0,1,2.42.62,3.67,3.67,0,0,1,1.3,1.91l-2.22.49a1.85,1.85,0,0,0-.24-.54,1.38,1.38,0,0,0-.52-.44,1.39,1.39,0,0,0-.68-.16,1.48,1.48,0,0,0-1.31.69,3,3,0,0,0-.34,1.6,3.05,3.05,0,0,0,.41,1.85,1.43,1.43,0,0,0,1.15.5,1.39,1.39,0,0,0,1.09-.4,2.49,2.49,0,0,0,.54-1.18"/><path class="b7b9caa3-9976-4726-8415-012a28bf57b9" d="M73.37,24.38h2.51v4.84a4.35,4.35,0,0,1-.22,1.36A2.93,2.93,0,0,1,75,31.7a2.79,2.79,0,0,1-1,.67,5.13,5.13,0,0,1-1.76.27,10.16,10.16,0,0,1-1.3-.08,3.23,3.23,0,0,1-1.17-.33,3,3,0,0,1-.86-.7,2.45,2.45,0,0,1-.53-.93,4.77,4.77,0,0,1-.24-1.38V24.38H70.6v5a1.41,1.41,0,0,0,.37,1,1.59,1.59,0,0,0,2,0,1.41,1.41,0,0,0,.36-1Z"/><polygon class="b7b9caa3-9976-4726-8415-012a28bf57b9" points="77.19 24.38 84.82 24.38 84.82 26.39 82.26 26.39 82.26 32.51 79.75 32.51 79.75 26.39 77.19 26.39 77.19 24.38"/><rect class="b7b9caa3-9976-4726-8415-012a28bf57b9" x="86.16" y="24.38" width="2.52" height="8.13"/><polygon class="b7b9caa3-9976-4726-8415-012a28bf57b9" points="89.52 24.38 92.14 24.38 93.97 30.23 95.78 24.38 98.33 24.38 95.31 32.51 92.59 32.51 89.52 24.38"/><path class="b7b9caa3-9976-4726-8415-012a28bf57b9" d="M101.18,28.46a2.7,2.7,0,0,0,.46,1.77,1.54,1.54,0,0,0,1.24.54,1.57,1.57,0,0,0,1.26-.53,3,3,0,0,0,.44-1.89,2.57,2.57,0,0,0-.46-1.68,1.6,1.6,0,0,0-1.26-.53,1.52,1.52,0,0,0-1.22.54,2.72,2.72,0,0,0-.46,1.78m-2.51,0a3.85,3.85,0,0,1,4.2-4.21A4.26,4.26,0,0,1,106,25.33a4.11,4.11,0,0,1,1.1,3.05,5,5,0,0,1-.48,2.34,3.4,3.4,0,0,1-1.39,1.42,4.51,4.51,0,0,1-2.25.5,5.24,5.24,0,0,1-2.28-.43,3.42,3.42,0,0,1-1.46-1.39,4.62,4.62,0,0,1-.56-2.37"/><path class="b7b9caa3-9976-4726-8415-012a28bf57b9" d="M108,29.82l2.39-.15a1.83,1.83,0,0,0,.32.89,1.36,1.36,0,0,0,1.11.49,1.28,1.28,0,0,0,.83-.25.78.78,0,0,0,.29-.59.75.75,0,0,0-.28-.56,3.05,3.05,0,0,0-1.29-.47,5.48,5.48,0,0,1-2.35-1,2,2,0,0,1-.71-1.57,2.12,2.12,0,0,1,.36-1.18,2.42,2.42,0,0,1,1.09-.88,5.19,5.19,0,0,1,2-.32,4.16,4.16,0,0,1,2.38.58,2.51,2.51,0,0,1,1,1.84l-2.37.14a1.29,1.29,0,0,0-.39-.8,1.31,1.31,0,0,0-.84-.24,1,1,0,0,0-.66.18.58.58,0,0,0-.22.45.45.45,0,0,0,.18.35,2,2,0,0,0,.85.3,10.76,10.76,0,0,1,2.35.72,2.46,2.46,0,0,1,1,.9,2.26,2.26,0,0,1,.33,1.2,2.57,2.57,0,0,1-.44,1.44,2.66,2.66,0,0,1-1.21,1,4.76,4.76,0,0,1-2,.35,4,4,0,0,1-2.87-.8,3.14,3.14,0,0,1-.91-2"/></g></g></svg>