<svg xmlns="http://www.w3.org/2000/svg" viewBox="0 0 30.74 19.72"><defs><style>.b62b10bb-427d-4176-9f6a-2ffa7c938bc9{fill:#fff;}</style></defs><g id="bf5d0f7e-d4f3-430e-bfa9-1a13b0520693" data-name="Capa 2"><g id="be550c02-9356-4e63-b55e-b13e14eb683c" data-name="Capa 1"><path class="b62b10bb-427d-4176-9f6a-2ffa7c938bc9" d="M1.27,18.39A5,5,0,0,1,0,14.74V5.82A6.91,6.91,0,0,1,1.15,1.47,4.3,4.3,0,0,1,4.76,0,5,5,0,0,1,8.21,1.17a4.31,4.31,0,0,1,1.3,3.38V7.89H5.66V5a2.35,2.35,0,0,0-.2-1.15.78.78,0,0,0-.7-.32.72.72,0,0,0-.71.36A2.29,2.29,0,0,0,3.85,5V14.7a2.09,2.09,0,0,0,.23,1.11.76.76,0,0,0,.68.35c.6,0,.9-.49.9-1.46V11.2h3.9v3.65q0,4.88-4.89,4.87A4.47,4.47,0,0,1,1.27,18.39Z"/><path class="b62b10bb-427d-4176-9f6a-2ffa7c938bc9" d="M14.78,18.39a5,5,0,0,1-1.28-3.65V5.82a7,7,0,0,1,1.15-4.35A4.3,4.3,0,0,1,18.26,0a5,5,0,0,1,3.45,1.17A4.31,4.31,0,0,1,23,4.55V7.89H19.16V5A2.35,2.35,0,0,0,19,3.88a.78.78,0,0,0-.7-.32.73.73,0,0,0-.71.36A2.31,2.31,0,0,0,17.36,5V14.7a2.1,2.1,0,0,0,.22,1.11.76.76,0,0,0,.68.35c.6,0,.9-.49.9-1.46V11.2h3.9v3.65q0,4.88-4.89,4.87A4.47,4.47,0,0,1,14.78,18.39Z"/><path class="b62b10bb-427d-4176-9f6a-2ffa7c938bc9" d="M27,19.54V.18h3.74V19.54Z"/></g></g></svg>