<svg xmlns="http://www.w3.org/2000/svg" viewBox="0 0 35 19.72"><defs><style>.a6fe7089-4716-4cd5-8be4-114348938322{fill:#f03c46;}.a5f27d8d-b97e-4c8e-a981-fa735dce49cb{fill:#fff;}</style></defs><g id="a7c2654d-0f38-4e5a-8bf5-ee5bda12a9b1" data-name="Capa 2"><g id="a3e93dbf-47ec-423c-b058-457c4e0b6f07" data-name="Capa 1"><path class="a6fe7089-4716-4cd5-8be4-114348938322" d="M0,.18H6a3.35,3.35,0,0,1,2.2.64,3.19,3.19,0,0,1,1,1.81,13.38,13.38,0,0,1,.27,3A6.34,6.34,0,0,1,9,8.16,2.39,2.39,0,0,1,7.55,9.44a1.79,1.79,0,0,1,1.27.88,3.81,3.81,0,0,1,.4,1.9l-.05,7.32H5.39V12c0-.54-.11-.89-.32-1a2.1,2.1,0,0,0-1.15-.22v8.83H0ZM4.87,7.35c.54,0,.81-.59.81-1.76a6.63,6.63,0,0,0-.07-1.15.85.85,0,0,0-.24-.53.82.82,0,0,0-.52-.15H3.94V7.35Z"/><path class="a6fe7089-4716-4cd5-8be4-114348938322" d="M13.5,19.54V.18h7.76V3.92H17.45V7.69H21.1v3.65H17.45v4.44H21.5v3.76Z"/><path class="a5f27d8d-b97e-4c8e-a981-fa735dce49cb" d="M26.71,18.39a5,5,0,0,1-1.27-3.65V5.82a6.91,6.91,0,0,1,1.15-4.35A4.28,4.28,0,0,1,30.19,0a5,5,0,0,1,3.45,1.17A4.31,4.31,0,0,1,35,4.55V7.89H31.1V5a2.22,2.22,0,0,0-.21-1.15.76.76,0,0,0-.7-.32.74.74,0,0,0-.71.36A2.45,2.45,0,0,0,29.29,5V14.7a2.09,2.09,0,0,0,.23,1.11.75.75,0,0,0,.67.35c.61,0,.91-.49.91-1.46V11.2H35v3.65q0,4.88-4.9,4.87A4.47,4.47,0,0,1,26.71,18.39Z"/></g></g></svg>