<svg xmlns="http://www.w3.org/2000/svg" viewBox="0 0 36.79 19.72"><defs><style>.a0aabe93-b1da-4f5a-a9d0-6657a2a24ef5{fill:#fff;}</style></defs><g id="baf36ee3-63ea-4f8a-84ac-645f44a77dd6" data-name="Capa 2"><g id="bcecf41e-f655-4524-b784-4aeeda450413" data-name="Capa 1"><path class="a0aabe93-b1da-4f5a-a9d0-6657a2a24ef5" d="M1.22,18.29a6,6,0,0,1-1.22-4V5.05A5.29,5.29,0,0,1,1.22,1.27,4.68,4.68,0,0,1,4.78,0,4.69,4.69,0,0,1,8.34,1.27,5.29,5.29,0,0,1,9.56,5.05v9.22a6,6,0,0,1-1.22,4,4.42,4.42,0,0,1-3.56,1.42A4.38,4.38,0,0,1,1.22,18.29Zm4.26-2.58a3.51,3.51,0,0,0,.18-1.26V5a2.64,2.64,0,0,0-.17-1,.66.66,0,0,0-.69-.4c-.65,0-1,.49-1,1.47v9.44A3.11,3.11,0,0,0,4,15.73a.76.76,0,0,0,.75.43A.69.69,0,0,0,5.48,15.71Z"/><path class="a0aabe93-b1da-4f5a-a9d0-6657a2a24ef5" d="M13.74,19.54V.18h4l1.78,9.26V.18h3.74V19.54H19.47L17.53,9.85v9.69Z"/><path class="a0aabe93-b1da-4f5a-a9d0-6657a2a24ef5" d="M28.47,18.42A6.26,6.26,0,0,1,27.3,14.2V12.31h3.81v2.41c0,1,.31,1.44.92,1.44a.79.79,0,0,0,.72-.3,1.91,1.91,0,0,0,.21-1,4.69,4.69,0,0,0-.23-1.57,3.49,3.49,0,0,0-.57-1c-.24-.28-.65-.71-1.25-1.3L29.24,9.26A5.76,5.76,0,0,1,27.3,5.07,5.53,5.53,0,0,1,28.44,1.3,4.16,4.16,0,0,1,31.76,0a4.63,4.63,0,0,1,3.77,1.39,6.76,6.76,0,0,1,1.15,4.34h-4l0-1.33a.85.85,0,0,0-.21-.61.81.81,0,0,0-.6-.23.86.86,0,0,0-.68.25,1,1,0,0,0-.22.68,2.82,2.82,0,0,0,1.08,2l2.25,2.16a13.6,13.6,0,0,1,1.31,1.45,5.81,5.81,0,0,1,.83,1.63,6.94,6.94,0,0,1,.32,2.22,7.47,7.47,0,0,1-1,4.34,4,4,0,0,1-3.46,1.47A4.89,4.89,0,0,1,28.47,18.42Z"/></g></g></svg>