<svg xmlns="http://www.w3.org/2000/svg" viewBox="0 0 29.1 25"><defs><style>.e5061842-bc4d-4b72-b780-b5dddd0dc21f{fill:#fff;}</style></defs><g id="b971c616-91de-4daf-aac8-04cb1478923c" data-name="Capa 2"><g id="b68a377a-6f24-426e-ae0a-0b98d481a126" data-name="Capa 1"><path class="e5061842-bc4d-4b72-b780-b5dddd0dc21f" d="M0,24.82V5.45H3.74V24.82Z"/><path class="e5061842-bc4d-4b72-b780-b5dddd0dc21f" d="M8.08,23.57a6,6,0,0,1-1.22-4V10.32A5.23,5.23,0,0,1,8.08,6.55a4.68,4.68,0,0,1,3.56-1.28A4.7,4.7,0,0,1,15.2,6.55a5.28,5.28,0,0,1,1.22,3.77v9.22a6,6,0,0,1-1.22,4A4.45,4.45,0,0,1,11.64,25,4.41,4.41,0,0,1,8.08,23.57ZM9,4.87V2.41L14.25,0V3.83ZM12.34,21a3.51,3.51,0,0,0,.18-1.26V10.26a2.7,2.7,0,0,0-.17-1,.69.69,0,0,0-.69-.39c-.65,0-1,.48-1,1.46v9.45a3.18,3.18,0,0,0,.2,1.26.77.77,0,0,0,.75.43A.69.69,0,0,0,12.34,21Z"/><path class="e5061842-bc4d-4b72-b780-b5dddd0dc21f" d="M19.59,24.82V5.45h4l1.78,9.27V5.45H29.1V24.82H25.31l-1.94-9.7v9.7Z"/></g></g></svg>