<svg xmlns="http://www.w3.org/2000/svg" viewBox="0 0 20.71 19.36"><defs><style>.ffb55c99-166f-4ae8-bbd3-7a93785f4a4e{fill:#fff;}</style></defs><g id="fa03f52e-048b-4e4c-a88c-4603ca7f565a" data-name="Capa 2"><g id="f7b6e188-644a-4261-acf1-f5d69556b453" data-name="Capa 1"><path class="ffb55c99-166f-4ae8-bbd3-7a93785f4a4e" d="M0,0H5.34A4,4,0,0,1,8.45,1.15a5,5,0,0,1,1.06,3.4l.05,9.06a7.4,7.4,0,0,1-1,4.31,3.8,3.8,0,0,1-3.35,1.44H0ZM4.58,15.94a.93.93,0,0,0,1-1v-10a3.49,3.49,0,0,0-.1-1,.66.66,0,0,0-.37-.44,2.43,2.43,0,0,0-.83-.11H3.9V15.94Z"/><path class="ffb55c99-166f-4ae8-bbd3-7a93785f4a4e" d="M12.71,19.36V0h7.76V3.74H16.66V7.51h3.65v3.65H16.66V15.6h4.05v3.76Z"/></g></g></svg>