<svg xmlns="http://www.w3.org/2000/svg" viewBox="0 0 35.21 19.54"><defs><style>.b7eab629-2be5-482e-8e9c-3a9279365f4a{fill:#fff;}</style></defs><g id="a642c8ad-3b45-4158-846d-a7ff82c95de7" data-name="Capa 2"><g id="a7bf9248-7c27-4596-b4b7-56bb251ef1c7" data-name="Capa 1"><path class="b7eab629-2be5-482e-8e9c-3a9279365f4a" d="M2.3,19.36V3.72H0V0H8.47V3.72H6.18V19.36Z"/><path class="b7eab629-2be5-482e-8e9c-3a9279365f4a" d="M12.4,0h6a3.35,3.35,0,0,1,2.2.64,3.12,3.12,0,0,1,1,1.81,12.74,12.74,0,0,1,.28,3A6.34,6.34,0,0,1,21.44,8,2.39,2.39,0,0,1,20,9.26a1.79,1.79,0,0,1,1.27.88,3.81,3.81,0,0,1,.4,1.9l-.05,7.32H17.79V11.79c0-.54-.11-.89-.32-1a2.1,2.1,0,0,0-1.15-.22v8.83H12.4Zm4.87,7.17c.54,0,.81-.59.81-1.76A6.63,6.63,0,0,0,18,4.26a.83.83,0,0,0-.25-.53.78.78,0,0,0-.51-.15h-.91V7.17Z"/><path class="b7eab629-2be5-482e-8e9c-3a9279365f4a" d="M27,18.19a6,6,0,0,1-1.16-4V0h3.77V14a4.51,4.51,0,0,0,.18,1.44.72.72,0,0,0,.76.52.74.74,0,0,0,.77-.51A4.49,4.49,0,0,0,31.45,14V0h3.76V14.18a6,6,0,0,1-1.16,4,4.43,4.43,0,0,1-3.55,1.35A4.44,4.44,0,0,1,27,18.19Z"/></g></g></svg>