<svg xmlns="http://www.w3.org/2000/svg" viewBox="0 0 48.01 19.72"><defs><style>.afe24910-661b-4c32-93c6-155289a0d526{fill:#fff;}</style></defs><g id="aac237a8-d25e-4869-a070-fa8a379ea104" data-name="Capa 2"><g id="fa677c32-9250-4d13-b98f-797a45400405" data-name="Capa 1"><path class="afe24910-661b-4c32-93c6-155289a0d526" d="M0,19.54,1.87.18H8.43l1.85,19.36H6.6l-.27-3.13H4l-.23,3.13Zm4.28-6.22H6L5.18,3.47H5Z"/><path class="afe24910-661b-4c32-93c6-155289a0d526" d="M13.24.18h5.35A4,4,0,0,1,21.7,1.33a5,5,0,0,1,1.06,3.4l0,9.06a7.33,7.33,0,0,1-1,4.31,3.83,3.83,0,0,1-3.36,1.44H13.24Zm4.58,15.94a.93.93,0,0,0,1.06-1v-10a3.49,3.49,0,0,0-.1-1,.69.69,0,0,0-.37-.44,2.46,2.46,0,0,0-.84-.11h-.43V16.12Z"/><path class="afe24910-661b-4c32-93c6-155289a0d526" d="M25.48,19.54,27.35.18h6.56l1.85,19.36H32.09l-.27-3.13H29.47l-.22,3.13Zm4.29-6.22h1.75l-.85-9.85h-.18Z"/><path class="afe24910-661b-4c32-93c6-155289a0d526" d="M39.73,18.39a5,5,0,0,1-1.27-3.65V5.82a6.91,6.91,0,0,1,1.15-4.35A4.27,4.27,0,0,1,43.21,0a5,5,0,0,1,3.45,1.17A4.31,4.31,0,0,1,48,4.55V7.89H44.11V5a2.24,2.24,0,0,0-.2-1.15.77.77,0,0,0-.7-.32.74.74,0,0,0-.71.36A2.45,2.45,0,0,0,42.31,5V14.7a2.09,2.09,0,0,0,.23,1.11.75.75,0,0,0,.67.35c.6,0,.9-.49.9-1.46V11.2H48v3.65q0,4.88-4.89,4.87A4.47,4.47,0,0,1,39.73,18.39Z"/></g></g></svg>