<svg xmlns="http://www.w3.org/2000/svg" viewBox="0 0 23.25 25"><defs><style>.b1797b69-1fb2-48bb-9c0f-54c90520ac60{fill:#fff;}</style></defs><g id="b3cd60ce-e4fb-4951-aedc-b3b55fb683ab" data-name="Capa 2"><g id="b415337b-cfbf-4bd7-bbb9-674d7b9d9933" data-name="Capa 1"><path class="b1797b69-1fb2-48bb-9c0f-54c90520ac60" d="M1.22,23.57a6.06,6.06,0,0,1-1.22-4V10.32A5.28,5.28,0,0,1,1.22,6.55,4.7,4.7,0,0,1,4.78,5.27,4.7,4.7,0,0,1,8.34,6.55a5.28,5.28,0,0,1,1.22,3.77v9.22a6,6,0,0,1-1.22,4A4.45,4.45,0,0,1,4.78,25,4.43,4.43,0,0,1,1.22,23.57Zm.94-18.7V2.41L7.39,0V3.83ZM5.48,21a3.51,3.51,0,0,0,.18-1.26V10.26a2.7,2.7,0,0,0-.17-1,.67.67,0,0,0-.69-.39c-.64,0-1,.48-1,1.46v9.45A3,3,0,0,0,4,21a.75.75,0,0,0,.74.43A.69.69,0,0,0,5.48,21Z"/><path class="b1797b69-1fb2-48bb-9c0f-54c90520ac60" d="M13.74,24.82V5.45h4l1.78,9.27V5.45h3.74V24.82H19.47l-1.94-9.7v9.7Z"/></g></g></svg>