<svg xmlns="http://www.w3.org/2000/svg" viewBox="0 0 45.81 19.72"><defs><style>.a53a6394-211a-43ae-b13f-4354525e79ef{fill:#fff;}</style></defs><g id="fef4fc39-3918-4e85-a70f-d715b2475133" data-name="Capa 2"><g id="a3623a00-0f55-4c77-aea2-adba273246ac" data-name="Capa 1"><path class="a53a6394-211a-43ae-b13f-4354525e79ef" d="M0,.18H5.34A4,4,0,0,1,8.45,1.33a5,5,0,0,1,1.06,3.4l.05,9.06a7.4,7.4,0,0,1-1,4.31,3.8,3.8,0,0,1-3.35,1.44H0ZM4.58,16.12a.93.93,0,0,0,1-1v-10a3.49,3.49,0,0,0-.1-1,.66.66,0,0,0-.37-.44,2.43,2.43,0,0,0-.83-.11H3.9V16.12Z"/><path class="a53a6394-211a-43ae-b13f-4354525e79ef" d="M12.71,19.54V.18h7.76V3.92H16.66V7.69h3.65v3.65H16.66v4.44h4.05v3.76Z"/><path class="a53a6394-211a-43ae-b13f-4354525e79ef" d="M24.63,18.25a7.87,7.87,0,0,1-1-4.48V5.43a6,6,0,0,1,1.2-4A4.44,4.44,0,0,1,28.36,0a5,5,0,0,1,3,.77A3.91,3.91,0,0,1,32.8,3a14.45,14.45,0,0,1,.4,3.76H29.42V5a2.46,2.46,0,0,0-.2-1.09.69.69,0,0,0-.68-.38q-1.11,0-1.11,1.44v9.38a3.05,3.05,0,0,0,.23,1.33.8.8,0,0,0,.79.45.81.81,0,0,0,.79-.45,3.07,3.07,0,0,0,.22-1.33V11.61h-1V8.27h4.74V19.54H31.6L31,17.92a3.44,3.44,0,0,1-3.2,1.8A3.54,3.54,0,0,1,24.63,18.25Z"/><path class="a53a6394-211a-43ae-b13f-4354525e79ef" d="M36.34.18h5.95a3.35,3.35,0,0,1,2.2.64,3.19,3.19,0,0,1,1,1.81,13.38,13.38,0,0,1,.27,3,6.34,6.34,0,0,1-.43,2.57,2.39,2.39,0,0,1-1.49,1.28,1.79,1.79,0,0,1,1.27.88,3.81,3.81,0,0,1,.4,1.9l-.05,7.32H41.73V12c0-.54-.11-.89-.32-1a2.1,2.1,0,0,0-1.15-.22v8.83H36.34Zm4.87,7.17c.54,0,.81-.59.81-1.76A6.63,6.63,0,0,0,42,4.44a.85.85,0,0,0-.24-.53.82.82,0,0,0-.52-.15h-.91V7.35Z"/></g></g></svg>