<svg xmlns="http://www.w3.org/2000/svg" viewBox="0 0 431.37 25"><defs><style>.ad8baa4d-57cd-4228-9991-bfba47ff59ea{fill:#fff;}.f08d8bfe-269e-4aa7-bc78-8352169dc9b1{fill:#f03c46;}</style></defs><g id="f76fb0f5-53a1-49bf-9723-547115419a15" data-name="Capa 2"><g id="b1eafde0-a696-4659-99cd-ba54c63b6aab" data-name="Capa 1"><path class="ad8baa4d-57cd-4228-9991-bfba47ff59ea" d="M0,5.45H5.34A4,4,0,0,1,8.45,6.6,5,5,0,0,1,9.51,10l.05,9.06a7.37,7.37,0,0,1-1,4.3,3.78,3.78,0,0,1-3.35,1.45H0ZM4.58,21.39a.93.93,0,0,0,1-1v-10a3.44,3.44,0,0,0-.1-1A.62.62,0,0,0,5.16,9a2.2,2.2,0,0,0-.83-.11H3.9V21.39Z"/><path class="ad8baa4d-57cd-4228-9991-bfba47ff59ea" d="M12.71,24.82V5.45h7.76V9.2H16.66V13h3.65v3.65H16.66v4.44h4.05v3.77Z"/><path class="ad8baa4d-57cd-4228-9991-bfba47ff59ea" d="M30.74,24.82V5.45h3.88V21.53h4v3.29Z"/><path class="ad8baa4d-57cd-4228-9991-bfba47ff59ea" d="M41.28,24.82,43.15,5.45h6.56l1.84,19.37H47.88l-.27-3.14H45.27L45,24.82Zm4.28-6.22h1.76l-.86-9.85h-.18Z"/><path class="ad8baa4d-57cd-4228-9991-bfba47ff59ea" d="M61.47,5.45h5.34A4,4,0,0,1,69.92,6.6,5,5,0,0,1,71,10l0,9.06a7.45,7.45,0,0,1-1,4.3,3.81,3.81,0,0,1-3.36,1.45H61.47Zm4.58,15.94a.93.93,0,0,0,1.06-1v-10a3.37,3.37,0,0,0-.11-1A.62.62,0,0,0,66.63,9a2.2,2.2,0,0,0-.83-.11h-.43V21.39Z"/><path class="ad8baa4d-57cd-4228-9991-bfba47ff59ea" d="M74.18,24.82V5.45h7.76V9.2H78.13V13h3.65v3.65H78.13v4.44h4.06v3.77Z"/><path class="ad8baa4d-57cd-4228-9991-bfba47ff59ea" d="M86.1,23.52a7.83,7.83,0,0,1-1-4.47V10.71a6,6,0,0,1,1.2-4.06,4.44,4.44,0,0,1,3.56-1.38,5,5,0,0,1,3,.77,3.94,3.94,0,0,1,1.47,2.23,14.53,14.53,0,0,1,.4,3.77H90.89V10.3a2.58,2.58,0,0,0-.19-1.08A.7.7,0,0,0,90,8.84q-1.11,0-1.11,1.44v9.37A3.05,3.05,0,0,0,89.13,21a.8.8,0,0,0,.79.46.81.81,0,0,0,.79-.46,3.07,3.07,0,0,0,.22-1.33V16.88h-1V13.55h4.73V24.82H93.07l-.65-1.63A3.43,3.43,0,0,1,89.22,25,3.55,3.55,0,0,1,86.1,23.52Z"/><path class="ad8baa4d-57cd-4228-9991-bfba47ff59ea" d="M97.81,5.45h6a3.36,3.36,0,0,1,2.2.65A3.19,3.19,0,0,1,107,7.9a13.38,13.38,0,0,1,.27,3,6.14,6.14,0,0,1-.43,2.57,2.41,2.41,0,0,1-1.49,1.29,1.8,1.8,0,0,1,1.28.88,3.86,3.86,0,0,1,.39,1.89l0,7.33H103.2V17.24c0-.54-.11-.88-.32-1a2.08,2.08,0,0,0-1.15-.23v8.84H97.81Zm4.87,7.17c.54,0,.81-.58.81-1.76a6.63,6.63,0,0,0-.07-1.15.79.79,0,0,0-.24-.52.81.81,0,0,0-.52-.15h-.9v3.58Z"/><path class="ad8baa4d-57cd-4228-9991-bfba47ff59ea" d="M109.9,24.82l1.87-19.37h6.56l1.85,19.37H116.5l-.27-3.14h-2.34l-.23,3.14Zm4.28-6.22h1.76l-.86-9.85h-.18Z"/><path class="ad8baa4d-57cd-4228-9991-bfba47ff59ea" d="M123.14,5.45h5.34a4,4,0,0,1,3.11,1.15A5,5,0,0,1,132.65,10l0,9.06a7.45,7.45,0,0,1-1,4.3,3.81,3.81,0,0,1-3.36,1.45h-5.21Zm4.58,15.94a.93.93,0,0,0,1.06-1v-10a3.86,3.86,0,0,0-.1-1A.65.65,0,0,0,128.3,9a2.2,2.2,0,0,0-.83-.11H127V21.39Z"/><path class="ad8baa4d-57cd-4228-9991-bfba47ff59ea" d="M135.38,24.82l1.87-19.37h6.56l1.85,19.37H142l-.27-3.14h-2.34l-.23,3.14Zm4.28-6.22h1.76l-.86-9.85h-.18Z"/><path class="ad8baa4d-57cd-4228-9991-bfba47ff59ea" d="M149.63,23.67A5.07,5.07,0,0,1,148.35,20V11.09a7,7,0,0,1,1.15-4.35,4.3,4.3,0,0,1,3.61-1.47,5,5,0,0,1,3.45,1.18,4.3,4.3,0,0,1,1.31,3.38v3.33H154V10.3a2.38,2.38,0,0,0-.2-1.15.77.77,0,0,0-.7-.31.73.73,0,0,0-.71.36,2.28,2.28,0,0,0-.19,1.06V20a2.17,2.17,0,0,0,.22,1.12.76.76,0,0,0,.68.35q.9,0,.9-1.47V16.48h3.9v3.65c0,3.24-1.63,4.87-4.89,4.87A4.5,4.5,0,0,1,149.63,23.67Z"/><path class="ad8baa4d-57cd-4228-9991-bfba47ff59ea" d="M160.83,24.82V5.45h3.74V24.82Z"/><path class="ad8baa4d-57cd-4228-9991-bfba47ff59ea" d="M168.91,23.57a6.06,6.06,0,0,1-1.22-4V10.32a5.28,5.28,0,0,1,1.22-3.77,5.59,5.59,0,0,1,7.12,0,5.28,5.28,0,0,1,1.22,3.77v9.22a6,6,0,0,1-1.22,4,5.16,5.16,0,0,1-7.12,0Zm.94-18.7V2.41L175.08,0V3.83ZM173.17,21a3.51,3.51,0,0,0,.18-1.26V10.26a2.7,2.7,0,0,0-.17-1,.67.67,0,0,0-.69-.39c-.64,0-1,.48-1,1.46v9.45a3,3,0,0,0,.21,1.26.75.75,0,0,0,.74.43A.69.69,0,0,0,173.17,21Z"/><path class="ad8baa4d-57cd-4228-9991-bfba47ff59ea" d="M180.42,24.82V5.45h4l1.78,9.27V5.45h3.74V24.82h-3.79l-1.93-9.7v9.7Z"/><path class="ad8baa4d-57cd-4228-9991-bfba47ff59ea" d="M199.87,24.82l1.87-19.37h6.56l1.85,19.37h-3.68l-.27-3.14h-2.34l-.23,3.14Zm4.28-6.22h1.76l-.86-9.85h-.18Z"/><path class="ad8baa4d-57cd-4228-9991-bfba47ff59ea" d="M221.6,24.82V5.45h3.87V21.53h4v3.29Z"/><path class="ad8baa4d-57cd-4228-9991-bfba47ff59ea" d="M232.9,24.82l1.87-19.37h6.56l1.84,19.37H239.5l-.27-3.14h-2.34l-.23,3.14Zm4.28-6.22h1.76l-.86-9.85h-.18Z"/><path class="f08d8bfe-269e-4aa7-bc78-8352169dc9b1" d="M254.62,5.45h5.95a3.36,3.36,0,0,1,2.2.65,3.19,3.19,0,0,1,1.05,1.8,13.38,13.38,0,0,1,.27,3,6.14,6.14,0,0,1-.43,2.57,2.38,2.38,0,0,1-1.49,1.29,1.78,1.78,0,0,1,1.28.88,3.86,3.86,0,0,1,.39,1.89l0,7.33H260V17.24c0-.54-.1-.88-.32-1a2.07,2.07,0,0,0-1.14-.23v8.84h-3.93Zm4.87,7.17c.54,0,.81-.58.81-1.76a8.14,8.14,0,0,0-.06-1.15.85.85,0,0,0-.25-.52.81.81,0,0,0-.52-.15h-.9v3.58Z"/><path class="f08d8bfe-269e-4aa7-bc78-8352169dc9b1" d="M268.13,24.82V5.45h7.75V9.2h-3.81V13h3.65v3.65h-3.65v4.44h4.06v3.77Z"/><path class="ad8baa4d-57cd-4228-9991-bfba47ff59ea" d="M281.34,23.67A5.07,5.07,0,0,1,280.06,20V11.09a7,7,0,0,1,1.15-4.35,4.3,4.3,0,0,1,3.61-1.47,5,5,0,0,1,3.45,1.18,4.29,4.29,0,0,1,1.3,3.38v3.33h-3.85V10.3a2.38,2.38,0,0,0-.2-1.15.77.77,0,0,0-.7-.31.73.73,0,0,0-.71.36,2.28,2.28,0,0,0-.19,1.06V20a2.17,2.17,0,0,0,.22,1.12.76.76,0,0,0,.68.35q.9,0,.9-1.47V16.48h3.9v3.65c0,3.24-1.63,4.87-4.89,4.87A4.47,4.47,0,0,1,281.34,23.67Z"/><path class="ad8baa4d-57cd-4228-9991-bfba47ff59ea" d="M294.78,23.57a6.06,6.06,0,0,1-1.21-4V10.32a5.27,5.27,0,0,1,1.21-3.77,5.6,5.6,0,0,1,7.13,0,5.27,5.27,0,0,1,1.21,3.77v9.22a6,6,0,0,1-1.21,4A4.47,4.47,0,0,1,298.34,25,4.43,4.43,0,0,1,294.78,23.57ZM299,21a3.51,3.51,0,0,0,.18-1.26V10.26a2.52,2.52,0,0,0-.17-1,.66.66,0,0,0-.68-.39c-.65,0-1,.48-1,1.46v9.45a3.18,3.18,0,0,0,.2,1.26.76.76,0,0,0,.74.43A.68.68,0,0,0,299,21Z"/><path class="ad8baa4d-57cd-4228-9991-bfba47ff59ea" d="M307.31,24.82V5.45h4l1.78,9.27V5.45h3.74V24.82H313l-1.94-9.7v9.7Z"/><path class="ad8baa4d-57cd-4228-9991-bfba47ff59ea" d="M322,23.69a6.24,6.24,0,0,1-1.18-4.22V17.58h3.81V20c0,1,.31,1.45.93,1.45a.82.82,0,0,0,.72-.31,2,2,0,0,0,.2-1,4.63,4.63,0,0,0-.22-1.57,3.35,3.35,0,0,0-.58-1c-.23-.28-.65-.71-1.25-1.29l-1.67-1.67a5.76,5.76,0,0,1-1.94-4.19A5.55,5.55,0,0,1,322,6.57a4.21,4.21,0,0,1,3.33-1.3,4.63,4.63,0,0,1,3.76,1.39A6.7,6.7,0,0,1,330.24,11H326.3l0-1.33a.85.85,0,0,0-.21-.61.78.78,0,0,0-.6-.22.87.87,0,0,0-.67.24,1,1,0,0,0-.23.68,2.82,2.82,0,0,0,1.08,2l2.26,2.16a13.44,13.44,0,0,1,1.3,1.46A5.64,5.64,0,0,1,330,17a7,7,0,0,1,.31,2.22,7.46,7.46,0,0,1-1,4.34A4,4,0,0,1,325.85,25,4.89,4.89,0,0,1,322,23.69Z"/><path class="ad8baa4d-57cd-4228-9991-bfba47ff59ea" d="M336.28,24.82V9.17H334V5.45h8.47V9.17h-2.3V24.82Z"/><path class="ad8baa4d-57cd-4228-9991-bfba47ff59ea" d="M346.38,5.45h5.95a3.33,3.33,0,0,1,2.19.65,3.19,3.19,0,0,1,1.05,1.8,13.38,13.38,0,0,1,.27,3,6.14,6.14,0,0,1-.43,2.57,2.39,2.39,0,0,1-1.48,1.29,1.78,1.78,0,0,1,1.27.88,3.86,3.86,0,0,1,.39,1.89l0,7.33h-3.79V17.24c0-.54-.1-.88-.31-1A2.11,2.11,0,0,0,350.3,16v8.84h-3.92Zm4.86,7.17c.55,0,.82-.58.82-1.76A7.83,7.83,0,0,0,352,9.71a.85.85,0,0,0-.25-.52.79.79,0,0,0-.52-.15h-.9v3.58Z"/><path class="ad8baa4d-57cd-4228-9991-bfba47ff59ea" d="M360.93,23.64a6,6,0,0,1-1.16-4V5.45h3.76v14a4.62,4.62,0,0,0,.18,1.45.75.75,0,0,0,.77.52.74.74,0,0,0,.77-.51,4.56,4.56,0,0,0,.18-1.46v-14h3.76V19.63a6,6,0,0,1-1.16,4,5.31,5.31,0,0,1-7.1,0Z"/><path class="ad8baa4d-57cd-4228-9991-bfba47ff59ea" d="M374.52,23.67A5.11,5.11,0,0,1,373.25,20V11.09a7,7,0,0,1,1.15-4.35A4.3,4.3,0,0,1,378,5.27a5,5,0,0,1,3.45,1.18,4.29,4.29,0,0,1,1.3,3.38v3.33h-3.85V10.3a2.38,2.38,0,0,0-.2-1.15.77.77,0,0,0-.7-.31.73.73,0,0,0-.71.36,2.28,2.28,0,0,0-.19,1.06V20a2.17,2.17,0,0,0,.22,1.12.76.76,0,0,0,.68.35q.9,0,.9-1.47V16.48h3.9v3.65c0,3.24-1.63,4.87-4.89,4.87A4.51,4.51,0,0,1,374.52,23.67Z"/><path class="ad8baa4d-57cd-4228-9991-bfba47ff59ea" d="M388,23.67A5.07,5.07,0,0,1,386.76,20V11.09a7,7,0,0,1,1.14-4.35,4.3,4.3,0,0,1,3.61-1.47A5,5,0,0,1,395,6.45a4.3,4.3,0,0,1,1.31,3.38v3.33h-3.86V10.3a2.26,2.26,0,0,0-.2-1.15.77.77,0,0,0-.7-.31.74.74,0,0,0-.71.36,2.28,2.28,0,0,0-.19,1.06V20a2.17,2.17,0,0,0,.22,1.12.76.76,0,0,0,.68.35q.9,0,.9-1.47V16.48h3.9v3.65c0,3.24-1.63,4.87-4.89,4.87A4.5,4.5,0,0,1,388,23.67Z"/><path class="ad8baa4d-57cd-4228-9991-bfba47ff59ea" d="M400.25,24.82V5.45H404V24.82Z"/><path class="ad8baa4d-57cd-4228-9991-bfba47ff59ea" d="M409.34,23.57a6.06,6.06,0,0,1-1.22-4V10.32a5.28,5.28,0,0,1,1.22-3.77,5.59,5.59,0,0,1,7.12,0,5.28,5.28,0,0,1,1.22,3.77v9.22a6,6,0,0,1-1.22,4,5.16,5.16,0,0,1-7.12,0Zm.94-18.7V2.41L415.51,0V3.83ZM413.6,21a3.51,3.51,0,0,0,.18-1.26V10.26a2.7,2.7,0,0,0-.17-1,.67.67,0,0,0-.69-.39c-.65,0-1,.48-1,1.46v9.45a3.18,3.18,0,0,0,.2,1.26.77.77,0,0,0,.75.43A.69.69,0,0,0,413.6,21Z"/><path class="ad8baa4d-57cd-4228-9991-bfba47ff59ea" d="M421.86,24.82V5.45h4l1.78,9.27V5.45h3.74V24.82h-3.78l-1.94-9.7v9.7Z"/></g></g></svg>