<svg xmlns="http://www.w3.org/2000/svg" viewBox="0 0 207.43 19.72"><defs><style>.f6982f78-405f-4628-9cbe-a5d0250a2c17{fill:#fff;}</style></defs><g id="b2dd6aa2-ee69-4a0d-abd5-9c35fd3c7b2c" data-name="Capa 2"><g id="b97dc9b7-e8ba-41cf-a10b-4c5235b27fbe" data-name="Capa 1"><path class="f6982f78-405f-4628-9cbe-a5d0250a2c17" d="M0,.18H5.34A4,4,0,0,1,8.45,1.33a5,5,0,0,1,1.06,3.4l.05,9.06a7.4,7.4,0,0,1-1,4.31,3.8,3.8,0,0,1-3.35,1.44H0ZM4.58,16.12a.93.93,0,0,0,1-1v-10a3.49,3.49,0,0,0-.1-1,.66.66,0,0,0-.37-.44,2.43,2.43,0,0,0-.83-.11H3.9V16.12Z"/><path class="f6982f78-405f-4628-9cbe-a5d0250a2c17" d="M13.73,19.54V.18h7.75V3.92H17.67V7.69h3.65v3.65H17.67v4.44h4.06v3.76Z"/><path class="f6982f78-405f-4628-9cbe-a5d0250a2c17" d="M33.79,19.54V.18h4l1.78,9.26V.18H43.3V19.54H39.51L37.57,9.85v9.69Z"/><path class="f6982f78-405f-4628-9cbe-a5d0250a2c17" d="M48.62,18.37a6,6,0,0,1-1.16-4V.18h3.76v14a4.2,4.2,0,0,0,.19,1.44.72.72,0,0,0,.76.52.74.74,0,0,0,.77-.51,4.49,4.49,0,0,0,.18-1.45V.18h3.76V14.36a6,6,0,0,1-1.16,4,4.43,4.43,0,0,1-3.55,1.35A4.44,4.44,0,0,1,48.62,18.37Z"/><path class="f6982f78-405f-4628-9cbe-a5d0250a2c17" d="M61.05,19.54V.18H68.8V3.92H65V7.69h3.65v3.65H65v4.44h4.06v3.76Z"/><path class="f6982f78-405f-4628-9cbe-a5d0250a2c17" d="M74,18.42a6.26,6.26,0,0,1-1.17-4.22V12.31h3.81v2.41c0,1,.31,1.44.92,1.44a.79.79,0,0,0,.72-.3,1.91,1.91,0,0,0,.21-1,4.69,4.69,0,0,0-.23-1.57,3.49,3.49,0,0,0-.57-1c-.24-.28-.65-.71-1.25-1.3L74.8,9.26a5.76,5.76,0,0,1-1.94-4.19A5.53,5.53,0,0,1,74,1.3,4.17,4.17,0,0,1,77.32,0a4.62,4.62,0,0,1,3.77,1.39,6.76,6.76,0,0,1,1.15,4.34H78.29l0-1.33a.85.85,0,0,0-.21-.61.81.81,0,0,0-.6-.23.86.86,0,0,0-.68.25,1,1,0,0,0-.22.68,2.82,2.82,0,0,0,1.08,2l2.25,2.16a13.6,13.6,0,0,1,1.31,1.45A5.55,5.55,0,0,1,82,11.69a6.94,6.94,0,0,1,.32,2.22,7.47,7.47,0,0,1-1,4.34,4,4,0,0,1-3.46,1.47A4.89,4.89,0,0,1,74,18.42Z"/><path class="f6982f78-405f-4628-9cbe-a5d0250a2c17" d="M88.27,19.54V3.9H86V.18h8.48V3.9h-2.3V19.54Z"/><path class="f6982f78-405f-4628-9cbe-a5d0250a2c17" d="M98.37.18h5.95a3.35,3.35,0,0,1,2.2.64,3.19,3.19,0,0,1,1,1.81,13.38,13.38,0,0,1,.27,3,6.34,6.34,0,0,1-.43,2.57,2.39,2.39,0,0,1-1.49,1.28,1.79,1.79,0,0,1,1.27.88,3.81,3.81,0,0,1,.4,1.9l0,7.32h-3.78V12c0-.54-.11-.89-.32-1a2.1,2.1,0,0,0-1.15-.22v8.83H98.37Zm4.87,7.17c.54,0,.81-.59.81-1.76A6.63,6.63,0,0,0,104,4.44a.85.85,0,0,0-.24-.53.82.82,0,0,0-.52-.15h-.91V7.35Z"/><path class="f6982f78-405f-4628-9cbe-a5d0250a2c17" d="M113,18.29a6,6,0,0,1-1.21-4V5.05A5.28,5.28,0,0,1,113,1.27a5.64,5.64,0,0,1,7.13,0,5.28,5.28,0,0,1,1.21,3.78v9.22a6,6,0,0,1-1.21,4,4.44,4.44,0,0,1-3.57,1.42A4.39,4.39,0,0,1,113,18.29Zm4.26-2.58a3.51,3.51,0,0,0,.18-1.26V5a2.47,2.47,0,0,0-.17-1,.66.66,0,0,0-.68-.4c-.65,0-1,.49-1,1.47v9.44a3,3,0,0,0,.2,1.26.74.74,0,0,0,.74.43A.68.68,0,0,0,117.27,15.71Z"/><path class="f6982f78-405f-4628-9cbe-a5d0250a2c17" d="M133.68,19.54V.18h7.76V3.94h-3.86V7h3.65v3.72h-3.65v8.79Z"/><path class="f6982f78-405f-4628-9cbe-a5d0250a2c17" d="M146.5,18.37a6,6,0,0,1-1.16-4V.18h3.76v14a4.51,4.51,0,0,0,.18,1.44.73.73,0,0,0,.77.52.75.75,0,0,0,.77-.51A4.49,4.49,0,0,0,151,14.2V.18h3.76V14.36a6,6,0,0,1-1.16,4,5.34,5.34,0,0,1-7.1,0Z"/><path class="f6982f78-405f-4628-9cbe-a5d0250a2c17" d="M160.87,19.54V3.9h-2.3V.18h8.48V3.9h-2.3V19.54Z"/><path class="f6982f78-405f-4628-9cbe-a5d0250a2c17" d="M172,18.37a6,6,0,0,1-1.16-4V.18h3.77v14a4.51,4.51,0,0,0,.18,1.44.72.72,0,0,0,.76.52.74.74,0,0,0,.77-.51,4.49,4.49,0,0,0,.18-1.45V.18h3.76V14.36a6,6,0,0,1-1.16,4,5.34,5.34,0,0,1-7.1,0Z"/><path class="f6982f78-405f-4628-9cbe-a5d0250a2c17" d="M184.45.18h6a3.33,3.33,0,0,1,2.19.64,3.19,3.19,0,0,1,1,1.81,13.38,13.38,0,0,1,.27,3,6.36,6.36,0,0,1-.42,2.57A2.42,2.42,0,0,1,192,9.44a1.81,1.81,0,0,1,1.27.88,3.92,3.92,0,0,1,.4,1.9l0,7.32h-3.79V12c0-.54-.1-.89-.31-1a2.12,2.12,0,0,0-1.15-.22v8.83h-3.92Zm4.87,7.17c.54,0,.81-.59.81-1.76a7.83,7.83,0,0,0-.07-1.15.91.91,0,0,0-.25-.53.79.79,0,0,0-.52-.15h-.9V7.35Z"/><path class="f6982f78-405f-4628-9cbe-a5d0250a2c17" d="M199.09,18.29a6,6,0,0,1-1.22-4V5.05a5.29,5.29,0,0,1,1.22-3.78,5.62,5.62,0,0,1,7.12,0,5.29,5.29,0,0,1,1.22,3.78v9.22a6,6,0,0,1-1.22,4,5.16,5.16,0,0,1-7.12,0Zm4.26-2.58a3.51,3.51,0,0,0,.18-1.26V5a2.64,2.64,0,0,0-.17-1,.66.66,0,0,0-.69-.4c-.64,0-1,.49-1,1.47v9.44a2.92,2.92,0,0,0,.21,1.26.73.73,0,0,0,.74.43A.68.68,0,0,0,203.35,15.71Z"/></g></g></svg>