<svg xmlns="http://www.w3.org/2000/svg" viewBox="0 0 249.88 19.62"><defs><style>.b4723dc6-0817-4e5f-94c6-b127e2147449{fill:#fd053c;}</style></defs><g id="a4558223-56fe-4e17-9d1b-3b706e7dbd5e" data-name="Capa 2"><g id="ffb6c9ff-ae17-4334-be8e-7f1ed7ceccbe" data-name="Layer 1"><path class="b4723dc6-0817-4e5f-94c6-b127e2147449" d="M3.36,15.16,0,4.18H1.92l1.75,6.34.65,2.36.57-2.27L6.64,4.18H8.55l1.65,6.37.55,2.1.63-2.12,1.88-6.35h1.81l-3.44,11H9.7L8,8.58,7.53,6.71,5.3,15.16Z"/><path class="b4723dc6-0817-4e5f-94c6-b127e2147449" d="M19.36,15.16,16,4.18h1.92l1.75,6.34.65,2.36.57-2.27,1.74-6.43h1.92l1.64,6.37.55,2.1.63-2.12,1.88-6.35h1.81l-3.43,11H25.7L24,8.58l-.43-1.87L21.3,15.16Z"/><path class="b4723dc6-0817-4e5f-94c6-b127e2147449" d="M35.35,15.16,32,4.18h1.92l1.75,6.34.65,2.36.57-2.27,1.75-6.43h1.91l1.65,6.37.55,2.1.63-2.12,1.88-6.35h1.81l-3.44,11H41.69L39.94,8.58l-.42-1.87-2.23,8.45Z"/><path class="b4723dc6-0817-4e5f-94c6-b127e2147449" d="M48.68,15.16V13H50.8v2.12Z"/><path class="b4723dc6-0817-4e5f-94c6-b127e2147449" d="M61.9,11.14l1.83.24a4.75,4.75,0,0,1-1.53,3,4.51,4.51,0,0,1-3,1.07,4.75,4.75,0,0,1-3.63-1.47,6,6,0,0,1-1.37-4.23,7.7,7.7,0,0,1,.59-3.11,4.14,4.14,0,0,1,1.8-2,5.27,5.27,0,0,1,2.62-.67,4.59,4.59,0,0,1,2.93.9,4.13,4.13,0,0,1,1.45,2.58l-1.8.27A3,3,0,0,0,60.83,6a2.39,2.39,0,0,0-1.59-.56,2.87,2.87,0,0,0-2.28,1,4.77,4.77,0,0,0-.88,3.19,4.93,4.93,0,0,0,.85,3.22,2.77,2.77,0,0,0,2.21,1A2.6,2.6,0,0,0,61,13.21,3.34,3.34,0,0,0,61.9,11.14Z"/><path class="b4723dc6-0817-4e5f-94c6-b127e2147449" d="M73.19,13.81a7,7,0,0,1-2,1.24,5.78,5.78,0,0,1-2,.36,4,4,0,0,1-2.79-.88,3.13,3.13,0,0,1-.6-3.74,3.1,3.1,0,0,1,1-1.07,4.55,4.55,0,0,1,1.34-.61,15,15,0,0,1,1.66-.28A17,17,0,0,0,73,8.19c0-.25,0-.42,0-.48a2.08,2.08,0,0,0-.53-1.61,3.12,3.12,0,0,0-2.12-.63,3.26,3.26,0,0,0-1.94.46,2.81,2.81,0,0,0-.93,1.63l-1.82-.25a4.57,4.57,0,0,1,.82-1.89,3.68,3.68,0,0,1,1.64-1.1,7.33,7.33,0,0,1,2.5-.39A6.59,6.59,0,0,1,73,4.26a3.08,3.08,0,0,1,1.3.83,3,3,0,0,1,.57,1.27,9.49,9.49,0,0,1,.1,1.72v2.48A26.06,26.06,0,0,0,75,13.84a4,4,0,0,0,.47,1.32h-2A4.11,4.11,0,0,1,73.19,13.81ZM73,9.65a13.33,13.33,0,0,1-3.05.7,6.89,6.89,0,0,0-1.62.38,1.5,1.5,0,0,0-.73.6,1.54,1.54,0,0,0-.26.88,1.63,1.63,0,0,0,.56,1.25,2.44,2.44,0,0,0,1.65.49,3.83,3.83,0,0,0,1.91-.47,2.91,2.91,0,0,0,1.24-1.29,4.49,4.49,0,0,0,.3-1.86Z"/><path class="b4723dc6-0817-4e5f-94c6-b127e2147449" d="M85.63,15.16V13.78a3.41,3.41,0,0,1-3.07,1.63,4.34,4.34,0,0,1-2.42-.72,4.79,4.79,0,0,1-1.7-2,6.87,6.87,0,0,1-.61-3,7.68,7.68,0,0,1,.55-3A4.29,4.29,0,0,1,80,4.64a4.44,4.44,0,0,1,2.45-.71,3.66,3.66,0,0,1,3,1.51V0h1.86V15.16ZM79.74,9.68a4.76,4.76,0,0,0,.89,3.15,2.7,2.7,0,0,0,2.1,1.05,2.63,2.63,0,0,0,2.08-1,4.58,4.58,0,0,0,.85-3,5.14,5.14,0,0,0-.87-3.31,2.65,2.65,0,0,0-2.14-1.06,2.56,2.56,0,0,0-2.07,1A5,5,0,0,0,79.74,9.68Z"/><path class="b4723dc6-0817-4e5f-94c6-b127e2147449" d="M98.5,11.62l1.92.24a4.66,4.66,0,0,1-1.68,2.62,5.08,5.08,0,0,1-3.15.93,5,5,0,0,1-3.82-1.48,5.82,5.82,0,0,1-1.41-4.17,6.08,6.08,0,0,1,1.43-4.3,4.82,4.82,0,0,1,3.7-1.53,4.69,4.69,0,0,1,3.6,1.5,6,6,0,0,1,1.4,4.22c0,.11,0,.28,0,.5h-8.2a4.2,4.2,0,0,0,1,2.77,3,3,0,0,0,2.29,1,2.83,2.83,0,0,0,1.75-.54A3.57,3.57,0,0,0,98.5,11.62Zm-6.11-3h6.13a3.73,3.73,0,0,0-.7-2.08,2.86,2.86,0,0,0-2.31-1.08,3,3,0,0,0-2.16.86A3.4,3.4,0,0,0,92.39,8.62Z"/><path class="b4723dc6-0817-4e5f-94c6-b127e2147449" d="M111,11.62l1.92.24a4.66,4.66,0,0,1-1.68,2.62,5.08,5.08,0,0,1-3.15.93,5,5,0,0,1-3.82-1.48,5.82,5.82,0,0,1-1.41-4.17,6.08,6.08,0,0,1,1.43-4.3A4.82,4.82,0,0,1,108,3.93a4.69,4.69,0,0,1,3.6,1.5A6,6,0,0,1,113,9.65v.5h-8.2a4.2,4.2,0,0,0,1,2.77,3,3,0,0,0,2.29,1,2.83,2.83,0,0,0,1.75-.54A3.57,3.57,0,0,0,111,11.62Zm-6.11-3H111a3.73,3.73,0,0,0-.7-2.08A2.86,2.86,0,0,0,108,5.46a3,3,0,0,0-2.16.86A3.4,3.4,0,0,0,104.87,8.62Z"/><path class="b4723dc6-0817-4e5f-94c6-b127e2147449" d="M113.57,19.42l.35-1.58a3.72,3.72,0,0,0,.88.15,1,1,0,0,0,.85-.38,3.8,3.8,0,0,0,.28-1.89V4.18h1.86V15.76a5.33,5.33,0,0,1-.53,2.82,2.45,2.45,0,0,1-2.23,1A5.47,5.47,0,0,1,113.57,19.42Zm2.36-17.26V0h1.86V2.16Z"/><path class="b4723dc6-0817-4e5f-94c6-b127e2147449" d="M128.86,11.62l1.93.24a4.72,4.72,0,0,1-1.69,2.62,5.07,5.07,0,0,1-3.14.93,5,5,0,0,1-3.82-1.48,5.82,5.82,0,0,1-1.42-4.17,6.08,6.08,0,0,1,1.43-4.3,4.83,4.83,0,0,1,3.7-1.53,4.69,4.69,0,0,1,3.6,1.5,6,6,0,0,1,1.4,4.22c0,.11,0,.28,0,.5h-8.19a4.25,4.25,0,0,0,1,2.77,3.06,3.06,0,0,0,2.3,1,2.87,2.87,0,0,0,1.75-.54A3.56,3.56,0,0,0,128.86,11.62Zm-6.11-3h6.13a3.65,3.65,0,0,0-.7-2.08,2.84,2.84,0,0,0-2.3-1.08,3,3,0,0,0-2.16.86A3.4,3.4,0,0,0,122.75,8.62Z"/><path class="b4723dc6-0817-4e5f-94c6-b127e2147449" d="M141,11.14l1.83.24a4.75,4.75,0,0,1-1.53,3,4.51,4.51,0,0,1-3,1.07,4.75,4.75,0,0,1-3.63-1.47,6,6,0,0,1-1.37-4.23,7.7,7.7,0,0,1,.59-3.11,4.14,4.14,0,0,1,1.8-2,5.27,5.27,0,0,1,2.62-.67,4.59,4.59,0,0,1,2.93.9,4.19,4.19,0,0,1,1.46,2.58l-1.81.27A3,3,0,0,0,139.92,6a2.39,2.39,0,0,0-1.59-.56,2.89,2.89,0,0,0-2.28,1,4.77,4.77,0,0,0-.88,3.19,4.93,4.93,0,0,0,.85,3.22,2.77,2.77,0,0,0,2.21,1,2.6,2.6,0,0,0,1.83-.67A3.34,3.34,0,0,0,141,11.14Z"/><path class="b4723dc6-0817-4e5f-94c6-b127e2147449" d="M152.31,15.16V13.55a4,4,0,0,1-3.48,1.86A4.42,4.42,0,0,1,147,15a3,3,0,0,1-1.25-.94,3.46,3.46,0,0,1-.57-1.38,8.91,8.91,0,0,1-.12-1.74V4.18h1.86v6.09a10.4,10.4,0,0,0,.12,2,2,2,0,0,0,.74,1.15,2.31,2.31,0,0,0,1.41.42,3.12,3.12,0,0,0,1.57-.43,2.4,2.4,0,0,0,1-1.17,5.93,5.93,0,0,0,.31-2.15V4.18H154v11Z"/><path class="b4723dc6-0817-4e5f-94c6-b127e2147449" d="M161.66,13.5l.27,1.64a7.07,7.07,0,0,1-1.41.17A3.2,3.2,0,0,1,159,15a1.84,1.84,0,0,1-.79-.85,6.67,6.67,0,0,1-.23-2.19V5.63h-1.36V4.18h1.36V1.46L159.79.34V4.18h1.87V5.63h-1.87v6.42a3.49,3.49,0,0,0,.09,1,.77.77,0,0,0,.33.36,1.2,1.2,0,0,0,.63.14A7.73,7.73,0,0,0,161.66,13.5Z"/><path class="b4723dc6-0817-4e5f-94c6-b127e2147449" d="M164.19,2.14V0h1.86V2.14Zm0,13v-11h1.86v11Z"/><path class="b4723dc6-0817-4e5f-94c6-b127e2147449" d="M172.63,15.16l-4.18-11h2l2.36,6.58c.25.71.49,1.44.7,2.21.17-.58.4-1.28.69-2.09l2.44-6.7h1.92l-4.16,11Z"/><path class="b4723dc6-0817-4e5f-94c6-b127e2147449" d="M180.18,9.67a5.64,5.64,0,0,1,1.7-4.52,5.11,5.11,0,0,1,3.45-1.22A4.92,4.92,0,0,1,189,5.41a5.66,5.66,0,0,1,1.44,4.11,7.17,7.17,0,0,1-.64,3.33A4.49,4.49,0,0,1,188,14.74a5.35,5.35,0,0,1-2.65.67,4.93,4.93,0,0,1-3.73-1.48A5.88,5.88,0,0,1,180.18,9.67Zm1.91,0a4.69,4.69,0,0,0,.92,3.16,3.08,3.08,0,0,0,4.63,0,4.83,4.83,0,0,0,.92-3.22,4.53,4.53,0,0,0-.93-3.09,3.07,3.07,0,0,0-4.62,0A4.65,4.65,0,0,0,182.09,9.67Z"/><path class="b4723dc6-0817-4e5f-94c6-b127e2147449" d="M192.61,11.88l1.84-.29a2.56,2.56,0,0,0,.86,1.7,3,3,0,0,0,2,.59,2.87,2.87,0,0,0,1.9-.52,1.56,1.56,0,0,0,.63-1.23,1.14,1.14,0,0,0-.55-1,7.71,7.71,0,0,0-1.91-.63,16.69,16.69,0,0,1-2.83-.9,2.7,2.7,0,0,1-1.61-2.52,2.84,2.84,0,0,1,.33-1.35,3,3,0,0,1,.92-1,3.71,3.71,0,0,1,1.18-.55A5.59,5.59,0,0,1,197,3.93a6.32,6.32,0,0,1,2.27.37,3.13,3.13,0,0,1,1.44,1,3.88,3.88,0,0,1,.64,1.7l-1.81.25a2,2,0,0,0-.72-1.32,2.62,2.62,0,0,0-1.68-.48,3.1,3.1,0,0,0-1.84.42,1.26,1.26,0,0,0-.54,1,1,1,0,0,0,.22.65,1.76,1.76,0,0,0,.72.5c.18.06.73.22,1.64.47a21.22,21.22,0,0,1,2.76.87,2.76,2.76,0,0,1,1.22,1,2.72,2.72,0,0,1,.45,1.6,3.13,3.13,0,0,1-.54,1.75A3.56,3.56,0,0,1,199.62,15a5.72,5.72,0,0,1-2.32.45,5.19,5.19,0,0,1-3.26-.89A4.08,4.08,0,0,1,192.61,11.88Z"/><path class="b4723dc6-0817-4e5f-94c6-b127e2147449" d="M205.17,15.16V13h2.12v2.12Z"/><path class="b4723dc6-0817-4e5f-94c6-b127e2147449" d="M218.39,11.14l1.83.24a4.75,4.75,0,0,1-1.53,3,4.51,4.51,0,0,1-3,1.07A4.71,4.71,0,0,1,212,13.94a6,6,0,0,1-1.37-4.23,7.54,7.54,0,0,1,.59-3.11,4.08,4.08,0,0,1,1.79-2,5.27,5.27,0,0,1,2.62-.67,4.59,4.59,0,0,1,2.93.9,4.19,4.19,0,0,1,1.46,2.58l-1.81.27A3,3,0,0,0,217.32,6a2.39,2.39,0,0,0-1.59-.56,2.89,2.89,0,0,0-2.28,1,4.77,4.77,0,0,0-.88,3.19,4.93,4.93,0,0,0,.85,3.22,2.77,2.77,0,0,0,2.21,1,2.6,2.6,0,0,0,1.83-.67A3.34,3.34,0,0,0,218.39,11.14Z"/><path class="b4723dc6-0817-4e5f-94c6-b127e2147449" d="M221.82,9.67a5.67,5.67,0,0,1,1.7-4.52A5.11,5.11,0,0,1,227,3.93a4.9,4.9,0,0,1,3.7,1.48,5.66,5.66,0,0,1,1.44,4.11,7.31,7.31,0,0,1-.63,3.33,4.58,4.58,0,0,1-1.86,1.89,5.35,5.35,0,0,1-2.65.67,4.93,4.93,0,0,1-3.73-1.48A5.92,5.92,0,0,1,221.82,9.67Zm1.91,0a4.64,4.64,0,0,0,.93,3.16,3.07,3.07,0,0,0,4.62,0,4.83,4.83,0,0,0,.92-3.22,4.53,4.53,0,0,0-.93-3.09,3.06,3.06,0,0,0-4.61,0A4.59,4.59,0,0,0,223.73,9.67Z"/><path class="b4723dc6-0817-4e5f-94c6-b127e2147449" d="M235,15.16v-11h1.67V5.72A3.84,3.84,0,0,1,240,3.93a3.6,3.6,0,0,1,2,.51,2.71,2.71,0,0,1,1.1,1.41,4,4,0,0,1,3.39-1.92,3.38,3.38,0,0,1,2.52.9,3.92,3.92,0,0,1,.88,2.79v7.54H248V8.24a5.1,5.1,0,0,0-.19-1.61,1.61,1.61,0,0,0-.65-.79,2.06,2.06,0,0,0-1.12-.3,2.61,2.61,0,0,0-1.92.77,3.42,3.42,0,0,0-.77,2.47v6.38h-1.86V8a3.13,3.13,0,0,0-.46-1.87,1.72,1.72,0,0,0-1.48-.62,2.7,2.7,0,0,0-1.46.42,2.34,2.34,0,0,0-1,1.21,6.77,6.77,0,0,0-.3,2.29v5.7Z"/></g></g></svg>