<svg xmlns="http://www.w3.org/2000/svg" viewBox="0 0 142.44 58.45"><defs><style>.f129a1a4-fdb8-4f1f-a344-81be02d9adf1{fill:#231f20;}.b1918b53-9c4c-405a-af34-85ee5e9a89f8{fill:#f03c46;}.ba523b5a-4206-4dc7-ad61-3075237c3188{fill:#fff;}</style></defs><g id="b3d571e6-8268-43a4-990f-af35e91d6161" data-name="Capa 2"><g id="e610ec69-b5e6-4279-a357-178e4535bca5" data-name="Layer 1"><path class="f129a1a4-fdb8-4f1f-a344-81be02d9adf1" d="M1,9.45V0H7.87V1.11H2.29V4H7.52V5.12H2.29V8.33h5.8V9.45Z"/><path class="f129a1a4-fdb8-4f1f-a344-81be02d9adf1" d="M11.57,9.45,9,2.6h1.22l1.47,4.1c.16.45.31.9.44,1.38.11-.36.25-.79.43-1.3L14.05,2.6h1.2L12.66,9.45Z"/><path class="f129a1a4-fdb8-4f1f-a344-81be02d9adf1" d="M21,7.24l1.2.15A2.88,2.88,0,0,1,21.1,9a3.12,3.12,0,0,1-2,.58,3.16,3.16,0,0,1-2.39-.92,3.65,3.65,0,0,1-.87-2.6,3.8,3.8,0,0,1,.88-2.68,3.05,3.05,0,0,1,2.31-.95,2.92,2.92,0,0,1,2.24.93A3.73,3.73,0,0,1,22.19,6v.31H17.08a2.69,2.69,0,0,0,.64,1.73,1.89,1.89,0,0,0,1.43.6,1.73,1.73,0,0,0,1.09-.34A2.24,2.24,0,0,0,21,7.24ZM17.15,5.37H21a2.32,2.32,0,0,0-.44-1.3,1.8,1.8,0,0,0-1.44-.67,1.82,1.82,0,0,0-1.34.54A2.11,2.11,0,0,0,17.15,5.37Z"/><path class="f129a1a4-fdb8-4f1f-a344-81be02d9adf1" d="M23.61,9.45V2.6h1.05v1a2.45,2.45,0,0,1,2.17-1.13A2.79,2.79,0,0,1,28,2.67a1.78,1.78,0,0,1,.78.58,2.3,2.3,0,0,1,.36.86,7.18,7.18,0,0,1,.06,1.13V9.45H28V5.28a3.19,3.19,0,0,0-.13-1.06,1.13,1.13,0,0,0-.48-.56,1.53,1.53,0,0,0-.81-.21,1.91,1.91,0,0,0-1.28.47,2.33,2.33,0,0,0-.54,1.79V9.45Z"/><path class="f129a1a4-fdb8-4f1f-a344-81be02d9adf1" d="M33.49,8.41l.16,1a4.22,4.22,0,0,1-.87.11,2,2,0,0,1-1-.2,1,1,0,0,1-.49-.53,4,4,0,0,1-.14-1.37V3.51h-.86V2.6h.86V.91l1.15-.7V2.6h1.17v.91H32.32v4a2.11,2.11,0,0,0,.06.64.47.47,0,0,0,.2.22.73.73,0,0,0,.4.08A3.87,3.87,0,0,0,33.49,8.41Z"/><path class="f129a1a4-fdb8-4f1f-a344-81be02d9adf1" d="M34.19,6a3.54,3.54,0,0,1,1.05-2.82,3.18,3.18,0,0,1,2.16-.76,3.07,3.07,0,0,1,2.3.92,3.52,3.52,0,0,1,.9,2.56A4.47,4.47,0,0,1,40.2,8a2.82,2.82,0,0,1-1.15,1.17,3.37,3.37,0,0,1-1.65.42,3.07,3.07,0,0,1-2.33-.92A3.67,3.67,0,0,1,34.19,6Zm1.19,0A2.9,2.9,0,0,0,36,8a1.86,1.86,0,0,0,1.45.66A1.82,1.82,0,0,0,38.83,8a2.93,2.93,0,0,0,.58-2,2.87,2.87,0,0,0-.58-1.93,1.84,1.84,0,0,0-1.43-.65A1.88,1.88,0,0,0,36,4.06,2.91,2.91,0,0,0,35.38,6Z"/><path class="f129a1a4-fdb8-4f1f-a344-81be02d9adf1" d="M45.2,6a3.54,3.54,0,0,1,1-2.82,3.18,3.18,0,0,1,2.15-.76,3.09,3.09,0,0,1,2.31.92,3.52,3.52,0,0,1,.9,2.56A4.47,4.47,0,0,1,51.21,8a2.82,2.82,0,0,1-1.15,1.17,3.38,3.38,0,0,1-1.66.42,3.06,3.06,0,0,1-2.32-.92A3.67,3.67,0,0,1,45.2,6Zm1.19,0A2.9,2.9,0,0,0,47,8a1.9,1.9,0,0,0,2.88,0,3,3,0,0,0,.58-2,2.87,2.87,0,0,0-.58-1.93,1.92,1.92,0,0,0-2.88,0A2.91,2.91,0,0,0,46.39,6Z"/><path class="f129a1a4-fdb8-4f1f-a344-81be02d9adf1" d="M53,9.45V2.6h1v1a2.81,2.81,0,0,1,.74-1,1.3,1.3,0,0,1,.74-.23,2.23,2.23,0,0,1,1.19.37l-.4,1.08a1.61,1.61,0,0,0-.85-.25,1.06,1.06,0,0,0-.68.23,1.19,1.19,0,0,0-.43.63,4.49,4.49,0,0,0-.2,1.35V9.45Z"/><path class="f129a1a4-fdb8-4f1f-a344-81be02d9adf1" d="M57.15,10l1.13.16a1,1,0,0,0,.39.76,1.9,1.9,0,0,0,1.18.32,2,2,0,0,0,1.24-.32,1.56,1.56,0,0,0,.6-.9,7.9,7.9,0,0,0,.08-1.49,2.39,2.39,0,0,1-1.9.9,2.58,2.58,0,0,1-2.18-1A3.89,3.89,0,0,1,56.92,6a4.64,4.64,0,0,1,.35-1.81,2.87,2.87,0,0,1,1-1.28,2.79,2.79,0,0,1,1.58-.45,2.43,2.43,0,0,1,2,1V2.6H63V8.52a5.6,5.6,0,0,1-.33,2.27,2.37,2.37,0,0,1-1,1.05,3.54,3.54,0,0,1-1.73.39,3.25,3.25,0,0,1-2-.56A1.83,1.83,0,0,1,57.15,10Zm1-4.12a3,3,0,0,0,.53,2,1.76,1.76,0,0,0,2.68,0,2.82,2.82,0,0,0,.55-1.93,2.79,2.79,0,0,0-.56-1.89A1.71,1.71,0,0,0,60,3.41,1.67,1.67,0,0,0,58.65,4,2.79,2.79,0,0,0,58.11,5.9Z"/><path class="f129a1a4-fdb8-4f1f-a344-81be02d9adf1" d="M69.17,8.6a4.34,4.34,0,0,1-1.24.78,3.63,3.63,0,0,1-1.28.22,2.51,2.51,0,0,1-1.74-.55,1.84,1.84,0,0,1-.6-1.41,1.93,1.93,0,0,1,.23-.92,1.9,1.9,0,0,1,.6-.66A2.52,2.52,0,0,1,66,5.68a9,9,0,0,1,1-.18,10,10,0,0,0,2.07-.4c0-.16,0-.26,0-.3a1.29,1.29,0,0,0-.33-1,2,2,0,0,0-1.32-.39,2.05,2.05,0,0,0-1.21.29,1.78,1.78,0,0,0-.58,1l-1.13-.15A2.73,2.73,0,0,1,65,3.38a2.2,2.2,0,0,1,1-.69,4.65,4.65,0,0,1,1.56-.24A4.05,4.05,0,0,1,69,2.66a1.92,1.92,0,0,1,.81.51,1.92,1.92,0,0,1,.36.79,8.22,8.22,0,0,1,0,1.07V6.58a16,16,0,0,0,.08,2.05,2.77,2.77,0,0,0,.29.82H69.4A2.36,2.36,0,0,1,69.17,8.6ZM69.07,6a8.54,8.54,0,0,1-1.89.44,4.64,4.64,0,0,0-1,.23,1,1,0,0,0-.46.38,1,1,0,0,0-.16.55,1,1,0,0,0,.35.77,1.47,1.47,0,0,0,1,.31,2.37,2.37,0,0,0,1.2-.29,1.73,1.73,0,0,0,.76-.8,2.71,2.71,0,0,0,.19-1.16Z"/><path class="f129a1a4-fdb8-4f1f-a344-81be02d9adf1" d="M72,9.45V2.6h1v1a2.46,2.46,0,0,1,2.17-1.13,2.79,2.79,0,0,1,1.14.22,1.78,1.78,0,0,1,.78.58,2.3,2.3,0,0,1,.36.86,7.18,7.18,0,0,1,.06,1.13V9.45H76.44V5.28a3.19,3.19,0,0,0-.13-1.06,1.13,1.13,0,0,0-.48-.56A1.53,1.53,0,0,0,75,3.45a1.91,1.91,0,0,0-1.28.47,2.33,2.33,0,0,0-.54,1.79V9.45Z"/><path class="f129a1a4-fdb8-4f1f-a344-81be02d9adf1" d="M79.39,1.33V0h1.16V1.33Zm0,8.12V2.6h1.16V9.45Z"/><path class="f129a1a4-fdb8-4f1f-a344-81be02d9adf1" d="M81.7,9.45V8.51l4.36-5-1.31,0H82V2.6h5.59v.77l-3.7,4.34-.72.8q.78-.06,1.47-.06h3.16v1Z"/><path class="f129a1a4-fdb8-4f1f-a344-81be02d9adf1" d="M93.38,8.6a4.21,4.21,0,0,1-1.24.78,3.59,3.59,0,0,1-1.28.22,2.46,2.46,0,0,1-1.73-.55,1.81,1.81,0,0,1-.61-1.41,1.93,1.93,0,0,1,.23-.92,1.9,1.9,0,0,1,.6-.66,2.62,2.62,0,0,1,.83-.38,9,9,0,0,1,1-.18,10,10,0,0,0,2.07-.4c0-.16,0-.26,0-.3a1.29,1.29,0,0,0-.33-1,2,2,0,0,0-1.32-.39,2.05,2.05,0,0,0-1.21.29,1.78,1.78,0,0,0-.58,1l-1.13-.15a2.73,2.73,0,0,1,.51-1.18,2.25,2.25,0,0,1,1-.69,4.65,4.65,0,0,1,1.56-.24,4,4,0,0,1,1.42.21,1.85,1.85,0,0,1,.81.51A1.92,1.92,0,0,1,94.4,4,6.38,6.38,0,0,1,94.46,5V6.58a16.73,16.73,0,0,0,.07,2.05,2.77,2.77,0,0,0,.29.82H93.61A2.36,2.36,0,0,1,93.38,8.6ZM93.28,6a8.54,8.54,0,0,1-1.89.44,4.64,4.64,0,0,0-1,.23,1,1,0,0,0-.46.38,1,1,0,0,0,.19,1.32,1.49,1.49,0,0,0,1,.31,2.36,2.36,0,0,0,1.19-.29,1.8,1.8,0,0,0,.77-.8,2.9,2.9,0,0,0,.18-1.16Z"/><path class="f129a1a4-fdb8-4f1f-a344-81be02d9adf1" d="M100.7,9.45V8.58a2.15,2.15,0,0,1-1.92,1,2.67,2.67,0,0,1-1.5-.45,3,3,0,0,1-1.07-1.26A4.38,4.38,0,0,1,95.84,6a4.85,4.85,0,0,1,.34-1.86,2.72,2.72,0,0,1,1-1.28,2.82,2.82,0,0,1,1.53-.44,2.32,2.32,0,0,1,1.1.26,2.36,2.36,0,0,1,.79.68V0h1.15V9.45ZM97,6a3,3,0,0,0,.55,2,1.69,1.69,0,0,0,1.31.65A1.64,1.64,0,0,0,100.18,8a2.85,2.85,0,0,0,.53-1.9,3.21,3.21,0,0,0-.54-2.06,1.65,1.65,0,0,0-1.33-.66A1.59,1.59,0,0,0,97.55,4,3.1,3.1,0,0,0,97,6Z"/><path class="f129a1a4-fdb8-4f1f-a344-81be02d9adf1" d="M103.16,6a3.55,3.55,0,0,1,1.06-2.82,3.18,3.18,0,0,1,2.15-.76,3.1,3.1,0,0,1,2.31.92,3.52,3.52,0,0,1,.9,2.56,4.6,4.6,0,0,1-.4,2.08A2.88,2.88,0,0,1,108,9.18a3.38,3.38,0,0,1-1.66.42,3,3,0,0,1-2.32-.92A3.67,3.67,0,0,1,103.16,6Zm1.2,0a2.9,2.9,0,0,0,.57,2,1.9,1.9,0,0,0,2.88,0,3,3,0,0,0,.57-2,2.87,2.87,0,0,0-.57-1.93,1.87,1.87,0,0,0-1.44-.65,1.84,1.84,0,0,0-1.44.65A2.91,2.91,0,0,0,104.36,6Z"/><path class="f129a1a4-fdb8-4f1f-a344-81be02d9adf1" d="M114.6,12.07V2.6h1.06v.89a2.67,2.67,0,0,1,.84-.78,2.4,2.4,0,0,1,1.14-.26,2.67,2.67,0,0,1,2.56,1.72,4.62,4.62,0,0,1,.34,1.8,4.67,4.67,0,0,1-.37,1.9,2.9,2.9,0,0,1-2.61,1.73,2.21,2.21,0,0,1-1-.24,2.46,2.46,0,0,1-.76-.62v3.33Zm1.05-6a3,3,0,0,0,.54,2,1.63,1.63,0,0,0,1.29.63A1.68,1.68,0,0,0,118.81,8a3.07,3.07,0,0,0,.55-2,3,3,0,0,0-.54-2,1.6,1.6,0,0,0-1.28-.65,1.68,1.68,0,0,0-1.32.69A3.09,3.09,0,0,0,115.65,6.06Z"/><path class="f129a1a4-fdb8-4f1f-a344-81be02d9adf1" d="M121.51,6a3.52,3.52,0,0,1,1.06-2.82,3.16,3.16,0,0,1,2.15-.76,3.1,3.1,0,0,1,2.31.92,3.56,3.56,0,0,1,.89,2.56A4.62,4.62,0,0,1,127.53,8a2.84,2.84,0,0,1-1.16,1.17,3.32,3.32,0,0,1-1.65.42,3,3,0,0,1-2.32-.92A3.67,3.67,0,0,1,121.51,6Zm1.19,0a2.9,2.9,0,0,0,.58,2,1.9,1.9,0,0,0,2.88,0,3,3,0,0,0,.57-2,2.82,2.82,0,0,0-.58-1.93,1.91,1.91,0,0,0-2.87,0A2.91,2.91,0,0,0,122.7,6Z"/><path class="f129a1a4-fdb8-4f1f-a344-81be02d9adf1" d="M129.27,9.45V2.6h1v1a3.08,3.08,0,0,1,.74-1,1.35,1.35,0,0,1,.75-.23,2.26,2.26,0,0,1,1.19.37l-.4,1.08a1.63,1.63,0,0,0-.85-.25,1,1,0,0,0-.68.23,1.21,1.21,0,0,0-.44.63,4.84,4.84,0,0,0-.19,1.35V9.45Z"/><path class="f129a1a4-fdb8-4f1f-a344-81be02d9adf1" d="M134,3.92V2.6h1.32V3.92Zm0,5.53V8.13h1.32V9.45Z"/><rect class="b1918b53-9c4c-405a-af34-85ee5e9a89f8" y="20.9" width="142.44" height="24.87"/><rect class="ba523b5a-4206-4dc7-ad61-3075237c3188" x="73.45" y="23.12" width="6.32" height="20.42"/><path class="ba523b5a-4206-4dc7-ad61-3075237c3188" d="M112.21,35.76,110,28.42l-2.23,7.34Zm1.31,4.41h-7.16l-1,3.37H98.92l7.67-20.42h6.89l7.67,20.42h-6.61Z"/><path class="ba523b5a-4206-4dc7-ad61-3075237c3188" d="M89.67,31.83h1.54a4,4,0,0,0,2.57-.63,2.07,2.07,0,0,0,.74-1.63,2.27,2.27,0,0,0-.65-1.63,3.34,3.34,0,0,0-2.41-.67H89.67Zm-6.34-8.71H93.82A7.21,7.21,0,0,1,99,24.75a6.12,6.12,0,0,1,1.71,4.64,6.33,6.33,0,0,1-1.86,4.84Q96.94,36,93.12,36H89.67v7.57H83.33Z"/><polygon class="ba523b5a-4206-4dc7-ad61-3075237c3188" points="123 23.12 140.22 23.12 140.22 27.48 129.32 27.48 129.32 30.73 139.15 30.73 139.15 34.89 129.32 34.89 129.32 38.92 140.22 38.92 140.22 43.55 123 43.55 123 23.12"/><path class="b1918b53-9c4c-405a-af34-85ee5e9a89f8" d="M.42,58.34l2.31-6h.85l2.46,6h-.9l-.7-1.82H1.92l-.66,1.82Zm1.73-2.47h2l-.63-1.66c-.19-.51-.33-.92-.42-1.25a7.91,7.91,0,0,1-.33,1.15Z"/><path class="b1918b53-9c4c-405a-af34-85ee5e9a89f8" d="M11,56.24l.8.2a2.7,2.7,0,0,1-.9,1.49,2.47,2.47,0,0,1-1.59.52,2.78,2.78,0,0,1-1.58-.4,2.39,2.39,0,0,1-.93-1.15,4.09,4.09,0,0,1-.32-1.61,3.57,3.57,0,0,1,.36-1.64,2.49,2.49,0,0,1,1-1.06,3,3,0,0,1,1.46-.36,2.45,2.45,0,0,1,1.52.46A2.32,2.32,0,0,1,11.66,54l-.78.18a1.85,1.85,0,0,0-.61-.95,1.59,1.59,0,0,0-1-.3,2,2,0,0,0-1.16.33,1.78,1.78,0,0,0-.65.89,3.53,3.53,0,0,0-.19,1.16,3.88,3.88,0,0,0,.22,1.34,1.7,1.7,0,0,0,.7.85,1.92,1.92,0,0,0,1,.29,1.69,1.69,0,0,0,1.13-.39A2,2,0,0,0,11,56.24Z"/><path class="b1918b53-9c4c-405a-af34-85ee5e9a89f8" d="M17,56.24l.79.2a2.59,2.59,0,0,1-.9,1.49,2.43,2.43,0,0,1-1.59.52,2.83,2.83,0,0,1-1.58-.4,2.43,2.43,0,0,1-.92-1.15,3.92,3.92,0,0,1-.32-1.61,3.57,3.57,0,0,1,.36-1.64,2.49,2.49,0,0,1,1-1.06,3,3,0,0,1,1.46-.36,2.42,2.42,0,0,1,1.51.46A2.34,2.34,0,0,1,17.73,54l-.78.18a1.85,1.85,0,0,0-.61-.95,1.61,1.61,0,0,0-1-.3,2,2,0,0,0-1.16.33,1.72,1.72,0,0,0-.65.89,3.53,3.53,0,0,0-.19,1.16,3.66,3.66,0,0,0,.22,1.34,1.65,1.65,0,0,0,.7.85,1.92,1.92,0,0,0,1,.29,1.71,1.71,0,0,0,1.13-.39A2,2,0,0,0,17,56.24Z"/><path class="b1918b53-9c4c-405a-af34-85ee5e9a89f8" d="M19,58.34v-6h.8v6Z"/><path class="b1918b53-9c4c-405a-af34-85ee5e9a89f8" d="M20.91,55.42a3.31,3.31,0,0,1,.8-2.35,2.77,2.77,0,0,1,2.08-.85,3,3,0,0,1,1.5.4,2.73,2.73,0,0,1,1,1.11,3.67,3.67,0,0,1,.35,1.62A3.46,3.46,0,0,1,26.29,57a2.6,2.6,0,0,1-1.05,1.1,3,3,0,0,1-1.46.37A2.85,2.85,0,0,1,22.27,58a2.69,2.69,0,0,1-1-1.12A3.43,3.43,0,0,1,20.91,55.42Zm.82,0a2.41,2.41,0,0,0,.58,1.71,2,2,0,0,0,3,0,2.57,2.57,0,0,0,.58-1.79,3,3,0,0,0-.25-1.28,1.9,1.9,0,0,0-.73-.85,1.94,1.94,0,0,0-1.07-.3,2,2,0,0,0-1.45.58A2.58,2.58,0,0,0,21.73,55.43ZM23.28,52l.54-1.15h1L23.89,52Z"/><path class="b1918b53-9c4c-405a-af34-85ee5e9a89f8" d="M27.68,58.34v-6h.81l3.16,4.72V52.33h.76v6H31.6l-3.16-4.72v4.72Z"/><path class="b1918b53-9c4c-405a-af34-85ee5e9a89f8" d="M36.1,58.34v-6h4.35V53H36.9v1.84h3.33v.71H36.9v2h3.69v.71Z"/><path class="b1918b53-9c4c-405a-af34-85ee5e9a89f8" d="M41.67,58.34v-6h1.19l1.43,4.26c.13.4.22.69.28.89l.32-1,1.44-4.18H47.4v6h-.76v-5l-1.75,5h-.72l-1.74-5.11v5.11Z"/><path class="b1918b53-9c4c-405a-af34-85ee5e9a89f8" d="M48.69,58.34v-6H51a5.17,5.17,0,0,1,.91.06,1.76,1.76,0,0,1,.74.28,1.57,1.57,0,0,1,.49.58,2,2,0,0,1-.31,2.12A2.34,2.34,0,0,1,51,55.9H49.48v2.44Zm.79-3.15H51a1.64,1.64,0,0,0,1.09-.29,1,1,0,0,0,.33-.81,1.12,1.12,0,0,0-.19-.64.94.94,0,0,0-.5-.36A4,4,0,0,0,51,53H49.48Z"/><path class="b1918b53-9c4c-405a-af34-85ee5e9a89f8" d="M54.3,58.34v-6H57a3.48,3.48,0,0,1,1.22.16,1.3,1.3,0,0,1,.67.58,1.65,1.65,0,0,1,.25.9,1.53,1.53,0,0,1-.41,1.08,2.12,2.12,0,0,1-1.28.56,2,2,0,0,1,.48.3,4.2,4.2,0,0,1,.66.8l1,1.63h-1l-.79-1.25c-.23-.36-.43-.63-.58-.82a1.73,1.73,0,0,0-.4-.41,1.42,1.42,0,0,0-.36-.16,2.34,2.34,0,0,0-.45,0H55.1v2.67ZM55.1,55h1.71a2.4,2.4,0,0,0,.85-.12.83.83,0,0,0,.47-.36.93.93,0,0,0,.16-.54.88.88,0,0,0-.31-.7A1.45,1.45,0,0,0,57,53H55.1Z"/><path class="b1918b53-9c4c-405a-af34-85ee5e9a89f8" d="M60.38,58.34v-6h4.34V53H61.17v1.84H64.5v.71H61.17v2h3.69v.71Z"/><path class="b1918b53-9c4c-405a-af34-85ee5e9a89f8" d="M65.69,56.41l.75-.06a1.75,1.75,0,0,0,.25.74,1.37,1.37,0,0,0,.61.47,2.43,2.43,0,0,0,.92.17,2.2,2.2,0,0,0,.8-.13,1.11,1.11,0,0,0,.52-.37.83.83,0,0,0,.17-.52.76.76,0,0,0-.16-.49,1.27,1.27,0,0,0-.54-.36,11,11,0,0,0-1.07-.29,5,5,0,0,1-1.16-.38,1.57,1.57,0,0,1-.65-.56,1.36,1.36,0,0,1-.21-.74,1.58,1.58,0,0,1,.26-.86,1.6,1.6,0,0,1,.76-.6,3,3,0,0,1,1.1-.2,3.1,3.1,0,0,1,1.18.21A1.76,1.76,0,0,1,70.3,54l-.76.06a1.23,1.23,0,0,0-.42-.86,1.66,1.66,0,0,0-1.05-.29,1.72,1.72,0,0,0-1,.26.8.8,0,0,0-.33.64.71.71,0,0,0,.23.54,3.38,3.38,0,0,0,1.2.42,7.93,7.93,0,0,1,1.33.39,1.82,1.82,0,0,1,.78.61,1.47,1.47,0,0,1,.25.86,1.63,1.63,0,0,1-.27.9,1.91,1.91,0,0,1-.79.66,2.74,2.74,0,0,1-1.16.24,3.43,3.43,0,0,1-1.37-.24,1.93,1.93,0,0,1-.87-.72A2,2,0,0,1,65.69,56.41Z"/><path class="b1918b53-9c4c-405a-af34-85ee5e9a89f8" d="M70.91,58.34l2.31-6h.85l2.47,6h-.91l-.7-1.82H72.41l-.66,1.82Zm1.73-2.47h2l-.63-1.66c-.19-.51-.33-.92-.42-1.25a7.91,7.91,0,0,1-.33,1.15Z"/><path class="b1918b53-9c4c-405a-af34-85ee5e9a89f8" d="M77.18,58.34v-6h2.67a3.48,3.48,0,0,1,1.22.16,1.34,1.34,0,0,1,.67.58A1.65,1.65,0,0,1,82,54a1.53,1.53,0,0,1-.41,1.08,2.15,2.15,0,0,1-1.28.56,2,2,0,0,1,.48.3,4.2,4.2,0,0,1,.66.8l1,1.63h-1l-.79-1.25c-.24-.36-.43-.63-.58-.82a1.73,1.73,0,0,0-.4-.41,1.42,1.42,0,0,0-.36-.16,2.41,2.41,0,0,0-.45,0H78v2.67ZM78,55h1.71a2.4,2.4,0,0,0,.85-.12.86.86,0,0,0,.47-.36.93.93,0,0,0,.16-.54.88.88,0,0,0-.31-.7,1.47,1.47,0,0,0-1-.27H78Z"/><path class="b1918b53-9c4c-405a-af34-85ee5e9a89f8" d="M83.37,58.34v-6h.8v6Z"/><path class="b1918b53-9c4c-405a-af34-85ee5e9a89f8" d="M84.91,58.34l2.31-6h.86l2.46,6h-.91l-.7-1.82H86.42l-.66,1.82Zm1.74-2.47h2l-.63-1.66c-.19-.51-.33-.92-.43-1.25a6.79,6.79,0,0,1-.32,1.15Z"/><path class="b1918b53-9c4c-405a-af34-85ee5e9a89f8" d="M91.14,58.34v-6h.8v5.3h3v.71Z"/></g></g></svg>