<svg xmlns="http://www.w3.org/2000/svg" viewBox="0 0 105.46 29.38"><defs><style>.a652dc44-4198-4b6d-b96d-34685fdad9c8{fill:#2d3c96;}.f82b1b94-483c-48f5-930a-e0abb6f693bc{fill:#fff;}</style></defs><g id="b42fffa4-d635-477f-9ffa-12e84f7713b3" data-name="Capa 2"><g id="ebd271e8-ec93-4f12-a575-d7225d09a25c" data-name="Layer 1"><rect class="a652dc44-4198-4b6d-b96d-34685fdad9c8" width="105.46" height="18.66"/><path class="f82b1b94-483c-48f5-930a-e0abb6f693bc" d="M52.18,10.72,56.35,12A7.68,7.68,0,0,1,55,14.91a5.77,5.77,0,0,1-2.24,1.77,8.37,8.37,0,0,1-3.41.6,9.79,9.79,0,0,1-4.09-.73A6.41,6.41,0,0,1,42.55,14a8.71,8.71,0,0,1-1.16-4.7,8,8,0,0,1,2-5.86,7.71,7.71,0,0,1,5.74-2.05,7.83,7.83,0,0,1,4.57,1.17A6.94,6.94,0,0,1,56.2,6.16L52,7.09a3.38,3.38,0,0,0-.47-1,2.6,2.6,0,0,0-1-.84,2.79,2.79,0,0,0-1.29-.3,2.82,2.82,0,0,0-2.48,1.3,5.57,5.57,0,0,0-.65,3,5.7,5.7,0,0,0,.78,3.5,3.07,3.07,0,0,0,4.24.19,4.68,4.68,0,0,0,1-2.23"/><path class="f82b1b94-483c-48f5-930a-e0abb6f693bc" d="M67.64,14.48h-5.4L61.49,17H56.64L62.42,1.64H67.6L73.38,17h-5Zm-1-3.33L65,5.63l-1.68,5.52Z"/><path class="f82b1b94-483c-48f5-930a-e0abb6f693bc" d="M74.76,1.64h7.06a8.38,8.38,0,0,1,3.37.57,5.46,5.46,0,0,1,2.13,1.62A6.71,6.71,0,0,1,88.53,6.3a11.47,11.47,0,0,1,.38,3,10.44,10.44,0,0,1-.56,3.82,6.47,6.47,0,0,1-1.56,2.28,5.16,5.16,0,0,1-2.14,1.22,11,11,0,0,1-2.83.42H74.76Zm4.75,3.48v8.4h1.17a4.92,4.92,0,0,0,2.12-.33,2.27,2.27,0,0,0,1-1.15,7.19,7.19,0,0,0,.36-2.67A5.22,5.22,0,0,0,83.34,6a3.37,3.37,0,0,0-2.64-.9Z"/><polygon class="f82b1b94-483c-48f5-930a-e0abb6f693bc" points="90.86 1.64 103.82 1.64 103.82 4.92 95.62 4.92 95.62 7.37 103.02 7.37 103.02 10.5 95.62 10.5 95.62 13.54 103.82 13.54 103.82 17.02 90.86 17.02 90.86 1.64"/><polygon class="a652dc44-4198-4b6d-b96d-34685fdad9c8" points="31.56 21.94 37.62 21.94 37.62 23.5 33.83 23.5 33.83 24.66 37.34 24.66 37.34 26.15 33.83 26.15 33.83 27.59 37.72 27.59 37.72 29.25 31.56 29.25 31.56 21.94"/><path class="a652dc44-4198-4b6d-b96d-34685fdad9c8" d="M42.09,21.94h2.26v4a6.22,6.22,0,0,1-.22,1.91,2.23,2.23,0,0,1-.89,1.1,3,3,0,0,1-1.72.46,4,4,0,0,1-1.72-.3,2.16,2.16,0,0,1-.94-.88,3.3,3.3,0,0,1-.39-1.42l2.16-.3a2.5,2.5,0,0,0,.08.72.88.88,0,0,0,.27.38.65.65,0,0,0,.37.1.61.61,0,0,0,.56-.29,1.82,1.82,0,0,0,.18-.95Z"/><polygon class="a652dc44-4198-4b6d-b96d-34685fdad9c8" points="45.85 21.94 51.91 21.94 51.91 23.5 48.12 23.5 48.12 24.66 51.63 24.66 51.63 26.15 48.12 26.15 48.12 27.59 52.02 27.59 52.02 29.25 45.85 29.25 45.85 21.94"/><path class="a652dc44-4198-4b6d-b96d-34685fdad9c8" d="M58.19,26.26l2,.6a3.56,3.56,0,0,1-.63,1.39,2.72,2.72,0,0,1-1.06.84,4,4,0,0,1-1.62.29,4.76,4.76,0,0,1-2-.35,3.07,3.07,0,0,1-1.3-1.22,4.1,4.1,0,0,1-.55-2.23,3.77,3.77,0,0,1,1-2.79,3.66,3.66,0,0,1,2.73-1,3.73,3.73,0,0,1,2.17.56,3.27,3.27,0,0,1,1.17,1.72l-2,.44a2.1,2.1,0,0,0-.22-.49,1.26,1.26,0,0,0-.47-.39,1.22,1.22,0,0,0-.61-.14,1.34,1.34,0,0,0-1.18.61,2.7,2.7,0,0,0-.31,1.44,2.79,2.79,0,0,0,.37,1.67,1.28,1.28,0,0,0,1,.45,1.27,1.27,0,0,0,1-.36,2.32,2.32,0,0,0,.48-1.06"/><path class="a652dc44-4198-4b6d-b96d-34685fdad9c8" d="M66,21.94h2.25V26.3a3.76,3.76,0,0,1-.2,1.22,2.87,2.87,0,0,1-.63,1,2.66,2.66,0,0,1-.91.6,4.59,4.59,0,0,1-1.58.25,9.84,9.84,0,0,1-1.16-.08,3,3,0,0,1-1.06-.3,2.38,2.38,0,0,1-.77-.63,2.28,2.28,0,0,1-.49-.84,4.34,4.34,0,0,1-.21-1.23V21.94h2.26V26.4a1.26,1.26,0,0,0,.33.93,1.21,1.21,0,0,0,.92.34,1.26,1.26,0,0,0,.92-.33A1.28,1.28,0,0,0,66,26.4Z"/><polygon class="a652dc44-4198-4b6d-b96d-34685fdad9c8" points="69.46 21.94 76.33 21.94 76.33 23.75 74.02 23.75 74.02 29.25 71.76 29.25 71.76 23.75 69.46 23.75 69.46 21.94"/><rect class="a652dc44-4198-4b6d-b96d-34685fdad9c8" x="77.53" y="21.94" width="2.26" height="7.31"/><polygon class="a652dc44-4198-4b6d-b96d-34685fdad9c8" points="80.55 21.94 82.92 21.94 84.56 27.2 86.19 21.94 88.48 21.94 85.76 29.25 83.32 29.25 80.55 21.94"/><path class="a652dc44-4198-4b6d-b96d-34685fdad9c8" d="M91.05,25.61a2.47,2.47,0,0,0,.41,1.59,1.4,1.4,0,0,0,1.12.49,1.39,1.39,0,0,0,1.13-.48,2.73,2.73,0,0,0,.4-1.7A2.25,2.25,0,0,0,93.69,24a1.41,1.41,0,0,0-1.13-.47,1.38,1.38,0,0,0-1.1.48,2.5,2.5,0,0,0-.41,1.6m-2.26,0a4,4,0,0,1,6.59-2.8,3.67,3.67,0,0,1,1,2.74,4.42,4.42,0,0,1-.44,2.1,3,3,0,0,1-1.24,1.28,4.17,4.17,0,0,1-2,.46,4.71,4.71,0,0,1-2-.4,3.1,3.1,0,0,1-1.32-1.25,4.14,4.14,0,0,1-.5-2.13"/><path class="a652dc44-4198-4b6d-b96d-34685fdad9c8" d="M97.19,26.83l2.15-.13a1.74,1.74,0,0,0,.28.8,1.23,1.23,0,0,0,1,.44,1.14,1.14,0,0,0,.75-.23.68.68,0,0,0,.26-.52.7.7,0,0,0-.25-.51,3,3,0,0,0-1.16-.43,4.87,4.87,0,0,1-2.12-.88A1.81,1.81,0,0,1,97.46,24a1.89,1.89,0,0,1,.33-1.06,2.18,2.18,0,0,1,1-.79,4.63,4.63,0,0,1,1.8-.29,3.67,3.67,0,0,1,2.14.53,2.22,2.22,0,0,1,.87,1.65l-2.13.13a1.12,1.12,0,0,0-.35-.72,1.16,1.16,0,0,0-.75-.22.93.93,0,0,0-.6.16.54.54,0,0,0-.2.41.4.4,0,0,0,.17.31,1.72,1.72,0,0,0,.76.27,9.88,9.88,0,0,1,2.12.65,2.27,2.27,0,0,1,.93.81,2.08,2.08,0,0,1,.29,1.08,2.33,2.33,0,0,1-.39,1.3,2.52,2.52,0,0,1-1.08.9,4.51,4.51,0,0,1-1.76.31A3.63,3.63,0,0,1,98,28.66a2.82,2.82,0,0,1-.81-1.83"/></g></g></svg>