<svg xmlns="http://www.w3.org/2000/svg" viewBox="0 0 140.48 20.2"><defs><style>.ac29d247-d953-40de-b7ac-05ff69c7ffe5{fill:#f03c46;}.b7397c15-bc23-44d7-9553-0cfe9fd0508c{fill:#fff;}</style></defs><g id="f699816e-20a1-48e9-af76-a1786b6778f1" data-name="Capa 2"><g id="abf00ac9-7564-401a-898b-2cf178913f4e" data-name="Layer 1"><path class="ac29d247-d953-40de-b7ac-05ff69c7ffe5" d="M0,4.41H4.81a2.67,2.67,0,0,1,1.77.52,2.52,2.52,0,0,1,.85,1.45,10.66,10.66,0,0,1,.22,2.4,4.9,4.9,0,0,1-.35,2.08,2,2,0,0,1-1.2,1,1.4,1.4,0,0,1,1,.71,3.11,3.11,0,0,1,.32,1.53l0,5.92H4.35V13.94c0-.44-.08-.72-.25-.84a1.71,1.71,0,0,0-.93-.18v7.14H0ZM3.93,10.2c.44,0,.66-.47.66-1.42a6.93,6.93,0,0,0,0-.93.73.73,0,0,0-.21-.43.61.61,0,0,0-.41-.12H3.19v2.9Z"/><path class="ac29d247-d953-40de-b7ac-05ff69c7ffe5" d="M10.73,20.06V4.41H17v3H13.92v3h3v3h-3V17H17.2v3Z"/><path class="b7397c15-bc23-44d7-9553-0cfe9fd0508c" d="M21.23,19.13a4.08,4.08,0,0,1-1-2.95V9a5.61,5.61,0,0,1,.93-3.51A3.47,3.47,0,0,1,24,4.26a4.05,4.05,0,0,1,2.79,1,3.48,3.48,0,0,1,1.05,2.73v2.7H24.77V8.32a1.82,1.82,0,0,0-.17-.92A.6.6,0,0,0,24,7.14a.59.59,0,0,0-.57.29,1.8,1.8,0,0,0-.16.86v7.85a1.73,1.73,0,0,0,.18.9.62.62,0,0,0,.55.28c.49,0,.73-.39.73-1.18V13.32h3.15v2.95q0,3.93-4,3.93A3.63,3.63,0,0,1,21.23,19.13Z"/><path class="b7397c15-bc23-44d7-9553-0cfe9fd0508c" d="M31.91,19a4.89,4.89,0,0,1-1-3.25V8.34a4.3,4.3,0,0,1,1-3,3.84,3.84,0,0,1,2.88-1,3.84,3.84,0,0,1,2.88,1,4.3,4.3,0,0,1,1,3.05v7.45a4.88,4.88,0,0,1-1,3.26,3.58,3.58,0,0,1-2.88,1.15A3.56,3.56,0,0,1,31.91,19ZM35.35,17a2.74,2.74,0,0,0,.15-1V8.29a2,2,0,0,0-.14-.83.54.54,0,0,0-.55-.32c-.52,0-.79.4-.79,1.18V16a2.44,2.44,0,0,0,.17,1,.6.6,0,0,0,.6.34A.54.54,0,0,0,35.35,17Z"/><path class="b7397c15-bc23-44d7-9553-0cfe9fd0508c" d="M41.85,20.06V4.41h3.23l1.43,7.49V4.41h3V20.06H46.48l-1.57-7.84v7.84Z"/><path class="b7397c15-bc23-44d7-9553-0cfe9fd0508c" d="M53.58,19.15a5,5,0,0,1-.95-3.41V14.21h3.08v1.95c0,.78.25,1.16.74,1.16a.67.67,0,0,0,.59-.24,1.57,1.57,0,0,0,.16-.83A3.84,3.84,0,0,0,57,15a2.65,2.65,0,0,0-.47-.83,11.92,11.92,0,0,0-1-1.05l-1.35-1.35a4.66,4.66,0,0,1-1.56-3.39,4.47,4.47,0,0,1,.92-3,3.37,3.37,0,0,1,2.68-1,3.78,3.78,0,0,1,3.05,1.12,5.46,5.46,0,0,1,.93,3.51H57l0-1.08a.71.71,0,0,0-.17-.49.66.66,0,0,0-.49-.18.7.7,0,0,0-.54.2.81.81,0,0,0-.18.55,2.26,2.26,0,0,0,.87,1.58l1.82,1.75a9.86,9.86,0,0,1,1.06,1.18A4.49,4.49,0,0,1,60,13.71a5.59,5.59,0,0,1,.26,1.79A6.1,6.1,0,0,1,59.45,19a3.22,3.22,0,0,1-2.8,1.19A3.94,3.94,0,0,1,53.58,19.15Z"/><path class="b7397c15-bc23-44d7-9553-0cfe9fd0508c" d="M64.9,20.06V7.41H63v-3h6.85v3H68V20.06Z"/><path class="b7397c15-bc23-44d7-9553-0cfe9fd0508c" d="M72.88,4.41h4.81a2.7,2.7,0,0,1,1.78.52,2.57,2.57,0,0,1,.84,1.45,10.66,10.66,0,0,1,.22,2.4,5.09,5.09,0,0,1-.34,2.08,2,2,0,0,1-1.21,1,1.4,1.4,0,0,1,1,.71,3.11,3.11,0,0,1,.32,1.53l0,5.92H77.23V13.94c0-.44-.08-.72-.25-.84a1.71,1.71,0,0,0-.93-.18v7.14H72.88Zm3.94,5.79c.43,0,.65-.47.65-1.42a6.93,6.93,0,0,0,0-.93.79.79,0,0,0-.2-.43.66.66,0,0,0-.42-.12h-.73v2.9Z"/><path class="b7397c15-bc23-44d7-9553-0cfe9fd0508c" d="M84.46,19.11a4.84,4.84,0,0,1-.94-3.24V4.41h3V15.74a3.5,3.5,0,0,0,.15,1.16.67.67,0,0,0,1.24,0,3.87,3.87,0,0,0,.14-1.17V4.41h3V15.87a4.89,4.89,0,0,1-.93,3.24,4.32,4.32,0,0,1-5.74,0Z"/><path class="b7397c15-bc23-44d7-9553-0cfe9fd0508c" d="M95.27,19.13a4.08,4.08,0,0,1-1-2.95V9a5.61,5.61,0,0,1,.93-3.51,3.47,3.47,0,0,1,2.91-1.19,4,4,0,0,1,2.79,1,3.49,3.49,0,0,1,1.06,2.73v2.7H98.81V8.32a1.84,1.84,0,0,0-.16-.92.63.63,0,0,0-.57-.26.59.59,0,0,0-.57.29,1.93,1.93,0,0,0-.16.86v7.85a1.63,1.63,0,0,0,.19.9.59.59,0,0,0,.54.28c.49,0,.73-.39.73-1.18V13.32H102v2.95Q102,20.2,98,20.2A3.63,3.63,0,0,1,95.27,19.13Z"/><path class="b7397c15-bc23-44d7-9553-0cfe9fd0508c" d="M106,19.13a4.08,4.08,0,0,1-1-2.95V9a5.61,5.61,0,0,1,.93-3.51,3.47,3.47,0,0,1,2.91-1.19,4,4,0,0,1,2.79,1,3.49,3.49,0,0,1,1.06,2.73v2.7h-3.12V8.32a1.84,1.84,0,0,0-.16-.92.63.63,0,0,0-.57-.26.59.59,0,0,0-.57.29,1.93,1.93,0,0,0-.16.86v7.85a1.72,1.72,0,0,0,.19.9.59.59,0,0,0,.54.28c.49,0,.73-.39.73-1.18V13.32h3.15v2.95c0,2.62-1.31,3.93-4,3.93A3.65,3.65,0,0,1,106,19.13Z"/><path class="b7397c15-bc23-44d7-9553-0cfe9fd0508c" d="M115.69,20.06V4.41h3V20.06Z"/><path class="b7397c15-bc23-44d7-9553-0cfe9fd0508c" d="M122.86,19a4.84,4.84,0,0,1-1-3.25V8.34a4.26,4.26,0,0,1,1-3,4.53,4.53,0,0,1,5.75,0,4.26,4.26,0,0,1,1,3.05v7.45a4.83,4.83,0,0,1-1,3.26,4.16,4.16,0,0,1-5.75,0Zm.76-15.11V2L127.85,0V3.1Zm2.68,13a2.77,2.77,0,0,0,.14-1V8.29a2.16,2.16,0,0,0-.13-.83.55.55,0,0,0-.56-.32c-.52,0-.78.4-.78,1.18V16a2.46,2.46,0,0,0,.16,1,.6.6,0,0,0,.6.34A.56.56,0,0,0,126.3,17Z"/><path class="b7397c15-bc23-44d7-9553-0cfe9fd0508c" d="M132.8,20.06V4.41H136l1.44,7.49V4.41h3V20.06h-3.06l-1.56-7.84v7.84Z"/></g></g></svg>