<svg xmlns="http://www.w3.org/2000/svg" viewBox="0 0 96.4 15.94"><defs><style>.aa6d3c15-aaaa-4684-9d3f-30ca239f95ff{fill:#fff;}</style></defs><g id="b484ff49-07aa-40d2-b8b6-74c1a41f6de1" data-name="Capa 2"><g id="ad7b6ed2-4d9e-4178-8013-c69f53e4dc88" data-name="Layer 1"><path class="aa6d3c15-aaaa-4684-9d3f-30ca239f95ff" d="M0,.15H4.32a3.25,3.25,0,0,1,2.51.92,4.1,4.1,0,0,1,.86,2.76l0,7.32a5.9,5.9,0,0,1-.8,3.48,3.09,3.09,0,0,1-2.71,1.16H0ZM3.7,13a.74.74,0,0,0,.85-.83V4.12a2.72,2.72,0,0,0-.08-.8A.51.51,0,0,0,4.17,3a1.85,1.85,0,0,0-.67-.09H3.15V13Z"/><path class="aa6d3c15-aaaa-4684-9d3f-30ca239f95ff" d="M10.91,15.79V.15h6.27v3H14.1v3h3v3h-3v3.59h3.28v3Z"/><path class="aa6d3c15-aaaa-4684-9d3f-30ca239f95ff" d="M26.72,15.79V.15H30l1.44,7.48V.15h3V15.79H31.35L29.78,8v7.83Z"/><path class="aa6d3c15-aaaa-4684-9d3f-30ca239f95ff" d="M38.53,14.85a4.85,4.85,0,0,1-.94-3.25V.15h3V11.48a3.58,3.58,0,0,0,.15,1.16.59.59,0,0,0,.62.42.6.6,0,0,0,.62-.41,3.57,3.57,0,0,0,.14-1.17V.15h3.05V11.6a4.9,4.9,0,0,1-.94,3.25,3.61,3.61,0,0,1-2.87,1.09A3.61,3.61,0,0,1,38.53,14.85Z"/><path class="aa6d3c15-aaaa-4684-9d3f-30ca239f95ff" d="M48.39,15.79V.15h6.27v3H51.58v3h3v3h-3v3.59h3.28v3Z"/><path class="aa6d3c15-aaaa-4684-9d3f-30ca239f95ff" d="M58.7,14.88a5,5,0,0,1-1-3.4V10h3.08v2c0,.77.25,1.16.75,1.16a.63.63,0,0,0,.58-.25,1.49,1.49,0,0,0,.17-.82,3.78,3.78,0,0,0-.19-1.27,2.81,2.81,0,0,0-.46-.84c-.19-.22-.53-.57-1-1.05L59.32,7.49A4.67,4.67,0,0,1,57.75,4.1a4.5,4.5,0,0,1,.92-3,3.39,3.39,0,0,1,2.69-1,3.72,3.72,0,0,1,3,1.12,5.46,5.46,0,0,1,.93,3.51H62.14V3.55A.67.67,0,0,0,62,3.06a.62.62,0,0,0-.48-.18.69.69,0,0,0-.55.2.77.77,0,0,0-.18.54,2.27,2.27,0,0,0,.88,1.59L63.44,7a10.61,10.61,0,0,1,1,1.17,4.63,4.63,0,0,1,.68,1.31,5.71,5.71,0,0,1,.25,1.8,6.1,6.1,0,0,1-.84,3.51,3.22,3.22,0,0,1-2.8,1.19A3.93,3.93,0,0,1,58.7,14.88Z"/><path class="aa6d3c15-aaaa-4684-9d3f-30ca239f95ff" d="M70,15.79V3.15H68.17v-3H75v3H73.16V15.79Z"/><path class="aa6d3c15-aaaa-4684-9d3f-30ca239f95ff" d="M78,.15h4.81a2.74,2.74,0,0,1,1.77.51,2.64,2.64,0,0,1,.85,1.46,11.27,11.27,0,0,1,.22,2.4,5,5,0,0,1-.35,2.07,1.92,1.92,0,0,1-1.2,1,1.48,1.48,0,0,1,1,.71,3.16,3.16,0,0,1,.32,1.53l0,5.92H82.36V9.67c0-.43-.08-.71-.25-.84a1.74,1.74,0,0,0-.93-.18v7.14H78Zm3.93,5.79c.44,0,.66-.48.66-1.42a5.2,5.2,0,0,0-.06-.93.64.64,0,0,0-.2-.43A.62.62,0,0,0,81.92,3h-.73v2.9Z"/><path class="aa6d3c15-aaaa-4684-9d3f-30ca239f95ff" d="M89.66,14.78a4.84,4.84,0,0,1-1-3.25V4.08a4.24,4.24,0,0,1,1-3,4.53,4.53,0,0,1,5.75,0,4.24,4.24,0,0,1,1,3.05v7.45a4.83,4.83,0,0,1-1,3.26,4.16,4.16,0,0,1-5.75,0ZM93.1,12.7a2.82,2.82,0,0,0,.15-1V4a2.14,2.14,0,0,0-.14-.83.54.54,0,0,0-.56-.32c-.52,0-.78.39-.78,1.18v7.63a2.64,2.64,0,0,0,.16,1,.6.6,0,0,0,.61.35A.55.55,0,0,0,93.1,12.7Z"/></g></g></svg>