<svg xmlns="http://www.w3.org/2000/svg" viewBox="0 0 58.69 15.94"><defs><style>.a654f36d-2d8f-452c-bede-f983877cfc11{fill:#fff;}</style></defs><g id="b22008e6-3cd7-46d6-a46f-654675a88fb1" data-name="Capa 2"><g id="b3829164-572d-43c2-b014-da92fb4583e6" data-name="Layer 1"><path class="a654f36d-2d8f-452c-bede-f983877cfc11" d="M0,15.79V.15H6.27v3H3.15V5.68H6.1v3H3.15v7.1Z"/><path class="a654f36d-2d8f-452c-bede-f983877cfc11" d="M10.18,14.85a4.85,4.85,0,0,1-.94-3.25V.15h3V11.48a3.58,3.58,0,0,0,.15,1.16.58.58,0,0,0,.61.42.59.59,0,0,0,.62-.41,3.53,3.53,0,0,0,.15-1.17V.15h3V11.6a4.85,4.85,0,0,1-.94,3.25A3.59,3.59,0,0,1,13,15.94,3.59,3.59,0,0,1,10.18,14.85Z"/><path class="a654f36d-2d8f-452c-bede-f983877cfc11" d="M21.61,15.79V3.15H19.75v-3H26.6v3H24.74V15.79Z"/><path class="a654f36d-2d8f-452c-bede-f983877cfc11" d="M30.44,14.85a4.85,4.85,0,0,1-.94-3.25V.15h3V11.48a3.58,3.58,0,0,0,.15,1.16.59.59,0,0,0,.62.42.6.6,0,0,0,.62-.41,3.57,3.57,0,0,0,.14-1.17V.15h3V11.6a4.9,4.9,0,0,1-.94,3.25,3.61,3.61,0,0,1-2.87,1.09A3.61,3.61,0,0,1,30.44,14.85Z"/><path class="a654f36d-2d8f-452c-bede-f983877cfc11" d="M40.3.15h4.81a2.74,2.74,0,0,1,1.77.51,2.64,2.64,0,0,1,.85,1.46A10.66,10.66,0,0,1,48,4.52a5,5,0,0,1-.35,2.07,1.92,1.92,0,0,1-1.2,1,1.46,1.46,0,0,1,1,.71,3.16,3.16,0,0,1,.32,1.53l0,5.92H44.65V9.67c0-.43-.08-.71-.25-.84a1.71,1.71,0,0,0-.93-.18v7.14H40.3Zm3.93,5.79c.44,0,.66-.48.66-1.42a5.2,5.2,0,0,0-.06-.93.64.64,0,0,0-.2-.43A.62.62,0,0,0,44.21,3h-.72v2.9Z"/><path class="a654f36d-2d8f-452c-bede-f983877cfc11" d="M52,14.78a4.84,4.84,0,0,1-1-3.25V4.08a4.24,4.24,0,0,1,1-3,4.54,4.54,0,0,1,5.76,0,4.28,4.28,0,0,1,1,3.05v7.45a4.88,4.88,0,0,1-1,3.26,4.17,4.17,0,0,1-5.76,0Zm3.44-2.08a2.82,2.82,0,0,0,.15-1V4a2.14,2.14,0,0,0-.14-.83.52.52,0,0,0-.55-.32c-.52,0-.79.39-.79,1.18v7.63a2.44,2.44,0,0,0,.17,1,.59.59,0,0,0,.6.35A.54.54,0,0,0,55.39,12.7Z"/></g></g></svg>