<svg xmlns="http://www.w3.org/2000/svg" viewBox="0 0 141.13 11.08"><defs><style>.b15346ff-58f3-4cbd-a097-a72be0b8bdc3{fill:#fff;}</style></defs><g id="a6166aad-6a6b-4a81-980f-7df05eae0eb4" data-name="Capa 2"><g id="bc681203-e361-418c-ba45-e81da862b39b" data-name="Capa 1"><path class="b15346ff-58f3-4cbd-a097-a72be0b8bdc3" d="M1.9,8.56,0,2.36H1.09l1,3.58.37,1.33c0-.06.12-.49.32-1.28l1-3.63H4.83L5.76,6l.31,1.18L6.43,6,7.49,2.36h1L6.57,8.56H5.48l-1-3.71L4.25,3.79,3,8.56Z"/><path class="b15346ff-58f3-4cbd-a097-a72be0b8bdc3" d="M10.93,8.56,9,2.36h1.09l1,3.58.37,1.33c0-.06.12-.49.32-1.28l1-3.63h1.09L14.79,6l.31,1.18L15.46,6l1.06-3.59h1l-1.94,6.2h-1.1l-1-3.71-.24-1.06L12,8.56Z"/><path class="b15346ff-58f3-4cbd-a097-a72be0b8bdc3" d="M20,8.56l-1.9-6.2h1.09l1,3.58.37,1.33c0-.06.12-.49.32-1.28l1-3.63H22.9L23.83,6l.31,1.18L24.49,6l1.07-3.59h1l-1.94,6.2H23.55l-1-3.71-.24-1.06L21.07,8.56Z"/><path class="b15346ff-58f3-4cbd-a097-a72be0b8bdc3" d="M27.49,8.56V7.37h1.2V8.56Z"/><path class="b15346ff-58f3-4cbd-a097-a72be0b8bdc3" d="M35,6.29l1,.14a2.69,2.69,0,0,1-.87,1.67,2.55,2.55,0,0,1-1.71.6,2.64,2.64,0,0,1-2.05-.83,3.35,3.35,0,0,1-.78-2.38,4.19,4.19,0,0,1,.34-1.76,2.28,2.28,0,0,1,1-1.13,2.91,2.91,0,0,1,1.48-.38,2.56,2.56,0,0,1,1.65.51,2.35,2.35,0,0,1,.83,1.45l-1,.16a1.69,1.69,0,0,0-.52-.94,1.36,1.36,0,0,0-.9-.32,1.63,1.63,0,0,0-1.29.57,2.72,2.72,0,0,0-.5,1.81,2.78,2.78,0,0,0,.48,1.81,1.56,1.56,0,0,0,1.25.57,1.5,1.5,0,0,0,1-.38A1.88,1.88,0,0,0,35,6.29Z"/><path class="b15346ff-58f3-4cbd-a097-a72be0b8bdc3" d="M41.34,7.8a4,4,0,0,1-1.12.7,3.22,3.22,0,0,1-1.16.2,2.24,2.24,0,0,1-1.58-.5,1.64,1.64,0,0,1-.54-1.27,1.65,1.65,0,0,1,.2-.83,1.63,1.63,0,0,1,.55-.61,2.33,2.33,0,0,1,.75-.34A6.55,6.55,0,0,1,39.38,5a9.46,9.46,0,0,0,1.87-.36c0-.15,0-.24,0-.28a1.13,1.13,0,0,0-.3-.9,1.76,1.76,0,0,0-1.2-.36,1.86,1.86,0,0,0-1.09.26,1.6,1.6,0,0,0-.53.92l-1-.14a2.45,2.45,0,0,1,.46-1.07,1.93,1.93,0,0,1,.93-.62,4,4,0,0,1,1.4-.22,3.68,3.68,0,0,1,1.3.19,1.68,1.68,0,0,1,.73.47,1.66,1.66,0,0,1,.32.71,5.19,5.19,0,0,1,.06,1V6a16.75,16.75,0,0,0,.06,1.86,2.44,2.44,0,0,0,.27.74h-1.1A2.12,2.12,0,0,1,41.34,7.8Zm-.09-2.35a7.43,7.43,0,0,1-1.72.4,3.71,3.71,0,0,0-.91.21,1,1,0,0,0-.42.34,1,1,0,0,0-.14.5.88.88,0,0,0,.32.7,1.34,1.34,0,0,0,.93.28,2.16,2.16,0,0,0,1.08-.27,1.65,1.65,0,0,0,.69-.72,2.44,2.44,0,0,0,.17-1Z"/><path class="b15346ff-58f3-4cbd-a097-a72be0b8bdc3" d="M48.36,8.56V7.78a1.91,1.91,0,0,1-1.73.92,2.34,2.34,0,0,1-1.36-.41,2.65,2.65,0,0,1-1-1.14A3.91,3.91,0,0,1,44,5.47a4.39,4.39,0,0,1,.31-1.69,2.51,2.51,0,0,1,.93-1.16,2.45,2.45,0,0,1,1.38-.4,2.09,2.09,0,0,1,1.71.85V0h1.05V8.56ZM45,5.47a2.72,2.72,0,0,0,.5,1.78,1.53,1.53,0,0,0,1.19.59,1.5,1.5,0,0,0,1.17-.56,2.63,2.63,0,0,0,.48-1.73,2.87,2.87,0,0,0-.49-1.86,1.51,1.51,0,0,0-1.21-.6,1.45,1.45,0,0,0-1.17.57A2.86,2.86,0,0,0,45,5.47Z"/><path class="b15346ff-58f3-4cbd-a097-a72be0b8bdc3" d="M55.63,6.57l1.09.13a2.68,2.68,0,0,1-.95,1.48,3.26,3.26,0,0,1-3.94-.31A3.3,3.3,0,0,1,51,5.51a3.47,3.47,0,0,1,.8-2.43,2.76,2.76,0,0,1,2.09-.86,2.66,2.66,0,0,1,2,.85,3.38,3.38,0,0,1,.79,2.38c0,.06,0,.16,0,.28H52.12A2.46,2.46,0,0,0,52.7,7.3a1.74,1.74,0,0,0,1.3.54,1.66,1.66,0,0,0,1-.3A2.09,2.09,0,0,0,55.63,6.57Zm-3.45-1.7h3.47a2.11,2.11,0,0,0-.4-1.18A1.64,1.64,0,0,0,54,3.08a1.68,1.68,0,0,0-1.22.49A1.92,1.92,0,0,0,52.18,4.87Z"/><path class="b15346ff-58f3-4cbd-a097-a72be0b8bdc3" d="M62.68,6.57l1.09.13a2.68,2.68,0,0,1-1,1.48,3.26,3.26,0,0,1-3.94-.31,3.31,3.31,0,0,1-.8-2.36,3.43,3.43,0,0,1,.81-2.43A2.76,2.76,0,0,1,61,2.22a2.66,2.66,0,0,1,2,.85,3.38,3.38,0,0,1,.78,2.38v.28H59.17a2.4,2.4,0,0,0,.58,1.57,1.74,1.74,0,0,0,1.3.54,1.61,1.61,0,0,0,1-.3A2,2,0,0,0,62.68,6.57Zm-3.45-1.7h3.46a2.11,2.11,0,0,0-.39-1.18A1.64,1.64,0,0,0,61,3.08a1.68,1.68,0,0,0-1.21.49A1.92,1.92,0,0,0,59.23,4.87Z"/><path class="b15346ff-58f3-4cbd-a097-a72be0b8bdc3" d="M64.15,11l.19-.89a2.49,2.49,0,0,0,.5.08.55.55,0,0,0,.48-.21,2.15,2.15,0,0,0,.16-1.07V2.36h1V8.9a3.06,3.06,0,0,1-.3,1.6,1.38,1.38,0,0,1-1.26.58A3.18,3.18,0,0,1,64.15,11Zm1.33-9.75V0h1V1.22Z"/><path class="b15346ff-58f3-4cbd-a097-a72be0b8bdc3" d="M72.78,6.57l1.09.13a2.68,2.68,0,0,1-1,1.48A3.26,3.26,0,0,1,69,7.87a3.3,3.3,0,0,1-.79-2.36A3.43,3.43,0,0,1,69,3.08a2.76,2.76,0,0,1,2.09-.86,2.66,2.66,0,0,1,2,.85,3.38,3.38,0,0,1,.78,2.38v.28H69.27a2.4,2.4,0,0,0,.58,1.57,1.74,1.74,0,0,0,1.3.54,1.61,1.61,0,0,0,1-.3A2,2,0,0,0,72.78,6.57Zm-3.45-1.7h3.46a2,2,0,0,0-.39-1.18,1.64,1.64,0,0,0-1.31-.61,1.68,1.68,0,0,0-1.21.49A1.92,1.92,0,0,0,69.33,4.87Z"/><path class="b15346ff-58f3-4cbd-a097-a72be0b8bdc3" d="M79.63,6.29l1,.14A2.74,2.74,0,0,1,79.8,8.1a2.56,2.56,0,0,1-1.72.6,2.63,2.63,0,0,1-2-.83,3.35,3.35,0,0,1-.78-2.38,4.19,4.19,0,0,1,.34-1.76,2.28,2.28,0,0,1,1-1.13,2.91,2.91,0,0,1,1.48-.38,2.56,2.56,0,0,1,1.65.51,2.35,2.35,0,0,1,.83,1.45l-1,.16A1.62,1.62,0,0,0,79,3.4a1.36,1.36,0,0,0-.9-.32,1.63,1.63,0,0,0-1.29.57,2.72,2.72,0,0,0-.5,1.81,2.78,2.78,0,0,0,.48,1.81,1.56,1.56,0,0,0,1.25.57,1.5,1.5,0,0,0,1-.38A1.88,1.88,0,0,0,79.63,6.29Z"/><path class="b15346ff-58f3-4cbd-a097-a72be0b8bdc3" d="M86,8.56V7.65a2.28,2.28,0,0,1-2,1,2.53,2.53,0,0,1-1-.21,1.57,1.57,0,0,1-.7-.53A1.84,1.84,0,0,1,82,7.18a5.62,5.62,0,0,1-.06-1V2.36h1V5.8a6.55,6.55,0,0,0,.06,1.11,1.13,1.13,0,0,0,.42.65,1.31,1.31,0,0,0,.8.24,1.78,1.78,0,0,0,.89-.24,1.42,1.42,0,0,0,.58-.66,3.23,3.23,0,0,0,.18-1.22V2.36h1v6.2Z"/><path class="b15346ff-58f3-4cbd-a097-a72be0b8bdc3" d="M91.3,7.62l.16.93a4.15,4.15,0,0,1-.8.1,1.81,1.81,0,0,1-.89-.19A1,1,0,0,1,89.33,8a3.64,3.64,0,0,1-.13-1.24V3.18h-.77V2.36h.77V.82l1-.63V2.36h1v.82h-1V6.81a2.05,2.05,0,0,0,0,.57.46.46,0,0,0,.18.21.74.74,0,0,0,.36.07A3,3,0,0,0,91.3,7.62Z"/><path class="b15346ff-58f3-4cbd-a097-a72be0b8bdc3" d="M92.73,1.21V0h1V1.21Zm0,7.35V2.36h1v6.2Z"/><path class="b15346ff-58f3-4cbd-a097-a72be0b8bdc3" d="M97.5,8.56l-2.36-6.2h1.11l1.33,3.72c.15.4.28.81.4,1.25.1-.33.23-.73.39-1.18l1.38-3.79h1.08l-2.35,6.2Z"/><path class="b15346ff-58f3-4cbd-a097-a72be0b8bdc3" d="M101.76,5.46a3.18,3.18,0,0,1,1-2.55,2.91,2.91,0,0,1,2-.69,2.76,2.76,0,0,1,2.09.84,3.15,3.15,0,0,1,.82,2.31,4.13,4.13,0,0,1-.36,1.89,2.5,2.5,0,0,1-1,1.06,3,3,0,0,1-1.5.38,2.8,2.8,0,0,1-2.1-.83A3.33,3.33,0,0,1,101.76,5.46Zm1.09,0a2.69,2.69,0,0,0,.51,1.79,1.7,1.7,0,0,0,1.31.59,1.66,1.66,0,0,0,1.31-.6,2.71,2.71,0,0,0,.52-1.81A2.58,2.58,0,0,0,106,3.68a1.68,1.68,0,0,0-1.3-.59,1.7,1.7,0,0,0-1.31.59A2.66,2.66,0,0,0,102.85,5.46Z"/><path class="b15346ff-58f3-4cbd-a097-a72be0b8bdc3" d="M108.78,6.71l1-.16a1.49,1.49,0,0,0,.49,1,1.72,1.72,0,0,0,1.12.33,1.61,1.61,0,0,0,1.07-.3.84.84,0,0,0,.35-.69.64.64,0,0,0-.3-.56,5.28,5.28,0,0,0-1.08-.36,9.71,9.71,0,0,1-1.6-.5,1.52,1.52,0,0,1-.68-.59A1.6,1.6,0,0,1,109,4a1.54,1.54,0,0,1,.19-.77,1.64,1.64,0,0,1,.52-.59,2.26,2.26,0,0,1,.66-.31,3.39,3.39,0,0,1,.91-.12,3.54,3.54,0,0,1,1.28.21,1.77,1.77,0,0,1,.82.57,2.1,2.1,0,0,1,.36,1l-1,.14a1.11,1.11,0,0,0-.4-.75,1.49,1.49,0,0,0-1-.27,1.75,1.75,0,0,0-1,.24.71.71,0,0,0-.3.56.61.61,0,0,0,.12.37.85.85,0,0,0,.41.28q.15.06.93.27a12.25,12.25,0,0,1,1.55.49,1.5,1.5,0,0,1,1,1.45,1.81,1.81,0,0,1-.31,1,2,2,0,0,1-.89.72,3.17,3.17,0,0,1-1.3.25,2.91,2.91,0,0,1-1.85-.5A2.35,2.35,0,0,1,108.78,6.71Z"/><path class="b15346ff-58f3-4cbd-a097-a72be0b8bdc3" d="M115.88,8.56V7.37h1.2V8.56Z"/><path class="b15346ff-58f3-4cbd-a097-a72be0b8bdc3" d="M123.35,6.29l1,.14a2.64,2.64,0,0,1-.87,1.67,2.51,2.51,0,0,1-1.71.6,2.65,2.65,0,0,1-2-.83A3.39,3.39,0,0,1,119,5.49a4.35,4.35,0,0,1,.33-1.76,2.28,2.28,0,0,1,1-1.13,2.94,2.94,0,0,1,1.48-.38,2.59,2.59,0,0,1,1.66.51,2.34,2.34,0,0,1,.82,1.45l-1,.16a1.69,1.69,0,0,0-.52-.94,1.31,1.31,0,0,0-.89-.32,1.66,1.66,0,0,0-1.3.57,2.72,2.72,0,0,0-.49,1.81,2.78,2.78,0,0,0,.48,1.81,1.55,1.55,0,0,0,1.25.57,1.49,1.49,0,0,0,1-.38A1.89,1.89,0,0,0,123.35,6.29Z"/><path class="b15346ff-58f3-4cbd-a097-a72be0b8bdc3" d="M125.28,5.46a3.18,3.18,0,0,1,1-2.55,2.91,2.91,0,0,1,2-.69,2.76,2.76,0,0,1,2.09.84,3.15,3.15,0,0,1,.82,2.31,4.13,4.13,0,0,1-.36,1.89,2.5,2.5,0,0,1-1.05,1.06,3,3,0,0,1-1.5.38,2.79,2.79,0,0,1-2.1-.83A3.33,3.33,0,0,1,125.28,5.46Zm1.08,0a2.69,2.69,0,0,0,.52,1.79,1.7,1.7,0,0,0,1.31.59,1.67,1.67,0,0,0,1.31-.6A2.71,2.71,0,0,0,130,5.43a2.58,2.58,0,0,0-.53-1.75,1.68,1.68,0,0,0-1.3-.59,1.7,1.7,0,0,0-1.31.59A2.66,2.66,0,0,0,126.36,5.46Z"/><path class="b15346ff-58f3-4cbd-a097-a72be0b8bdc3" d="M132.72,8.56V2.36h.94v.87a2.27,2.27,0,0,1,.78-.73,2.12,2.12,0,0,1,1.1-.28,2,2,0,0,1,1.13.29,1.48,1.48,0,0,1,.63.8,2.22,2.22,0,0,1,1.91-1.09,1.88,1.88,0,0,1,1.42.51,2.19,2.19,0,0,1,.5,1.57V8.56h-1V4.66a2.83,2.83,0,0,0-.1-.91.86.86,0,0,0-.37-.45,1.19,1.19,0,0,0-.63-.17,1.48,1.48,0,0,0-1.09.44A1.9,1.9,0,0,0,137.46,5v3.6h-1.05v-4a1.78,1.78,0,0,0-.26-1.05,1,1,0,0,0-.84-.35,1.59,1.59,0,0,0-.82.23,1.41,1.41,0,0,0-.55.69,3.9,3.9,0,0,0-.17,1.29V8.56Z"/></g></g></svg>