<svg xmlns="http://www.w3.org/2000/svg" viewBox="0 0 155.24 12.19"><defs><style>.f44f848c-2599-4fc4-bfd4-642ecfa44117{fill:#fff;}</style></defs><g id="bd1a6462-f956-4b36-a72f-578dc56e0738" data-name="Capa 2"><g id="eeb1091b-6b80-4c31-9e80-4713a2deaee9" data-name="Capa 1"><path class="f44f848c-2599-4fc4-bfd4-642ecfa44117" d="M2.09,9.42,0,2.6H1.2L2.28,6.53,2.69,8c0-.07.13-.54.35-1.41l1.08-4H5.31l1,4,.34,1.31.39-1.32L8.24,2.6H9.36L7.23,9.42H6L4.94,5.33,4.68,4.17,3.3,9.42Z"/><path class="f44f848c-2599-4fc4-bfd4-642ecfa44117" d="M12,9.42,9.94,2.6h1.19l1.09,3.93L12.62,8,13,6.59l1.08-4h1.19l1,4,.34,1.31L17,6.54,18.18,2.6H19.3L17.17,9.42H16L14.88,5.33l-.26-1.16L13.23,9.42Z"/><path class="f44f848c-2599-4fc4-bfd4-642ecfa44117" d="M22,9.42,19.88,2.6h1.19l1.09,3.93L22.56,8l.36-1.41L24,2.6h1.19l1,4,.34,1.31.39-1.32L28.11,2.6h1.13L27.1,9.42H25.9L24.82,5.33l-.27-1.16L23.17,9.42Z"/><path class="f44f848c-2599-4fc4-bfd4-642ecfa44117" d="M30.24,9.42V8.1h1.32V9.42Z"/><path class="f44f848c-2599-4fc4-bfd4-642ecfa44117" d="M38.46,6.92l1.14.15a2.94,2.94,0,0,1-1,1.84,2.78,2.78,0,0,1-1.88.66,2.94,2.94,0,0,1-2.26-.91A3.76,3.76,0,0,1,33.65,6,4.81,4.81,0,0,1,34,4.1a2.5,2.5,0,0,1,1.11-1.24,3.3,3.3,0,0,1,1.63-.42A2.86,2.86,0,0,1,38.58,3a2.6,2.6,0,0,1,.91,1.6l-1.13.17a1.79,1.79,0,0,0-.57-1,1.47,1.47,0,0,0-1-.35A1.79,1.79,0,0,0,35.39,4a3,3,0,0,0-.55,2,3.09,3.09,0,0,0,.53,2,1.69,1.69,0,0,0,1.37.62,1.61,1.61,0,0,0,1.14-.42A2,2,0,0,0,38.46,6.92Z"/><path class="f44f848c-2599-4fc4-bfd4-642ecfa44117" d="M45.47,8.58a4.34,4.34,0,0,1-1.23.77A3.59,3.59,0,0,1,43,9.57,2.48,2.48,0,0,1,41.23,9a1.8,1.8,0,0,1-.6-1.4A1.92,1.92,0,0,1,41.46,6a2.74,2.74,0,0,1,.83-.38,7.29,7.29,0,0,1,1-.17,10.75,10.75,0,0,0,2.07-.4v-.3a1.28,1.28,0,0,0-.32-1,2,2,0,0,0-1.32-.39,2.08,2.08,0,0,0-1.21.28,1.75,1.75,0,0,0-.57,1l-1.13-.16a2.74,2.74,0,0,1,.51-1.17,2.15,2.15,0,0,1,1-.69,4.55,4.55,0,0,1,1.55-.24,4.05,4.05,0,0,1,1.42.21,1.87,1.87,0,0,1,.8.51,1.92,1.92,0,0,1,.36.79A6.3,6.3,0,0,1,46.55,5V6.56a16.42,16.42,0,0,0,.07,2,2.68,2.68,0,0,0,.29.82H45.7A2.86,2.86,0,0,1,45.47,8.58ZM45.38,6a8.64,8.64,0,0,1-1.89.43,4.8,4.8,0,0,0-1,.23A1,1,0,0,0,42,7a1,1,0,0,0-.16.55,1,1,0,0,0,.35.77,1.56,1.56,0,0,0,1,.31,2.47,2.47,0,0,0,1.19-.29,1.89,1.89,0,0,0,.76-.8,2.74,2.74,0,0,0,.19-1.16Z"/><path class="f44f848c-2599-4fc4-bfd4-642ecfa44117" d="M53.2,9.42V8.56a2.11,2.11,0,0,1-1.91,1,2.69,2.69,0,0,1-1.5-.45,3,3,0,0,1-1.06-1.25A4.38,4.38,0,0,1,48.36,6a4.76,4.76,0,0,1,.34-1.85,2.59,2.59,0,0,1,1-1.27,2.69,2.69,0,0,1,1.52-.45,2.25,2.25,0,0,1,1.88.94V0h1.15V9.42ZM49.55,6a2.94,2.94,0,0,0,.55,2,1.64,1.64,0,0,0,1.3.65A1.61,1.61,0,0,0,52.69,8a2.86,2.86,0,0,0,.53-1.89,3.23,3.23,0,0,0-.54-2.06,1.67,1.67,0,0,0-1.33-.65A1.62,1.62,0,0,0,50.06,4,3.13,3.13,0,0,0,49.55,6Z"/><path class="f44f848c-2599-4fc4-bfd4-642ecfa44117" d="M61.2,7.22l1.19.15a2.93,2.93,0,0,1-1,1.63,3.19,3.19,0,0,1-2,.57A3.08,3.08,0,0,1,57,8.65a3.57,3.57,0,0,1-.88-2.58A3.8,3.8,0,0,1,57,3.39a3,3,0,0,1,2.3-1,2.9,2.9,0,0,1,2.23.93A3.71,3.71,0,0,1,62.43,6c0,.06,0,.17,0,.3H57.34A2.64,2.64,0,0,0,58,8a1.92,1.92,0,0,0,1.43.59,1.76,1.76,0,0,0,1.08-.33A2.24,2.24,0,0,0,61.2,7.22ZM57.4,5.35h3.81a2.31,2.31,0,0,0-.44-1.29,1.77,1.77,0,0,0-1.43-.67A1.82,1.82,0,0,0,58,3.93,2.11,2.11,0,0,0,57.4,5.35Z"/><path class="f44f848c-2599-4fc4-bfd4-642ecfa44117" d="M69,7.22l1.2.15A3,3,0,0,1,69.1,9a3.18,3.18,0,0,1-1.95.57,3.12,3.12,0,0,1-2.38-.92,3.62,3.62,0,0,1-.88-2.58,3.8,3.8,0,0,1,.89-2.68,3,3,0,0,1,2.3-1,2.93,2.93,0,0,1,2.24.93A3.71,3.71,0,0,1,70.18,6v.3H65.09A2.64,2.64,0,0,0,65.72,8a1.94,1.94,0,0,0,1.43.59,1.79,1.79,0,0,0,1.09-.33A2.23,2.23,0,0,0,69,7.22Zm-3.8-1.87H69a2.32,2.32,0,0,0-.43-1.29,1.8,1.8,0,0,0-1.44-.67,1.84,1.84,0,0,0-1.34.54A2.11,2.11,0,0,0,65.15,5.35Z"/><path class="f44f848c-2599-4fc4-bfd4-642ecfa44117" d="M70.56,12.07l.22-1a2.29,2.29,0,0,0,.55.09.59.59,0,0,0,.52-.23A2.33,2.33,0,0,0,72,9.77V2.6h1.15V9.79a3.38,3.38,0,0,1-.33,1.76,1.51,1.51,0,0,1-1.38.64A3.39,3.39,0,0,1,70.56,12.07ZM72,1.34V0h1.15V1.34Z"/><path class="f44f848c-2599-4fc4-bfd4-642ecfa44117" d="M80.06,7.22l1.2.15A3,3,0,0,1,80.21,9a3.18,3.18,0,0,1-1.95.57,3.12,3.12,0,0,1-2.38-.92A3.62,3.62,0,0,1,75,6.07a3.8,3.8,0,0,1,.89-2.68,3,3,0,0,1,2.3-1,2.93,2.93,0,0,1,2.24.93A3.71,3.71,0,0,1,81.29,6v.3H76.2A2.59,2.59,0,0,0,76.84,8a1.9,1.9,0,0,0,1.42.59,1.79,1.79,0,0,0,1.09-.33A2.17,2.17,0,0,0,80.06,7.22Zm-3.8-1.87h3.81a2.32,2.32,0,0,0-.43-1.29,1.8,1.8,0,0,0-1.44-.67,1.84,1.84,0,0,0-1.34.54A2.11,2.11,0,0,0,76.26,5.35Z"/><path class="f44f848c-2599-4fc4-bfd4-642ecfa44117" d="M87.6,6.92l1.13.15a2.93,2.93,0,0,1-1,1.84,2.79,2.79,0,0,1-1.89.66,2.93,2.93,0,0,1-2.25-.91A3.72,3.72,0,0,1,82.79,6a4.65,4.65,0,0,1,.37-1.93,2.5,2.5,0,0,1,1.11-1.24,3.27,3.27,0,0,1,1.63-.42A2.86,2.86,0,0,1,87.72,3a2.59,2.59,0,0,1,.9,1.6l-1.12.17a1.91,1.91,0,0,0-.57-1,1.47,1.47,0,0,0-1-.35A1.81,1.81,0,0,0,84.52,4,3,3,0,0,0,84,6a3,3,0,0,0,.53,2,1.69,1.69,0,0,0,1.37.62A1.64,1.64,0,0,0,87,8.2,2.1,2.1,0,0,0,87.6,6.92Z"/><path class="f44f848c-2599-4fc4-bfd4-642ecfa44117" d="M94.63,9.42v-1a2.49,2.49,0,0,1-2.17,1.15,2.61,2.61,0,0,1-1.12-.23,1.86,1.86,0,0,1-.78-.58,2.17,2.17,0,0,1-.36-.86,5.54,5.54,0,0,1-.07-1.08V2.6h1.16V6.38a6.52,6.52,0,0,0,.07,1.22,1.23,1.23,0,0,0,.46.72,1.48,1.48,0,0,0,.88.26,1.87,1.87,0,0,0,1-.27,1.5,1.5,0,0,0,.65-.72,3.85,3.85,0,0,0,.19-1.34V2.6h1.15V9.42Z"/><path class="f44f848c-2599-4fc4-bfd4-642ecfa44117" d="M100.44,8.39l.16,1a4.08,4.08,0,0,1-.87.1,2,2,0,0,1-1-.2,1.17,1.17,0,0,1-.49-.52,4.3,4.3,0,0,1-.14-1.37V3.5h-.85V2.6h.85V.91l1.15-.7V2.6h1.17v.9H99.27v4a2,2,0,0,0,.06.63.5.5,0,0,0,.2.23.86.86,0,0,0,.4.08A3.64,3.64,0,0,0,100.44,8.39Z"/><path class="f44f848c-2599-4fc4-bfd4-642ecfa44117" d="M102,1.33V0h1.15V1.33Zm0,8.09V2.6h1.15V9.42Z"/><path class="f44f848c-2599-4fc4-bfd4-642ecfa44117" d="M107.25,9.42,104.66,2.6h1.22l1.46,4.08c.16.44.31.9.44,1.38.1-.36.25-.8.43-1.3l1.52-4.16h1.19l-2.59,6.82Z"/><path class="f44f848c-2599-4fc4-bfd4-642ecfa44117" d="M111.94,6a3.52,3.52,0,0,1,1-2.81,3.18,3.18,0,0,1,2.15-.76,3.07,3.07,0,0,1,2.3.92,3.51,3.51,0,0,1,.89,2.55A4.54,4.54,0,0,1,117.94,8a2.78,2.78,0,0,1-1.15,1.18,3.42,3.42,0,0,1-1.65.41,3.06,3.06,0,0,1-2.32-.92A3.69,3.69,0,0,1,111.94,6Zm1.19,0a2.9,2.9,0,0,0,.57,2,1.81,1.81,0,0,0,1.44.65A1.84,1.84,0,0,0,116.57,8a3,3,0,0,0,.58-2,2.86,2.86,0,0,0-.58-1.92,1.91,1.91,0,0,0-2.87,0A2.89,2.89,0,0,0,113.13,6Z"/><path class="f44f848c-2599-4fc4-bfd4-642ecfa44117" d="M119.66,7.38l1.15-.18a1.61,1.61,0,0,0,.53,1.06,1.92,1.92,0,0,0,1.23.36,1.82,1.82,0,0,0,1.19-.32,1,1,0,0,0,.38-.76.7.7,0,0,0-.34-.62,5.26,5.26,0,0,0-1.18-.39A11.05,11.05,0,0,1,120.85,6a1.71,1.71,0,0,1-1-1.56,1.76,1.76,0,0,1,.21-.85,1.85,1.85,0,0,1,.57-.64,2.22,2.22,0,0,1,.74-.34,3.55,3.55,0,0,1,1-.14,4.09,4.09,0,0,1,1.41.23,2,2,0,0,1,.89.63,2.33,2.33,0,0,1,.4,1.06l-1.13.15a1.25,1.25,0,0,0-.44-.82,1.64,1.64,0,0,0-1-.3,1.87,1.87,0,0,0-1.14.27.77.77,0,0,0-.34.61.68.68,0,0,0,.14.41,1.23,1.23,0,0,0,.45.31c.11,0,.45.14,1,.29a13.81,13.81,0,0,1,1.71.54,1.71,1.71,0,0,1,.76.61,1.63,1.63,0,0,1,.28,1A1.89,1.89,0,0,1,125,8.5a2.07,2.07,0,0,1-1,.79,3.49,3.49,0,0,1-1.44.28,3.21,3.21,0,0,1-2-.55A2.59,2.59,0,0,1,119.66,7.38Z"/><path class="f44f848c-2599-4fc4-bfd4-642ecfa44117" d="M127.47,9.42V8.1h1.31V9.42Z"/><path class="f44f848c-2599-4fc4-bfd4-642ecfa44117" d="M135.68,6.92l1.14.15a2.93,2.93,0,0,1-.95,1.84,2.83,2.83,0,0,1-1.89.66,2.92,2.92,0,0,1-2.25-.91A3.72,3.72,0,0,1,130.88,6a4.82,4.82,0,0,1,.36-1.93,2.56,2.56,0,0,1,1.12-1.24A3.27,3.27,0,0,1,134,2.44,2.83,2.83,0,0,1,135.8,3a2.55,2.55,0,0,1,.91,1.6l-1.12.17a1.91,1.91,0,0,0-.57-1,1.5,1.5,0,0,0-1-.35,1.79,1.79,0,0,0-1.42.63,3,3,0,0,0-.55,2,3.09,3.09,0,0,0,.53,2,1.7,1.7,0,0,0,1.38.62,1.6,1.6,0,0,0,1.13-.42A2,2,0,0,0,135.68,6.92Z"/><path class="f44f848c-2599-4fc4-bfd4-642ecfa44117" d="M137.81,6a3.49,3.49,0,0,1,1.06-2.81A3.13,3.13,0,0,1,141,2.44a3.07,3.07,0,0,1,2.3.92,3.51,3.51,0,0,1,.9,2.55,4.53,4.53,0,0,1-.4,2.07,2.78,2.78,0,0,1-1.15,1.18,3.42,3.42,0,0,1-1.65.41,3,3,0,0,1-2.31-.92A3.65,3.65,0,0,1,137.81,6ZM139,6a2.9,2.9,0,0,0,.57,2,1.81,1.81,0,0,0,1.44.65A1.86,1.86,0,0,0,142.45,8,3,3,0,0,0,143,6a2.81,2.81,0,0,0-.58-1.92,1.91,1.91,0,0,0-2.87,0A2.89,2.89,0,0,0,139,6Z"/><path class="f44f848c-2599-4fc4-bfd4-642ecfa44117" d="M146,9.42V2.6h1v.95a2.42,2.42,0,0,1,.85-.8,2.38,2.38,0,0,1,1.22-.31,2.24,2.24,0,0,1,1.24.32,1.69,1.69,0,0,1,.69.88,2.44,2.44,0,0,1,2.1-1.2A2.12,2.12,0,0,1,154.7,3a2.45,2.45,0,0,1,.54,1.74V9.42h-1.15V5.12a3.39,3.39,0,0,0-.11-1,1,1,0,0,0-.41-.49,1.32,1.32,0,0,0-.69-.19,1.63,1.63,0,0,0-1.2.48,2.09,2.09,0,0,0-.47,1.53v4h-1.16V5a2,2,0,0,0-.28-1.16,1.07,1.07,0,0,0-.93-.39,1.71,1.71,0,0,0-.9.26,1.41,1.41,0,0,0-.6.75,4.1,4.1,0,0,0-.19,1.43V9.42Z"/></g></g></svg>