<svg xmlns="http://www.w3.org/2000/svg" viewBox="0 0 120.99 13.24"><defs><style>.e253a894-0051-43c7-8847-4364ff34b8c8{fill:#f03c46;}.fc2e5a5c-b1dd-4fa3-b6c5-59ee538c12a2{fill:#fff;}.fbabf30e-51a7-45af-a792-0850cc5cf638{fill:#e51b45;}.af1eda26-118a-43e5-949f-5ee68f1366ee{fill:#a21e58;}</style></defs><g id="b4fae85b-4aec-4a1c-800a-666580e361e8" data-name="Capa 2"><g id="bf3952b8-92fc-4d04-8102-3b2b51ce85b5" data-name="Capa 1"><path d="M77.56,5.19h-1L74.57,2V5.19h-1V.27h1l2,3.24V.27h1Z"/><path d="M83.63,2.84a3,3,0,0,1-.26,1.27,1.93,1.93,0,0,1-.74.85,2.06,2.06,0,0,1-1.09.29A2,2,0,0,1,80.45,5a2,2,0,0,1-.75-.84,2.92,2.92,0,0,1-.26-1.26V2.62a2.9,2.9,0,0,1,.26-1.28,1.93,1.93,0,0,1,.74-.85A2.09,2.09,0,0,1,81.53.2a2.06,2.06,0,0,1,1.09.29,1.93,1.93,0,0,1,.74.85,2.9,2.9,0,0,1,.27,1.28Zm-1-.23a2,2,0,0,0-.28-1.17.89.89,0,0,0-.79-.4.92.92,0,0,0-.79.39,2.19,2.19,0,0,0-.28,1.17v.24A2.15,2.15,0,0,0,80.74,4a.91.91,0,0,0,.8.41.88.88,0,0,0,.78-.4,2.08,2.08,0,0,0,.28-1.17Z"/><path d="M87.15,4,88.26.27h1.13L87.68,5.19H86.62L84.91.27H86Z"/><path d="M92.06,5.19h-1V.27h1Z"/><path d="M97.1,3.05H95.15V4.37h2.29v.82h-3.3V.27h3.29v.82H95.15V2.26H97.1Z"/><path d="M100.56.27l1.27,3.56L103.08.27h1.33V5.19h-1V3.84l.1-2.32-1.33,3.67h-.7l-1.32-3.67.1,2.32V5.19h-1V.27Z"/><path d="M106.46,5.19V.27h1.73a2.22,2.22,0,0,1,1.35.34,1.17,1.17,0,0,1,.47,1,1.07,1.07,0,0,1-.19.64,1,1,0,0,1-.52.4,1.06,1.06,0,0,1,.6.39,1.09,1.09,0,0,1,.22.7,1.29,1.29,0,0,1-.45,1.07,2.07,2.07,0,0,1-1.3.38Zm1-2.86h.75c.51,0,.76-.22.76-.61a.57.57,0,0,0-.19-.49,1.08,1.08,0,0,0-.61-.14h-.71Zm0,.71V4.37h.86a.85.85,0,0,0,.56-.17.57.57,0,0,0,.21-.47.63.63,0,0,0-.7-.69Z"/><path d="M113.83,3.38H113V5.19h-1V.27h1.83a2,2,0,0,1,1.34.38,1.33,1.33,0,0,1,.47,1.1,1.54,1.54,0,0,1-.21.84,1.56,1.56,0,0,1-.66.54l1.06,2v.05h-1.09ZM113,2.56h.82a.84.84,0,0,0,.59-.19.7.7,0,0,0,.21-.54.73.73,0,0,0-.2-.54.78.78,0,0,0-.6-.2H113Z"/><path d="M120.52,3.05h-2V4.37h2.29v.82h-3.3V.27h3.29v.82h-2.28V2.26h2Z"/><path class="e253a894-0051-43c7-8847-4364ff34b8c8" d="M76.33,11.35H74.56l-.34,1H73.14L75,7.44h.94l1.84,4.92H76.68Zm-1.5-.82h1.23l-.62-1.84Z"/><path class="e253a894-0051-43c7-8847-4364ff34b8c8" d="M82.17,10.56h-.8v1.8h-1V7.44h1.83a2.09,2.09,0,0,1,1.35.39A1.36,1.36,0,0,1,84,8.93a1.5,1.5,0,0,1-.22.84,1.43,1.43,0,0,1-.66.53l1.07,2v0H83.1Zm-.8-.82h.82a.84.84,0,0,0,.59-.19A.7.7,0,0,0,83,9a.77.77,0,0,0-.2-.55.84.84,0,0,0-.61-.2h-.81Z"/><path class="e253a894-0051-43c7-8847-4364ff34b8c8" d="M89.85,10.23H87.9v1.32h2.28v.81H86.89V7.44h3.29v.82H87.9V9.44h1.95Z"/><path class="e253a894-0051-43c7-8847-4364ff34b8c8" d="M96.9,10a3,3,0,0,1-.23,1.2,2.05,2.05,0,0,1-.62.82l.82.64-.64.57-1-.84a2.22,2.22,0,0,1-.37,0,2.09,2.09,0,0,1-1.09-.29A2,2,0,0,1,93,11.3,3,3,0,0,1,92.71,10V9.8A2.87,2.87,0,0,1,93,8.52a1.93,1.93,0,0,1,.74-.85,2,2,0,0,1,1.09-.3,2,2,0,0,1,1.09.3,1.93,1.93,0,0,1,.74.85,2.86,2.86,0,0,1,.27,1.27Zm-1-.22a2,2,0,0,0-.28-1.17.9.9,0,0,0-.79-.41.93.93,0,0,0-.79.4,2.13,2.13,0,0,0-.28,1.16V10A2.1,2.1,0,0,0,94,11.18a.9.9,0,0,0,.8.42.88.88,0,0,0,.78-.4A2.1,2.1,0,0,0,95.87,10Z"/><path class="e253a894-0051-43c7-8847-4364ff34b8c8" d="M103.49,7.44v3.24A1.64,1.64,0,0,1,103,12a2,2,0,0,1-1.38.47,1.94,1.94,0,0,1-1.37-.46,1.63,1.63,0,0,1-.52-1.25V7.44h1v3.25a.9.9,0,0,0,.23.7.86.86,0,0,0,.64.23q.86,0,.87-.9V7.44Z"/><path class="e253a894-0051-43c7-8847-4364ff34b8c8" d="M107.53,12.36h-1V7.44h1Z"/><path class="e253a894-0051-43c7-8847-4364ff34b8c8" d="M111.6,10.63v1.73h-1V7.44h1.92a2.32,2.32,0,0,1,1,.2,1.5,1.5,0,0,1,.64.58,1.61,1.61,0,0,1,.23.85,1.42,1.42,0,0,1-.5,1.14,2,2,0,0,1-1.37.42Zm0-.82h.91a.91.91,0,0,0,.61-.19.7.7,0,0,0,.21-.54.84.84,0,0,0-.21-.59.81.81,0,0,0-.59-.23h-.93Z"/><path class="e253a894-0051-43c7-8847-4364ff34b8c8" d="M119.57,11.35H117.8l-.34,1h-1.08l1.83-4.92h.94L121,12.36h-1.08Zm-1.5-.82h1.23l-.62-1.84Z"/><rect width="21.61" height="12.93"/><path class="fc2e5a5c-b1dd-4fa3-b6c5-59ee538c12a2" d="M10.25,8.89v1.37H5.09a3.57,3.57,0,0,1,.5-1.47A9.6,9.6,0,0,1,7.25,7,10.77,10.77,0,0,0,8.47,5.69a1.61,1.61,0,0,0,.3-.9A1,1,0,0,0,8.51,4a1,1,0,0,0-.73-.26A1,1,0,0,0,7,4.05,1.43,1.43,0,0,0,6.73,5L5.26,4.82a2.37,2.37,0,0,1,.83-1.74,2.7,2.7,0,0,1,1.73-.53,2.48,2.48,0,0,1,1.78.61,2,2,0,0,1,.65,1.53,2.7,2.7,0,0,1-.18,1,4.22,4.22,0,0,1-.59,1,10.47,10.47,0,0,1-1,1c-.46.42-.76.71-.88.85a2,2,0,0,0-.3.4Z"/><path class="fc2e5a5c-b1dd-4fa3-b6c5-59ee538c12a2" d="M16.26,4.46l-1.42.16A1,1,0,0,0,14.56,4,.77.77,0,0,0,14,3.76a1,1,0,0,0-.79.42,3.53,3.53,0,0,0-.4,1.74,1.72,1.72,0,0,1,1.37-.65,2.13,2.13,0,0,1,1.58.7,2.6,2.6,0,0,1,.65,1.82,2.62,2.62,0,0,1-.69,1.89,2.34,2.34,0,0,1-1.77.71A2.39,2.39,0,0,1,12,9.49a4.64,4.64,0,0,1-.75-3,4.75,4.75,0,0,1,.78-3.05,2.53,2.53,0,0,1,2-.93A2.12,2.12,0,0,1,15.53,3,2.26,2.26,0,0,1,16.26,4.46ZM12.92,7.67a1.67,1.67,0,0,0,.33,1.11,1,1,0,0,0,.76.39.84.84,0,0,0,.68-.32,1.61,1.61,0,0,0,.27-1,1.63,1.63,0,0,0-.29-1.09.94.94,0,0,0-1.45,0A1.42,1.42,0,0,0,12.92,7.67Z"/><rect class="fbabf30e-51a7-45af-a792-0850cc5cf638" x="21.77" width="21.61" height="12.93"/><path class="fc2e5a5c-b1dd-4fa3-b6c5-59ee538c12a2" d="M32,8.89v1.37H26.88a3.57,3.57,0,0,1,.5-1.47A9.6,9.6,0,0,1,29,7a10.77,10.77,0,0,0,1.22-1.26,1.61,1.61,0,0,0,.3-.9A1,1,0,0,0,30.3,4a1,1,0,0,0-.73-.26,1,1,0,0,0-.74.28,1.43,1.43,0,0,0-.31.92l-1.47-.15a2.4,2.4,0,0,1,.82-1.74,2.74,2.74,0,0,1,1.73-.53,2.49,2.49,0,0,1,1.79.61A2,2,0,0,1,32,4.69a2.7,2.7,0,0,1-.18,1,4.22,4.22,0,0,1-.59,1,10.47,10.47,0,0,1-1,1c-.46.42-.76.71-.88.85a2,2,0,0,0-.3.4Z"/><path class="fc2e5a5c-b1dd-4fa3-b6c5-59ee538c12a2" d="M33,4.05V2.68h5V3.75a7.94,7.94,0,0,0-1.27,1.76,10.13,10.13,0,0,0-1,2.44,9,9,0,0,0-.34,2.31H34.05A10.17,10.17,0,0,1,34.71,7a10.83,10.83,0,0,1,1.66-3Z"/><rect class="af1eda26-118a-43e5-949f-5ee68f1366ee" x="43.54" width="21.61" height="12.93"/><path class="fc2e5a5c-b1dd-4fa3-b6c5-59ee538c12a2" d="M53.78,8.89v1.37H48.62a3.57,3.57,0,0,1,.5-1.47A10,10,0,0,1,50.78,7,10.77,10.77,0,0,0,52,5.69a1.55,1.55,0,0,0,.31-.9A1,1,0,0,0,52,4a1,1,0,0,0-.73-.26,1,1,0,0,0-.73.28,1.37,1.37,0,0,0-.32.92l-1.47-.15a2.41,2.41,0,0,1,.83-1.74,2.72,2.72,0,0,1,1.73-.53,2.47,2.47,0,0,1,1.78.61,2,2,0,0,1,.65,1.53,2.7,2.7,0,0,1-.18,1,4.22,4.22,0,0,1-.59,1,10.47,10.47,0,0,1-1,1c-.46.42-.75.71-.88.85a3.2,3.2,0,0,0-.3.4Z"/><path class="fc2e5a5c-b1dd-4fa3-b6c5-59ee538c12a2" d="M56.08,6.12a1.72,1.72,0,0,1-.83-.67A1.75,1.75,0,0,1,55,4.53a1.86,1.86,0,0,1,.6-1.42,2.37,2.37,0,0,1,1.7-.56A2.42,2.42,0,0,1,59,3.11a1.86,1.86,0,0,1,.6,1.42,1.66,1.66,0,0,1-.28,1,1.72,1.72,0,0,1-.78.64,2,2,0,0,1,1,.75A1.89,1.89,0,0,1,59.85,8a2.32,2.32,0,0,1-.68,1.73,2.45,2.45,0,0,1-1.81.67,2.74,2.74,0,0,1-1.74-.55,2.16,2.16,0,0,1-.83-1.78,2.28,2.28,0,0,1,.31-1.15A1.93,1.93,0,0,1,56.08,6.12Zm.17,1.8a1.33,1.33,0,0,0,.31.95,1,1,0,0,0,.78.34,1,1,0,0,0,.75-.32,1.37,1.37,0,0,0,.3-1,1.24,1.24,0,0,0-.3-.87,1,1,0,0,0-.77-.32.93.93,0,0,0-.81.37A1.32,1.32,0,0,0,56.25,7.92Zm.13-3.29a.86.86,0,0,0,.91.94A1,1,0,0,0,58,5.32a1,1,0,0,0,.25-.69A.94.94,0,0,0,58,4a.93.93,0,0,0-1.59.67Z"/></g></g></svg>