<svg xmlns="http://www.w3.org/2000/svg" viewBox="0 0 62.55 23.51"><defs><style>.e28d1c45-7a6f-45a6-b303-65d9a71a7c0d{fill:#f03c46;}.bed02b71-c0da-4b69-9e88-6ce0f38e6085{fill:#fff;}</style></defs><g id="acd6ae29-09a0-42b3-bbbd-f92151e20d4e" data-name="Capa 2"><g id="e33e5dad-45aa-4169-96ad-e316affaff39" data-name="Capa 1"><rect class="e28d1c45-7a6f-45a6-b303-65d9a71a7c0d" y="7.02" width="62.55" height="10.92"/><rect class="bed02b71-c0da-4b69-9e88-6ce0f38e6085" x="32.25" y="8" width="2.78" height="8.97"/><path class="bed02b71-c0da-4b69-9e88-6ce0f38e6085" d="M49.27,13.54l-1-3.22-1,3.22Zm.58,1.94H46.7L46.26,17H43.44l3.37-9h3l3.37,9H50.3Z"/><path class="bed02b71-c0da-4b69-9e88-6ce0f38e6085" d="M39.37,11.82h.68a1.73,1.73,0,0,0,1.13-.28.9.9,0,0,0,.32-.71,1,1,0,0,0-.28-.72,1.49,1.49,0,0,0-1.06-.29h-.79ZM36.59,8H41.2a3.13,3.13,0,0,1,2.25.71,2.7,2.7,0,0,1,.75,2,2.75,2.75,0,0,1-.82,2.12,3.52,3.52,0,0,1-2.49.77H39.37V17H36.59Z"/><polygon class="bed02b71-c0da-4b69-9e88-6ce0f38e6085" points="54.01 8 61.57 8 61.57 9.91 56.79 9.91 56.79 11.34 61.1 11.34 61.1 13.16 56.79 13.16 56.79 14.93 61.57 14.93 61.57 16.96 54.01 16.96 54.01 8"/><path class="e28d1c45-7a6f-45a6-b303-65d9a71a7c0d" d="M.18,23.46l1-2.64h.37l1.08,2.64H2.26L2,22.66H.84l-.29.8Zm.76-1.08h.9l-.28-.73c-.08-.23-.14-.41-.18-.55a2.88,2.88,0,0,1-.15.5Z"/><path class="e28d1c45-7a6f-45a6-b303-65d9a71a7c0d" d="M4.82,22.54l.35.09a1.23,1.23,0,0,1-.4.65,1.09,1.09,0,0,1-.7.23,1.22,1.22,0,0,1-.69-.18,1.08,1.08,0,0,1-.41-.5,1.87,1.87,0,0,1-.14-.71A1.66,1.66,0,0,1,3,21.4a1.05,1.05,0,0,1,.45-.46,1.27,1.27,0,0,1,.64-.16,1.07,1.07,0,0,1,.67.2,1,1,0,0,1,.37.57l-.34.08a.81.81,0,0,0-.27-.42.7.7,0,0,0-.44-.13.85.85,0,0,0-.51.14.79.79,0,0,0-.28.39,1.52,1.52,0,0,0-.09.51,1.73,1.73,0,0,0,.1.59.72.72,0,0,0,.31.37.82.82,0,0,0,.94,0A.85.85,0,0,0,4.82,22.54Z"/><path class="e28d1c45-7a6f-45a6-b303-65d9a71a7c0d" d="M7.48,22.54l.35.09a1.16,1.16,0,0,1-.39.65,1.11,1.11,0,0,1-.7.23,1.23,1.23,0,0,1-.7-.18,1.06,1.06,0,0,1-.4-.5,1.7,1.7,0,0,1-.14-.71,1.66,1.66,0,0,1,.15-.72,1.11,1.11,0,0,1,.45-.46,1.29,1.29,0,0,1,.64-.16,1,1,0,0,1,.67.2,1,1,0,0,1,.38.57l-.35.08a.87.87,0,0,0-.26-.42.72.72,0,0,0-.44-.13.78.78,0,0,0-.8.53,1.73,1.73,0,0,0,0,1.1.66.66,0,0,0,.3.37.81.81,0,0,0,.45.13.8.8,0,0,0,.5-.17A.9.9,0,0,0,7.48,22.54Z"/><path class="e28d1c45-7a6f-45a6-b303-65d9a71a7c0d" d="M8.32,23.46V20.82h.35v2.64Z"/><path class="e28d1c45-7a6f-45a6-b303-65d9a71a7c0d" d="M9.18,22.18a1.46,1.46,0,0,1,.35-1,1.21,1.21,0,0,1,.92-.37,1.19,1.19,0,0,1,.65.17,1.12,1.12,0,0,1,.45.49,1.61,1.61,0,0,1,.16.71,1.52,1.52,0,0,1-.17.71,1,1,0,0,1-.46.48,1.28,1.28,0,0,1-.64.17,1.21,1.21,0,0,1-.66-.18,1.18,1.18,0,0,1-.45-.49A1.52,1.52,0,0,1,9.18,22.18Zm.36,0a1.05,1.05,0,0,0,.26.75.81.81,0,0,0,.64.28.83.83,0,0,0,.65-.28,1.12,1.12,0,0,0,.26-.79,1.4,1.4,0,0,0-.11-.56.89.89,0,0,0-.32-.37.85.85,0,0,0-.47-.13.89.89,0,0,0-.64.25A1.13,1.13,0,0,0,9.54,22.18Zm.68-1.52.24-.5h.43l-.4.5Z"/><path class="e28d1c45-7a6f-45a6-b303-65d9a71a7c0d" d="M12.15,23.46V20.82h.36L13.9,22.9V20.82h.33v2.64h-.36l-1.38-2.07v2.07Z"/><path class="e28d1c45-7a6f-45a6-b303-65d9a71a7c0d" d="M15.85,23.46V20.82h1.91v.31H16.2v.81h1.46v.31H16.2v.9h1.62v.31Z"/><path class="e28d1c45-7a6f-45a6-b303-65d9a71a7c0d" d="M18.3,23.46V20.82h.52l.63,1.87c.05.18.1.31.12.39l.14-.42.64-1.84h.47v2.64h-.34V21.25l-.77,2.21H19.4l-.77-2.25v2.25Z"/><path class="e28d1c45-7a6f-45a6-b303-65d9a71a7c0d" d="M21.38,23.46V20.82h1a2.1,2.1,0,0,1,.4,0,.68.68,0,0,1,.54.38.86.86,0,0,1,.08.36.85.85,0,0,1-.22.57,1,1,0,0,1-.77.23h-.68v1.07Zm.35-1.38h.68a.67.67,0,0,0,.48-.13A.42.42,0,0,0,23,21.6a.47.47,0,0,0-.08-.29.34.34,0,0,0-.22-.15,1.21,1.21,0,0,0-.33,0h-.67Z"/><path class="e28d1c45-7a6f-45a6-b303-65d9a71a7c0d" d="M23.85,23.46V20.82H25a1.74,1.74,0,0,1,.53.07.61.61,0,0,1,.3.25.8.8,0,0,1,.11.4.65.65,0,0,1-.19.48.91.91,0,0,1-.56.24.86.86,0,0,1,.21.13,1.69,1.69,0,0,1,.29.35l.46.72h-.44l-.35-.55a4.12,4.12,0,0,0-.25-.36.76.76,0,0,0-.18-.18l-.16-.07H24.2v1.17ZM24.2,22H25a1.18,1.18,0,0,0,.37,0,.42.42,0,0,0,.21-.16.48.48,0,0,0,.07-.24.43.43,0,0,0-.14-.31.63.63,0,0,0-.43-.12H24.2Z"/><path class="e28d1c45-7a6f-45a6-b303-65d9a71a7c0d" d="M26.51,23.46V20.82h1.91v.31H26.86v.81h1.46v.31H26.86v.9h1.62v.31Z"/><path class="e28d1c45-7a6f-45a6-b303-65d9a71a7c0d" d="M28.85,22.61l.33,0a.71.71,0,0,0,.1.32.65.65,0,0,0,.27.21,1.07,1.07,0,0,0,.41.07,1.23,1.23,0,0,0,.35-.05.51.51,0,0,0,.23-.17.36.36,0,0,0,.07-.22.32.32,0,0,0-.07-.22.67.67,0,0,0-.24-.16l-.47-.13a2.2,2.2,0,0,1-.51-.16.76.76,0,0,1-.28-.25A.58.58,0,0,1,29,21.5a.72.72,0,0,1,.11-.37.78.78,0,0,1,.33-.26,1.3,1.3,0,0,1,.49-.09,1.33,1.33,0,0,1,.51.09.76.76,0,0,1,.35.28.83.83,0,0,1,.13.42l-.34,0a.5.5,0,0,0-.18-.38.74.74,0,0,0-.46-.12.73.73,0,0,0-.46.11.35.35,0,0,0-.15.28.32.32,0,0,0,.11.24,1.31,1.31,0,0,0,.52.18,3.92,3.92,0,0,1,.59.17.79.79,0,0,1,.34.27.7.7,0,0,1,.11.38.69.69,0,0,1-.12.39.72.72,0,0,1-.35.29,1.19,1.19,0,0,1-.51.11,1.5,1.5,0,0,1-.6-.11.83.83,0,0,1-.38-.31A.87.87,0,0,1,28.85,22.61Z"/><path class="e28d1c45-7a6f-45a6-b303-65d9a71a7c0d" d="M31.14,23.46l1-2.64h.38l1.08,2.64h-.4l-.31-.8H31.8l-.29.8Zm.76-1.08h.89l-.27-.73c-.09-.23-.15-.41-.19-.55a2.85,2.85,0,0,1-.14.5Z"/><path class="e28d1c45-7a6f-45a6-b303-65d9a71a7c0d" d="M33.89,23.46V20.82h1.17a1.76,1.76,0,0,1,.54.07.59.59,0,0,1,.29.25.71.71,0,0,1,.11.4.68.68,0,0,1-.18.48.94.94,0,0,1-.56.24l.21.13a2.08,2.08,0,0,1,.29.35l.46.72h-.44l-.35-.55-.25-.36a1.51,1.51,0,0,0-.18-.18l-.16-.07h-.6v1.17ZM34.24,22H35a1.25,1.25,0,0,0,.38,0,.36.36,0,0,0,.2-.16.4.4,0,0,0,.07-.24.42.42,0,0,0-.13-.31.65.65,0,0,0-.43-.12h-.84Z"/><path class="e28d1c45-7a6f-45a6-b303-65d9a71a7c0d" d="M36.61,23.46V20.82H37v2.64Z"/><path class="e28d1c45-7a6f-45a6-b303-65d9a71a7c0d" d="M37.29,23.46l1-2.64h.38l1.08,2.64h-.4l-.31-.8H38l-.29.8Zm.76-1.08h.89l-.27-.73c-.09-.23-.15-.41-.19-.55a2.85,2.85,0,0,1-.14.5Z"/><path class="e28d1c45-7a6f-45a6-b303-65d9a71a7c0d" d="M40,23.46V20.82h.35v2.33h1.3v.31Z"/><path d="M.54,3.25V0H2.89V.38H1v1h1.8v.38H1V2.87H3v.38Z"/><path d="M4.17,3.25,3.27.9h.42L4.2,2.31l.15.47a3.29,3.29,0,0,1,.15-.44L5,.9h.41L4.54,3.25Z"/><path d="M7.4,2.5l.41,0a1,1,0,0,1-.36.56,1.12,1.12,0,0,1-.68.2A1.11,1.11,0,0,1,6,3a1.24,1.24,0,0,1-.3-.89A1.29,1.29,0,0,1,6,1.17,1,1,0,0,1,6.75.84a1,1,0,0,1,.78.33,1.3,1.3,0,0,1,.29.9v.11H6.06a.91.91,0,0,0,.22.59.67.67,0,0,0,.5.21.59.59,0,0,0,.37-.12A.71.71,0,0,0,7.4,2.5ZM6.09,1.85H7.4a.77.77,0,0,0-.15-.45.66.66,0,0,0-1,0A.71.71,0,0,0,6.09,1.85Z"/><path d="M8.31,3.25V.9h.36v.33A.86.86,0,0,1,9.42.84a.93.93,0,0,1,.39.08.64.64,0,0,1,.27.2.83.83,0,0,1,.13.3,2.92,2.92,0,0,1,0,.38V3.25h-.4V1.82a1.06,1.06,0,0,0-.05-.36.35.35,0,0,0-.16-.2.51.51,0,0,0-.28-.07.63.63,0,0,0-.44.16A.79.79,0,0,0,8.71,2V3.25Z"/><path d="M11.71,2.9l.06.35a1.77,1.77,0,0,1-.3,0,.75.75,0,0,1-.34-.07A.48.48,0,0,1,11,3a1.58,1.58,0,0,1-.05-.48V1.21h-.29V.9h.29V.31l.4-.24V.9h.4v.31h-.4V2.59a1,1,0,0,0,0,.22.23.23,0,0,0,.07.07.26.26,0,0,0,.14,0Z"/><path d="M12,2.08a1.22,1.22,0,0,1,.36-1,1.15,1.15,0,0,1,1.54,0,1.24,1.24,0,0,1,.3.88,1.6,1.6,0,0,1-.13.72,1,1,0,0,1-.4.4,1.1,1.1,0,0,1-.57.15,1.06,1.06,0,0,1-.8-.32A1.28,1.28,0,0,1,12,2.08Zm.41,0a1,1,0,0,0,.19.67.66.66,0,0,0,1,0,1,1,0,0,0,.19-.69,1,1,0,0,0-.19-.66.66.66,0,0,0-1,0A1,1,0,0,0,12.37,2.08Z"/><path d="M15.75,2.08a1.22,1.22,0,0,1,.36-1,1.15,1.15,0,0,1,1.54,0A1.24,1.24,0,0,1,18,2a1.59,1.59,0,0,1-.14.72.91.91,0,0,1-.4.4,1.1,1.1,0,0,1-.57.15,1.08,1.08,0,0,1-.8-.32A1.28,1.28,0,0,1,15.75,2.08Zm.41,0a.94.94,0,0,0,.2.67.62.62,0,0,0,.49.23.64.64,0,0,0,.5-.23,1,1,0,0,0,.2-.69,1,1,0,0,0-.2-.66.66.66,0,0,0-.5-.23.62.62,0,0,0-.49.23A1,1,0,0,0,16.16,2.08Z"/><path d="M18.42,3.25V.9h.36v.35A1.26,1.26,0,0,1,19,.92a.5.5,0,0,1,.26-.08A.82.82,0,0,1,19.7,1l-.14.37a.6.6,0,0,0-.29-.08.35.35,0,0,0-.24.08.46.46,0,0,0-.14.21,1.45,1.45,0,0,0-.07.47V3.25Z"/><path d="M19.86,3.45l.39.06a.37.37,0,0,0,.14.26.69.69,0,0,0,.41.11.72.72,0,0,0,.42-.11.58.58,0,0,0,.21-.31,2.66,2.66,0,0,0,0-.51.85.85,0,0,1-.66.3.88.88,0,0,1-.75-.35,1.32,1.32,0,0,1-.27-.84,1.6,1.6,0,0,1,.13-.62A1,1,0,0,1,20.26,1a1,1,0,0,1,.55-.16.86.86,0,0,1,.68.34V.9h.37v2a1.89,1.89,0,0,1-.11.78.81.81,0,0,1-.35.36,1.26,1.26,0,0,1-.6.13A1.1,1.1,0,0,1,20.12,4,.64.64,0,0,1,19.86,3.45ZM20.2,2a1,1,0,0,0,.18.68.59.59,0,0,0,.46.21.57.57,0,0,0,.46-.21,1,1,0,0,0,.19-.66,1,1,0,0,0-.19-.66.62.62,0,0,0-.47-.22.61.61,0,0,0-.45.22A1,1,0,0,0,20.2,2Z"/><path d="M24,3a1.35,1.35,0,0,1-.42.27,1.32,1.32,0,0,1-.44.08.9.9,0,0,1-.6-.19.64.64,0,0,1-.21-.49.65.65,0,0,1,.08-.31.52.52,0,0,1,.21-.23A.9.9,0,0,1,22.9,2l.36-.06A4,4,0,0,0,24,1.76V1.65a.42.42,0,0,0-.11-.34.65.65,0,0,0-.45-.14.76.76,0,0,0-.42.1.63.63,0,0,0-.2.35l-.39-.05a1,1,0,0,1,.18-.41.69.69,0,0,1,.35-.23,1.44,1.44,0,0,1,.53-.09A1.59,1.59,0,0,1,24,.91a.68.68,0,0,1,.28.18.8.8,0,0,1,.13.28,2.56,2.56,0,0,1,0,.36v.54a5.42,5.42,0,0,0,0,.7.94.94,0,0,0,.1.28h-.42A1.11,1.11,0,0,1,24,3Zm0-.89a2.73,2.73,0,0,1-.65.15A1.85,1.85,0,0,0,23,2.3a.34.34,0,0,0-.16.13.41.41,0,0,0,0,.19.34.34,0,0,0,.12.27.52.52,0,0,0,.35.1.78.78,0,0,0,.41-.1.64.64,0,0,0,.27-.27,1.05,1.05,0,0,0,.06-.4Z"/><path d="M25,3.25V.9h.36v.33A.86.86,0,0,1,26.1.84a1,1,0,0,1,.4.08.6.6,0,0,1,.26.2.83.83,0,0,1,.13.3,2.92,2.92,0,0,1,0,.38V3.25h-.4V1.82a.86.86,0,0,0-.05-.36.35.35,0,0,0-.16-.2A.51.51,0,0,0,26,1.19a.63.63,0,0,0-.44.16.83.83,0,0,0-.19.62V3.25Z"/><path d="M27.53.46V0h.4V.46Zm0,2.79V.9h.4V3.25Z"/><path d="M28.32,3.25V2.93l1.5-1.72H28.41V.9h1.93v.26l-1.28,1.5-.25.27.51,0h1.09v.34Z"/><path d="M32.34,3a1.35,1.35,0,0,1-.42.27,1.32,1.32,0,0,1-.44.08.9.9,0,0,1-.6-.19.64.64,0,0,1-.21-.49.65.65,0,0,1,.08-.31A.52.52,0,0,1,31,2.09.9.9,0,0,1,31.24,2l.36-.06a4,4,0,0,0,.71-.14V1.65a.42.42,0,0,0-.11-.34.67.67,0,0,0-.46-.14.75.75,0,0,0-.41.1.63.63,0,0,0-.2.35l-.39-.05a1,1,0,0,1,.17-.41.77.77,0,0,1,.36-.23A1.44,1.44,0,0,1,31.8.84a1.59,1.59,0,0,1,.49.07.68.68,0,0,1,.28.18.8.8,0,0,1,.13.28,3.14,3.14,0,0,1,0,.36v.54a4.76,4.76,0,0,0,0,.7.94.94,0,0,0,.1.28h-.42A1.11,1.11,0,0,1,32.34,3Zm0-.89a2.73,2.73,0,0,1-.65.15,1.85,1.85,0,0,0-.35.08.34.34,0,0,0-.16.13.32.32,0,0,0,0,.19.34.34,0,0,0,.12.27.52.52,0,0,0,.35.1.78.78,0,0,0,.41-.1.64.64,0,0,0,.27-.27,1.05,1.05,0,0,0,.06-.4Z"/><path d="M34.86,3.25V3a.74.74,0,0,1-.66.35.86.86,0,0,1-.51-.16,1,1,0,0,1-.37-.43,1.47,1.47,0,0,1-.13-.64,1.62,1.62,0,0,1,.12-.64A.91.91,0,0,1,33.66,1a.9.9,0,0,1,.53-.16.79.79,0,0,1,.38.09.78.78,0,0,1,.27.24V0h.39V3.25ZM33.6,2.08a1,1,0,0,0,.19.68.61.61,0,0,0,.45.22.57.57,0,0,0,.45-.21,1,1,0,0,0,.18-.66,1.08,1.08,0,0,0-.19-.71.56.56,0,0,0-.46-.23.57.57,0,0,0-.44.22A1.09,1.09,0,0,0,33.6,2.08Z"/><path d="M35.71,2.08a1.22,1.22,0,0,1,.37-1,1.07,1.07,0,0,1,.74-.27,1.05,1.05,0,0,1,.79.32,1.2,1.2,0,0,1,.31.88,1.6,1.6,0,0,1-.13.72,1,1,0,0,1-.4.4,1.16,1.16,0,0,1-.57.15A1.06,1.06,0,0,1,36,3,1.28,1.28,0,0,1,35.71,2.08Zm.41,0a1,1,0,0,0,.2.67.64.64,0,0,0,.5.23.62.62,0,0,0,.49-.23,1,1,0,0,0,.2-.69.93.93,0,0,0-.2-.66.62.62,0,0,0-.49-.23.64.64,0,0,0-.5.23A1,1,0,0,0,36.12,2.08Z"/><path d="M39.65,4.16V.9H40v.3a.82.82,0,0,1,.29-.27A.8.8,0,0,1,40.7.84a1,1,0,0,1,.53.16.91.91,0,0,1,.35.44,1.56,1.56,0,0,1,.12.62,1.51,1.51,0,0,1-.13.65,1,1,0,0,1-.38.44.91.91,0,0,1-.52.16.74.74,0,0,1-.36-.09A.75.75,0,0,1,40.05,3V4.16ZM40,2.09a1,1,0,0,0,.18.67.55.55,0,0,0,.45.22.57.57,0,0,0,.45-.23,1,1,0,0,0,.19-.69,1.08,1.08,0,0,0-.18-.68.56.56,0,0,0-.45-.22.57.57,0,0,0-.45.24A1.05,1.05,0,0,0,40,2.09Z"/><path d="M42,2.08a1.19,1.19,0,0,1,.37-1,1.07,1.07,0,0,1,.74-.27,1.05,1.05,0,0,1,.79.32,1.2,1.2,0,0,1,.31.88,1.6,1.6,0,0,1-.13.72,1,1,0,0,1-.4.4,1.16,1.16,0,0,1-.57.15,1.06,1.06,0,0,1-.8-.32A1.24,1.24,0,0,1,42,2.08Zm.41,0a1,1,0,0,0,.2.67.64.64,0,0,0,.5.23.62.62,0,0,0,.49-.23,1,1,0,0,0,.2-.69.93.93,0,0,0-.2-.66.62.62,0,0,0-.49-.23.64.64,0,0,0-.5.23A1,1,0,0,0,42.44,2.08Z"/><path d="M44.71,3.25V.9h.36v.35a1.07,1.07,0,0,1,.25-.33.47.47,0,0,1,.26-.08A.85.85,0,0,1,46,1l-.14.37a.67.67,0,0,0-.29-.08.35.35,0,0,0-.24.08.41.41,0,0,0-.15.21,1.78,1.78,0,0,0-.06.47V3.25Z"/></g></g></svg>