<svg xmlns="http://www.w3.org/2000/svg" viewBox="0 0 56.75 15.81"><defs><style>.bf39f054-cb78-448d-acc8-abbd5995ac11{fill:#2d3c96;}.f262846c-e810-4efd-b820-bf27b8b00e23{fill:#fff;}</style></defs><g id="eb952cba-f17e-485e-9768-ac1c8b388f05" data-name="Capa 2"><g id="ec9281f8-f8e4-420f-a1af-f0f72f5a9c6e" data-name="Capa 1"><rect class="bf39f054-cb78-448d-acc8-abbd5995ac11" width="56.75" height="10.04"/><path class="f262846c-e810-4efd-b820-bf27b8b00e23" d="M28.08,5.77l2.24.68A4.13,4.13,0,0,1,29.61,8,3.23,3.23,0,0,1,28.4,9a4.58,4.58,0,0,1-1.83.32,5.32,5.32,0,0,1-2.2-.39,3.65,3.65,0,0,1-1.48-1.38A4.72,4.72,0,0,1,22.27,5a4.34,4.34,0,0,1,1.09-3.16A4.18,4.18,0,0,1,26.45.74a4.2,4.2,0,0,1,2.46.63,3.73,3.73,0,0,1,1.33,1.95L28,3.82a2,2,0,0,0-.25-.56,1.5,1.5,0,0,0-.52-.45,1.59,1.59,0,0,0-.69-.16,1.53,1.53,0,0,0-1.34.7A3,3,0,0,0,24.83,5a3.09,3.09,0,0,0,.42,1.89,1.65,1.65,0,0,0,2.28.1,2.58,2.58,0,0,0,.55-1.2"/><path class="f262846c-e810-4efd-b820-bf27b8b00e23" d="M36.39,7.79h-2.9l-.4,1.37H30.48L33.59.88h2.78l3.11,8.28H36.81ZM35.86,6,35,3l-.9,3Z"/><path class="f262846c-e810-4efd-b820-bf27b8b00e23" d="M40.23.88H44a4.45,4.45,0,0,1,1.82.31A2.9,2.9,0,0,1,47,2.06a3.69,3.69,0,0,1,.66,1.33,6.38,6.38,0,0,1,.2,1.6,5.6,5.6,0,0,1-.3,2.06,3.33,3.33,0,0,1-.84,1.22,2.75,2.75,0,0,1-1.15.66A6,6,0,0,1,44,9.16H40.23Zm2.55,1.88V7.28h.63a2.63,2.63,0,0,0,1.14-.18,1.27,1.27,0,0,0,.53-.62A3.91,3.91,0,0,0,45.27,5a2.79,2.79,0,0,0-.43-1.8,1.82,1.82,0,0,0-1.42-.48Z"/><polygon class="f262846c-e810-4efd-b820-bf27b8b00e23" points="48.89 0.88 55.86 0.88 55.86 2.65 51.45 2.65 51.45 3.96 55.43 3.96 55.43 5.65 51.45 5.65 51.45 7.28 55.86 7.28 55.86 9.16 48.89 9.16 48.89 0.88"/><polygon class="bf39f054-cb78-448d-acc8-abbd5995ac11" points="16.98 11.8 20.24 11.8 20.24 12.64 18.2 12.64 18.2 13.27 20.09 13.27 20.09 14.07 18.2 14.07 18.2 14.85 20.3 14.85 20.3 15.74 16.98 15.74 16.98 11.8"/><path class="bf39f054-cb78-448d-acc8-abbd5995ac11" d="M22.65,11.8h1.21v2.14a3.4,3.4,0,0,1-.12,1,1.18,1.18,0,0,1-.48.59,1.64,1.64,0,0,1-.92.25,2.2,2.2,0,0,1-.92-.16,1.18,1.18,0,0,1-.51-.48,1.7,1.7,0,0,1-.21-.76l1.16-.16a1.27,1.27,0,0,0,.05.39.41.41,0,0,0,.14.2.37.37,0,0,0,.2.05.32.32,0,0,0,.3-.15,1,1,0,0,0,.1-.51Z"/><polygon class="bf39f054-cb78-448d-acc8-abbd5995ac11" points="24.67 11.8 27.93 11.8 27.93 12.64 25.89 12.64 25.89 13.27 27.78 13.27 27.78 14.07 25.89 14.07 25.89 14.85 27.99 14.85 27.99 15.74 24.67 15.74 24.67 11.8"/><path class="bf39f054-cb78-448d-acc8-abbd5995ac11" d="M31.31,14.13l1.07.32a2,2,0,0,1-.34.75,1.54,1.54,0,0,1-.57.45,2,2,0,0,1-.88.16,2.58,2.58,0,0,1-1-.19,1.57,1.57,0,0,1-.7-.66,2.18,2.18,0,0,1-.3-1.2,2,2,0,0,1,.52-1.5,2,2,0,0,1,1.47-.52,2,2,0,0,1,1.17.3,1.81,1.81,0,0,1,.63.92l-1.07.24a.91.91,0,0,0-.12-.26.65.65,0,0,0-.25-.22.79.79,0,0,0-1,.26,1.4,1.4,0,0,0-.16.77,1.42,1.42,0,0,0,.2.9.68.68,0,0,0,.56.24.67.67,0,0,0,.52-.19,1.16,1.16,0,0,0,.26-.57"/><path class="bf39f054-cb78-448d-acc8-abbd5995ac11" d="M35.53,11.8h1.21v2.35a2.08,2.08,0,0,1-.11.66,1.41,1.41,0,0,1-.34.54,1.34,1.34,0,0,1-.49.32,2.36,2.36,0,0,1-.85.14c-.19,0-.4,0-.62,0a1.68,1.68,0,0,1-.57-.16,1.65,1.65,0,0,1-.42-.34,1.42,1.42,0,0,1-.26-.46,2.52,2.52,0,0,1-.11-.66V11.8h1.21v2.4a.69.69,0,0,0,.18.51.68.68,0,0,0,.5.18.66.66,0,0,0,.49-.18.69.69,0,0,0,.18-.51Z"/><polygon class="bf39f054-cb78-448d-acc8-abbd5995ac11" points="37.37 11.8 41.07 11.8 41.07 12.78 39.83 12.78 39.83 15.74 38.61 15.74 38.61 12.78 37.37 12.78 37.37 11.8"/><rect class="bf39f054-cb78-448d-acc8-abbd5995ac11" x="41.72" y="11.8" width="1.22" height="3.93"/><polygon class="bf39f054-cb78-448d-acc8-abbd5995ac11" points="43.34 11.8 44.61 11.8 45.5 14.64 46.37 11.8 47.61 11.8 46.15 15.74 44.83 15.74 43.34 11.8"/><path class="bf39f054-cb78-448d-acc8-abbd5995ac11" d="M49,13.78a1.32,1.32,0,0,0,.22.86.76.76,0,0,0,.6.26.74.74,0,0,0,.61-.26,1.45,1.45,0,0,0,.22-.91,1.25,1.25,0,0,0-.23-.82.83.83,0,0,0-1.2,0,1.31,1.31,0,0,0-.22.86m-1.22,0a2,2,0,0,1,.54-1.5,2.06,2.06,0,0,1,1.5-.53,2,2,0,0,1,1.51.53,2,2,0,0,1,.53,1.47,2.47,2.47,0,0,1-.23,1.13,1.65,1.65,0,0,1-.67.69,2.26,2.26,0,0,1-1.1.25,2.4,2.4,0,0,1-1.1-.22,1.61,1.61,0,0,1-.7-.67,2.22,2.22,0,0,1-.28-1.15"/><path class="bf39f054-cb78-448d-acc8-abbd5995ac11" d="M52.29,14.44l1.16-.07a1,1,0,0,0,.15.42.66.66,0,0,0,.54.24.6.6,0,0,0,.4-.12.34.34,0,0,0,.14-.28.37.37,0,0,0-.13-.28,1.59,1.59,0,0,0-.62-.22,2.55,2.55,0,0,1-1.14-.48,1,1,0,0,1-.35-.76,1,1,0,0,1,.18-.57,1.1,1.1,0,0,1,.53-.43,2.47,2.47,0,0,1,1-.15,1.93,1.93,0,0,1,1.15.28,1.19,1.19,0,0,1,.47.89L54.59,13a.65.65,0,0,0-.19-.39.65.65,0,0,0-.41-.12.49.49,0,0,0-.32.09.27.27,0,0,0-.1.22.25.25,0,0,0,.08.17,1,1,0,0,0,.41.14,5.23,5.23,0,0,1,1.14.35,1.24,1.24,0,0,1,.51.44,1.11,1.11,0,0,1,.15.58,1.27,1.27,0,0,1-.21.7,1.31,1.31,0,0,1-.58.48,2.37,2.37,0,0,1-1,.17,1.94,1.94,0,0,1-1.39-.39,1.56,1.56,0,0,1-.44-1"/></g></g></svg>