<svg xmlns="http://www.w3.org/2000/svg" viewBox="0 0 11.33 10.31"><defs><style>.bc027886-af25-4bb0-88f1-59f5610931c9{fill:#fff;}</style></defs><g id="a1b17dc4-59f6-4026-8ce5-f76d0d7fe417" data-name="Capa 2"><g id="ef671730-0c5e-47ec-a399-cc58006c759b" data-name="Capa 1"><path class="bc027886-af25-4bb0-88f1-59f5610931c9" d="M0,0H2.84A2.12,2.12,0,0,1,4.5.61a2.61,2.61,0,0,1,.56,1.81l0,4.83a3.92,3.92,0,0,1-.53,2.29,2,2,0,0,1-1.79.77H0ZM2.44,8.48A.49.49,0,0,0,3,7.93V2.62a2.24,2.24,0,0,0,0-.53.38.38,0,0,0-.2-.23A1.28,1.28,0,0,0,2.3,1.8H2.08V8.48Z"/><path class="bc027886-af25-4bb0-88f1-59f5610931c9" d="M7.07,10.31V0H11.2V2h-2V4h1.94V5.94H9.17V8.3h2.16v2Z"/></g></g></svg>