<svg xmlns="http://www.w3.org/2000/svg" viewBox="0 0 19.11 10.5"><defs><style>.b5f8b5a6-ec70-4c32-b0c3-9a09b983b771{fill:#fff;}</style></defs><g id="a6f7e5f7-fe30-4af9-886a-a1cdd13e2182" data-name="Capa 2"><g id="b597b4d7-b402-402a-a1c6-d8900932c1d2" data-name="Capa 1"><path class="b5f8b5a6-ec70-4c32-b0c3-9a09b983b771" d="M.65,9.74A3.22,3.22,0,0,1,0,7.6V2.69a2.81,2.81,0,0,1,.65-2A2.5,2.5,0,0,1,2.54,0a2.5,2.5,0,0,1,1.9.68,2.81,2.81,0,0,1,.65,2V7.6a3.2,3.2,0,0,1-.65,2.14,2.34,2.34,0,0,1-1.9.76A2.33,2.33,0,0,1,.65,9.74ZM2.92,8.36A2,2,0,0,0,3,7.69v-5a1.38,1.38,0,0,0-.09-.54.35.35,0,0,0-.36-.21c-.35,0-.52.26-.52.78v5a1.71,1.71,0,0,0,.11.68.39.39,0,0,0,.39.22A.37.37,0,0,0,2.92,8.36Z"/><path class="b5f8b5a6-ec70-4c32-b0c3-9a09b983b771" d="M7.08,10.4V.1H9.2l1,4.93V.1h2V10.4h-2l-1-5.16V10.4Z"/><path class="b5f8b5a6-ec70-4c32-b0c3-9a09b983b771" d="M14.68,9.8a3.28,3.28,0,0,1-.63-2.24v-1h2V7.84c0,.51.17.76.49.76A.42.42,0,0,0,17,8.44a1,1,0,0,0,.11-.54A2.49,2.49,0,0,0,17,7.06a1.93,1.93,0,0,0-.31-.55A9.26,9.26,0,0,0,16,5.82l-.88-.89a3.05,3.05,0,0,1-1-2.23,3,3,0,0,1,.61-2A2.22,2.22,0,0,1,16.43,0a2.45,2.45,0,0,1,2,.74,3.56,3.56,0,0,1,.62,2.31H17l0-.71A.42.42,0,0,0,16.82,2a.42.42,0,0,0-.32-.12.45.45,0,0,0-.36.13.52.52,0,0,0-.12.36,1.49,1.49,0,0,0,.58,1l1.2,1.15a6.55,6.55,0,0,1,.69.78,2.81,2.81,0,0,1,.45.86,3.77,3.77,0,0,1,.17,1.18,4,4,0,0,1-.56,2.31,2.09,2.09,0,0,1-1.84.79A2.57,2.57,0,0,1,14.68,9.8Z"/></g></g></svg>