<svg xmlns="http://www.w3.org/2000/svg" viewBox="0 0 11.32 10.4"><defs><style>.a12f81e1-e2b1-4fc1-b9c7-5c5b93c82079{fill:#fff;}</style></defs><g id="b262b4cf-53d1-4207-a92c-7f05f256e32d" data-name="Capa 2"><g id="a00c46bc-584e-408e-9c23-5d79392d9453" data-name="Capa 1"><path class="a12f81e1-e2b1-4fc1-b9c7-5c5b93c82079" d="M1.22,10.31V2H0V0H4.51V2H3.29v8.33Z"/><path class="a12f81e1-e2b1-4fc1-b9c7-5c5b93c82079" d="M6.92,9.68A3.2,3.2,0,0,1,6.3,7.55V0h2V7.46a2.52,2.52,0,0,0,.1.77.39.39,0,0,0,.41.28.4.4,0,0,0,.41-.27,2.6,2.6,0,0,0,.09-.78V0h2V7.55a3.2,3.2,0,0,1-.62,2.13,2.35,2.35,0,0,1-1.89.72A2.35,2.35,0,0,1,6.92,9.68Z"/></g></g></svg>