<svg xmlns="http://www.w3.org/2000/svg" viewBox="0 0 25.09 10.5"><defs><style>.ae8590c9-2fda-43e1-b0f5-7c311f32262b{fill:#fff;}</style></defs><g id="b6465d38-0d11-41f7-99e7-6082f509b866" data-name="Capa 2"><g id="b842f304-ecb7-4fae-a18e-42b9f6b4e241" data-name="Capa 1"><path class="ae8590c9-2fda-43e1-b0f5-7c311f32262b" d="M.62,9.8A3.33,3.33,0,0,1,0,7.56v-1H2V7.84c0,.51.16.76.49.76a.42.42,0,0,0,.38-.16A1,1,0,0,0,3,7.9a2.49,2.49,0,0,0-.12-.84,1.91,1.91,0,0,0-.3-.55c-.13-.15-.35-.38-.67-.69L1,4.93A3,3,0,0,1,0,2.7a2.93,2.93,0,0,1,.61-2A2.22,2.22,0,0,1,2.38,0a2.48,2.48,0,0,1,2,.74A3.57,3.57,0,0,1,5,3.05H2.89V2.34A.46.46,0,0,0,2.77,2a.44.44,0,0,0-.32-.12A.45.45,0,0,0,2.09,2,.52.52,0,0,0,2,2.39a1.51,1.51,0,0,0,.57,1l1.2,1.15a6.71,6.71,0,0,1,.7.78,3,3,0,0,1,.44.86A3.5,3.5,0,0,1,5.05,7.4a3.9,3.9,0,0,1-.56,2.31,2.08,2.08,0,0,1-1.84.79A2.6,2.6,0,0,1,.62,9.8Z"/><path class="ae8590c9-2fda-43e1-b0f5-7c311f32262b" d="M8,10.4V2.08H6.74V.1h4.51v2H10V10.4Z"/><path class="ae8590c9-2fda-43e1-b0f5-7c311f32262b" d="M13.1.1h3.17a1.79,1.79,0,0,1,1.17.34,1.7,1.7,0,0,1,.55,1A6.87,6.87,0,0,1,18.14,3a3.3,3.3,0,0,1-.23,1.36,1.3,1.3,0,0,1-.79.69,1,1,0,0,1,.68.47,2,2,0,0,1,.21,1l0,3.9H16v-4c0-.29-.06-.47-.17-.55a1.12,1.12,0,0,0-.61-.12v4.7H13.1Zm2.59,3.81c.29,0,.43-.31.43-.93a4.67,4.67,0,0,0,0-.62A.46.46,0,0,0,16,2.08.41.41,0,0,0,15.68,2H15.2V3.91Z"/><path class="ae8590c9-2fda-43e1-b0f5-7c311f32262b" d="M20.65,9.74A3.22,3.22,0,0,1,20,7.6V2.69a2.81,2.81,0,0,1,.65-2A2.52,2.52,0,0,1,22.55,0a2.5,2.5,0,0,1,1.89.68,2.76,2.76,0,0,1,.65,2V7.6a3.15,3.15,0,0,1-.65,2.14,2.33,2.33,0,0,1-1.89.76A2.35,2.35,0,0,1,20.65,9.74Zm2.27-1.38a1.93,1.93,0,0,0,.1-.67v-5a1.38,1.38,0,0,0-.09-.54.37.37,0,0,0-.37-.21c-.34,0-.52.26-.52.78v5a1.71,1.71,0,0,0,.11.68.4.4,0,0,0,.4.22A.36.36,0,0,0,22.92,8.36Z"/></g></g></svg>