<svg xmlns="http://www.w3.org/2000/svg" viewBox="0 0 12.14 13.31"><defs><style>.e7d97fe4-5119-45e4-ad6c-744f9ab31841{fill:#fff;}</style></defs><g id="b8c4b33f-0926-464b-93e3-323cedce353b" data-name="Capa 2"><g id="baa52072-3db8-492b-b217-253e28485361" data-name="Capa 1"><path class="e7d97fe4-5119-45e4-ad6c-744f9ab31841" d="M.65,12.55A3.25,3.25,0,0,1,0,10.4V5.5a2.81,2.81,0,0,1,.65-2,2.46,2.46,0,0,1,1.89-.68,2.47,2.47,0,0,1,1.9.68,2.81,2.81,0,0,1,.65,2v4.9a3.21,3.21,0,0,1-.65,2.15,2.34,2.34,0,0,1-1.9.76A2.36,2.36,0,0,1,.65,12.55Zm.5-10V1.28L3.94,0V2Zm1.77,8.58A2,2,0,0,0,3,10.5v-5a1.44,1.44,0,0,0-.09-.55.35.35,0,0,0-.36-.21C2.21,4.7,2,5,2,5.48v5a1.63,1.63,0,0,0,.11.67.38.38,0,0,0,.39.23A.37.37,0,0,0,2.92,11.17Z"/><path class="e7d97fe4-5119-45e4-ad6c-744f9ab31841" d="M7.08,13.21V2.9H9.2l1,4.94V2.9h2V13.21h-2l-1-5.16v5.16Z"/></g></g></svg>