<svg xmlns="http://www.w3.org/2000/svg" viewBox="0 0 15.88 10.5"><defs><style>.f6a2b10d-a14a-4817-8d0f-771292852ce1{fill:#fff;}</style></defs><g id="bbb82c72-ec20-497a-9b4b-8e20ddf1e07e" data-name="Capa 2"><g id="a7808934-56b0-4c58-a53d-48d437c123a3" data-name="Capa 1"><path class="f6a2b10d-a14a-4817-8d0f-771292852ce1" d="M.68,9.79A2.7,2.7,0,0,1,0,7.85V3.1A3.69,3.69,0,0,1,.61.78,2.3,2.3,0,0,1,2.53,0,2.69,2.69,0,0,1,4.37.62a2.31,2.31,0,0,1,.69,1.8V4.2H3V2.68a1.18,1.18,0,0,0-.11-.62.4.4,0,0,0-.37-.16.39.39,0,0,0-.38.19,1.33,1.33,0,0,0-.1.56V7.82a1.15,1.15,0,0,0,.12.6.4.4,0,0,0,.36.18Q3,8.6,3,7.82V6H5.09v2A2.3,2.3,0,0,1,2.48,10.5,2.38,2.38,0,0,1,.68,9.79Z"/><path class="f6a2b10d-a14a-4817-8d0f-771292852ce1" d="M7.63,9.79A2.65,2.65,0,0,1,7,7.85V3.1A3.69,3.69,0,0,1,7.56.78,2.3,2.3,0,0,1,9.48,0a2.69,2.69,0,0,1,1.84.62A2.31,2.31,0,0,1,12,2.42V4.2H10V2.68a1.29,1.29,0,0,0-.11-.62.4.4,0,0,0-.37-.16.39.39,0,0,0-.38.19,1.19,1.19,0,0,0-.1.56V7.82a1.15,1.15,0,0,0,.12.6.4.4,0,0,0,.36.18q.48,0,.48-.78V6H12v2A2.3,2.3,0,0,1,9.43,10.5,2.38,2.38,0,0,1,7.63,9.79Z"/><path class="f6a2b10d-a14a-4817-8d0f-771292852ce1" d="M13.89,10.4V.1h2V10.4Z"/></g></g></svg>