<svg xmlns="http://www.w3.org/2000/svg" viewBox="0 0 18.3 10.4"><defs><style>.b4600c78-671a-4710-96f8-38124e14d67e{fill:#fff;}</style></defs><g id="af263872-eb4b-450c-a693-085485154969" data-name="Capa 2"><g id="b8fa13b2-8dd6-41ec-b756-4ac5e9b4385d" data-name="Capa 1"><path class="b4600c78-671a-4710-96f8-38124e14d67e" d="M0,10.31V0H2.12l.95,4.93V0h2V10.31h-2L2,5.15v5.16Z"/><path class="b4600c78-671a-4710-96f8-38124e14d67e" d="M7.66,9.68A3.2,3.2,0,0,1,7,7.55V0h2V7.46a2.57,2.57,0,0,0,.09.77.39.39,0,0,0,.41.28A.39.39,0,0,0,10,8.24a2.54,2.54,0,0,0,.1-.78V0h2V7.55a3.2,3.2,0,0,1-.62,2.13,2.35,2.35,0,0,1-1.89.72A2.35,2.35,0,0,1,7.66,9.68Z"/><path class="b4600c78-671a-4710-96f8-38124e14d67e" d="M14,10.31V0h4.13V2h-2V4h1.94V5.94H16.14V8.3H18.3v2Z"/></g></g></svg>