<svg xmlns="http://www.w3.org/2000/svg" viewBox="0 0 18.15 10.5"><defs><style>.bd91053f-7341-4ab5-8b15-0238fbd96888{fill:#f03c46;}.bc77cc2e-3be4-4cc0-a0ca-a45b025f6961{fill:#fff;}</style></defs><g id="ec62e021-8290-4fad-8ded-c3382b35b0e6" data-name="Capa 2"><g id="e9d264cf-b18f-4240-a504-f4163963eb00" data-name="Capa 1"><path class="bd91053f-7341-4ab5-8b15-0238fbd96888" d="M0,.1H3.17A1.79,1.79,0,0,1,4.34.44a1.77,1.77,0,0,1,.56,1A7.57,7.57,0,0,1,5,3a3.3,3.3,0,0,1-.23,1.36A1.27,1.27,0,0,1,4,5a1,1,0,0,1,.68.47,2,2,0,0,1,.21,1l0,3.9h-2v-4c0-.29-.06-.47-.17-.55a1.12,1.12,0,0,0-.61-.12v4.7H0ZM2.59,3.91C2.88,3.91,3,3.6,3,3a4.67,4.67,0,0,0,0-.62.52.52,0,0,0-.13-.28A.47.47,0,0,0,2.58,2H2.1V3.91Z"/><path class="bd91053f-7341-4ab5-8b15-0238fbd96888" d="M7,10.4V.1h4.13v2h-2v2H11V6H9.05V8.4h2.16v2Z"/><path class="bc77cc2e-3be4-4cc0-a0ca-a45b025f6961" d="M13.74,9.79a2.7,2.7,0,0,1-.68-1.94V3.1A3.76,3.76,0,0,1,13.67.78,2.3,2.3,0,0,1,15.59,0a2.68,2.68,0,0,1,1.84.62,2.32,2.32,0,0,1,.7,1.8V4.2H16.07V2.68a1.31,1.31,0,0,0-.1-.62.43.43,0,0,0-.38-.16.37.37,0,0,0-.37.19,1.18,1.18,0,0,0-.11.56V7.82a1.15,1.15,0,0,0,.12.6.4.4,0,0,0,.36.18q.48,0,.48-.78V6h2.08v2a2.29,2.29,0,0,1-2.6,2.59A2.39,2.39,0,0,1,13.74,9.79Z"/></g></g></svg>