<svg xmlns="http://www.w3.org/2000/svg" viewBox="0 0 18.26 10.4"><defs><style>.a6b1dea8-b83d-4a83-a60f-7721eba027e8{fill:#fff;}</style></defs><g id="ff1b22cf-646f-4deb-9d83-78be3205af2d" data-name="Capa 2"><g id="b9d7f4ae-723b-4360-8258-981891c2fc04" data-name="Capa 1"><path class="a6b1dea8-b83d-4a83-a60f-7721eba027e8" d="M1.22,10.31V2H0V0H4.51V2H3.29v8.33Z"/><path class="a6b1dea8-b83d-4a83-a60f-7721eba027e8" d="M6.36,0H9.53A1.79,1.79,0,0,1,10.7.34a1.77,1.77,0,0,1,.56,1,7.57,7.57,0,0,1,.14,1.58,3.39,3.39,0,0,1-.23,1.37,1.26,1.26,0,0,1-.79.68,1,1,0,0,1,.68.47,2.05,2.05,0,0,1,.21,1l0,3.9h-2v-4c0-.29-.06-.48-.17-.56a1.12,1.12,0,0,0-.61-.12v4.71H6.36ZM9,3.82c.29,0,.43-.32.43-.94a4.5,4.5,0,0,0,0-.61A.49.49,0,0,0,9.22,2a.41.41,0,0,0-.28-.08H8.46V3.82Z"/><path class="a6b1dea8-b83d-4a83-a60f-7721eba027e8" d="M13.87,9.68a3.15,3.15,0,0,1-.62-2.13V0h2V7.46a2.24,2.24,0,0,0,.1.77.44.44,0,0,0,.81,0,2.27,2.27,0,0,0,.1-.78V0h2V7.55a3.2,3.2,0,0,1-.61,2.13,2.38,2.38,0,0,1-1.89.72A2.35,2.35,0,0,1,13.87,9.68Z"/></g></g></svg>