<svg xmlns="http://www.w3.org/2000/svg" viewBox="0 0 11.99 10.5"><defs><style>.afbbb680-f0a0-4102-9b6b-ebf59b164464{fill:#fff;}</style></defs><g id="e63d8607-3529-4e89-abc0-0763287d5bcb" data-name="Capa 2"><g id="fb541c2b-1d50-4636-9287-041613c45002" data-name="Capa 1"><path class="afbbb680-f0a0-4102-9b6b-ebf59b164464" d="M0,.1H3.17A1.79,1.79,0,0,1,4.34.44a1.77,1.77,0,0,1,.56,1A7.57,7.57,0,0,1,5,3a3.3,3.3,0,0,1-.23,1.36A1.27,1.27,0,0,1,4,5a1,1,0,0,1,.68.47,2,2,0,0,1,.21,1l0,3.9h-2v-4c0-.29-.06-.47-.17-.55a1.12,1.12,0,0,0-.61-.12v4.7H0ZM2.59,3.91C2.88,3.91,3,3.6,3,3a4.67,4.67,0,0,0,0-.62.52.52,0,0,0-.13-.28A.47.47,0,0,0,2.58,2H2.1V3.91Z"/><path class="afbbb680-f0a0-4102-9b6b-ebf59b164464" d="M7.55,9.74A3.22,3.22,0,0,1,6.91,7.6V2.69a2.81,2.81,0,0,1,.64-2A2.54,2.54,0,0,1,9.45,0a2.54,2.54,0,0,1,1.9.68,2.81,2.81,0,0,1,.64,2V7.6a3.2,3.2,0,0,1-.64,2.14,2.37,2.37,0,0,1-1.9.76A2.37,2.37,0,0,1,7.55,9.74ZM9.82,8.36a1.72,1.72,0,0,0,.1-.67v-5a1.38,1.38,0,0,0-.09-.54.36.36,0,0,0-.37-.21Q9,1.9,9,2.68v5a1.74,1.74,0,0,0,.1.68.4.4,0,0,0,.4.22A.36.36,0,0,0,9.82,8.36Z"/></g></g></svg>