<svg xmlns="http://www.w3.org/2000/svg" viewBox="0 0 10.98 10.4"><defs><style>.f297f3b0-6b75-48f5-8807-f123860c38df{fill:#fff;}</style></defs><g id="b4ee0664-789f-4050-b335-f03260de0004" data-name="Capa 2"><g id="e2434144-7946-4789-8661-b82f3e135028" data-name="Capa 1"><path class="f297f3b0-6b75-48f5-8807-f123860c38df" d="M0,10.31V0H4.13V2h-2V3.65H4v2H2.08v4.68Z"/><path class="f297f3b0-6b75-48f5-8807-f123860c38df" d="M6.58,9.68A3.2,3.2,0,0,1,6,7.55V0H8V7.46a2.57,2.57,0,0,0,.09.77.39.39,0,0,0,.41.28.39.39,0,0,0,.41-.27A2.54,2.54,0,0,0,9,7.46V0h2V7.55a3.2,3.2,0,0,1-.62,2.13,2.35,2.35,0,0,1-1.89.72A2.35,2.35,0,0,1,6.58,9.68Z"/></g></g></svg>