<svg xmlns="http://www.w3.org/2000/svg" viewBox="0 0 203.51 13.31"><defs><style>.a7247ab4-0197-4430-bada-0900aa8eed82{fill:#f03c46;}.bb60883c-3ab2-42ba-8629-0b7909d887af{fill:#fff;}</style></defs><g id="f64e9fc1-cd50-4b43-b497-7178b77c5a62" data-name="Capa 2"><g id="f67066f5-35af-4efa-ae30-9f1620b26edf" data-name="Capa 1"><path class="a7247ab4-0197-4430-bada-0900aa8eed82" d="M0,2.9H3.17a1.79,1.79,0,0,1,1.17.35,1.7,1.7,0,0,1,.56,1A7.46,7.46,0,0,1,5,5.78a3.35,3.35,0,0,1-.23,1.37A1.27,1.27,0,0,1,4,7.84a1,1,0,0,1,.68.46,2.08,2.08,0,0,1,.21,1l0,3.9h-2v-4c0-.29-.06-.47-.17-.55a1.12,1.12,0,0,0-.61-.12v4.7H0ZM2.59,6.72c.29,0,.43-.31.43-.94a4.6,4.6,0,0,0,0-.61.52.52,0,0,0-.13-.28.47.47,0,0,0-.28-.08H2.1V6.72Z"/><path class="a7247ab4-0197-4430-bada-0900aa8eed82" d="M7,13.21V2.9h4.13v2h-2v2H11V8.84H9.05v2.37h2.16v2Z"/><path class="bb60883c-3ab2-42ba-8629-0b7909d887af" d="M13.74,12.6a2.7,2.7,0,0,1-.68-1.94V5.9a3.75,3.75,0,0,1,.61-2.31,2.3,2.3,0,0,1,1.92-.78,2.68,2.68,0,0,1,1.84.62,2.32,2.32,0,0,1,.7,1.8V7H16.07V5.48a1.26,1.26,0,0,0-.1-.61.43.43,0,0,0-.38-.17.37.37,0,0,0-.37.2,1.15,1.15,0,0,0-.11.56v5.17a1.17,1.17,0,0,0,.12.6.4.4,0,0,0,.36.18q.48,0,.48-.78V8.77h2.08v2a2.3,2.3,0,0,1-2.6,2.59A2.39,2.39,0,0,1,13.74,12.6Z"/><path class="bb60883c-3ab2-42ba-8629-0b7909d887af" d="M20.66,12.55A3.25,3.25,0,0,1,20,10.4V5.5a2.81,2.81,0,0,1,.65-2,2.46,2.46,0,0,1,1.89-.68,2.47,2.47,0,0,1,1.9.68,2.81,2.81,0,0,1,.65,2v4.9a3.21,3.21,0,0,1-.65,2.15,2.34,2.34,0,0,1-1.9.76A2.36,2.36,0,0,1,20.66,12.55Zm2.27-1.38A2,2,0,0,0,23,10.5v-5a1.44,1.44,0,0,0-.09-.55.35.35,0,0,0-.36-.21c-.35,0-.52.26-.52.78v5a1.63,1.63,0,0,0,.11.67.38.38,0,0,0,.39.23A.37.37,0,0,0,22.93,11.17Z"/><path class="bb60883c-3ab2-42ba-8629-0b7909d887af" d="M27.09,13.21V2.9h2.12l.95,4.94V2.9h2V13.21h-2l-1-5.16v5.16Z"/><path class="bb60883c-3ab2-42ba-8629-0b7909d887af" d="M34.69,12.61a3.28,3.28,0,0,1-.63-2.24v-1h2v1.28c0,.52.17.77.49.77a.42.42,0,0,0,.39-.16,1.05,1.05,0,0,0,.11-.55A2.47,2.47,0,0,0,37,9.87a1.93,1.93,0,0,0-.31-.55A9.26,9.26,0,0,0,36,8.63l-.88-.89a3.07,3.07,0,0,1-1-2.23,3,3,0,0,1,.61-2,2.22,2.22,0,0,1,1.77-.69,2.42,2.42,0,0,1,2,.74,3.56,3.56,0,0,1,.62,2.31H37l0-.71a.44.44,0,0,0-.11-.33.42.42,0,0,0-.32-.12.46.46,0,0,0-.36.14A.49.49,0,0,0,36,5.2a1.49,1.49,0,0,0,.58,1l1.2,1.15a5.86,5.86,0,0,1,.69.78A2.81,2.81,0,0,1,39,9a3.77,3.77,0,0,1,.17,1.18,4,4,0,0,1-.56,2.31,2.09,2.09,0,0,1-1.84.79A2.57,2.57,0,0,1,34.69,12.61Z"/><path class="bb60883c-3ab2-42ba-8629-0b7909d887af" d="M42,13.21V4.88H40.8v-2h4.51v2H44.09v8.33Z"/><path class="bb60883c-3ab2-42ba-8629-0b7909d887af" d="M47.16,2.9h3.17a1.79,1.79,0,0,1,1.17.35,1.65,1.65,0,0,1,.56,1,7.46,7.46,0,0,1,.14,1.57A3.19,3.19,0,0,1,52,7.15a1.27,1.27,0,0,1-.79.69,1,1,0,0,1,.68.46,2.08,2.08,0,0,1,.21,1l0,3.9H50v-4c0-.29-.06-.47-.17-.55a1.09,1.09,0,0,0-.61-.12v4.7H47.16Zm2.59,3.82c.29,0,.44-.31.44-.94a4.27,4.27,0,0,0,0-.61A.46.46,0,0,0,50,4.89a.47.47,0,0,0-.28-.08h-.48V6.72Z"/><path class="bb60883c-3ab2-42ba-8629-0b7909d887af" d="M54.67,12.59a3.21,3.21,0,0,1-.62-2.14V2.9h2v7.47a2.57,2.57,0,0,0,.1.77.39.39,0,0,0,.41.27.4.4,0,0,0,.41-.27,2.57,2.57,0,0,0,.09-.77V2.9h2v7.55a3.21,3.21,0,0,1-.62,2.14,2.84,2.84,0,0,1-3.78,0Z"/><path class="bb60883c-3ab2-42ba-8629-0b7909d887af" d="M61.67,12.6A2.65,2.65,0,0,1,61,10.66V5.9a3.68,3.68,0,0,1,.61-2.31,2.3,2.3,0,0,1,1.92-.78,2.69,2.69,0,0,1,1.84.62,2.31,2.31,0,0,1,.69,1.8V7H64V5.48a1.24,1.24,0,0,0-.11-.61.47.47,0,0,0-.75,0,1.17,1.17,0,0,0-.1.56v5.17a1.17,1.17,0,0,0,.12.6.4.4,0,0,0,.36.18q.48,0,.48-.78V8.77h2.08v2a2.3,2.3,0,0,1-2.61,2.59A2.38,2.38,0,0,1,61.67,12.6Z"/><path class="bb60883c-3ab2-42ba-8629-0b7909d887af" d="M68.61,12.6a2.69,2.69,0,0,1-.67-1.94V5.9a3.68,3.68,0,0,1,.61-2.31,2.3,2.3,0,0,1,1.92-.78,2.65,2.65,0,0,1,1.83.62,2.29,2.29,0,0,1,.7,1.8V7H71V5.48a1.24,1.24,0,0,0-.11-.61.41.41,0,0,0-.37-.17.39.39,0,0,0-.38.2,1.17,1.17,0,0,0-.1.56v5.17a1.17,1.17,0,0,0,.12.6.4.4,0,0,0,.36.18q.48,0,.48-.78V8.77H73v2a2.29,2.29,0,0,1-2.6,2.59A2.42,2.42,0,0,1,68.61,12.6Z"/><path class="bb60883c-3ab2-42ba-8629-0b7909d887af" d="M74.88,13.21V2.9h2V13.21Z"/><path class="bb60883c-3ab2-42ba-8629-0b7909d887af" d="M79.48,12.55a3.25,3.25,0,0,1-.65-2.15V5.5a2.81,2.81,0,0,1,.65-2,3,3,0,0,1,3.79,0,2.81,2.81,0,0,1,.65,2v4.9a3.21,3.21,0,0,1-.65,2.15,2.34,2.34,0,0,1-1.9.76A2.36,2.36,0,0,1,79.48,12.55Zm.5-10V1.28L82.77,0V2Zm1.77,8.58a2,2,0,0,0,.09-.67v-5a1.44,1.44,0,0,0-.09-.55.35.35,0,0,0-.36-.21c-.35,0-.52.26-.52.78v5a1.63,1.63,0,0,0,.11.67.38.38,0,0,0,.39.23A.37.37,0,0,0,81.75,11.17Z"/><path class="bb60883c-3ab2-42ba-8629-0b7909d887af" d="M85.91,13.21V2.9H88l1,4.94V2.9h2V13.21H89l-1-5.16v5.16Z"/><path class="bb60883c-3ab2-42ba-8629-0b7909d887af" d="M97.07,2.9h2.84a2.12,2.12,0,0,1,1.66.62,2.7,2.7,0,0,1,.56,1.81l0,4.82a3.9,3.9,0,0,1-.52,2.29,2,2,0,0,1-1.79.77H97.07Zm2.43,8.49a.5.5,0,0,0,.57-.55V5.52A1.67,1.67,0,0,0,100,5a.33.33,0,0,0-.2-.24,1.18,1.18,0,0,0-.44-.06h-.23v6.69Z"/><path class="bb60883c-3ab2-42ba-8629-0b7909d887af" d="M104.13,13.21V2.9h4.13v2h-2v2h2V8.84h-2v2.37h2.16v2Z"/><path class="bb60883c-3ab2-42ba-8629-0b7909d887af" d="M114.26,13.21V2.9h2.13l.94,4.94V2.9h2V13.21h-2l-1-5.16v5.16Z"/><path class="bb60883c-3ab2-42ba-8629-0b7909d887af" d="M121.92,12.59a3.21,3.21,0,0,1-.61-2.14V2.9h2v7.47a2.28,2.28,0,0,0,.1.77.38.38,0,0,0,.4.27.39.39,0,0,0,.41-.27,2.24,2.24,0,0,0,.1-.77V2.9h2v7.55a3.16,3.16,0,0,1-.62,2.14,2.35,2.35,0,0,1-1.89.72A2.38,2.38,0,0,1,121.92,12.59Z"/><path class="bb60883c-3ab2-42ba-8629-0b7909d887af" d="M128.3,13.21V2.9h4.13v2h-2v2h1.95V8.84H130.4v2.37h2.16v2Z"/><path class="bb60883c-3ab2-42ba-8629-0b7909d887af" d="M135,12.61a3.33,3.33,0,0,1-.62-2.24v-1h2v1.28c0,.52.16.77.49.77a.42.42,0,0,0,.38-.16,1,1,0,0,0,.11-.55,2.47,2.47,0,0,0-.12-.83,1.91,1.91,0,0,0-.3-.55c-.13-.15-.35-.38-.67-.69l-.89-.89a3.06,3.06,0,0,1-1-2.23,2.93,2.93,0,0,1,.61-2,2.22,2.22,0,0,1,1.77-.69,2.44,2.44,0,0,1,2,.74,3.57,3.57,0,0,1,.61,2.31h-2.1V5.15a.49.49,0,0,0-.11-.33.44.44,0,0,0-.32-.12.46.46,0,0,0-.36.14.49.49,0,0,0-.12.36,1.51,1.51,0,0,0,.57,1l1.2,1.15a6,6,0,0,1,.7.78,3,3,0,0,1,.44.86,3.5,3.5,0,0,1,.17,1.18,3.9,3.9,0,0,1-.56,2.31,2.08,2.08,0,0,1-1.84.79A2.6,2.6,0,0,1,135,12.61Z"/><path class="bb60883c-3ab2-42ba-8629-0b7909d887af" d="M142.31,13.21V4.88h-1.22v-2h4.51v2h-1.22v8.33Z"/><path class="bb60883c-3ab2-42ba-8629-0b7909d887af" d="M147.45,2.9h3.17a1.79,1.79,0,0,1,1.17.35,1.64,1.64,0,0,1,.55,1,6.78,6.78,0,0,1,.15,1.57,3.35,3.35,0,0,1-.23,1.37,1.3,1.3,0,0,1-.79.69,1,1,0,0,1,.68.46,2.08,2.08,0,0,1,.21,1l0,3.9h-2v-4c0-.29-.06-.47-.17-.55a1.12,1.12,0,0,0-.61-.12v4.7h-2.09ZM150,6.72c.29,0,.43-.31.43-.94a4.6,4.6,0,0,0,0-.61.46.46,0,0,0-.14-.28.41.41,0,0,0-.27-.08h-.48V6.72Z"/><path class="bb60883c-3ab2-42ba-8629-0b7909d887af" d="M155,12.55a3.25,3.25,0,0,1-.65-2.15V5.5a2.81,2.81,0,0,1,.65-2,3,3,0,0,1,3.79,0,2.76,2.76,0,0,1,.65,2v4.9a3.16,3.16,0,0,1-.65,2.15,2.33,2.33,0,0,1-1.89.76A2.38,2.38,0,0,1,155,12.55Zm2.27-1.38a1.93,1.93,0,0,0,.1-.67v-5a1.44,1.44,0,0,0-.09-.55.37.37,0,0,0-.37-.21c-.34,0-.52.26-.52.78v5a1.63,1.63,0,0,0,.11.67.39.39,0,0,0,.4.23A.36.36,0,0,0,157.27,11.17Z"/><path class="bb60883c-3ab2-42ba-8629-0b7909d887af" d="M165.45,13.21V2.9h4.13v2h-2.05V6.55h1.94v2h-1.94v4.68Z"/><path class="bb60883c-3ab2-42ba-8629-0b7909d887af" d="M172,12.59a3.16,3.16,0,0,1-.62-2.14V2.9h2v7.47a2.28,2.28,0,0,0,.1.77.39.39,0,0,0,.41.27.38.38,0,0,0,.4-.27,2.24,2.24,0,0,0,.1-.77V2.9h2v7.55a3.21,3.21,0,0,1-.61,2.14,2.38,2.38,0,0,1-1.89.72A2.35,2.35,0,0,1,172,12.59Z"/><path class="bb60883c-3ab2-42ba-8629-0b7909d887af" d="M179.45,13.21V4.88h-1.23v-2h4.51v2h-1.22v8.33Z"/><path class="bb60883c-3ab2-42ba-8629-0b7909d887af" d="M185.14,12.59a3.21,3.21,0,0,1-.62-2.14V2.9h2v7.47a2.61,2.61,0,0,0,.09.77.45.45,0,0,0,.82,0,2.57,2.57,0,0,0,.09-.77V2.9h2v7.55a3.21,3.21,0,0,1-.62,2.14,2.84,2.84,0,0,1-3.78,0Z"/><path class="bb60883c-3ab2-42ba-8629-0b7909d887af" d="M191.52,2.9h3.17a1.79,1.79,0,0,1,1.17.35,1.64,1.64,0,0,1,.55,1,6.78,6.78,0,0,1,.15,1.57,3.35,3.35,0,0,1-.23,1.37,1.3,1.3,0,0,1-.79.69,1,1,0,0,1,.68.46,2.08,2.08,0,0,1,.21,1l0,3.9h-2v-4c0-.29-.06-.47-.17-.55a1.12,1.12,0,0,0-.61-.12v4.7h-2.09Zm2.59,3.82c.29,0,.43-.31.43-.94a4.6,4.6,0,0,0,0-.61.46.46,0,0,0-.14-.28.41.41,0,0,0-.27-.08h-.48V6.72Z"/><path class="bb60883c-3ab2-42ba-8629-0b7909d887af" d="M199.07,12.55a3.25,3.25,0,0,1-.65-2.15V5.5a2.81,2.81,0,0,1,.65-2,3,3,0,0,1,3.79,0,2.81,2.81,0,0,1,.65,2v4.9a3.21,3.21,0,0,1-.65,2.15,2.33,2.33,0,0,1-1.89.76A2.37,2.37,0,0,1,199.07,12.55Zm2.27-1.38a2,2,0,0,0,.09-.67v-5a1.44,1.44,0,0,0-.09-.55A.35.35,0,0,0,201,4.7c-.35,0-.52.26-.52.78v5a1.63,1.63,0,0,0,.11.67.39.39,0,0,0,.4.23A.37.37,0,0,0,201.34,11.17Z"/></g></g></svg>