<svg xmlns="http://www.w3.org/2000/svg" viewBox="0 0 123.15 13.31"><defs><style>.a4d74d31-b276-4baf-9211-2ca02bef3141{fill:#fff;}</style></defs><g id="eb566d9b-1427-467f-84a5-89fd49cd55f5" data-name="Capa 2"><g id="fcd3f7c3-7efb-4765-990b-b2961faa4cda" data-name="Capa 1"><path class="a4d74d31-b276-4baf-9211-2ca02bef3141" d="M0,2.9H2.84a2.12,2.12,0,0,1,1.66.62,2.6,2.6,0,0,1,.56,1.81l0,4.82a3.9,3.9,0,0,1-.53,2.29,2,2,0,0,1-1.79.77H0Zm2.44,8.49A.49.49,0,0,0,3,10.84V5.52A2.15,2.15,0,0,0,3,5a.38.38,0,0,0-.2-.24A1.28,1.28,0,0,0,2.3,4.7H2.08v6.69Z"/><path class="a4d74d31-b276-4baf-9211-2ca02bef3141" d="M6.54,13.21V2.9h4.13v2h-2v2h1.94V8.84H8.64v2.37H10.8v2Z"/><path class="a4d74d31-b276-4baf-9211-2ca02bef3141" d="M15.61,13.21V2.9h2.07v8.56H19.8v1.75Z"/><path class="a4d74d31-b276-4baf-9211-2ca02bef3141" d="M21,13.21,22,2.9h3.5l1,10.31h-2l-.14-1.67H23.11L23,13.21ZM23.27,9.9h.93l-.45-5.24h-.1Z"/><path class="a4d74d31-b276-4baf-9211-2ca02bef3141" d="M31.21,2.9h2.85a2.11,2.11,0,0,1,1.65.62,2.65,2.65,0,0,1,.57,1.81l0,4.82a3.9,3.9,0,0,1-.53,2.29,2,2,0,0,1-1.79.77H31.21Zm2.44,8.49a.49.49,0,0,0,.56-.55V5.52A2.15,2.15,0,0,0,34.16,5a.35.35,0,0,0-.2-.24,1.22,1.22,0,0,0-.44-.06h-.23v6.69Z"/><path class="a4d74d31-b276-4baf-9211-2ca02bef3141" d="M37.75,13.21V2.9h4.13v2h-2v2H41.8V8.84H39.85v2.37H42v2Z"/><path class="a4d74d31-b276-4baf-9211-2ca02bef3141" d="M43.87,12.52a4.14,4.14,0,0,1-.55-2.38V5.7A3.18,3.18,0,0,1,44,3.54a2.35,2.35,0,0,1,1.89-.73,2.64,2.64,0,0,1,1.59.41,2.13,2.13,0,0,1,.78,1.18,7.93,7.93,0,0,1,.21,2h-2V5.48a1.25,1.25,0,0,0-.11-.57A.36.36,0,0,0,46,4.7c-.39,0-.59.26-.59.77v5a1.62,1.62,0,0,0,.12.71.49.49,0,0,0,.84,0,1.62,1.62,0,0,0,.12-.71V9h-.55V7.21h2.52v6h-.83l-.35-.86a1.83,1.83,0,0,1-1.7,1A1.86,1.86,0,0,1,43.87,12.52Z"/><path class="a4d74d31-b276-4baf-9211-2ca02bef3141" d="M49.87,2.9H53a1.76,1.76,0,0,1,1.17.35,1.65,1.65,0,0,1,.56,1,6.85,6.85,0,0,1,.14,1.57,3.37,3.37,0,0,1-.22,1.37,1.32,1.32,0,0,1-.8.69.94.94,0,0,1,.68.46,2.08,2.08,0,0,1,.21,1l0,3.9h-2v-4c0-.29-.05-.47-.17-.55A1.09,1.09,0,0,0,52,8.51v4.7H49.87Zm2.6,3.82c.28,0,.43-.31.43-.94a3.17,3.17,0,0,0,0-.61.46.46,0,0,0-.13-.28.44.44,0,0,0-.28-.08H52V6.72Z"/><path class="a4d74d31-b276-4baf-9211-2ca02bef3141" d="M56.08,13.21l1-10.31h3.5l1,10.31h-2l-.14-1.67H58.2l-.12,1.67ZM58.36,9.9h.93l-.45-5.24h-.1Z"/><path class="a4d74d31-b276-4baf-9211-2ca02bef3141" d="M62.9,2.9h2.84a2.12,2.12,0,0,1,1.66.62A2.6,2.6,0,0,1,68,5.33l0,4.82a3.9,3.9,0,0,1-.53,2.29,2,2,0,0,1-1.79.77H62.9Zm2.44,8.49a.49.49,0,0,0,.56-.55V5.52A2.15,2.15,0,0,0,65.85,5a.38.38,0,0,0-.2-.24,1.28,1.28,0,0,0-.45-.06H65v6.69Z"/><path class="a4d74d31-b276-4baf-9211-2ca02bef3141" d="M69.19,13.21l1-10.31h3.5l1,10.31h-2l-.14-1.67H71.31l-.12,1.67ZM71.47,9.9h.93L72,4.66h-.1Z"/><path class="a4d74d31-b276-4baf-9211-2ca02bef3141" d="M76.54,12.6a2.69,2.69,0,0,1-.67-1.94V5.9a3.68,3.68,0,0,1,.61-2.31,2.28,2.28,0,0,1,1.92-.78,2.65,2.65,0,0,1,1.83.62,2.29,2.29,0,0,1,.7,1.8V7H78.88V5.48a1.24,1.24,0,0,0-.11-.61.41.41,0,0,0-.37-.17.39.39,0,0,0-.38.2,1.17,1.17,0,0,0-.1.56v5.17a1.17,1.17,0,0,0,.12.6.4.4,0,0,0,.36.18q.48,0,.48-.78V8.77H81v2a2.3,2.3,0,0,1-2.6,2.59A2.42,2.42,0,0,1,76.54,12.6Z"/><path class="a4d74d31-b276-4baf-9211-2ca02bef3141" d="M82.28,13.21V2.9h2V13.21Z"/><path class="a4d74d31-b276-4baf-9211-2ca02bef3141" d="M86.35,12.55a3.25,3.25,0,0,1-.65-2.15V5.5a2.81,2.81,0,0,1,.65-2,3,3,0,0,1,3.79,0,2.76,2.76,0,0,1,.65,2v4.9a3.16,3.16,0,0,1-.65,2.15,2.33,2.33,0,0,1-1.89.76A2.38,2.38,0,0,1,86.35,12.55Zm.5-10V1.28L89.64,0V2Zm1.77,8.58a2,2,0,0,0,.09-.67v-5a1.27,1.27,0,0,0-.09-.55.35.35,0,0,0-.36-.21c-.34,0-.52.26-.52.78v5a1.63,1.63,0,0,0,.11.67.39.39,0,0,0,.4.23A.37.37,0,0,0,88.62,11.17Z"/><path class="a4d74d31-b276-4baf-9211-2ca02bef3141" d="M92.25,13.21V2.9h2.13l.94,4.94V2.9h2V13.21h-2l-1-5.16v5.16Z"/><path class="a4d74d31-b276-4baf-9211-2ca02bef3141" d="M102.08,13.21l1-10.31h3.49l1,10.31h-2l-.15-1.67H104.2l-.12,1.67Zm2.28-3.31h.94l-.46-5.24h-.1Z"/><path class="a4d74d31-b276-4baf-9211-2ca02bef3141" d="M112.3,13.21V2.9h2.07v8.56h2.12v1.75Z"/><path class="a4d74d31-b276-4baf-9211-2ca02bef3141" d="M117.68,13.21l1-10.31h3.5l1,10.31h-2l-.14-1.67H119.8l-.12,1.67ZM120,9.9h.94l-.46-5.24h-.1Z"/></g></g></svg>