<svg xmlns="http://www.w3.org/2000/svg" viewBox="0 0 249.02 27.25"><defs><style>.a8ed4e31-7af1-41aa-b65a-b8aa248df422{fill:#f03c46;}.b8287caf-8ab0-43c0-8c00-bdf0e0c344a1{fill:#fff;}.e2f3e0e8-23d9-4d3a-8d7c-ff1a2fec28a1{fill:#e51b45;}.f3bb694d-1a55-4f22-9449-988ab4655b62{fill:#a21e58;}</style></defs><g id="aea59679-aded-4d0c-93c3-f01ba13cc9e1" data-name="Capa 2"><g id="e2a714a5-a19e-4892-8cf1-5158f20ce238" data-name="Layer 1"><path d="M159.63,10.67h-2.09L153.48,4v6.66h-2.09V.54h2.09l4.07,6.68V.54h2.08Z"/><path d="M172.12,5.84a6.16,6.16,0,0,1-.53,2.62,4,4,0,0,1-1.51,1.74,4.47,4.47,0,0,1-4.51,0A4.08,4.08,0,0,1,164,8.48a5.91,5.91,0,0,1-.54-2.59v-.5A6.09,6.09,0,0,1,164,2.76,4,4,0,0,1,165.56,1,4.21,4.21,0,0,1,167.81.4a4.26,4.26,0,0,1,2.25.61,4.08,4.08,0,0,1,1.52,1.75,6,6,0,0,1,.54,2.62ZM170,5.38A4.34,4.34,0,0,0,169.44,3a1.89,1.89,0,0,0-1.63-.83,1.85,1.85,0,0,0-1.62.82,4.15,4.15,0,0,0-.58,2.39v.5a4.3,4.3,0,0,0,.57,2.4,2,2,0,0,0,3.26,0,4.36,4.36,0,0,0,.57-2.4Z"/><path d="M179.33,8.16,181.62.54H184l-3.53,10.13h-2.18L174.73.54h2.32Z"/><path d="M189.44,10.67h-2.08V.54h2.08Z"/><path d="M199.81,6.28h-4V9h4.7v1.68h-6.79V.54h6.78V2.23h-4.69V4.65h4Z"/><path d="M207,.54l2.6,7.35L212.15.54h2.74V10.67H212.8V7.9l.2-4.78-2.73,7.55h-1.43l-2.73-7.54.21,4.77v2.77h-2.09V.54Z"/><path d="M219.11,10.67V.54h3.55a4.68,4.68,0,0,1,2.8.71,2.42,2.42,0,0,1,.95,2.07A2.32,2.32,0,0,1,226,4.63a2.23,2.23,0,0,1-1.07.83,2.12,2.12,0,0,1,1.23.79,2.29,2.29,0,0,1,.45,1.44,2.7,2.7,0,0,1-.93,2.22,4.21,4.21,0,0,1-2.66.76Zm2.09-5.88h1.54c1.06,0,1.58-.44,1.58-1.26a1.15,1.15,0,0,0-.4-1,2,2,0,0,0-1.26-.31H221.2Zm0,1.47V9H223a1.7,1.7,0,0,0,1.15-.35,1.2,1.2,0,0,0,.41-1,1.28,1.28,0,0,0-1.44-1.41Z"/><path d="M234.27,7h-1.66v3.71h-2.08V.54h3.76a4.29,4.29,0,0,1,2.77.8,2.77,2.77,0,0,1,1,2.26,3.11,3.11,0,0,1-.45,1.73,3.12,3.12,0,0,1-1.36,1.11l2.19,4.13v.1h-2.24Zm-1.66-1.69h1.69a1.68,1.68,0,0,0,1.21-.4,1.4,1.4,0,0,0,.43-1.1,1.55,1.55,0,0,0-.4-1.13,1.71,1.71,0,0,0-1.25-.41h-1.68Z"/><path d="M248.05,6.28h-4V9h4.7v1.68H242V.54h6.78V2.23H244V4.65h4Z"/><path class="a8ed4e31-7af1-41aa-b65a-b8aa248df422" d="M157.11,23.35h-3.66l-.7,2.09h-2.21l3.77-10.13h1.93L160,25.44h-2.22ZM154,21.66h2.53l-1.27-3.79Z"/><path class="a8ed4e31-7af1-41aa-b65a-b8aa248df422" d="M169.14,21.73h-1.66v3.71h-2.09V15.31h3.77a4.29,4.29,0,0,1,2.77.8,2.8,2.8,0,0,1,1,2.26,2.85,2.85,0,0,1-1.81,2.84l2.19,4.13v.1H171ZM167.48,20h1.68a1.71,1.71,0,0,0,1.22-.4,1.4,1.4,0,0,0,.43-1.1,1.51,1.51,0,0,0-.41-1.13,1.68,1.68,0,0,0-1.24-.41h-1.68Z"/><path class="a8ed4e31-7af1-41aa-b65a-b8aa248df422" d="M184.94,21.05h-4v2.72h4.71v1.67h-6.79V15.31h6.77V17h-4.69v2.42h4Z"/><path class="a8ed4e31-7af1-41aa-b65a-b8aa248df422" d="M199.45,20.61a6,6,0,0,1-.46,2.46,4.17,4.17,0,0,1-1.27,1.68l1.68,1.32-1.33,1.18-2.15-1.73a4.81,4.81,0,0,1-.77.06,4.19,4.19,0,0,1-2.24-.6,4,4,0,0,1-1.53-1.73,5.77,5.77,0,0,1-.55-2.59v-.5a6.24,6.24,0,0,1,.53-2.63,4,4,0,0,1,1.53-1.75,4.21,4.21,0,0,1,2.25-.6,4.25,4.25,0,0,1,2.25.6,4.08,4.08,0,0,1,1.52,1.75,6,6,0,0,1,.54,2.62Zm-2.11-.46a4.26,4.26,0,0,0-.57-2.42,1.87,1.87,0,0,0-1.63-.83,1.85,1.85,0,0,0-1.62.82,4.15,4.15,0,0,0-.58,2.39v.5a4.3,4.3,0,0,0,.57,2.4,2,2,0,0,0,3.26,0,4.33,4.33,0,0,0,.57-2.4Z"/><path class="a8ed4e31-7af1-41aa-b65a-b8aa248df422" d="M213,15.31V22a3.42,3.42,0,0,1-1,2.63,4,4,0,0,1-2.84,1,4.06,4.06,0,0,1-2.82-.94,3.36,3.36,0,0,1-1.06-2.58V15.31h2.08V22a1.92,1.92,0,0,0,.48,1.45,1.85,1.85,0,0,0,1.32.45c1.17,0,1.77-.61,1.79-1.85V15.31Z"/><path class="a8ed4e31-7af1-41aa-b65a-b8aa248df422" d="M221.37,25.44h-2.08V15.31h2.08Z"/><path class="a8ed4e31-7af1-41aa-b65a-b8aa248df422" d="M229.77,21.87v3.57h-2.09V15.31h3.95a4.57,4.57,0,0,1,2,.42A3.08,3.08,0,0,1,235,16.92a3.29,3.29,0,0,1,.46,1.75,2.89,2.89,0,0,1-1,2.34,4.21,4.21,0,0,1-2.82.86Zm0-1.69h1.86a1.83,1.83,0,0,0,1.26-.39,1.42,1.42,0,0,0,.44-1.11,1.66,1.66,0,0,0-.44-1.2,1.63,1.63,0,0,0-1.21-.48h-1.91Z"/><path class="a8ed4e31-7af1-41aa-b65a-b8aa248df422" d="M246.1,23.35h-3.66l-.7,2.09h-2.21l3.77-10.13h1.93L249,25.44H246.8ZM243,21.66h2.53l-1.27-3.79Z"/><rect width="44.48" height="26.6"/><path class="b8287caf-8ab0-43c0-8c00-bdf0e0c344a1" d="M21.2,18.3v2.82H10.57a7.35,7.35,0,0,1,1-3A20.48,20.48,0,0,1,15,14.3a20.35,20.35,0,0,0,2.51-2.59,3.29,3.29,0,0,0,.63-1.85,2.08,2.08,0,0,0-.55-1.56,2,2,0,0,0-1.5-.55,2,2,0,0,0-1.51.58A2.9,2.9,0,0,0,14,10.22l-3-.3a5,5,0,0,1,1.69-3.59,5.67,5.67,0,0,1,3.56-1.09A5.15,5.15,0,0,1,19.86,6.5,4.15,4.15,0,0,1,21.2,9.64a5.64,5.64,0,0,1-.38,2,8.42,8.42,0,0,1-1.22,2,19.33,19.33,0,0,1-2,2c-1,.88-1.56,1.46-1.82,1.75a6,6,0,0,0-.62.84Z"/><path class="b8287caf-8ab0-43c0-8c00-bdf0e0c344a1" d="M33.37,9.18l-2.93.32a2.16,2.16,0,0,0-.56-1.34,1.66,1.66,0,0,0-1.18-.43,2,2,0,0,0-1.62.87,7.31,7.31,0,0,0-.84,3.59,3.57,3.57,0,0,1,2.82-1.34,4.27,4.27,0,0,1,3.25,1.45A5.23,5.23,0,0,1,33.67,16a5.34,5.34,0,0,1-1.43,3.89,5.18,5.18,0,0,1-7.59-.39c-1-1.24-1.54-3.28-1.54-6.1s.53-5,1.6-6.27a5.2,5.2,0,0,1,4.18-1.92,4.44,4.44,0,0,1,3,1A4.68,4.68,0,0,1,33.37,9.18ZM26.5,15.79a3.43,3.43,0,0,0,.68,2.28,2,2,0,0,0,1.56.81,1.76,1.76,0,0,0,1.4-.66,3.35,3.35,0,0,0,.56-2.16,3.49,3.49,0,0,0-.6-2.26,1.91,1.91,0,0,0-1.51-.72,1.88,1.88,0,0,0-1.48.69A2.92,2.92,0,0,0,26.5,15.79Z"/><rect class="e2f3e0e8-23d9-4d3a-8d7c-ff1a2fec28a1" x="44.8" width="44.48" height="26.6"/><path class="b8287caf-8ab0-43c0-8c00-bdf0e0c344a1" d="M66.05,18.3v2.82H55.42a7.35,7.35,0,0,1,1-3,20.11,20.11,0,0,1,3.41-3.79,21.13,21.13,0,0,0,2.51-2.59A3.28,3.28,0,0,0,63,9.86a2.11,2.11,0,0,0-.54-1.56,2.3,2.3,0,0,0-3,0,2.9,2.9,0,0,0-.64,1.89l-3-.3a5,5,0,0,1,1.69-3.59A5.67,5.67,0,0,1,61,5.24,5.15,5.15,0,0,1,64.71,6.5a4.15,4.15,0,0,1,1.34,3.14,5.44,5.44,0,0,1-.39,2,8.35,8.35,0,0,1-1.21,2,20.44,20.44,0,0,1-2,2c-1,.88-1.57,1.46-1.82,1.75a5.3,5.3,0,0,0-.62.84Z"/><path class="b8287caf-8ab0-43c0-8c00-bdf0e0c344a1" d="M67.86,8.34V5.52H78.23v2.2a15.94,15.94,0,0,0-2.61,3.63,20.54,20.54,0,0,0-2,5,18.2,18.2,0,0,0-.69,4.75H70a20.34,20.34,0,0,1,1.35-6.69,22.32,22.32,0,0,1,3.41-6.09Z"/><rect class="f3bb694d-1a55-4f22-9449-988ab4655b62" x="89.6" width="44.48" height="26.6"/><path class="b8287caf-8ab0-43c0-8c00-bdf0e0c344a1" d="M110.79,18.3v2.82H100.17a7.34,7.34,0,0,1,1-3,20.48,20.48,0,0,1,3.41-3.79,20.7,20.7,0,0,0,2.52-2.59,3.35,3.35,0,0,0,.62-1.85,2.11,2.11,0,0,0-.54-1.56,2.07,2.07,0,0,0-1.51-.55,2,2,0,0,0-1.51.58,3,3,0,0,0-.65,1.89l-3-.3a5,5,0,0,1,1.7-3.59,5.65,5.65,0,0,1,3.56-1.09,5.17,5.17,0,0,1,3.68,1.26,4.14,4.14,0,0,1,1.33,3.14,5.64,5.64,0,0,1-.38,2,8.69,8.69,0,0,1-1.21,2,19.7,19.7,0,0,1-2,2c-.95.88-1.56,1.46-1.82,1.75a6,6,0,0,0-.62.84Z"/><path class="b8287caf-8ab0-43c0-8c00-bdf0e0c344a1" d="M115.32,12.59a3.4,3.4,0,0,1-2.24-3.27,3.81,3.81,0,0,1,1.23-2.92,5.88,5.88,0,0,1,7,0,3.8,3.8,0,0,1,1.25,2.92,3.49,3.49,0,0,1-.57,2,3.69,3.69,0,0,1-1.61,1.31,4.15,4.15,0,0,1,2,1.54,4.08,4.08,0,0,1,.69,2.34,4.77,4.77,0,0,1-1.4,3.56A5.09,5.09,0,0,1,118,21.4a5.64,5.64,0,0,1-3.59-1.13,4.43,4.43,0,0,1-1.69-3.67,4.58,4.58,0,0,1,.63-2.36A4.18,4.18,0,0,1,115.32,12.59Zm.35,3.72a2.78,2.78,0,0,0,.64,2,2.07,2.07,0,0,0,1.6.7,2,2,0,0,0,1.55-.67,2.8,2.8,0,0,0,.62-1.95,2.48,2.48,0,0,0-.63-1.78,2.06,2.06,0,0,0-1.58-.68,1.91,1.91,0,0,0-1.66.77A2.81,2.81,0,0,0,115.67,16.31ZM116,9.53a1.91,1.91,0,0,0,.51,1.42,1.9,1.9,0,0,0,3.26-1.43,1.75,1.75,0,0,0-1.86-1.87,1.91,1.91,0,0,0-1.4.51A1.89,1.89,0,0,0,116,9.53Z"/></g></g></svg>