<svg xmlns="http://www.w3.org/2000/svg" viewBox="0 0 100.41 59.05"><defs><style>.e0316b9d-e841-4e22-b25b-eec62094b52b{fill:#fff;}</style></defs><g id="aacc3a6c-3825-494a-9d82-2d3330717ea0" data-name="Capa 2"><g id="eb6ca0b8-7612-4955-9dc1-e9e0cbbbc053" data-name="Layer 1"><path class="e0316b9d-e841-4e22-b25b-eec62094b52b" d="M.42,0H4.74A3.22,3.22,0,0,1,7.25.93a4.09,4.09,0,0,1,.86,2.75l0,7.32a5.93,5.93,0,0,1-.8,3.48,3.08,3.08,0,0,1-2.71,1.17H.42Zm3.7,12.88A.75.75,0,0,0,5,12V4a2.64,2.64,0,0,0-.08-.79.5.5,0,0,0-.3-.36,1.89,1.89,0,0,0-.67-.09H3.57V12.88Z"/><path class="e0316b9d-e841-4e22-b25b-eec62094b52b" d="M10.31,15.65V0h6.27V3H13.5V6.07h2.95V9H13.5v3.59h3.28v3Z"/><path class="e0316b9d-e841-4e22-b25b-eec62094b52b" d="M24.08,15.65V0h3.13V13h3.23v2.66Z"/><path class="e0316b9d-e841-4e22-b25b-eec62094b52b" d="M32.21,15.65,33.72,0H39l1.5,15.65h-3l-.21-2.53h-1.9l-.18,2.53Zm3.46-5h1.42l-.69-8h-.15Z"/><path class="e0316b9d-e841-4e22-b25b-eec62094b52b" d="M.42,20.26H4.74a3.22,3.22,0,0,1,2.51.93,4.09,4.09,0,0,1,.86,2.75l0,7.33a6,6,0,0,1-.8,3.48,3.1,3.1,0,0,1-2.71,1.16H.42Zm3.7,12.88A.74.74,0,0,0,5,32.31V24.24a2.72,2.72,0,0,0-.08-.8.51.51,0,0,0-.3-.35A1.89,1.89,0,0,0,3.92,23H3.57V33.14Z"/><path class="e0316b9d-e841-4e22-b25b-eec62094b52b" d="M10.31,35.91V20.26h6.27v3H13.5v3h2.95v3H13.5v3.59h3.28v3Z"/><path class="e0316b9d-e841-4e22-b25b-eec62094b52b" d="M19.56,34.86a6.29,6.29,0,0,1-.83-3.61V24.51a4.88,4.88,0,0,1,1-3.28,3.62,3.62,0,0,1,2.88-1.11,4.06,4.06,0,0,1,2.4.62,3.13,3.13,0,0,1,1.19,1.8,11.59,11.59,0,0,1,.33,3H23.43v-1.4a1.85,1.85,0,0,0-.16-.87.56.56,0,0,0-.55-.31c-.6,0-.9.39-.9,1.16v7.58A2.4,2.4,0,0,0,22,32.82a.74.74,0,0,0,1.27,0,2.57,2.57,0,0,0,.18-1.08V29.5h-.84V26.8h3.83v9.11H25.19l-.52-1.31a2.8,2.8,0,0,1-2.59,1.46A2.85,2.85,0,0,1,19.56,34.86Z"/><path class="e0316b9d-e841-4e22-b25b-eec62094b52b" d="M28.64,20.26h4.81a2.77,2.77,0,0,1,1.78.52,2.63,2.63,0,0,1,.84,1.46,10.6,10.6,0,0,1,.22,2.4A5.07,5.07,0,0,1,36,26.71a2,2,0,0,1-1.21,1,1.46,1.46,0,0,1,1,.71A3.16,3.16,0,0,1,36.09,30l0,5.92H33V29.79c0-.44-.08-.71-.25-.84a1.71,1.71,0,0,0-.93-.18v7.14H28.64Zm3.94,5.8c.43,0,.65-.48.65-1.42a6.72,6.72,0,0,0,0-.93.75.75,0,0,0-.2-.43.66.66,0,0,0-.42-.12h-.73v2.9Z"/><path class="e0316b9d-e841-4e22-b25b-eec62094b52b" d="M38,35.91l1.52-15.65h5.3l1.49,15.65h-3l-.22-2.53H41.25l-.18,2.53Zm3.46-5h1.43l-.7-8h-.14Z"/><path class="e0316b9d-e841-4e22-b25b-eec62094b52b" d="M48.35,20.26h4.31a3.23,3.23,0,0,1,2.52.93A4.09,4.09,0,0,1,56,23.94l0,7.33a6.05,6.05,0,0,1-.8,3.48,3.11,3.11,0,0,1-2.72,1.16h-4.2ZM52,33.14a.75.75,0,0,0,.86-.83V24.24a3.11,3.11,0,0,0-.08-.8.56.56,0,0,0-.3-.35,1.91,1.91,0,0,0-.68-.09H51.5V33.14Z"/><path class="e0316b9d-e841-4e22-b25b-eec62094b52b" d="M57.85,35.91l1.52-15.65h5.3l1.49,15.65h-3L63,33.38H61.08l-.18,2.53Zm3.46-5h1.43l-.7-8H61.9Z"/><path class="e0316b9d-e841-4e22-b25b-eec62094b52b" d="M69,35A4.1,4.1,0,0,1,68,32V24.82a5.62,5.62,0,0,1,.92-3.52,3.48,3.48,0,0,1,2.92-1.18,4,4,0,0,1,2.79.95,3.48,3.48,0,0,1,1,2.73v2.69H72.53V24.18a1.83,1.83,0,0,0-.17-.93A.61.61,0,0,0,71.8,23a.6.6,0,0,0-.58.29,1.9,1.9,0,0,0-.15.85V32a1.73,1.73,0,0,0,.18.9.6.6,0,0,0,.55.28c.48,0,.73-.39.73-1.18V29.17h3.15v2.95q0,3.95-4,3.94A3.62,3.62,0,0,1,69,35Z"/><path class="e0316b9d-e841-4e22-b25b-eec62094b52b" d="M77.66,35.91V20.26h3V35.91Z"/><path class="e0316b9d-e841-4e22-b25b-eec62094b52b" d="M83.8,34.9a4.89,4.89,0,0,1-1-3.25V24.2a4.27,4.27,0,0,1,1-3.05,4.54,4.54,0,0,1,5.76,0,4.27,4.27,0,0,1,1,3.05v7.45a4.88,4.88,0,0,1-1,3.26,4.17,4.17,0,0,1-5.76,0Zm.77-15.11v-2l4.22-1.95V19Zm2.67,13a2.82,2.82,0,0,0,.15-1V24.14a1.92,1.92,0,0,0-.14-.82A.52.52,0,0,0,86.7,23c-.52,0-.79.39-.79,1.18v7.63a2.44,2.44,0,0,0,.17,1,.61.61,0,0,0,.6.35A.54.54,0,0,0,87.24,32.82Z"/><path class="e0316b9d-e841-4e22-b25b-eec62094b52b" d="M92.72,35.91V20.26H96l1.43,7.49V20.26h3V35.91H97.35l-1.57-7.83v7.83Z"/><path class="e0316b9d-e841-4e22-b25b-eec62094b52b" d="M0,59.05,1.51,43.4h5.3l1.5,15.65h-3l-.22-2.53H3.22L3,59.05Zm3.46-5H4.88l-.69-8H4Z"/><path class="e0316b9d-e841-4e22-b25b-eec62094b52b" d="M17.56,59.05V43.4h3.13v13h3.23v2.66Z"/><path class="e0316b9d-e841-4e22-b25b-eec62094b52b" d="M26.71,59.05,28.22,43.4h5.3L35,59.05H32l-.21-2.53h-1.9l-.18,2.53Zm3.46-5h1.42l-.69-8h-.15Z"/></g></g></svg>